<svg xmlns="http://www.w3.org/2000/svg" xmlns:xlink="http://www.w3.org/1999/xlink" version="1.2" width="210.00mm" height="297.00mm" viewBox="0 0 66.3898 93.8941">
<style type="text/css">
<![CDATA[
tspan { white-space: pre; }
]]>
</style>
<!-- Page: 1/1 -->
<g transform="translate(18.4184, 5.1546)">
<text font-family="C059" font-size="3.4924" text-anchor="start" fill="currentColor">
<tspan>Au clair de la lune</tspan>
</text>
</g>
<g transform="translate(3.1614, 8.6546)">
<text font-family="IPAexGothic" font-size="2.2000" text-anchor="start" fill="currentColor">
<tspan>4/4 二上り</tspan>
</text>
</g>
<g transform="translate(3.1614, 15.9940)">
<line stroke-linejoin="round" stroke-linecap="round" stroke-width="0.0708" stroke="currentColor" x1="0.0354" y1="0" x2="60.0315" y2="0"/>
</g>
<g transform="translate(3.1614, 14.4940)">
<line stroke-linejoin="round" stroke-linecap="round" stroke-width="0.0708" stroke="currentColor" x1="0.0354" y1="0" x2="60.0315" y2="0"/>
</g>
<g transform="translate(3.1614, 12.9940)">
<line stroke-linejoin="round" stroke-linecap="round" stroke-width="0.0708" stroke="currentColor" x1="0.0354" y1="0" x2="60.0315" y2="0"/>
</g>
<g transform="translate(63.0938, 14.4940)">
<rect x="0.0000" y="-1.5000" width="0.1345" height="3.0000" ry="0.0000" fill="currentColor"/>
</g>
<g transform="translate(21.9418, 14.4940)">
<rect x="0.0000" y="-1.5000" width="0.1345" height="3.0000" ry="0.0000" fill="currentColor"/>
</g>
<g transform="translate(53.0040, 14.4940)">
<rect x="0.0000" y="-1.5000" width="0.1345" height="3.0000" ry="0.0000" fill="currentColor"/>
</g>
<g transform="translate(35.2580, 14.4940)">
<rect x="0.0000" y="-1.5000" width="0.1345" height="3.0000" ry="0.0000" fill="currentColor"/>
</g>
<g transform="translate(47.3607, 18.3495)">
<text font-family="C059" font-size="2.4695" text-anchor="start" fill="currentColor">
<tspan>Pier</tspan>
</text>
</g>
<g color="rgb(100.0000%, 100.0000%, 100.0000%)">
<g transform="translate(49.1001, 14.4940)">
<rect x="0.1100" y="-0.6446" width="1.1002" height="1.2892" ry="0.0000" fill="currentColor"/>
</g>
</g>
<g transform="scale(1.0000, 1.0000)">
<g transform="translate(49.2102, 15.1386)">
<text font-family="IPAexGothic" font-weight="bold" font-size="1.7462" text-anchor="start" fill="currentColor">
<tspan>2</tspan>
</text>
</g>
</g>
<g color="rgb(100.0000%, 100.0000%, 100.0000%)">
<g transform="translate(36.5714, 14.4940)">
<rect x="0.1100" y="-0.6489" width="1.1002" height="1.2977" ry="0.0000" fill="currentColor"/>
</g>
</g>
<g transform="scale(1.0000, 1.0000)">
<g transform="translate(36.6814, 15.1343)">
<text font-family="IPAexGothic" font-weight="bold" font-size="1.7462" text-anchor="start" fill="currentColor">
<tspan>0</tspan>
</text>
</g>
</g>
<g transform="translate(43.9327, 18.3495)">
<text font-family="C059" font-size="2.4695" text-anchor="start" fill="currentColor">
<tspan>mi</tspan>
</text>
</g>
<g color="rgb(100.0000%, 100.0000%, 100.0000%)">
<g transform="translate(44.7616, 14.4940)">
<rect x="0.1100" y="-0.6446" width="1.1002" height="1.2892" ry="0.0000" fill="currentColor"/>
</g>
</g>
<g transform="scale(1.0000, 1.0000)">
<g transform="translate(44.8716, 15.1386)">
<text font-family="IPAexGothic" font-weight="bold" font-size="1.7462" text-anchor="start" fill="currentColor">
<tspan>2</tspan>
</text>
</g>
</g>
<g transform="translate(40.4825, 18.3495)">
<text font-family="C059" font-size="2.4695" text-anchor="start" fill="currentColor">
<tspan>a</tspan>
</text>
</g>
<g color="rgb(100.0000%, 100.0000%, 100.0000%)">
<g transform="translate(40.5053, 14.4940)">
<rect x="-0.2124" y="-0.7473" width="1.7451" height="1.4947" ry="0.0000" fill="currentColor"/>
</g>
</g>
<g transform="scale(1.0000, 1.0000)">
<g transform="translate(40.2928, 15.1578)">
<text font-family="IPAexGothic" font-weight="bold" font-size="1.7462" text-anchor="start" fill="currentColor">
<tspan>♯</tspan>
</text>
</g>
</g>
<g transform="translate(34.6897, 18.3495)">
<text font-family="C059" font-size="2.4695" text-anchor="start" fill="currentColor">
<tspan>Mon</tspan>
</text>
</g>
<g transform="translate(52.7535, 18.3495)">
<rect x="0.0000" y="-0.5120" width="0.6600" height="0.0920" ry="0.0283" fill="currentColor"/>
</g>
<g transform="translate(42.5605, 18.3495)">
<rect x="0.0000" y="-0.5120" width="0.6600" height="0.0920" ry="0.0283" fill="currentColor"/>
</g>
<g transform="translate(26.3890, 18.3495)">
<rect x="0.0000" y="-0.5120" width="0.6600" height="0.0920" ry="0.0283" fill="currentColor"/>
</g>
<g transform="translate(54.0072, 18.3495)">
<text font-family="C059" font-size="2.4695" text-anchor="start" fill="currentColor">
<tspan>rot,</tspan>
</text>
</g>
<g color="rgb(100.0000%, 100.0000%, 100.0000%)">
<g transform="translate(55.3103, 14.4940)">
<rect x="0.1100" y="-0.6489" width="1.1002" height="1.2977" ry="0.0000" fill="currentColor"/>
</g>
</g>
<g transform="scale(1.0000, 1.0000)">
<g transform="translate(55.4204, 15.1343)">
<text font-family="IPAexGothic" font-weight="bold" font-size="1.7462" text-anchor="start" fill="currentColor">
<tspan>0</tspan>
</text>
</g>
</g>
<g color="rgb(100.0000%, 100.0000%, 100.0000%)">
<g transform="translate(9.7845, 14.4940)">
<rect x="0.1100" y="-0.6489" width="1.1002" height="1.2977" ry="0.0000" fill="currentColor"/>
</g>
</g>
<g transform="scale(1.0000, 1.0000)">
<g transform="translate(9.8945, 15.1343)">
<text font-family="IPAexGothic" font-weight="bold" font-size="1.7462" text-anchor="start" fill="currentColor">
<tspan>0</tspan>
</text>
</g>
</g>
<g transform="translate(7.9028, 18.3495)">
<text font-family="C059" font-size="2.4695" text-anchor="start" fill="currentColor">
<tspan>clair</tspan>
</text>
</g>
<g color="rgb(100.0000%, 100.0000%, 100.0000%)">
<g transform="translate(14.1041, 14.4940)">
<rect x="0.1100" y="-0.6489" width="1.1002" height="1.2977" ry="0.0000" fill="currentColor"/>
</g>
</g>
<g transform="scale(1.0000, 1.0000)">
<g transform="translate(14.2141, 15.1343)">
<text font-family="IPAexGothic" font-weight="bold" font-size="1.7462" text-anchor="start" fill="currentColor">
<tspan>0</tspan>
</text>
</g>
</g>
<g transform="translate(13.4364, 18.3495)">
<text font-family="C059" font-size="2.4695" text-anchor="start" fill="currentColor">
<tspan>de</tspan>
</text>
</g>
<g color="rgb(100.0000%, 100.0000%, 100.0000%)">
<g transform="translate(5.1614, 14.4940)">
<rect x="0.1100" y="-0.6489" width="1.1002" height="1.2977" ry="0.0000" fill="currentColor"/>
</g>
</g>
<g transform="scale(1.0000, 1.0000)">
<g transform="translate(5.2714, 15.1343)">
<text font-family="IPAexGothic" font-weight="bold" font-size="1.7462" text-anchor="start" fill="currentColor">
<tspan>0</tspan>
</text>
</g>
</g>
<g transform="translate(3.1481, 14.4940)">
<rect x="0.0000" y="-1.5354" width="0.1133" height="3.0708" ry="0.0354" fill="currentColor"/>
</g>
<g transform="translate(4.1902, 18.3495)">
<text font-family="C059" font-size="2.4695" text-anchor="start" fill="currentColor">
<tspan>Au</tspan>
</text>
</g>
<g color="rgb(100.0000%, 100.0000%, 100.0000%)">
<g transform="translate(18.0379, 14.4940)">
<rect x="0.1100" y="-0.6446" width="1.1002" height="1.2892" ry="0.0000" fill="currentColor"/>
</g>
</g>
<g transform="scale(1.0000, 1.0000)">
<g transform="translate(18.1480, 15.1386)">
<text font-family="IPAexGothic" font-weight="bold" font-size="1.7462" text-anchor="start" fill="currentColor">
<tspan>2</tspan>
</text>
</g>
</g>
<g transform="translate(23.9082, 14.4940)">
<path stroke-width="0.1200" stroke-linejoin="round" stroke-linecap="square" stroke="currentColor" fill="none" d="M2 -0.6700l1 0"/>
</g>
<g transform="translate(22.7606, 18.3495)">
<text font-family="C059" font-size="2.4695" text-anchor="start" fill="currentColor">
<tspan>lu</tspan>
</text>
</g>
<g color="rgb(100.0000%, 100.0000%, 100.0000%)">
<g transform="translate(23.2481, 14.4940)">
<rect x="-0.2124" y="-0.7473" width="1.7451" height="1.4947" ry="0.0000" fill="currentColor"/>
</g>
</g>
<g transform="scale(1.0000, 1.0000)">
<g transform="translate(23.0357, 15.1578)">
<text font-family="IPAexGothic" font-weight="bold" font-size="1.7462" text-anchor="start" fill="currentColor">
<tspan>♯</tspan>
</text>
</g>
</g>
<g color="rgb(100.0000%, 100.0000%, 100.0000%)">
<g transform="translate(29.4293, 14.4940)">
<rect x="0.1100" y="-0.6446" width="1.1002" height="1.2892" ry="0.0000" fill="currentColor"/>
</g>
</g>
<g transform="scale(1.0000, 1.0000)">
<g transform="translate(29.5393, 15.1386)">
<text font-family="IPAexGothic" font-weight="bold" font-size="1.7462" text-anchor="start" fill="currentColor">
<tspan>2</tspan>
</text>
</g>
</g>
<g transform="translate(28.3822, 18.3495)">
<text font-family="C059" font-size="2.4695" text-anchor="start" fill="currentColor">
<tspan>ne,</tspan>
</text>
</g>
<g transform="translate(30.0894, 14.4940)">
<path stroke-width="0.1200" stroke-linejoin="round" stroke-linecap="square" stroke="currentColor" fill="none" d="M2 -0.6700l1 0"/>
</g>
<g transform="translate(17.6263, 18.3495)">
<text font-family="C059" font-size="2.4695" text-anchor="start" fill="currentColor">
<tspan>la</tspan>
</text>
</g>
<g transform="translate(3.1614, 24.8393)">
<line stroke-linejoin="round" stroke-linecap="round" stroke-width="0.0708" stroke="currentColor" x1="0.0354" y1="0" x2="60.0315" y2="0"/>
</g>
<g transform="translate(3.1614, 23.3393)">
<line stroke-linejoin="round" stroke-linecap="round" stroke-width="0.0708" stroke="currentColor" x1="0.0354" y1="0" x2="60.0315" y2="0"/>
</g>
<g transform="translate(3.1614, 21.8393)">
<line stroke-linejoin="round" stroke-linecap="round" stroke-width="0.0708" stroke="currentColor" x1="0.0354" y1="0" x2="60.0315" y2="0"/>
</g>
<g transform="translate(63.0938, 23.3393)">
<rect x="0.0000" y="-1.5000" width="0.1345" height="3.0000" ry="0.0000" fill="currentColor"/>
</g>
<g transform="translate(21.0962, 23.3393)">
<rect x="0.0000" y="-1.5000" width="0.1345" height="3.0000" ry="0.0000" fill="currentColor"/>
</g>
<g transform="translate(34.6233, 23.3393)">
<rect x="0.0000" y="-1.5000" width="0.1345" height="3.0000" ry="0.0000" fill="currentColor"/>
</g>
<g transform="translate(52.8505, 23.3393)">
<rect x="0.0000" y="-1.5000" width="0.1345" height="3.0000" ry="0.0000" fill="currentColor"/>
</g>
<g transform="translate(39.9867, 27.3420)">
<text font-family="C059" font-size="2.4695" text-anchor="start" fill="currentColor">
<tspan>é</tspan>
</text>
</g>
<g color="rgb(100.0000%, 100.0000%, 100.0000%)">
<g transform="translate(44.2567, 23.3393)">
<rect x="0.1100" y="-0.6446" width="1.1002" height="1.2892" ry="0.0000" fill="currentColor"/>
</g>
</g>
<g transform="scale(1.0000, 1.0000)">
<g transform="translate(44.3667, 23.9839)">
<text font-family="IPAexGothic" font-weight="bold" font-size="1.7462" text-anchor="start" fill="currentColor">
<tspan>2</tspan>
</text>
</g>
</g>
<g transform="translate(42.2517, 27.3420)">
<text font-family="C059" font-size="2.4695" text-anchor="start" fill="currentColor">
<tspan>crire</tspan>
</text>
</g>
<g color="rgb(100.0000%, 100.0000%, 100.0000%)">
<g transform="translate(48.8893, 23.3393)">
<rect x="0.1100" y="-0.6446" width="1.1002" height="1.2892" ry="0.0000" fill="currentColor"/>
</g>
</g>
<g transform="scale(1.0000, 1.0000)">
<g transform="translate(48.9993, 23.9839)">
<text font-family="IPAexGothic" font-weight="bold" font-size="1.7462" text-anchor="start" fill="currentColor">
<tspan>2</tspan>
</text>
</g>
</g>
<g transform="translate(48.0319, 27.3420)">
<text font-family="C059" font-size="2.4695" text-anchor="start" fill="currentColor">
<tspan>un</tspan>
</text>
</g>
<g color="rgb(100.0000%, 100.0000%, 100.0000%)">
<g transform="translate(39.9431, 23.3393)">
<rect x="-0.2124" y="-0.7473" width="1.7451" height="1.4947" ry="0.0000" fill="currentColor"/>
</g>
</g>
<g transform="scale(1.0000, 1.0000)">
<g transform="translate(39.7306, 24.0030)">
<text font-family="IPAexGothic" font-weight="bold" font-size="1.7462" text-anchor="start" fill="currentColor">
<tspan>♯</tspan>
</text>
</g>
</g>
<g transform="translate(33.8995, 27.3420)">
<text font-family="C059" font-size="2.4695" text-anchor="start" fill="currentColor">
<tspan>Pour</tspan>
</text>
</g>
<g color="rgb(100.0000%, 100.0000%, 100.0000%)">
<g transform="translate(35.9519, 23.3393)">
<rect x="0.1100" y="-0.6489" width="1.1002" height="1.2977" ry="0.0000" fill="currentColor"/>
</g>
</g>
<g transform="scale(1.0000, 1.0000)">
<g transform="translate(36.0619, 23.9796)">
<text font-family="IPAexGothic" font-weight="bold" font-size="1.7462" text-anchor="start" fill="currentColor">
<tspan>0</tspan>
</text>
</g>
</g>
<g transform="translate(7.9234, 27.3420)">
<rect x="0.0000" y="-0.5120" width="0.6600" height="0.0920" ry="0.0283" fill="currentColor"/>
</g>
<g transform="translate(41.4057, 27.3420)">
<rect x="0.0000" y="-0.5120" width="0.6600" height="0.0920" ry="0.0283" fill="currentColor"/>
</g>
<g transform="translate(25.9585, 27.3420)">
<rect x="0.0000" y="-0.5120" width="0.6600" height="0.0920" ry="0.0283" fill="currentColor"/>
</g>
<g transform="translate(10.9924, 27.3420)">
<rect x="0.0000" y="-0.5120" width="0.6360" height="0.0920" ry="0.0283" fill="currentColor"/>
</g>
<g transform="translate(53.3093, 27.3420)">
<text font-family="C059" font-size="2.4695" text-anchor="start" fill="currentColor">
<tspan>mot.</tspan>
</text>
</g>
<g color="rgb(100.0000%, 100.0000%, 100.0000%)">
<g transform="translate(55.1720, 23.3393)">
<rect x="0.1100" y="-0.6489" width="1.1002" height="1.2977" ry="0.0000" fill="currentColor"/>
</g>
</g>
<g transform="scale(1.0000, 1.0000)">
<g transform="translate(55.2820, 23.9796)">
<text font-family="IPAexGothic" font-weight="bold" font-size="1.7462" text-anchor="start" fill="currentColor">
<tspan>0</tspan>
</text>
</g>
</g>
<g transform="translate(8.7031, 27.3420)">
<text font-family="C059" font-size="2.4695" text-anchor="start" fill="currentColor">
<tspan>te</tspan>
</text>
</g>
<g color="rgb(100.0000%, 100.0000%, 100.0000%)">
<g transform="translate(5.1614, 23.3393)">
<rect x="0.1100" y="-0.6489" width="1.1002" height="1.2977" ry="0.0000" fill="currentColor"/>
</g>
</g>
<g transform="scale(1.0000, 1.0000)">
<g transform="translate(5.2714, 23.9796)">
<text font-family="IPAexGothic" font-weight="bold" font-size="1.7462" text-anchor="start" fill="currentColor">
<tspan>0</tspan>
</text>
</g>
</g>
<g transform="translate(3.8393, 27.3420)">
<text font-family="C059" font-size="2.4695" text-anchor="start" fill="currentColor">
<tspan>Prê</tspan>
</text>
</g>
<g color="rgb(100.0000%, 100.0000%, 100.0000%)">
<g transform="translate(9.1526, 23.3393)">
<rect x="0.1100" y="-0.6489" width="1.1002" height="1.2977" ry="0.0000" fill="currentColor"/>
</g>
</g>
<g transform="scale(1.0000, 1.0000)">
<g transform="translate(9.2626, 23.9796)">
<text font-family="IPAexGothic" font-weight="bold" font-size="1.7462" text-anchor="start" fill="currentColor">
<tspan>0</tspan>
</text>
</g>
</g>
<g color="rgb(100.0000%, 100.0000%, 100.0000%)">
<g transform="translate(13.1438, 23.3393)">
<rect x="0.1100" y="-0.6489" width="1.1002" height="1.2977" ry="0.0000" fill="currentColor"/>
</g>
</g>
<g transform="scale(1.0000, 1.0000)">
<g transform="translate(13.2538, 23.9796)">
<text font-family="IPAexGothic" font-weight="bold" font-size="1.7462" text-anchor="start" fill="currentColor">
<tspan>0</tspan>
</text>
</g>
</g>
<g transform="translate(3.1481, 23.3393)">
<rect x="0.0000" y="-1.5354" width="0.1133" height="3.0708" ry="0.0354" fill="currentColor"/>
</g>
<g transform="translate(11.6984, 27.3420)">
<text font-family="C059" font-size="2.4695" text-anchor="start" fill="currentColor">
<tspan>moi</tspan>
</text>
</g>
<g transform="translate(21.2189, 27.3420)">
<text font-family="C059" font-size="2.4695" text-anchor="start" fill="currentColor">
<tspan>plu</tspan>
</text>
</g>
<g transform="translate(23.0778, 23.3393)">
<path stroke-width="0.1200" stroke-linejoin="round" stroke-linecap="square" stroke="currentColor" fill="none" d="M2 -0.6700l1 0"/>
</g>
<g color="rgb(100.0000%, 100.0000%, 100.0000%)">
<g transform="translate(28.6967, 23.3393)">
<rect x="0.1100" y="-0.6446" width="1.1002" height="1.2892" ry="0.0000" fill="currentColor"/>
</g>
</g>
<g transform="scale(1.0000, 1.0000)">
<g transform="translate(28.8067, 23.9839)">
<text font-family="IPAexGothic" font-weight="bold" font-size="1.7462" text-anchor="start" fill="currentColor">
<tspan>2</tspan>
</text>
</g>
</g>
<g transform="translate(27.6402, 27.3420)">
<text font-family="C059" font-size="2.4695" text-anchor="start" fill="currentColor">
<tspan>me</tspan>
</text>
</g>
<g transform="translate(29.3568, 23.3393)">
<path stroke-width="0.1200" stroke-linejoin="round" stroke-linecap="square" stroke="currentColor" fill="none" d="M2 -0.6700l1 0"/>
</g>
<g transform="translate(16.6286, 27.3420)">
<text font-family="C059" font-size="2.4695" text-anchor="start" fill="currentColor">
<tspan>ta</tspan>
</text>
</g>
<g color="rgb(100.0000%, 100.0000%, 100.0000%)">
<g transform="translate(17.1350, 23.3393)">
<rect x="0.1100" y="-0.6446" width="1.1002" height="1.2892" ry="0.0000" fill="currentColor"/>
</g>
</g>
<g transform="scale(1.0000, 1.0000)">
<g transform="translate(17.2450, 23.9839)">
<text font-family="IPAexGothic" font-weight="bold" font-size="1.7462" text-anchor="start" fill="currentColor">
<tspan>2</tspan>
</text>
</g>
</g>
<g color="rgb(100.0000%, 100.0000%, 100.0000%)">
<g transform="translate(22.4177, 23.3393)">
<rect x="-0.2124" y="-0.7473" width="1.7451" height="1.4947" ry="0.0000" fill="currentColor"/>
</g>
</g>
<g transform="scale(1.0000, 1.0000)">
<g transform="translate(22.2053, 24.0030)">
<text font-family="IPAexGothic" font-weight="bold" font-size="1.7462" text-anchor="start" fill="currentColor">
<tspan>♯</tspan>
</text>
</g>
</g>
<g transform="translate(3.1614, 33.8762)">
<line stroke-linejoin="round" stroke-linecap="round" stroke-width="0.0708" stroke="currentColor" x1="0.0354" y1="0" x2="60.0315" y2="0"/>
</g>
<g transform="translate(3.1614, 32.3762)">
<line stroke-linejoin="round" stroke-linecap="round" stroke-width="0.0708" stroke="currentColor" x1="0.0354" y1="0" x2="60.0315" y2="0"/>
</g>
<g transform="translate(3.1614, 30.8762)">
<line stroke-linejoin="round" stroke-linecap="round" stroke-width="0.0708" stroke="currentColor" x1="0.0354" y1="0" x2="60.0315" y2="0"/>
</g>
<g transform="translate(63.0938, 32.3762)">
<rect x="0.0000" y="-1.5000" width="0.1345" height="3.0000" ry="0.0000" fill="currentColor"/>
</g>
<g transform="translate(24.0037, 32.3762)">
<rect x="0.0000" y="-1.5000" width="0.1345" height="3.0000" ry="0.0000" fill="currentColor"/>
</g>
<g transform="translate(36.1248, 32.3762)">
<rect x="0.0000" y="-1.5000" width="0.1345" height="3.0000" ry="0.0000" fill="currentColor"/>
</g>
<g transform="translate(54.1309, 32.3762)">
<rect x="0.0000" y="-1.5000" width="0.1345" height="3.0000" ry="0.0000" fill="currentColor"/>
</g>
<g transform="translate(39.7365, 37.2174)">
<text font-family="C059" font-size="2.4695" text-anchor="start" fill="currentColor">
<tspan>n’ai</tspan>
</text>
</g>
<g color="rgb(100.0000%, 100.0000%, 100.0000%)">
<g transform="translate(46.0895, 33.8762)">
<rect x="0.1100" y="-0.6365" width="1.1002" height="1.2730" ry="0.0000" fill="currentColor"/>
</g>
</g>
<g transform="scale(1.0000, 1.0000)">
<g transform="translate(46.1995, 34.5042)">
<text font-family="IPAexGothic" font-weight="bold" font-size="1.7462" text-anchor="start" fill="currentColor">
<tspan>5</tspan>
</text>
</g>
</g>
<g transform="translate(44.3216, 37.2174)">
<text font-family="C059" font-size="2.4695" text-anchor="start" fill="currentColor">
<tspan>plus</tspan>
</text>
</g>
<g color="rgb(100.0000%, 100.0000%, 100.0000%)">
<g transform="translate(50.2952, 33.8762)">
<rect x="-0.2124" y="-0.7473" width="1.7451" height="1.4947" ry="0.0000" fill="currentColor"/>
</g>
</g>
<g transform="scale(1.0000, 1.0000)">
<g transform="translate(50.0828, 34.5400)">
<text font-family="IPAexGothic" font-weight="bold" font-size="1.7462" text-anchor="start" fill="currentColor">
<tspan>♯</tspan>
</text>
</g>
</g>
<g transform="translate(49.6276, 37.2174)">
<text font-family="C059" font-size="2.4695" text-anchor="start" fill="currentColor">
<tspan>de</tspan>
</text>
</g>
<g color="rgb(100.0000%, 100.0000%, 100.0000%)">
<g transform="translate(41.1439, 32.3762)">
<rect x="0.1100" y="-0.6489" width="1.1002" height="1.2977" ry="0.0000" fill="currentColor"/>
</g>
</g>
<g transform="scale(1.0000, 1.0000)">
<g transform="translate(41.2540, 33.0166)">
<text font-family="IPAexGothic" font-weight="bold" font-size="1.7462" text-anchor="start" fill="currentColor">
<tspan>0</tspan>
</text>
</g>
</g>
<g transform="translate(36.6878, 37.2174)">
<text font-family="C059" font-size="2.4695" text-anchor="start" fill="currentColor">
<tspan>Je</tspan>
</text>
</g>
<g color="rgb(100.0000%, 100.0000%, 100.0000%)">
<g transform="translate(37.3270, 32.3762)">
<rect x="0.1100" y="-0.6446" width="1.1002" height="1.2892" ry="0.0000" fill="currentColor"/>
</g>
</g>
<g transform="scale(1.0000, 1.0000)">
<g transform="translate(37.4371, 33.0208)">
<text font-family="IPAexGothic" font-weight="bold" font-size="1.7462" text-anchor="start" fill="currentColor">
<tspan>2</tspan>
</text>
</g>
</g>
<g transform="translate(28.6728, 37.2174)">
<rect x="0.0000" y="-0.5120" width="0.6600" height="0.0920" ry="0.0283" fill="currentColor"/>
</g>
<g transform="translate(54.5483, 37.2174)">
<text font-family="C059" font-size="2.4695" text-anchor="start" fill="currentColor">
<tspan>feu ;</tspan>
</text>
</g>
<g color="rgb(100.0000%, 100.0000%, 100.0000%)">
<g transform="translate(56.3257, 33.8762)">
<rect x="0.1100" y="-0.6446" width="1.1002" height="1.2892" ry="0.0000" fill="currentColor"/>
</g>
</g>
<g transform="scale(1.0000, 1.0000)">
<g transform="translate(56.4357, 34.5208)">
<text font-family="IPAexGothic" font-weight="bold" font-size="1.7462" text-anchor="start" fill="currentColor">
<tspan>2</tspan>
</text>
</g>
</g>
<g transform="translate(8.1210, 37.2174)">
<text font-family="C059" font-size="2.4695" text-anchor="start" fill="currentColor">
<tspan>chan</tspan>
</text>
</g>
<g color="rgb(100.0000%, 100.0000%, 100.0000%)">
<g transform="translate(5.1614, 32.3762)">
<rect x="0.1100" y="-0.6446" width="1.1002" height="1.2892" ry="0.0000" fill="currentColor"/>
</g>
</g>
<g transform="scale(1.0000, 1.0000)">
<g transform="translate(5.2714, 33.0208)">
<text font-family="IPAexGothic" font-weight="bold" font-size="1.7462" text-anchor="start" fill="currentColor">
<tspan>2</tspan>
</text>
</g>
</g>
<g transform="translate(3.9721, 37.2174)">
<text font-family="C059" font-size="2.4695" text-anchor="start" fill="currentColor">
<tspan>Ma</tspan>
</text>
</g>
<g color="rgb(100.0000%, 100.0000%, 100.0000%)">
<g transform="translate(10.1923, 32.3762)">
<rect x="0.1100" y="-0.6446" width="1.1002" height="1.2892" ry="0.0000" fill="currentColor"/>
</g>
</g>
<g transform="scale(1.0000, 1.0000)">
<g transform="translate(10.3023, 33.0208)">
<text font-family="IPAexGothic" font-weight="bold" font-size="1.7462" text-anchor="start" fill="currentColor">
<tspan>2</tspan>
</text>
</g>
</g>
<g color="rgb(100.0000%, 100.0000%, 100.0000%)">
<g transform="translate(15.7173, 32.3762)">
<rect x="0.1100" y="-0.6446" width="1.1002" height="1.2892" ry="0.0000" fill="currentColor"/>
</g>
</g>
<g transform="scale(1.0000, 1.0000)">
<g transform="translate(15.8273, 33.0208)">
<text font-family="IPAexGothic" font-weight="bold" font-size="1.7462" text-anchor="start" fill="currentColor">
<tspan>2</tspan>
</text>
</g>
</g>
<g transform="translate(3.1481, 32.3762)">
<rect x="0.0000" y="-1.5354" width="0.1133" height="3.0708" ry="0.0354" fill="currentColor"/>
</g>
<g transform="translate(13.6839, 37.2174)">
<text font-family="C059" font-size="2.4695" text-anchor="start" fill="currentColor">
<tspan>delle</tspan>
</text>
</g>
<g transform="translate(23.5919, 37.2174)">
<text font-family="C059" font-size="2.4695" text-anchor="start" fill="currentColor">
<tspan>mor</tspan>
</text>
</g>
<g transform="translate(25.8587, 32.3762)">
<path stroke-width="0.1200" stroke-linejoin="round" stroke-linecap="square" stroke="currentColor" fill="none" d="M2 -0.6700l1 0"/>
</g>
<g color="rgb(100.0000%, 100.0000%, 100.0000%)">
<g transform="translate(30.6617, 33.8762)">
<rect x="-0.2124" y="-0.7473" width="1.7451" height="1.4947" ry="0.0000" fill="currentColor"/>
</g>
</g>
<g transform="scale(1.0000, 1.0000)">
<g transform="translate(30.4492, 34.5400)">
<text font-family="IPAexGothic" font-weight="bold" font-size="1.7462" text-anchor="start" fill="currentColor">
<tspan>♯</tspan>
</text>
</g>
</g>
<g transform="translate(29.8802, 37.2174)">
<text font-family="C059" font-size="2.4695" text-anchor="start" fill="currentColor">
<tspan>te,</tspan>
</text>
</g>
<g transform="translate(31.3218, 32.3762)">
<path stroke-width="0.1200" stroke-linejoin="round" stroke-linecap="square" stroke="currentColor" fill="none" d="M2 -0.6700l1 0"/>
</g>
<g transform="translate(19.5209, 37.2174)">
<text font-family="C059" font-size="2.4695" text-anchor="start" fill="currentColor">
<tspan>est</tspan>
</text>
</g>
<g color="rgb(100.0000%, 100.0000%, 100.0000%)">
<g transform="translate(20.5206, 32.3762)">
<rect x="0.1100" y="-0.6446" width="1.1002" height="1.2892" ry="0.0000" fill="currentColor"/>
</g>
</g>
<g transform="scale(1.0000, 1.0000)">
<g transform="translate(20.6306, 33.0208)">
<text font-family="IPAexGothic" font-weight="bold" font-size="1.7462" text-anchor="start" fill="currentColor">
<tspan>2</tspan>
</text>
</g>
</g>
<g color="rgb(100.0000%, 100.0000%, 100.0000%)">
<g transform="translate(25.1986, 33.8762)">
<rect x="-0.2124" y="-0.7473" width="1.7451" height="1.4947" ry="0.0000" fill="currentColor"/>
</g>
</g>
<g transform="scale(1.0000, 1.0000)">
<g transform="translate(24.9861, 34.5400)">
<text font-family="IPAexGothic" font-weight="bold" font-size="1.7462" text-anchor="start" fill="currentColor">
<tspan>♯</tspan>
</text>
</g>
</g>
<g transform="translate(3.1614, 43.7517)">
<line stroke-linejoin="round" stroke-linecap="round" stroke-width="0.0708" stroke="currentColor" x1="0.0354" y1="0" x2="60.0315" y2="0"/>
</g>
<g transform="translate(3.1614, 42.2517)">
<line stroke-linejoin="round" stroke-linecap="round" stroke-width="0.0708" stroke="currentColor" x1="0.0354" y1="0" x2="60.0315" y2="0"/>
</g>
<g transform="translate(3.1614, 40.7517)">
<line stroke-linejoin="round" stroke-linecap="round" stroke-width="0.0708" stroke="currentColor" x1="0.0354" y1="0" x2="60.0315" y2="0"/>
</g>
<g transform="translate(63.0938, 42.2517)">
<rect x="0.0000" y="-1.5000" width="0.1345" height="3.0000" ry="0.0000" fill="currentColor"/>
</g>
<g transform="translate(20.9065, 42.2517)">
<rect x="0.0000" y="-1.5000" width="0.1345" height="3.0000" ry="0.0000" fill="currentColor"/>
</g>
<g transform="translate(34.1345, 42.2517)">
<rect x="0.0000" y="-1.5000" width="0.1345" height="3.0000" ry="0.0000" fill="currentColor"/>
</g>
<g transform="translate(53.0683, 42.2517)">
<rect x="0.0000" y="-1.5000" width="0.1345" height="3.0000" ry="0.0000" fill="currentColor"/>
</g>
<g transform="translate(39.2641, 47.7517)">
<text font-family="C059" font-size="2.4695" text-anchor="start" fill="currentColor">
<tspan>l’a</tspan>
</text>
</g>
<g color="rgb(100.0000%, 100.0000%, 100.0000%)">
<g transform="translate(44.3851, 42.2517)">
<rect x="0.1100" y="-0.6446" width="1.1002" height="1.2892" ry="0.0000" fill="currentColor"/>
</g>
</g>
<g transform="scale(1.0000, 1.0000)">
<g transform="translate(44.4951, 42.8963)">
<text font-family="IPAexGothic" font-weight="bold" font-size="1.7462" text-anchor="start" fill="currentColor">
<tspan>2</tspan>
</text>
</g>
</g>
<g transform="translate(42.0197, 47.7517)">
<text font-family="C059" font-size="2.4695" text-anchor="start" fill="currentColor">
<tspan>mour</tspan>
</text>
</g>
<g color="rgb(100.0000%, 100.0000%, 100.0000%)">
<g transform="translate(49.1884, 42.2517)">
<rect x="0.1100" y="-0.6446" width="1.1002" height="1.2892" ry="0.0000" fill="currentColor"/>
</g>
</g>
<g transform="scale(1.0000, 1.0000)">
<g transform="translate(49.2984, 42.8963)">
<text font-family="IPAexGothic" font-weight="bold" font-size="1.7462" text-anchor="start" fill="currentColor">
<tspan>2</tspan>
</text>
</g>
</g>
<g transform="translate(48.5207, 47.7517)">
<text font-family="C059" font-size="2.4695" text-anchor="start" fill="currentColor">
<tspan>de</tspan>
</text>
</g>
<g color="rgb(100.0000%, 100.0000%, 100.0000%)">
<g transform="translate(39.9318, 42.2517)">
<rect x="-0.2124" y="-0.7473" width="1.7451" height="1.4947" ry="0.0000" fill="currentColor"/>
</g>
</g>
<g transform="scale(1.0000, 1.0000)">
<g transform="translate(39.7194, 42.9154)">
<text font-family="IPAexGothic" font-weight="bold" font-size="1.7462" text-anchor="start" fill="currentColor">
<tspan>♯</tspan>
</text>
</g>
</g>
<g transform="translate(33.3891, 47.7517)">
<text font-family="C059" font-size="2.4695" text-anchor="start" fill="currentColor">
<tspan>Pour</tspan>
</text>
</g>
<g color="rgb(100.0000%, 100.0000%, 100.0000%)">
<g transform="translate(35.4415, 42.2517)">
<rect x="0.1100" y="-0.6489" width="1.1002" height="1.2977" ry="0.0000" fill="currentColor"/>
</g>
</g>
<g transform="scale(1.0000, 1.0000)">
<g transform="translate(35.5515, 42.8920)">
<text font-family="IPAexGothic" font-weight="bold" font-size="1.7462" text-anchor="start" fill="currentColor">
<tspan>0</tspan>
</text>
</g>
</g>
<g transform="translate(7.5648, 47.7517)">
<rect x="0.0000" y="-0.5120" width="0.3000" height="0.0920" ry="0.0283" fill="currentColor"/>
</g>
<g transform="translate(25.8249, 47.7517)">
<rect x="0.0000" y="-0.5120" width="0.6600" height="0.0920" ry="0.0283" fill="currentColor"/>
</g>
<g transform="translate(52.9744, 47.7517)">
<text font-family="C059" font-size="2.4695" text-anchor="start" fill="currentColor">
<tspan>Dieu.</tspan>
</text>
</g>
<g color="rgb(100.0000%, 100.0000%, 100.0000%)">
<g transform="translate(55.3682, 42.2517)">
<rect x="0.1100" y="-0.6489" width="1.1002" height="1.2977" ry="0.0000" fill="currentColor"/>
</g>
</g>
<g transform="scale(1.0000, 1.0000)">
<g transform="translate(55.4782, 42.8920)">
<text font-family="IPAexGothic" font-weight="bold" font-size="1.7462" text-anchor="start" fill="currentColor">
<tspan>0</tspan>
</text>
</g>
</g>
<g color="rgb(100.0000%, 100.0000%, 100.0000%)">
<g transform="translate(5.1614, 42.2517)">
<rect x="0.1100" y="-0.6489" width="1.1002" height="1.2977" ry="0.0000" fill="currentColor"/>
</g>
</g>
<g transform="scale(1.0000, 1.0000)">
<g transform="translate(5.2714, 42.8920)">
<text font-family="IPAexGothic" font-weight="bold" font-size="1.7462" text-anchor="start" fill="currentColor">
<tspan>0</tspan>
</text>
</g>
</g>
<g transform="translate(4.1049, 47.7517)">
<text font-family="C059" font-size="2.4695" text-anchor="start" fill="currentColor">
<tspan>Ou</tspan>
</text>
</g>
<g color="rgb(100.0000%, 100.0000%, 100.0000%)">
<g transform="translate(9.0713, 42.2517)">
<rect x="0.1100" y="-0.6489" width="1.1002" height="1.2977" ry="0.0000" fill="currentColor"/>
</g>
</g>
<g transform="scale(1.0000, 1.0000)">
<g transform="translate(9.1813, 42.8920)">
<text font-family="IPAexGothic" font-weight="bold" font-size="1.7462" text-anchor="start" fill="currentColor">
<tspan>0</tspan>
</text>
</g>
</g>
<g transform="translate(7.8915, 47.7517)">
<text font-family="C059" font-size="2.4695" text-anchor="start" fill="currentColor">
<tspan>vre</tspan>
</text>
</g>
<g color="rgb(100.0000%, 100.0000%, 100.0000%)">
<g transform="translate(13.1168, 42.2517)">
<rect x="0.1100" y="-0.6489" width="1.1002" height="1.2977" ry="0.0000" fill="currentColor"/>
</g>
</g>
<g transform="scale(1.0000, 1.0000)">
<g transform="translate(13.2268, 42.8920)">
<text font-family="IPAexGothic" font-weight="bold" font-size="1.7462" text-anchor="start" fill="currentColor">
<tspan>0</tspan>
</text>
</g>
</g>
<g transform="translate(3.1481, 42.2517)">
<rect x="0.0000" y="-1.5354" width="0.1133" height="3.0708" ry="0.0354" fill="currentColor"/>
</g>
<g transform="translate(11.6714, 47.7517)">
<text font-family="C059" font-size="2.4695" text-anchor="start" fill="currentColor">
<tspan>moi</tspan>
</text>
</g>
<g transform="translate(22.8666, 42.2517)">
<path stroke-width="0.1200" stroke-linejoin="round" stroke-linecap="square" stroke="currentColor" fill="none" d="M2 -0.6700l1 0"/>
</g>
<g transform="translate(20.9887, 47.7517)">
<text font-family="C059" font-size="2.4695" text-anchor="start" fill="currentColor">
<tspan>por</tspan>
</text>
</g>
<g color="rgb(100.0000%, 100.0000%, 100.0000%)">
<g transform="translate(22.2065, 42.2517)">
<rect x="-0.2124" y="-0.7473" width="1.7451" height="1.4947" ry="0.0000" fill="currentColor"/>
</g>
</g>
<g transform="scale(1.0000, 1.0000)">
<g transform="translate(21.9941, 42.9154)">
<text font-family="IPAexGothic" font-weight="bold" font-size="1.7462" text-anchor="start" fill="currentColor">
<tspan>♯</tspan>
</text>
</g>
</g>
<g color="rgb(100.0000%, 100.0000%, 100.0000%)">
<g transform="translate(28.3467, 42.2517)">
<rect x="0.1100" y="-0.6446" width="1.1002" height="1.2892" ry="0.0000" fill="currentColor"/>
</g>
</g>
<g transform="scale(1.0000, 1.0000)">
<g transform="translate(28.4567, 42.8963)">
<text font-family="IPAexGothic" font-weight="bold" font-size="1.7462" text-anchor="start" fill="currentColor">
<tspan>2</tspan>
</text>
</g>
</g>
<g transform="translate(27.5652, 47.7517)">
<text font-family="C059" font-size="2.4695" text-anchor="start" fill="currentColor">
<tspan>te,</tspan>
</text>
</g>
<g transform="translate(16.5202, 47.7517)">
<text font-family="C059" font-size="2.4695" text-anchor="start" fill="currentColor">
<tspan>ta</tspan>
</text>
</g>
<g transform="translate(29.0068, 42.2517)">
<path stroke-width="0.1200" stroke-linejoin="round" stroke-linecap="square" stroke="currentColor" fill="none" d="M2 -0.6700l1 0"/>
</g>
<g color="rgb(100.0000%, 100.0000%, 100.0000%)">
<g transform="translate(17.0266, 42.2517)">
<rect x="0.1100" y="-0.6446" width="1.1002" height="1.2892" ry="0.0000" fill="currentColor"/>
</g>
</g>
<g transform="scale(1.0000, 1.0000)">
<g transform="translate(17.1367, 42.8963)">
<text font-family="IPAexGothic" font-weight="bold" font-size="1.7462" text-anchor="start" fill="currentColor">
<tspan>2</tspan>
</text>
</g>
</g>
</svg>
