<svg xmlns="http://www.w3.org/2000/svg" xmlns:xlink="http://www.w3.org/1999/xlink" version="1.2" width="210.00mm" height="297.00mm" viewBox="0 0 56.9055 80.4807">
<style type="text/css">
<![CDATA[
tspan { white-space: pre; }
]]>
</style>
<!-- Page: 1/1 -->
<g transform="translate(16.8278, 4.4312)">
<text font-family="IPAexGothic" font-weight="bold" font-size="2.7720" text-anchor="start" fill="currentColor">
<tspan>Au clair de la lune</tspan>
</text>
</g>
<g transform="translate(2.7098, 7.9312)">
<text font-family="IPAexGothic" font-size="1.7463" text-anchor="start" fill="currentColor">
<tspan>4/4 二上り</tspan>
</text>
</g>
<g transform="translate(2.7098, 15.2053)">
<line stroke-linejoin="round" stroke-linecap="round" stroke-width="0.0656" stroke="currentColor" x1="0.0328" y1="0" x2="51.4532" y2="0"/>
</g>
<g transform="translate(2.7098, 13.7053)">
<line stroke-linejoin="round" stroke-linecap="round" stroke-width="0.0656" stroke="currentColor" x1="0.0328" y1="0" x2="51.4532" y2="0"/>
</g>
<g transform="translate(2.7098, 12.2053)">
<line stroke-linejoin="round" stroke-linecap="round" stroke-width="0.0656" stroke="currentColor" x1="0.0328" y1="0" x2="51.4532" y2="0"/>
</g>
<g transform="translate(54.0711, 13.7053)">
<rect x="0.0000" y="-1.5000" width="0.1246" height="3.0000" ry="0.0000" fill="currentColor"/>
</g>
<g transform="translate(18.7963, 13.7053)">
<rect x="0.0000" y="-1.5000" width="0.1246" height="3.0000" ry="0.0000" fill="currentColor"/>
</g>
<g transform="translate(45.3952, 13.7053)">
<rect x="0.0000" y="-1.5000" width="0.1246" height="3.0000" ry="0.0000" fill="currentColor"/>
</g>
<g transform="translate(30.1728, 13.7053)">
<rect x="0.0000" y="-1.5000" width="0.1246" height="3.0000" ry="0.0000" fill="currentColor"/>
</g>
<g transform="translate(40.7728, 17.1827)">
<text font-family="C059" font-size="1.9601" text-anchor="start" fill="currentColor">
<tspan>Pier</tspan>
</text>
</g>
<g color="rgb(100.0000%, 100.0000%, 100.0000%)">
<g transform="translate(42.0117, 13.7053)">
<rect x="0.1106" y="-0.6446" width="1.1056" height="1.2892" ry="0.0000" fill="currentColor"/>
</g>
</g>
<g transform="scale(1.0000, 1.0000)">
<g transform="translate(42.1223, 14.3499)">
<text font-family="IPAexGothic" font-weight="bold" font-size="1.7463" text-anchor="start" fill="currentColor">
<tspan>2</tspan>
</text>
</g>
</g>
<g color="rgb(100.0000%, 100.0000%, 100.0000%)">
<g transform="translate(31.3368, 13.7053)">
<rect x="0.1106" y="-0.6489" width="1.1056" height="1.2978" ry="0.0000" fill="currentColor"/>
</g>
</g>
<g transform="scale(1.0000, 1.0000)">
<g transform="translate(31.4473, 14.3456)">
<text font-family="IPAexGothic" font-weight="bold" font-size="1.7463" text-anchor="start" fill="currentColor">
<tspan>0</tspan>
</text>
</g>
</g>
<g transform="translate(37.9653, 17.1827)">
<text font-family="C059" font-size="1.9601" text-anchor="start" fill="currentColor">
<tspan>mi</tspan>
</text>
</g>
<g color="rgb(100.0000%, 100.0000%, 100.0000%)">
<g transform="translate(38.4807, 13.7053)">
<rect x="0.1106" y="-0.6446" width="1.1056" height="1.2892" ry="0.0000" fill="currentColor"/>
</g>
</g>
<g transform="scale(1.0000, 1.0000)">
<g transform="translate(38.5913, 14.3499)">
<text font-family="IPAexGothic" font-weight="bold" font-size="1.7463" text-anchor="start" fill="currentColor">
<tspan>2</tspan>
</text>
</g>
</g>
<g transform="translate(34.8689, 17.1827)">
<text font-family="C059" font-size="1.9601" text-anchor="start" fill="currentColor">
<tspan>a</tspan>
</text>
</g>
<g color="rgb(100.0000%, 100.0000%, 100.0000%)">
<g transform="translate(34.7502, 13.7053)">
<rect x="-0.2065" y="-0.7474" width="1.7397" height="1.4947" ry="0.0000" fill="currentColor"/>
</g>
</g>
<g transform="scale(1.0000, 1.0000)">
<g transform="translate(34.5437, 14.3691)">
<text font-family="IPAexGothic" font-weight="bold" font-size="1.7463" text-anchor="start" fill="currentColor">
<tspan>♯</tspan>
</text>
</g>
</g>
<g transform="translate(29.9841, 17.1827)">
<text font-family="C059" font-size="1.9601" text-anchor="start" fill="currentColor">
<tspan>Mon</tspan>
</text>
</g>
<g transform="translate(45.2819, 17.1827)">
<rect x="0.0000" y="-0.5053" width="0.6600" height="0.0853" ry="0.0262" fill="currentColor"/>
</g>
<g transform="translate(36.6318, 17.1827)">
<rect x="0.0000" y="-0.5053" width="0.6600" height="0.0853" ry="0.0262" fill="currentColor"/>
</g>
<g transform="translate(22.7006, 17.1827)">
<rect x="0.0000" y="-0.5053" width="0.6600" height="0.0853" ry="0.0262" fill="currentColor"/>
</g>
<g transform="translate(46.6465, 17.1827)">
<text font-family="C059" font-size="1.9601" text-anchor="start" fill="currentColor">
<tspan>rot,</tspan>
</text>
</g>
<g color="rgb(100.0000%, 100.0000%, 100.0000%)">
<g transform="translate(47.5521, 13.7053)">
<rect x="0.1106" y="-0.6489" width="1.1056" height="1.2978" ry="0.0000" fill="currentColor"/>
</g>
</g>
<g transform="scale(1.0000, 1.0000)">
<g transform="translate(47.6626, 14.3456)">
<text font-family="IPAexGothic" font-weight="bold" font-size="1.7463" text-anchor="start" fill="currentColor">
<tspan>0</tspan>
</text>
</g>
</g>
<g color="rgb(100.0000%, 100.0000%, 100.0000%)">
<g transform="translate(8.4766, 13.7053)">
<rect x="0.1106" y="-0.6489" width="1.1056" height="1.2978" ry="0.0000" fill="currentColor"/>
</g>
</g>
<g transform="scale(1.0000, 1.0000)">
<g transform="translate(8.5871, 14.3456)">
<text font-family="IPAexGothic" font-weight="bold" font-size="1.7463" text-anchor="start" fill="currentColor">
<tspan>0</tspan>
</text>
</g>
</g>
<g transform="translate(7.1157, 17.1827)">
<text font-family="C059" font-size="1.9601" text-anchor="start" fill="currentColor">
<tspan>clair</tspan>
</text>
</g>
<g color="rgb(100.0000%, 100.0000%, 100.0000%)">
<g transform="translate(11.9995, 13.7053)">
<rect x="0.1106" y="-0.6489" width="1.1056" height="1.2978" ry="0.0000" fill="currentColor"/>
</g>
</g>
<g transform="scale(1.0000, 1.0000)">
<g transform="translate(12.1100, 14.3456)">
<text font-family="IPAexGothic" font-weight="bold" font-size="1.7463" text-anchor="start" fill="currentColor">
<tspan>0</tspan>
</text>
</g>
</g>
<g transform="translate(11.6141, 17.1827)">
<text font-family="C059" font-size="1.9601" text-anchor="start" fill="currentColor">
<tspan>de</tspan>
</text>
</g>
<g color="rgb(100.0000%, 100.0000%, 100.0000%)">
<g transform="translate(4.7098, 13.7053)">
<rect x="0.1106" y="-0.6489" width="1.1056" height="1.2978" ry="0.0000" fill="currentColor"/>
</g>
</g>
<g transform="scale(1.0000, 1.0000)">
<g transform="translate(4.8203, 14.3456)">
<text font-family="IPAexGothic" font-weight="bold" font-size="1.7463" text-anchor="start" fill="currentColor">
<tspan>0</tspan>
</text>
</g>
</g>
<g transform="translate(2.7049, 13.7053)">
<rect x="0.0000" y="-1.5328" width="0.1049" height="3.0656" ry="0.0328" fill="currentColor"/>
</g>
<g transform="translate(4.0806, 17.1827)">
<text font-family="C059" font-size="1.9601" text-anchor="start" fill="currentColor">
<tspan>Au</tspan>
</text>
</g>
<g color="rgb(100.0000%, 100.0000%, 100.0000%)">
<g transform="translate(15.4129, 13.7053)">
<rect x="0.1106" y="-0.6446" width="1.1056" height="1.2892" ry="0.0000" fill="currentColor"/>
</g>
</g>
<g transform="scale(1.0000, 1.0000)">
<g transform="translate(15.5235, 14.3499)">
<text font-family="IPAexGothic" font-weight="bold" font-size="1.7463" text-anchor="start" fill="currentColor">
<tspan>2</tspan>
</text>
</g>
</g>
<g transform="translate(20.6166, 13.7053)">
<path stroke-width="0.1200" stroke-linejoin="round" stroke-linecap="square" stroke="currentColor" fill="none" d="M2 -0.6700l1 0"/>
</g>
<g transform="translate(19.7061, 17.1827)">
<text font-family="C059" font-size="1.9601" text-anchor="start" fill="currentColor">
<tspan>lu</tspan>
</text>
</g>
<g color="rgb(100.0000%, 100.0000%, 100.0000%)">
<g transform="translate(19.9532, 13.7053)">
<rect x="-0.2065" y="-0.7474" width="1.7397" height="1.4947" ry="0.0000" fill="currentColor"/>
</g>
</g>
<g transform="scale(1.0000, 1.0000)">
<g transform="translate(19.7468, 14.3691)">
<text font-family="IPAexGothic" font-weight="bold" font-size="1.7463" text-anchor="start" fill="currentColor">
<tspan>♯</tspan>
</text>
</g>
</g>
<g color="rgb(100.0000%, 100.0000%, 100.0000%)">
<g transform="translate(25.2365, 13.7053)">
<rect x="0.1106" y="-0.6446" width="1.1056" height="1.2892" ry="0.0000" fill="currentColor"/>
</g>
</g>
<g transform="scale(1.0000, 1.0000)">
<g transform="translate(25.3471, 14.3499)">
<text font-family="IPAexGothic" font-weight="bold" font-size="1.7463" text-anchor="start" fill="currentColor">
<tspan>2</tspan>
</text>
</g>
</g>
<g transform="translate(24.5342, 17.1827)">
<text font-family="C059" font-size="1.9601" text-anchor="start" fill="currentColor">
<tspan>ne,</tspan>
</text>
</g>
<g transform="translate(25.8999, 13.7053)">
<path stroke-width="0.1200" stroke-linejoin="round" stroke-linecap="square" stroke="currentColor" fill="none" d="M2 -0.6700l1 0"/>
</g>
<g transform="translate(15.2227, 17.1827)">
<text font-family="C059" font-size="1.9601" text-anchor="start" fill="currentColor">
<tspan>la</tspan>
</text>
</g>
<g transform="translate(2.7098, 23.5761)">
<line stroke-linejoin="round" stroke-linecap="round" stroke-width="0.0656" stroke="currentColor" x1="0.0328" y1="0" x2="51.4532" y2="0"/>
</g>
<g transform="translate(2.7098, 22.0761)">
<line stroke-linejoin="round" stroke-linecap="round" stroke-width="0.0656" stroke="currentColor" x1="0.0328" y1="0" x2="51.4532" y2="0"/>
</g>
<g transform="translate(2.7098, 20.5761)">
<line stroke-linejoin="round" stroke-linecap="round" stroke-width="0.0656" stroke="currentColor" x1="0.0328" y1="0" x2="51.4532" y2="0"/>
</g>
<g transform="translate(54.0711, 22.0761)">
<rect x="0.0000" y="-1.5000" width="0.1246" height="3.0000" ry="0.0000" fill="currentColor"/>
</g>
<g transform="translate(18.3978, 22.0761)">
<rect x="0.0000" y="-1.5000" width="0.1246" height="3.0000" ry="0.0000" fill="currentColor"/>
</g>
<g transform="translate(29.8334, 22.0761)">
<rect x="0.0000" y="-1.5000" width="0.1246" height="3.0000" ry="0.0000" fill="currentColor"/>
</g>
<g transform="translate(45.3521, 22.0761)">
<rect x="0.0000" y="-1.5000" width="0.1246" height="3.0000" ry="0.0000" fill="currentColor"/>
</g>
<g transform="translate(34.6067, 25.7042)">
<text font-family="C059" font-size="1.9601" text-anchor="start" fill="currentColor">
<tspan>é</tspan>
</text>
</g>
<g color="rgb(100.0000%, 100.0000%, 100.0000%)">
<g transform="translate(38.1777, 22.0761)">
<rect x="0.1106" y="-0.6446" width="1.1056" height="1.2892" ry="0.0000" fill="currentColor"/>
</g>
</g>
<g transform="scale(1.0000, 1.0000)">
<g transform="translate(38.2883, 22.7207)">
<text font-family="IPAexGothic" font-weight="bold" font-size="1.7463" text-anchor="start" fill="currentColor">
<tspan>2</tspan>
</text>
</g>
</g>
<g transform="translate(36.7193, 25.7042)">
<text font-family="C059" font-size="1.9601" text-anchor="start" fill="currentColor">
<tspan>crire</tspan>
</text>
</g>
<g color="rgb(100.0000%, 100.0000%, 100.0000%)">
<g transform="translate(41.9526, 22.0761)">
<rect x="0.1106" y="-0.6446" width="1.1056" height="1.2892" ry="0.0000" fill="currentColor"/>
</g>
</g>
<g transform="scale(1.0000, 1.0000)">
<g transform="translate(42.0632, 22.7207)">
<text font-family="IPAexGothic" font-weight="bold" font-size="1.7463" text-anchor="start" fill="currentColor">
<tspan>2</tspan>
</text>
</g>
</g>
<g transform="translate(41.4128, 25.7042)">
<text font-family="C059" font-size="1.9601" text-anchor="start" fill="currentColor">
<tspan>un</tspan>
</text>
</g>
<g color="rgb(100.0000%, 100.0000%, 100.0000%)">
<g transform="translate(34.4311, 22.0761)">
<rect x="-0.2065" y="-0.7474" width="1.7397" height="1.4947" ry="0.0000" fill="currentColor"/>
</g>
</g>
<g transform="scale(1.0000, 1.0000)">
<g transform="translate(34.2247, 22.7399)">
<text font-family="IPAexGothic" font-weight="bold" font-size="1.7463" text-anchor="start" fill="currentColor">
<tspan>♯</tspan>
</text>
</g>
</g>
<g transform="translate(29.5107, 25.7042)">
<text font-family="C059" font-size="1.9601" text-anchor="start" fill="currentColor">
<tspan>Pour</tspan>
</text>
</g>
<g color="rgb(100.0000%, 100.0000%, 100.0000%)">
<g transform="translate(31.0016, 22.0761)">
<rect x="0.1106" y="-0.6489" width="1.1056" height="1.2978" ry="0.0000" fill="currentColor"/>
</g>
</g>
<g transform="scale(1.0000, 1.0000)">
<g transform="translate(31.1122, 22.7164)">
<text font-family="IPAexGothic" font-weight="bold" font-size="1.7463" text-anchor="start" fill="currentColor">
<tspan>0</tspan>
</text>
</g>
</g>
<g transform="translate(7.1034, 25.7042)">
<rect x="0.0000" y="-0.5053" width="0.6600" height="0.0853" ry="0.0262" fill="currentColor"/>
</g>
<g transform="translate(35.8208, 25.7042)">
<rect x="0.0000" y="-0.5053" width="0.6600" height="0.0853" ry="0.0262" fill="currentColor"/>
</g>
<g transform="translate(22.6046, 25.7042)">
<rect x="0.0000" y="-0.5053" width="0.6600" height="0.0853" ry="0.0262" fill="currentColor"/>
</g>
<g transform="translate(9.7931, 25.7042)">
<rect x="0.0000" y="-0.5053" width="0.6600" height="0.0853" ry="0.0262" fill="currentColor"/>
</g>
<g transform="translate(46.1687, 25.7042)">
<text font-family="C059" font-size="1.9601" text-anchor="start" fill="currentColor">
<tspan>mot.</tspan>
</text>
</g>
<g color="rgb(100.0000%, 100.0000%, 100.0000%)">
<g transform="translate(47.5133, 22.0761)">
<rect x="0.1106" y="-0.6489" width="1.1056" height="1.2978" ry="0.0000" fill="currentColor"/>
</g>
</g>
<g transform="scale(1.0000, 1.0000)">
<g transform="translate(47.6238, 22.7164)">
<text font-family="IPAexGothic" font-weight="bold" font-size="1.7463" text-anchor="start" fill="currentColor">
<tspan>0</tspan>
</text>
</g>
</g>
<g transform="translate(7.9247, 25.7042)">
<text font-family="C059" font-size="1.9601" text-anchor="start" fill="currentColor">
<tspan>te</tspan>
</text>
</g>
<g color="rgb(100.0000%, 100.0000%, 100.0000%)">
<g transform="translate(4.7098, 22.0761)">
<rect x="0.1106" y="-0.6489" width="1.1056" height="1.2978" ry="0.0000" fill="currentColor"/>
</g>
</g>
<g transform="scale(1.0000, 1.0000)">
<g transform="translate(4.8203, 22.7164)">
<text font-family="IPAexGothic" font-weight="bold" font-size="1.7463" text-anchor="start" fill="currentColor">
<tspan>0</tspan>
</text>
</g>
</g>
<g transform="translate(3.8042, 25.7042)">
<text font-family="C059" font-size="1.9601" text-anchor="start" fill="currentColor">
<tspan>Prê</tspan>
</text>
</g>
<g color="rgb(100.0000%, 100.0000%, 100.0000%)">
<g transform="translate(8.1393, 22.0761)">
<rect x="0.1106" y="-0.6489" width="1.1056" height="1.2978" ry="0.0000" fill="currentColor"/>
</g>
</g>
<g transform="scale(1.0000, 1.0000)">
<g transform="translate(8.2499, 22.7164)">
<text font-family="IPAexGothic" font-weight="bold" font-size="1.7463" text-anchor="start" fill="currentColor">
<tspan>0</tspan>
</text>
</g>
</g>
<g color="rgb(100.0000%, 100.0000%, 100.0000%)">
<g transform="translate(11.5688, 22.0761)">
<rect x="0.1106" y="-0.6489" width="1.1056" height="1.2978" ry="0.0000" fill="currentColor"/>
</g>
</g>
<g transform="scale(1.0000, 1.0000)">
<g transform="translate(11.6794, 22.7164)">
<text font-family="IPAexGothic" font-weight="bold" font-size="1.7463" text-anchor="start" fill="currentColor">
<tspan>0</tspan>
</text>
</g>
</g>
<g transform="translate(2.7049, 22.0761)">
<rect x="0.0000" y="-1.5328" width="0.1049" height="3.0656" ry="0.0328" fill="currentColor"/>
</g>
<g transform="translate(10.5656, 25.7042)">
<text font-family="C059" font-size="1.9601" text-anchor="start" fill="currentColor">
<tspan>moi</tspan>
</text>
</g>
<g transform="translate(18.7509, 25.7042)">
<text font-family="C059" font-size="1.9601" text-anchor="start" fill="currentColor">
<tspan>plu</tspan>
</text>
</g>
<g transform="translate(20.2223, 22.0761)">
<path stroke-width="0.1200" stroke-linejoin="round" stroke-linecap="square" stroke="currentColor" fill="none" d="M2 -0.6700l1 0"/>
</g>
<g color="rgb(100.0000%, 100.0000%, 100.0000%)">
<g transform="translate(24.8697, 22.0761)">
<rect x="0.1106" y="-0.6446" width="1.1056" height="1.2892" ry="0.0000" fill="currentColor"/>
</g>
</g>
<g transform="scale(1.0000, 1.0000)">
<g transform="translate(24.9803, 22.7207)">
<text font-family="IPAexGothic" font-weight="bold" font-size="1.7463" text-anchor="start" fill="currentColor">
<tspan>2</tspan>
</text>
</g>
</g>
<g transform="translate(24.1755, 25.7042)">
<text font-family="C059" font-size="1.9601" text-anchor="start" fill="currentColor">
<tspan>me</tspan>
</text>
</g>
<g transform="translate(25.5331, 22.0761)">
<path stroke-width="0.1200" stroke-linejoin="round" stroke-linecap="square" stroke="currentColor" fill="none" d="M2 -0.6700l1 0"/>
</g>
<g transform="translate(14.7349, 25.7042)">
<text font-family="C059" font-size="1.9601" text-anchor="start" fill="currentColor">
<tspan>ta</tspan>
</text>
</g>
<g color="rgb(100.0000%, 100.0000%, 100.0000%)">
<g transform="translate(14.9983, 22.0761)">
<rect x="0.1106" y="-0.6446" width="1.1056" height="1.2892" ry="0.0000" fill="currentColor"/>
</g>
</g>
<g transform="scale(1.0000, 1.0000)">
<g transform="translate(15.1089, 22.7207)">
<text font-family="IPAexGothic" font-weight="bold" font-size="1.7463" text-anchor="start" fill="currentColor">
<tspan>2</tspan>
</text>
</g>
</g>
<g color="rgb(100.0000%, 100.0000%, 100.0000%)">
<g transform="translate(19.5590, 22.0761)">
<rect x="-0.2065" y="-0.7474" width="1.7397" height="1.4947" ry="0.0000" fill="currentColor"/>
</g>
</g>
<g transform="scale(1.0000, 1.0000)">
<g transform="translate(19.3525, 22.7399)">
<text font-family="IPAexGothic" font-weight="bold" font-size="1.7463" text-anchor="start" fill="currentColor">
<tspan>♯</tspan>
</text>
</g>
</g>
<g transform="translate(2.7098, 32.1329)">
<line stroke-linejoin="round" stroke-linecap="round" stroke-width="0.0656" stroke="currentColor" x1="0.0328" y1="0" x2="51.4532" y2="0"/>
</g>
<g transform="translate(2.7098, 30.6329)">
<line stroke-linejoin="round" stroke-linecap="round" stroke-width="0.0656" stroke="currentColor" x1="0.0328" y1="0" x2="51.4532" y2="0"/>
</g>
<g transform="translate(2.7098, 29.1329)">
<line stroke-linejoin="round" stroke-linecap="round" stroke-width="0.0656" stroke="currentColor" x1="0.0328" y1="0" x2="51.4532" y2="0"/>
</g>
<g transform="translate(54.0711, 30.6329)">
<rect x="0.0000" y="-1.5000" width="0.1246" height="3.0000" ry="0.0000" fill="currentColor"/>
</g>
<g transform="translate(20.2079, 30.6329)">
<rect x="0.0000" y="-1.5000" width="0.1246" height="3.0000" ry="0.0000" fill="currentColor"/>
</g>
<g transform="translate(30.9515, 30.6329)">
<rect x="0.0000" y="-1.5000" width="0.1246" height="3.0000" ry="0.0000" fill="currentColor"/>
</g>
<g transform="translate(46.1087, 30.6329)">
<rect x="0.0000" y="-1.5000" width="0.1246" height="3.0000" ry="0.0000" fill="currentColor"/>
</g>
<g transform="translate(34.2054, 35.2597)">
<text font-family="C059" font-size="1.9601" text-anchor="start" fill="currentColor">
<tspan>n’ai</tspan>
</text>
</g>
<g color="rgb(100.0000%, 100.0000%, 100.0000%)">
<g transform="translate(39.2192, 32.1329)">
<rect x="0.1106" y="-0.6365" width="1.1056" height="1.2731" ry="0.0000" fill="currentColor"/>
</g>
</g>
<g transform="scale(1.0000, 1.0000)">
<g transform="translate(39.3298, 32.7609)">
<text font-family="IPAexGothic" font-weight="bold" font-size="1.7463" text-anchor="start" fill="currentColor">
<tspan>5</tspan>
</text>
</g>
</g>
<g transform="translate(37.9559, 35.2597)">
<text font-family="C059" font-size="1.9601" text-anchor="start" fill="currentColor">
<tspan>plus</tspan>
</text>
</g>
<g color="rgb(100.0000%, 100.0000%, 100.0000%)">
<g transform="translate(42.6446, 32.1329)">
<rect x="-0.2065" y="-0.7474" width="1.7397" height="1.4947" ry="0.0000" fill="currentColor"/>
</g>
</g>
<g transform="scale(1.0000, 1.0000)">
<g transform="translate(42.4381, 32.7967)">
<text font-family="IPAexGothic" font-weight="bold" font-size="1.7463" text-anchor="start" fill="currentColor">
<tspan>♯</tspan>
</text>
</g>
</g>
<g transform="translate(42.2592, 35.2597)">
<text font-family="C059" font-size="1.9601" text-anchor="start" fill="currentColor">
<tspan>de</tspan>
</text>
</g>
<g color="rgb(100.0000%, 100.0000%, 100.0000%)">
<g transform="translate(35.1923, 30.6329)">
<rect x="0.1106" y="-0.6489" width="1.1056" height="1.2978" ry="0.0000" fill="currentColor"/>
</g>
</g>
<g transform="scale(1.0000, 1.0000)">
<g transform="translate(35.3029, 31.2733)">
<text font-family="IPAexGothic" font-weight="bold" font-size="1.7463" text-anchor="start" fill="currentColor">
<tspan>0</tspan>
</text>
</g>
</g>
<g transform="translate(31.6762, 35.2597)">
<text font-family="C059" font-size="1.9601" text-anchor="start" fill="currentColor">
<tspan>Je</tspan>
</text>
</g>
<g color="rgb(100.0000%, 100.0000%, 100.0000%)">
<g transform="translate(32.0453, 30.6329)">
<rect x="0.1106" y="-0.6446" width="1.1056" height="1.2892" ry="0.0000" fill="currentColor"/>
</g>
</g>
<g transform="scale(1.0000, 1.0000)">
<g transform="translate(32.1558, 31.2775)">
<text font-family="IPAexGothic" font-weight="bold" font-size="1.7463" text-anchor="start" fill="currentColor">
<tspan>2</tspan>
</text>
</g>
</g>
<g transform="translate(24.3630, 35.2597)">
<rect x="0.0000" y="-0.5053" width="0.6600" height="0.0853" ry="0.0262" fill="currentColor"/>
</g>
<g transform="translate(46.9154, 35.2597)">
<text font-family="C059" font-size="1.9601" text-anchor="start" fill="currentColor">
<tspan>feu ;</tspan>
</text>
</g>
<g color="rgb(100.0000%, 100.0000%, 100.0000%)">
<g transform="translate(48.1950, 32.1329)">
<rect x="0.1106" y="-0.6446" width="1.1056" height="1.2892" ry="0.0000" fill="currentColor"/>
</g>
</g>
<g transform="scale(1.0000, 1.0000)">
<g transform="translate(48.3055, 32.7775)">
<text font-family="IPAexGothic" font-weight="bold" font-size="1.7463" text-anchor="start" fill="currentColor">
<tspan>2</tspan>
</text>
</g>
</g>
<g transform="translate(7.2946, 35.2597)">
<text font-family="C059" font-size="1.9601" text-anchor="start" fill="currentColor">
<tspan>chan</tspan>
</text>
</g>
<g color="rgb(100.0000%, 100.0000%, 100.0000%)">
<g transform="translate(4.7098, 30.6329)">
<rect x="0.1106" y="-0.6446" width="1.1056" height="1.2892" ry="0.0000" fill="currentColor"/>
</g>
</g>
<g transform="scale(1.0000, 1.0000)">
<g transform="translate(4.8203, 31.2775)">
<text font-family="IPAexGothic" font-weight="bold" font-size="1.7463" text-anchor="start" fill="currentColor">
<tspan>2</tspan>
</text>
</g>
</g>
<g transform="translate(3.9017, 35.2597)">
<text font-family="C059" font-size="1.9601" text-anchor="start" fill="currentColor">
<tspan>Ma</tspan>
</text>
</g>
<g color="rgb(100.0000%, 100.0000%, 100.0000%)">
<g transform="translate(8.8017, 30.6329)">
<rect x="0.1106" y="-0.6446" width="1.1056" height="1.2892" ry="0.0000" fill="currentColor"/>
</g>
</g>
<g transform="scale(1.0000, 1.0000)">
<g transform="translate(8.9123, 31.2775)">
<text font-family="IPAexGothic" font-weight="bold" font-size="1.7463" text-anchor="start" fill="currentColor">
<tspan>2</tspan>
</text>
</g>
</g>
<g color="rgb(100.0000%, 100.0000%, 100.0000%)">
<g transform="translate(13.2022, 30.6329)">
<rect x="0.1106" y="-0.6446" width="1.1056" height="1.2892" ry="0.0000" fill="currentColor"/>
</g>
</g>
<g transform="scale(1.0000, 1.0000)">
<g transform="translate(13.3127, 31.2775)">
<text font-family="IPAexGothic" font-weight="bold" font-size="1.7463" text-anchor="start" fill="currentColor">
<tspan>2</tspan>
</text>
</g>
</g>
<g transform="translate(2.7049, 30.6329)">
<rect x="0.0000" y="-1.5328" width="0.1049" height="3.0656" ry="0.0328" fill="currentColor"/>
</g>
<g transform="translate(11.7356, 35.2597)">
<text font-family="C059" font-size="1.9601" text-anchor="start" fill="currentColor">
<tspan>delle</tspan>
</text>
</g>
<g transform="translate(20.1610, 35.2597)">
<text font-family="C059" font-size="1.9601" text-anchor="start" fill="currentColor">
<tspan>mor</tspan>
</text>
</g>
<g transform="translate(21.9576, 30.6329)">
<path stroke-width="0.1200" stroke-linejoin="round" stroke-linecap="square" stroke="currentColor" fill="none" d="M2 -0.6700l1 0"/>
</g>
<g color="rgb(100.0000%, 100.0000%, 100.0000%)">
<g transform="translate(26.1229, 32.1329)">
<rect x="-0.2065" y="-0.7474" width="1.7397" height="1.4947" ry="0.0000" fill="currentColor"/>
</g>
</g>
<g transform="scale(1.0000, 1.0000)">
<g transform="translate(25.9164, 32.7967)">
<text font-family="IPAexGothic" font-weight="bold" font-size="1.7463" text-anchor="start" fill="currentColor">
<tspan>♯</tspan>
</text>
</g>
</g>
<g transform="translate(25.6319, 35.2597)">
<text font-family="C059" font-size="1.9601" text-anchor="start" fill="currentColor">
<tspan>te,</tspan>
</text>
</g>
<g transform="translate(26.7863, 30.6329)">
<path stroke-width="0.1200" stroke-linejoin="round" stroke-linecap="square" stroke="currentColor" fill="none" d="M2 -0.6700l1 0"/>
</g>
<g transform="translate(16.4454, 35.2597)">
<text font-family="C059" font-size="1.9601" text-anchor="start" fill="currentColor">
<tspan>est</tspan>
</text>
</g>
<g color="rgb(100.0000%, 100.0000%, 100.0000%)">
<g transform="translate(17.0909, 30.6329)">
<rect x="0.1106" y="-0.6446" width="1.1056" height="1.2892" ry="0.0000" fill="currentColor"/>
</g>
</g>
<g transform="scale(1.0000, 1.0000)">
<g transform="translate(17.2014, 31.2775)">
<text font-family="IPAexGothic" font-weight="bold" font-size="1.7463" text-anchor="start" fill="currentColor">
<tspan>2</tspan>
</text>
</g>
</g>
<g color="rgb(100.0000%, 100.0000%, 100.0000%)">
<g transform="translate(21.2943, 32.1329)">
<rect x="-0.2065" y="-0.7474" width="1.7397" height="1.4947" ry="0.0000" fill="currentColor"/>
</g>
</g>
<g transform="scale(1.0000, 1.0000)">
<g transform="translate(21.0878, 32.7967)">
<text font-family="IPAexGothic" font-weight="bold" font-size="1.7463" text-anchor="start" fill="currentColor">
<tspan>♯</tspan>
</text>
</g>
</g>
<g transform="translate(2.7098, 41.6884)">
<line stroke-linejoin="round" stroke-linecap="round" stroke-width="0.0656" stroke="currentColor" x1="0.0328" y1="0" x2="51.4532" y2="0"/>
</g>
<g transform="translate(2.7098, 40.1884)">
<line stroke-linejoin="round" stroke-linecap="round" stroke-width="0.0656" stroke="currentColor" x1="0.0328" y1="0" x2="51.4532" y2="0"/>
</g>
<g transform="translate(2.7098, 38.6884)">
<line stroke-linejoin="round" stroke-linecap="round" stroke-width="0.0656" stroke="currentColor" x1="0.0328" y1="0" x2="51.4532" y2="0"/>
</g>
<g transform="translate(54.0711, 40.1884)">
<rect x="0.0000" y="-1.5000" width="0.1246" height="3.0000" ry="0.0000" fill="currentColor"/>
</g>
<g transform="translate(18.2858, 40.1884)">
<rect x="0.0000" y="-1.5000" width="0.1246" height="3.0000" ry="0.0000" fill="currentColor"/>
</g>
<g transform="translate(29.6183, 40.1884)">
<rect x="0.0000" y="-1.5000" width="0.1246" height="3.0000" ry="0.0000" fill="currentColor"/>
</g>
<g transform="translate(45.4271, 40.1884)">
<rect x="0.0000" y="-1.5000" width="0.1246" height="3.0000" ry="0.0000" fill="currentColor"/>
</g>
<g transform="translate(34.0468, 45.6884)">
<text font-family="C059" font-size="1.9601" text-anchor="start" fill="currentColor">
<tspan>l’a</tspan>
</text>
</g>
<g color="rgb(100.0000%, 100.0000%, 100.0000%)">
<g transform="translate(38.1588, 40.1884)">
<rect x="0.1106" y="-0.6446" width="1.1056" height="1.2892" ry="0.0000" fill="currentColor"/>
</g>
</g>
<g transform="scale(1.0000, 1.0000)">
<g transform="translate(38.2693, 40.8330)">
<text font-family="IPAexGothic" font-weight="bold" font-size="1.7463" text-anchor="start" fill="currentColor">
<tspan>2</tspan>
</text>
</g>
</g>
<g transform="translate(36.4240, 45.6884)">
<text font-family="C059" font-size="1.9601" text-anchor="start" fill="currentColor">
<tspan>mour</tspan>
</text>
</g>
<g color="rgb(100.0000%, 100.0000%, 100.0000%)">
<g transform="translate(42.0556, 40.1884)">
<rect x="0.1106" y="-0.6446" width="1.1056" height="1.2892" ry="0.0000" fill="currentColor"/>
</g>
</g>
<g transform="scale(1.0000, 1.0000)">
<g transform="translate(42.1662, 40.8330)">
<text font-family="IPAexGothic" font-weight="bold" font-size="1.7463" text-anchor="start" fill="currentColor">
<tspan>2</tspan>
</text>
</g>
</g>
<g transform="translate(41.6703, 45.6884)">
<text font-family="C059" font-size="1.9601" text-anchor="start" fill="currentColor">
<tspan>de</tspan>
</text>
</g>
<g color="rgb(100.0000%, 100.0000%, 100.0000%)">
<g transform="translate(34.4402, 40.1884)">
<rect x="-0.2065" y="-0.7474" width="1.7397" height="1.4947" ry="0.0000" fill="currentColor"/>
</g>
</g>
<g transform="scale(1.0000, 1.0000)">
<g transform="translate(34.2338, 40.8522)">
<text font-family="IPAexGothic" font-weight="bold" font-size="1.7463" text-anchor="start" fill="currentColor">
<tspan>♯</tspan>
</text>
</g>
</g>
<g transform="translate(29.2882, 45.6884)">
<text font-family="C059" font-size="1.9601" text-anchor="start" fill="currentColor">
<tspan>Pour</tspan>
</text>
</g>
<g color="rgb(100.0000%, 100.0000%, 100.0000%)">
<g transform="translate(30.7791, 40.1884)">
<rect x="0.1106" y="-0.6489" width="1.1056" height="1.2978" ry="0.0000" fill="currentColor"/>
</g>
</g>
<g transform="scale(1.0000, 1.0000)">
<g transform="translate(30.8897, 40.8288)">
<text font-family="IPAexGothic" font-weight="bold" font-size="1.7463" text-anchor="start" fill="currentColor">
<tspan>0</tspan>
</text>
</g>
</g>
<g transform="translate(6.8089, 45.6884)">
<rect x="0.0000" y="-0.5053" width="0.4325" height="0.0853" ry="0.0262" fill="currentColor"/>
</g>
<g transform="translate(22.5710, 45.6884)">
<rect x="0.0000" y="-0.5053" width="0.6600" height="0.0853" ry="0.0262" fill="currentColor"/>
</g>
<g transform="translate(45.8136, 45.6884)">
<text font-family="C059" font-size="1.9601" text-anchor="start" fill="currentColor">
<tspan>Dieu.</tspan>
</text>
</g>
<g color="rgb(100.0000%, 100.0000%, 100.0000%)">
<g transform="translate(47.5809, 40.1884)">
<rect x="0.1106" y="-0.6489" width="1.1056" height="1.2978" ry="0.0000" fill="currentColor"/>
</g>
</g>
<g transform="scale(1.0000, 1.0000)">
<g transform="translate(47.6914, 40.8288)">
<text font-family="IPAexGothic" font-weight="bold" font-size="1.7463" text-anchor="start" fill="currentColor">
<tspan>0</tspan>
</text>
</g>
</g>
<g color="rgb(100.0000%, 100.0000%, 100.0000%)">
<g transform="translate(4.7098, 40.1884)">
<rect x="0.1106" y="-0.6489" width="1.1056" height="1.2978" ry="0.0000" fill="currentColor"/>
</g>
</g>
<g transform="scale(1.0000, 1.0000)">
<g transform="translate(4.8203, 40.8288)">
<text font-family="IPAexGothic" font-weight="bold" font-size="1.7463" text-anchor="start" fill="currentColor">
<tspan>0</tspan>
</text>
</g>
</g>
<g transform="translate(4.0074, 45.6884)">
<text font-family="C059" font-size="1.9601" text-anchor="start" fill="currentColor">
<tspan>Ou</tspan>
</text>
</g>
<g color="rgb(100.0000%, 100.0000%, 100.0000%)">
<g transform="translate(8.1113, 40.1884)">
<rect x="0.1106" y="-0.6489" width="1.1056" height="1.2978" ry="0.0000" fill="currentColor"/>
</g>
</g>
<g transform="scale(1.0000, 1.0000)">
<g transform="translate(8.2218, 40.8288)">
<text font-family="IPAexGothic" font-weight="bold" font-size="1.7463" text-anchor="start" fill="currentColor">
<tspan>0</tspan>
</text>
</g>
</g>
<g transform="translate(7.3114, 45.6884)">
<text font-family="C059" font-size="1.9601" text-anchor="start" fill="currentColor">
<tspan>vre</tspan>
</text>
</g>
<g color="rgb(100.0000%, 100.0000%, 100.0000%)">
<g transform="translate(11.5128, 40.1884)">
<rect x="0.1106" y="-0.6489" width="1.1056" height="1.2978" ry="0.0000" fill="currentColor"/>
</g>
</g>
<g transform="scale(1.0000, 1.0000)">
<g transform="translate(11.6233, 40.8288)">
<text font-family="IPAexGothic" font-weight="bold" font-size="1.7463" text-anchor="start" fill="currentColor">
<tspan>0</tspan>
</text>
</g>
</g>
<g transform="translate(2.7049, 40.1884)">
<rect x="0.0000" y="-1.5328" width="0.1049" height="3.0656" ry="0.0328" fill="currentColor"/>
</g>
<g transform="translate(10.5096, 45.6884)">
<text font-family="C059" font-size="1.9601" text-anchor="start" fill="currentColor">
<tspan>moi</tspan>
</text>
</g>
<g transform="translate(20.1029, 40.1884)">
<path stroke-width="0.1200" stroke-linejoin="round" stroke-linecap="square" stroke="currentColor" fill="none" d="M2 -0.6700l1 0"/>
</g>
<g transform="translate(18.6152, 45.6884)">
<text font-family="C059" font-size="1.9601" text-anchor="start" fill="currentColor">
<tspan>por</tspan>
</text>
</g>
<g color="rgb(100.0000%, 100.0000%, 100.0000%)">
<g transform="translate(19.4395, 40.1884)">
<rect x="-0.2065" y="-0.7474" width="1.7397" height="1.4947" ry="0.0000" fill="currentColor"/>
</g>
</g>
<g transform="scale(1.0000, 1.0000)">
<g transform="translate(19.2330, 40.8522)">
<text font-family="IPAexGothic" font-weight="bold" font-size="1.7463" text-anchor="start" fill="currentColor">
<tspan>♯</tspan>
</text>
</g>
</g>
<g color="rgb(100.0000%, 100.0000%, 100.0000%)">
<g transform="translate(24.7024, 40.1884)">
<rect x="0.1106" y="-0.6446" width="1.1056" height="1.2892" ry="0.0000" fill="currentColor"/>
</g>
</g>
<g transform="scale(1.0000, 1.0000)">
<g transform="translate(24.8130, 40.8330)">
<text font-family="IPAexGothic" font-weight="bold" font-size="1.7463" text-anchor="start" fill="currentColor">
<tspan>2</tspan>
</text>
</g>
</g>
<g transform="translate(24.2114, 45.6884)">
<text font-family="C059" font-size="1.9601" text-anchor="start" fill="currentColor">
<tspan>te,</tspan>
</text>
</g>
<g transform="translate(14.6509, 45.6884)">
<text font-family="C059" font-size="1.9601" text-anchor="start" fill="currentColor">
<tspan>ta</tspan>
</text>
</g>
<g transform="translate(25.3658, 40.1884)">
<path stroke-width="0.1200" stroke-linejoin="round" stroke-linecap="square" stroke="currentColor" fill="none" d="M2 -0.6700l1 0"/>
</g>
<g color="rgb(100.0000%, 100.0000%, 100.0000%)">
<g transform="translate(14.9143, 40.1884)">
<rect x="0.1106" y="-0.6446" width="1.1056" height="1.2892" ry="0.0000" fill="currentColor"/>
</g>
</g>
<g transform="scale(1.0000, 1.0000)">
<g transform="translate(15.0248, 40.8330)">
<text font-family="IPAexGothic" font-weight="bold" font-size="1.7463" text-anchor="start" fill="currentColor">
<tspan>2</tspan>
</text>
</g>
</g>
</svg>
