<svg xmlns="http://www.w3.org/2000/svg" xmlns:xlink="http://www.w3.org/1999/xlink" version="1.2" width="210.00mm" height="297.00mm" viewBox="0 0 74.6885 105.6309">
<style type="text/css">
<![CDATA[
tspan { white-space: pre; }
]]>
</style>
<!-- Page: 1/1 -->
<g transform="translate(22.5453, 5.3522)">
<text font-family="C059" font-size="3.4923" text-anchor="start" fill="currentColor">
<tspan>Au clair de la lune</tspan>
</text>
</g>
<g transform="translate(3.5566, 8.8522)">
<text font-family="IPAexGothic" font-size="2.2003" text-anchor="start" fill="currentColor">
<tspan>4本（神仙）</tspan>
</text>
</g>
<g transform="translate(3.5566, 12.3522)">
<text font-family="IPAexGothic" font-size="2.2003" text-anchor="start" fill="currentColor">
<tspan>二上り（調弦 C G C）</tspan>
</text>
</g>
<g transform="translate(3.5566, 22.3084)">
<line stroke-linejoin="round" stroke-linecap="round" stroke-width="0.0754" stroke="currentColor" x1="0.0377" y1="0" x2="67.5376" y2="0"/>
</g>
<g transform="translate(3.5566, 21.3084)">
<line stroke-linejoin="round" stroke-linecap="round" stroke-width="0.0754" stroke="currentColor" x1="0.0377" y1="0" x2="67.5376" y2="0"/>
</g>
<g transform="translate(3.5566, 20.3084)">
<line stroke-linejoin="round" stroke-linecap="round" stroke-width="0.0754" stroke="currentColor" x1="0.0377" y1="0" x2="67.5376" y2="0"/>
</g>
<g transform="translate(3.5566, 19.3084)">
<line stroke-linejoin="round" stroke-linecap="round" stroke-width="0.0754" stroke="currentColor" x1="0.0377" y1="0" x2="67.5376" y2="0"/>
</g>
<g transform="translate(3.5566, 18.3084)">
<line stroke-linejoin="round" stroke-linecap="round" stroke-width="0.0754" stroke="currentColor" x1="0.0377" y1="0" x2="67.5376" y2="0"/>
</g>
<g transform="translate(60.6657, 20.3084)">
<rect x="0.0000" y="-2.0000" width="0.1432" height="4.0377" ry="0.0000" fill="currentColor"/>
</g>
<g transform="translate(28.4249, 20.3084)">
<rect x="0.0000" y="-2.0000" width="0.1432" height="4.0377" ry="0.0000" fill="currentColor"/>
</g>
<g transform="translate(60.6657, 29.4538)">
<rect x="0.0000" y="-1.5377" width="0.1432" height="3.0377" ry="0.0000" fill="currentColor"/>
</g>
<g transform="translate(60.6657, 16.5284)">
<rect x="0.0000" y="5.8177" width="0.1432" height="5.6077" ry="0.0000" fill="currentColor"/>
</g>
<g transform="translate(28.4249, 29.4538)">
<rect x="0.0000" y="-1.5377" width="0.1432" height="3.0377" ry="0.0000" fill="currentColor"/>
</g>
<g transform="translate(28.4249, 16.5284)">
<rect x="0.0000" y="5.8177" width="0.1432" height="5.6077" ry="0.0000" fill="currentColor"/>
</g>
<g transform="translate(70.9887, 20.3084)">
<rect x="0.0000" y="-2.0000" width="0.1432" height="4.0377" ry="0.0000" fill="currentColor"/>
</g>
<g transform="translate(70.9887, 29.4538)">
<rect x="0.0000" y="-1.5377" width="0.1432" height="3.0377" ry="0.0000" fill="currentColor"/>
</g>
<g transform="translate(70.9887, 16.5284)">
<rect x="0.0000" y="5.8177" width="0.1432" height="5.6077" ry="0.0000" fill="currentColor"/>
</g>
<g transform="translate(41.6923, 16.5284)">
<rect x="0.0000" y="5.8177" width="0.1432" height="5.6077" ry="0.0000" fill="currentColor"/>
</g>
<g transform="translate(41.6923, 29.4538)">
<rect x="0.0000" y="-1.5377" width="0.1432" height="3.0377" ry="0.0000" fill="currentColor"/>
</g>
<g transform="translate(3.5566, 30.9538)">
<line stroke-linejoin="round" stroke-linecap="round" stroke-width="0.0754" stroke="currentColor" x1="0.0377" y1="0" x2="67.5376" y2="0"/>
</g>
<g transform="translate(3.5566, 29.4538)">
<line stroke-linejoin="round" stroke-linecap="round" stroke-width="0.0754" stroke="currentColor" x1="0.0377" y1="0" x2="67.5376" y2="0"/>
</g>
<g transform="translate(3.5566, 27.9538)">
<line stroke-linejoin="round" stroke-linecap="round" stroke-width="0.0754" stroke="currentColor" x1="0.0377" y1="0" x2="67.5376" y2="0"/>
</g>
<g transform="translate(41.6923, 20.3084)">
<rect x="0.0000" y="-2.0000" width="0.1432" height="4.0377" ry="0.0000" fill="currentColor"/>
</g>
<g color="rgb(100.0000%, 100.0000%, 100.0000%)">
<g transform="translate(52.3518, 29.4538)">
<rect x="0.1110" y="-0.6446" width="1.1097" height="1.2893" ry="0.0000" fill="currentColor"/>
</g>
</g>
<g transform="scale(1.0000, 1.0000)">
<g transform="translate(52.4628, 30.0984)">
<text font-family="IPAexGothic" font-weight="bold" font-size="1.7463" text-anchor="start" fill="currentColor">
<tspan>2</tspan>
</text>
</g>
</g>
<g transform="translate(52.3518, 20.8084)">
<path transform="scale(0.0040, -0.0040)" d="M222 135c53 0 104 -27 104 -86c0 -71 -56 -120 -103 -148c-36 -22 -76 -36 -118 -36c-53 0 -105 27 -105 86c0 71 57 120 104 148c36 22 76 36 118 36z" fill="currentColor"/>
</g>
<g transform="translate(51.5216, 25.9617)">
<text font-family="C059" font-size="2.4695" text-anchor="start" fill="currentColor">
<tspan>mi</tspan>
</text>
</g>
<g transform="translate(45.5660, 20.3084)">
<rect x="-0.0490" y="-2.5000" width="0.0980" height="3.3033" ry="0.0250" fill="currentColor"/>
</g>
<g transform="translate(48.3249, 20.3084)">
<rect x="-0.0490" y="0.1967" width="0.0980" height="3.1366" ry="0.0250" fill="currentColor"/>
</g>
<g transform="translate(53.6087, 20.3084)">
<rect x="-0.0490" y="-3.0000" width="0.0980" height="3.3033" ry="0.0250" fill="currentColor"/>
</g>
<g transform="translate(56.6750, 20.8084)">
<path transform="scale(0.0040, -0.0040)" d="M222 135c53 0 104 -27 104 -86c0 -71 -56 -120 -103 -148c-36 -22 -76 -36 -118 -36c-53 0 -105 27 -105 86c0 71 57 120 104 148c36 22 76 36 118 36z" fill="currentColor"/>
</g>
<g transform="translate(54.9378, 25.9617)">
<text font-family="C059" font-size="2.4695" text-anchor="start" fill="currentColor">
<tspan>Pier</tspan>
</text>
</g>
<g color="rgb(100.0000%, 100.0000%, 100.0000%)">
<g transform="translate(56.6750, 29.4538)">
<rect x="0.1110" y="-0.6446" width="1.1097" height="1.2893" ry="0.0000" fill="currentColor"/>
</g>
</g>
<g transform="scale(1.0000, 1.0000)">
<g transform="translate(56.7859, 30.0984)">
<text font-family="IPAexGothic" font-weight="bold" font-size="1.7463" text-anchor="start" fill="currentColor">
<tspan>2</tspan>
</text>
</g>
</g>
<g transform="translate(57.9318, 20.3084)">
<rect x="-0.0490" y="-3.0000" width="0.0980" height="3.3033" ry="0.0250" fill="currentColor"/>
</g>
<g transform="translate(48.2759, 20.3084)">
<path transform="scale(0.0040, -0.0040)" d="M222 135c53 0 104 -27 104 -86c0 -71 -56 -120 -103 -148c-36 -22 -76 -36 -118 -36c-53 0 -105 27 -105 86c0 71 57 120 104 148c36 22 76 36 118 36z" fill="currentColor"/>
</g>
<g transform="translate(48.2460, 25.9617)">
<text font-family="C059" font-size="2.4695" text-anchor="start" fill="currentColor">
<tspan>a</tspan>
</text>
</g>
<g color="rgb(100.0000%, 100.0000%, 100.0000%)">
<g transform="translate(48.2759, 29.4538)">
<rect x="-0.2091" y="-0.7474" width="1.7498" height="1.4948" ry="0.0000" fill="currentColor"/>
</g>
</g>
<g transform="scale(1.0000, 1.0000)">
<g transform="translate(48.0668, 30.1176)">
<text font-family="IPAexGothic" font-weight="bold" font-size="1.7463" text-anchor="start" fill="currentColor">
<tspan>♯</tspan>
</text>
</g>
</g>
<g transform="translate(60.5211, 25.9617)">
<rect x="0.0000" y="-0.5180" width="0.6600" height="0.0980" ry="0.0301" fill="currentColor"/>
</g>
<g transform="translate(50.2367, 25.9617)">
<rect x="0.0000" y="-0.5180" width="0.6600" height="0.0980" ry="0.0301" fill="currentColor"/>
</g>
<g transform="translate(32.8661, 25.9617)">
<rect x="0.0000" y="-0.5180" width="0.6600" height="0.0980" ry="0.0301" fill="currentColor"/>
</g>
<g transform="translate(62.9638, 21.3084)">
<path transform="scale(0.0040, -0.0040)" d="M215 114c-50 0 -71 -42 -71 -88c0 -79 60 -140 139 -140c50 0 70 42 70 88c0 79 -59 140 -138 140zM497 0c0 -43 -35 -74 -73 -95c-54 -29 -114 -40 -175 -40s-122 11 -176 40c-38 21 -73 52 -73 95s35 74 73 95c54 29 115 40 176 40s121 -11 175 -40
c38 -21 73 -52 73 -95z" fill="currentColor"/>
</g>
<g transform="translate(61.9843, 25.9617)">
<text font-family="C059" font-size="2.4695" text-anchor="start" fill="currentColor">
<tspan>rot,</tspan>
</text>
</g>
<g color="rgb(100.0000%, 100.0000%, 100.0000%)">
<g transform="translate(62.9638, 29.4538)">
<rect x="0.1110" y="-0.6489" width="1.1097" height="1.2978" ry="0.0000" fill="currentColor"/>
</g>
</g>
<g transform="scale(1.0000, 1.0000)">
<g transform="translate(63.0748, 30.0941)">
<text font-family="IPAexGothic" font-weight="bold" font-size="1.7463" text-anchor="start" fill="currentColor">
<tspan>0</tspan>
</text>
</g>
</g>
<g transform="translate(16.2089, 21.3084)">
<path transform="scale(0.0040, -0.0040)" d="M222 135c53 0 104 -27 104 -86c0 -71 -56 -120 -103 -148c-36 -22 -76 -36 -118 -36c-53 0 -105 27 -105 86c0 71 57 120 104 148c36 22 76 36 118 36z" fill="currentColor"/>
</g>
<g transform="translate(14.3331, 25.9617)">
<text font-family="C059" font-size="2.4695" text-anchor="start" fill="currentColor">
<tspan>clair</tspan>
</text>
</g>
<g color="rgb(100.0000%, 100.0000%, 100.0000%)">
<g transform="translate(16.2089, 29.4538)">
<rect x="0.1110" y="-0.6489" width="1.1097" height="1.2978" ry="0.0000" fill="currentColor"/>
</g>
</g>
<g transform="scale(1.0000, 1.0000)">
<g transform="translate(16.3199, 30.0941)">
<text font-family="IPAexGothic" font-weight="bold" font-size="1.7463" text-anchor="start" fill="currentColor">
<tspan>0</tspan>
</text>
</g>
</g>
<g transform="translate(17.4657, 20.3084)">
<rect x="-0.0490" y="-2.5000" width="0.0980" height="3.3033" ry="0.0250" fill="currentColor"/>
</g>
<g transform="translate(20.5107, 21.3084)">
<path transform="scale(0.0040, -0.0040)" d="M222 135c53 0 104 -27 104 -86c0 -71 -56 -120 -103 -148c-36 -22 -76 -36 -118 -36c-53 0 -105 27 -105 86c0 71 57 120 104 148c36 22 76 36 118 36z" fill="currentColor"/>
</g>
<g transform="translate(19.8406, 25.9617)">
<text font-family="C059" font-size="2.4695" text-anchor="start" fill="currentColor">
<tspan>de</tspan>
</text>
</g>
<g color="rgb(100.0000%, 100.0000%, 100.0000%)">
<g transform="translate(20.5107, 29.4538)">
<rect x="0.1110" y="-0.6489" width="1.1097" height="1.2978" ry="0.0000" fill="currentColor"/>
</g>
</g>
<g transform="scale(1.0000, 1.0000)">
<g transform="translate(20.6217, 30.0941)">
<text font-family="IPAexGothic" font-weight="bold" font-size="1.7463" text-anchor="start" fill="currentColor">
<tspan>0</tspan>
</text>
</g>
</g>
<g transform="translate(21.7675, 20.3084)">
<rect x="-0.0490" y="-2.5000" width="0.0980" height="3.3033" ry="0.0250" fill="currentColor"/>
</g>
<g color="rgb(100.0000%, 100.0000%, 100.0000%)">
<g transform="translate(44.3092, 29.4538)">
<rect x="0.1110" y="-0.6489" width="1.1097" height="1.2978" ry="0.0000" fill="currentColor"/>
</g>
</g>
<g transform="scale(1.0000, 1.0000)">
<g transform="translate(44.4201, 30.0941)">
<text font-family="IPAexGothic" font-weight="bold" font-size="1.7463" text-anchor="start" fill="currentColor">
<tspan>0</tspan>
</text>
</g>
</g>
<g transform="translate(24.4342, 20.8084)">
<path transform="scale(0.0040, -0.0040)" d="M222 135c53 0 104 -27 104 -86c0 -71 -56 -120 -103 -148c-36 -22 -76 -36 -118 -36c-53 0 -105 27 -105 86c0 71 57 120 104 148c36 22 76 36 118 36z" fill="currentColor"/>
</g>
<g transform="translate(10.6181, 25.9617)">
<text font-family="C059" font-size="2.4695" text-anchor="start" fill="currentColor">
<tspan>Au</tspan>
</text>
</g>
<g transform="translate(2.2860, 18.0457)">
<path transform="scale(0.0040, -0.0040)" d="M0 -56v91c0 12 10 21 22 21h43c164 0 281 136 377 272c10 14 32 -1 22 -15c-103 -145 -222 -369 -399 -369h-65z" fill="currentColor"/>
</g>
<g transform="translate(2.2860, 31.2164)">
<path transform="scale(0.0040, -0.0040)" d="M0 56h65c177 0 296 -224 399 -369c10 -14 -12 -29 -22 -15c-96 136 -213 272 -377 272h-43c-12 0 -22 9 -22 21v91z" fill="currentColor"/>
</g>
<g transform="translate(2.2860, 24.6311)">
<rect x="0.0000" y="-6.4054" width="0.4500" height="12.8108" ry="0.0000" fill="currentColor"/>
</g>
<g transform="translate(3.5360, 24.6311)">
<rect x="0.0000" y="-6.3604" width="0.1206" height="12.7208" ry="0.0377" fill="currentColor"/>
</g>
<g transform="translate(11.5977, 21.3084)">
<path transform="scale(0.0040, -0.0040)" d="M222 135c53 0 104 -27 104 -86c0 -71 -56 -120 -103 -148c-36 -22 -76 -36 -118 -36c-53 0 -105 27 -105 86c0 71 57 120 104 148c36 22 76 36 118 36z" fill="currentColor"/>
</g>
<g transform="translate(4.3566, 21.3084)">
<path transform="scale(0.0040, -0.0040)" d="M374 260c5 0 10 1 15 1c154 0 254 -127 254 -259c0 -76 -33 -153 -107 -208c-22 -17 -47 -29 -73 -37c3 -36 5 -72 5 -108c0 -19 0 -37 -1 -56c-7 -120 -88 -226 -206 -226c-108 0 -195 87 -195 195c0 58 53 104 112 104c54 0 95 -48 95 -104c0 -52 -43 -95 -95 -95
c-12 0 -24 4 -35 9c26 -41 70 -70 121 -70c1 0 2 1 3 1c93 2 154 93 160 192c1 18 2 35 2 53c0 32 -2 64 -5 96c-29 -5 -58 -8 -89 -8c-188 0 -333 171 -333 372c0 178 133 306 251 440c-18 63 -35 126 -42 191c-6 51 -7 102 -7 154c0 116 55 226 150 295c5 4 11 4 16 0
c70 -84 132 -246 132 -359c0 -144 -87 -256 -183 -365c20 -69 39 -138 55 -208zM459 -205c69 24 117 96 117 166c0 92 -69 184 -179 193c25 -117 48 -235 62 -359zM71 31c0 -136 131 -251 267 -251c28 0 55 2 82 6c-15 128 -38 247 -64 367c-79 -9 -125 -62 -125 -121
c0 -44 26 -92 82 -124c4 -4 7 -9 7 -14c0 -11 -9 -21 -20 -21c-3 0 -6 1 -9 2c-80 43 -116 114 -116 184c0 88 57 173 158 196c-14 60 -30 119 -46 178c-108 -121 -216 -242 -216 -402zM411 1050c-99 -50 -161 -151 -161 -262c0 -76 15 -137 33 -200c82 97 149 198 149 325
c0 58 -4 84 -21 137z" fill="currentColor"/>
</g>
<g transform="translate(4.9451, 24.8422)">
<text font-family="IPAexGothic" font-style="italic" font-size="1.3862" text-anchor="start" fill="currentColor">
<tspan>8</tspan>
</text>
</g>
<g transform="translate(8.5566, 20.3084)">
<path transform="scale(0.0040, -0.0040)" d="M208 319c21 13 42 27 57 47c11 15 18 32 25 49c4 9 20 7 20 -7v-256h68c9 0 13 -7 13 -14s-4 -13 -13 -13h-68v-16c0 -45 26 -88 68 -88c7 0 10 -5 10 -10s-3 -11 -10 -11c-41 0 -82 13 -123 13s-82 -13 -123 -13c-7 0 -10 6 -10 11s3 10 10 10c42 0 68 43 68 88v16h-173
c-21 0 -29 13 -29 21c0 2 1 5 2 6c81 96 146 208 146 333c0 10 7 18 15 15c22 -7 44 -13 67 -13s45 6 67 13c12 4 21 -8 15 -15l-283 -333h173v147c0 8 2 16 8 20z" fill="currentColor"/>
</g>
<g transform="translate(8.5566, 22.3243)">
<path transform="scale(0.0040, -0.0040)" d="M208 319c21 13 42 27 57 47c11 15 18 32 25 49c4 9 20 7 20 -7v-256h68c9 0 13 -7 13 -14s-4 -13 -13 -13h-68v-16c0 -45 26 -88 68 -88c7 0 10 -5 10 -10s-3 -11 -10 -11c-41 0 -82 13 -123 13s-82 -13 -123 -13c-7 0 -10 6 -10 11s3 10 10 10c42 0 68 43 68 88v16h-173
c-21 0 -29 13 -29 21c0 2 1 5 2 6c81 96 146 208 146 333c0 10 7 18 15 15c22 -7 44 -13 67 -13s45 6 67 13c12 4 21 -8 15 -15l-283 -333h173v147c0 8 2 16 8 20z" fill="currentColor"/>
</g>
<g color="rgb(100.0000%, 100.0000%, 100.0000%)">
<g transform="translate(11.5977, 29.4538)">
<rect x="0.1110" y="-0.6489" width="1.1097" height="1.2978" ry="0.0000" fill="currentColor"/>
</g>
</g>
<g transform="scale(1.0000, 1.0000)">
<g transform="translate(11.7087, 30.0941)">
<text font-family="IPAexGothic" font-weight="bold" font-size="1.7463" text-anchor="start" fill="currentColor">
<tspan>0</tspan>
</text>
</g>
</g>
<g transform="translate(12.8545, 20.3084)">
<rect x="-0.0490" y="-2.5000" width="0.0980" height="3.3033" ry="0.0250" fill="currentColor"/>
</g>
<g transform="translate(30.4603, 29.4538)">
<path stroke-width="0.1200" stroke-linejoin="round" stroke-linecap="square" stroke="currentColor" fill="none" d="M2 -0.6700l1 0"/>
</g>
<g transform="translate(24.0201, 25.9617)">
<text font-family="C059" font-size="2.4695" text-anchor="start" fill="currentColor">
<tspan>la</tspan>
</text>
</g>
<g transform="translate(35.7911, 20.8084)">
<path transform="scale(0.0040, -0.0040)" d="M316 67c0 25 -20 42 -42 42c-4 0 -9 -1 -13 -2c-31 -9 -79 -41 -117 -65s-86 -55 -107 -80c-7 -8 -10 -19 -10 -29c0 -25 20 -42 42 -42c4 0 9 1 13 2c31 9 79 41 117 65s86 55 107 80c7 8 10 19 10 29zM265 135c44 0 78 -21 78 -68c0 -19 -5 -39 -11 -57
c-12 -37 -33 -71 -65 -93c-53 -36 -114 -52 -189 -52c-44 0 -78 21 -78 68c0 19 5 39 11 57c12 37 33 71 65 93c53 36 114 52 189 52z" fill="currentColor"/>
</g>
<g transform="translate(34.7699, 25.9617)">
<text font-family="C059" font-size="2.4695" text-anchor="start" fill="currentColor">
<tspan>ne,</tspan>
</text>
</g>
<g color="rgb(100.0000%, 100.0000%, 100.0000%)">
<g transform="translate(35.7911, 29.4538)">
<rect x="0.1110" y="-0.6446" width="1.1097" height="1.2893" ry="0.0000" fill="currentColor"/>
</g>
</g>
<g transform="scale(1.0000, 1.0000)">
<g transform="translate(35.9020, 30.0984)">
<text font-family="IPAexGothic" font-weight="bold" font-size="1.7463" text-anchor="start" fill="currentColor">
<tspan>2</tspan>
</text>
</g>
</g>
<g transform="translate(37.1141, 20.3084)">
<rect x="-0.0490" y="-3.0000" width="0.0980" height="3.2316" ry="0.0250" fill="currentColor"/>
</g>
<g transform="translate(36.4569, 29.4538)">
<path stroke-width="0.1200" stroke-linejoin="round" stroke-linecap="square" stroke="currentColor" fill="none" d="M2 -0.6700l1 0"/>
</g>
<g transform="translate(44.3092, 21.3084)">
<path transform="scale(0.0040, -0.0040)" d="M222 135c53 0 104 -27 104 -86c0 -71 -56 -120 -103 -148c-36 -22 -76 -36 -118 -36c-53 0 -105 27 -105 86c0 71 57 120 104 148c36 22 76 36 118 36z" fill="currentColor"/>
</g>
<g transform="translate(42.4227, 25.9617)">
<text font-family="C059" font-size="2.4695" text-anchor="start" fill="currentColor">
<tspan>Mon</tspan>
</text>
</g>
<g color="rgb(100.0000%, 100.0000%, 100.0000%)">
<g transform="translate(24.4342, 29.4538)">
<rect x="0.1110" y="-0.6446" width="1.1097" height="1.2893" ry="0.0000" fill="currentColor"/>
</g>
</g>
<g transform="scale(1.0000, 1.0000)">
<g transform="translate(24.5451, 30.0984)">
<text font-family="IPAexGothic" font-weight="bold" font-size="1.7463" text-anchor="start" fill="currentColor">
<tspan>2</tspan>
</text>
</g>
</g>
<g transform="translate(25.6910, 20.3084)">
<rect x="-0.0490" y="-3.0000" width="0.0980" height="3.3033" ry="0.0250" fill="currentColor"/>
</g>
<g transform="translate(29.7945, 20.3084)">
<path transform="scale(0.0040, -0.0040)" d="M316 67c0 25 -20 42 -42 42c-4 0 -9 -1 -13 -2c-31 -9 -79 -41 -117 -65s-86 -55 -107 -80c-7 -8 -10 -19 -10 -29c0 -25 20 -42 42 -42c4 0 9 1 13 2c31 9 79 41 117 65s86 55 107 80c7 8 10 19 10 29zM265 135c44 0 78 -21 78 -68c0 -19 -5 -39 -11 -57
c-12 -37 -33 -71 -65 -93c-53 -36 -114 -52 -189 -52c-44 0 -78 21 -78 68c0 19 5 39 11 57c12 37 33 71 65 93c53 36 114 52 189 52z" fill="currentColor"/>
</g>
<g transform="translate(29.3388, 25.9617)">
<text font-family="C059" font-size="2.4695" text-anchor="start" fill="currentColor">
<tspan>lu</tspan>
</text>
</g>
<g transform="translate(29.8435, 20.3084)">
<rect x="-0.0490" y="0.2684" width="0.0980" height="3.0649" ry="0.0250" fill="currentColor"/>
</g>
<g color="rgb(100.0000%, 100.0000%, 100.0000%)">
<g transform="translate(29.7945, 29.4538)">
<rect x="-0.2091" y="-0.7474" width="1.7498" height="1.4948" ry="0.0000" fill="currentColor"/>
</g>
</g>
<g transform="scale(1.0000, 1.0000)">
<g transform="translate(29.5854, 30.1176)">
<text font-family="IPAexGothic" font-weight="bold" font-size="1.7463" text-anchor="start" fill="currentColor">
<tspan>♯</tspan>
</text>
</g>
</g>
<g transform="translate(3.5566, 43.4538)">
<line stroke-linejoin="round" stroke-linecap="round" stroke-width="0.0754" stroke="currentColor" x1="0.0377" y1="0" x2="67.5376" y2="0"/>
</g>
<g transform="translate(3.5566, 42.4538)">
<line stroke-linejoin="round" stroke-linecap="round" stroke-width="0.0754" stroke="currentColor" x1="0.0377" y1="0" x2="67.5376" y2="0"/>
</g>
<g transform="translate(3.5566, 41.4538)">
<line stroke-linejoin="round" stroke-linecap="round" stroke-width="0.0754" stroke="currentColor" x1="0.0377" y1="0" x2="67.5376" y2="0"/>
</g>
<g transform="translate(3.5566, 40.4538)">
<line stroke-linejoin="round" stroke-linecap="round" stroke-width="0.0754" stroke="currentColor" x1="0.0377" y1="0" x2="67.5376" y2="0"/>
</g>
<g transform="translate(3.5566, 39.4538)">
<line stroke-linejoin="round" stroke-linecap="round" stroke-width="0.0754" stroke="currentColor" x1="0.0377" y1="0" x2="67.5376" y2="0"/>
</g>
<g transform="translate(59.9289, 37.6738)">
<rect x="0.0000" y="5.8177" width="0.1432" height="5.5275" ry="0.0000" fill="currentColor"/>
</g>
<g transform="translate(59.9289, 50.5189)">
<rect x="0.0000" y="-1.5377" width="0.1432" height="3.0377" ry="0.0000" fill="currentColor"/>
</g>
<g transform="translate(24.7774, 41.4538)">
<rect x="0.0000" y="-2.0000" width="0.1432" height="4.0377" ry="0.0000" fill="currentColor"/>
</g>
<g transform="translate(24.7774, 50.5189)">
<rect x="0.0000" y="-1.5377" width="0.1432" height="3.0377" ry="0.0000" fill="currentColor"/>
</g>
<g transform="translate(70.9887, 41.4538)">
<rect x="0.0000" y="-2.0000" width="0.1432" height="4.0377" ry="0.0000" fill="currentColor"/>
</g>
<g transform="translate(24.7774, 37.6738)">
<rect x="0.0000" y="5.8177" width="0.1432" height="5.5275" ry="0.0000" fill="currentColor"/>
</g>
<g transform="translate(39.5773, 37.6738)">
<rect x="0.0000" y="5.8177" width="0.1432" height="5.5275" ry="0.0000" fill="currentColor"/>
</g>
<g transform="translate(70.9887, 50.5189)">
<rect x="0.0000" y="-1.5377" width="0.1432" height="3.0377" ry="0.0000" fill="currentColor"/>
</g>
<g transform="translate(59.9289, 41.4538)">
<rect x="0.0000" y="-2.0000" width="0.1432" height="4.0377" ry="0.0000" fill="currentColor"/>
</g>
<g transform="translate(70.9887, 37.6738)">
<rect x="0.0000" y="5.8177" width="0.1432" height="5.5275" ry="0.0000" fill="currentColor"/>
</g>
<g transform="translate(39.5773, 50.5189)">
<rect x="0.0000" y="-1.5377" width="0.1432" height="3.0377" ry="0.0000" fill="currentColor"/>
</g>
<g transform="translate(3.5566, 52.0189)">
<line stroke-linejoin="round" stroke-linecap="round" stroke-width="0.0754" stroke="currentColor" x1="0.0377" y1="0" x2="67.5376" y2="0"/>
</g>
<g transform="translate(3.5566, 50.5189)">
<line stroke-linejoin="round" stroke-linecap="round" stroke-width="0.0754" stroke="currentColor" x1="0.0377" y1="0" x2="67.5376" y2="0"/>
</g>
<g transform="translate(3.5566, 49.0189)">
<line stroke-linejoin="round" stroke-linecap="round" stroke-width="0.0754" stroke="currentColor" x1="0.0377" y1="0" x2="67.5376" y2="0"/>
</g>
<g transform="translate(39.5773, 41.4538)">
<rect x="0.0000" y="-2.0000" width="0.1432" height="4.0377" ry="0.0000" fill="currentColor"/>
</g>
<g transform="translate(55.6631, 41.9538)">
<path transform="scale(0.0040, -0.0040)" d="M222 135c53 0 104 -27 104 -86c0 -71 -56 -120 -103 -148c-36 -22 -76 -36 -118 -36c-53 0 -105 27 -105 86c0 71 57 120 104 148c36 22 76 36 118 36z" fill="currentColor"/>
</g>
<g color="rgb(100.0000%, 100.0000%, 100.0000%)">
<g transform="translate(55.6631, 50.5189)">
<rect x="0.1110" y="-0.6446" width="1.1097" height="1.2893" ry="0.0000" fill="currentColor"/>
</g>
</g>
<g transform="scale(1.0000, 1.0000)">
<g transform="translate(55.7741, 51.1636)">
<text font-family="IPAexGothic" font-weight="bold" font-size="1.7463" text-anchor="start" fill="currentColor">
<tspan>2</tspan>
</text>
</g>
</g>
<g color="rgb(100.0000%, 100.0000%, 100.0000%)">
<g transform="translate(46.6796, 50.5189)">
<rect x="-0.2091" y="-0.7474" width="1.7498" height="1.4948" ry="0.0000" fill="currentColor"/>
</g>
</g>
<g transform="scale(1.0000, 1.0000)">
<g transform="translate(46.4705, 51.1827)">
<text font-family="IPAexGothic" font-weight="bold" font-size="1.7463" text-anchor="start" fill="currentColor">
<tspan>♯</tspan>
</text>
</g>
</g>
<g transform="translate(42.4378, 42.4538)">
<path transform="scale(0.0040, -0.0040)" d="M222 135c53 0 104 -27 104 -86c0 -71 -56 -120 -103 -148c-36 -22 -76 -36 -118 -36c-53 0 -105 27 -105 86c0 71 57 120 104 148c36 22 76 36 118 36z" fill="currentColor"/>
</g>
<g transform="translate(46.7286, 41.4538)">
<rect x="-0.0490" y="0.1967" width="0.0980" height="3.1366" ry="0.0250" fill="currentColor"/>
</g>
<g transform="translate(54.8009, 46.9824)">
<text font-family="C059" font-size="2.4695" text-anchor="start" fill="currentColor">
<tspan>un</tspan>
</text>
</g>
<g transform="translate(51.0306, 41.9538)">
<path transform="scale(0.0040, -0.0040)" d="M222 135c53 0 104 -27 104 -86c0 -71 -56 -120 -103 -148c-36 -22 -76 -36 -118 -36c-53 0 -105 27 -105 86c0 71 57 120 104 148c36 22 76 36 118 36z" fill="currentColor"/>
</g>
<g transform="translate(49.0160, 46.9824)">
<text font-family="C059" font-size="2.4695" text-anchor="start" fill="currentColor">
<tspan>crire</tspan>
</text>
</g>
<g color="rgb(100.0000%, 100.0000%, 100.0000%)">
<g transform="translate(51.0306, 50.5189)">
<rect x="0.1110" y="-0.6446" width="1.1097" height="1.2893" ry="0.0000" fill="currentColor"/>
</g>
</g>
<g transform="scale(1.0000, 1.0000)">
<g transform="translate(51.1415, 51.1636)">
<text font-family="IPAexGothic" font-weight="bold" font-size="1.7463" text-anchor="start" fill="currentColor">
<tspan>2</tspan>
</text>
</g>
</g>
<g transform="translate(52.2874, 41.4538)">
<rect x="-0.0490" y="-3.0000" width="0.0980" height="3.3033" ry="0.0250" fill="currentColor"/>
</g>
<g transform="translate(10.7757, 46.9824)">
<rect x="0.0000" y="-0.5180" width="0.6600" height="0.0980" ry="0.0301" fill="currentColor"/>
</g>
<g transform="translate(40.3805, 46.9824)">
<text font-family="C059" font-size="2.4695" text-anchor="start" fill="currentColor">
<tspan>Pour</tspan>
</text>
</g>
<g color="rgb(100.0000%, 100.0000%, 100.0000%)">
<g transform="translate(42.4378, 50.5189)">
<rect x="0.1110" y="-0.6489" width="1.1097" height="1.2978" ry="0.0000" fill="currentColor"/>
</g>
</g>
<g transform="scale(1.0000, 1.0000)">
<g transform="translate(42.5487, 51.1593)">
<text font-family="IPAexGothic" font-weight="bold" font-size="1.7463" text-anchor="start" fill="currentColor">
<tspan>0</tspan>
</text>
</g>
</g>
<g transform="translate(43.6946, 41.4538)">
<rect x="-0.0490" y="-2.5000" width="0.0980" height="3.3033" ry="0.0250" fill="currentColor"/>
</g>
<g transform="translate(46.7137, 46.9824)">
<text font-family="C059" font-size="2.4695" text-anchor="start" fill="currentColor">
<tspan>é</tspan>
</text>
</g>
<g transform="translate(46.6796, 41.4538)">
<path transform="scale(0.0040, -0.0040)" d="M222 135c53 0 104 -27 104 -86c0 -71 -56 -120 -103 -148c-36 -22 -76 -36 -118 -36c-53 0 -105 27 -105 86c0 71 57 120 104 148c36 22 76 36 118 36z" fill="currentColor"/>
</g>
<g transform="translate(48.1537, 46.9824)">
<rect x="0.0000" y="-0.5180" width="0.6600" height="0.0980" ry="0.0301" fill="currentColor"/>
</g>
<g transform="translate(30.3936, 46.9824)">
<rect x="0.0000" y="-0.5180" width="0.6600" height="0.0980" ry="0.0301" fill="currentColor"/>
</g>
<g transform="translate(14.0406, 46.9824)">
<rect x="0.0000" y="-0.5180" width="0.6600" height="0.0980" ry="0.0301" fill="currentColor"/>
</g>
<g transform="translate(62.3000, 42.4538)">
<path transform="scale(0.0040, -0.0040)" d="M215 114c-50 0 -71 -42 -71 -88c0 -79 60 -140 139 -140c50 0 70 42 70 88c0 79 -59 140 -138 140zM497 0c0 -43 -35 -74 -73 -95c-54 -29 -114 -40 -175 -40s-122 11 -176 40c-38 21 -73 52 -73 95s35 74 73 95c54 29 115 40 176 40s121 -11 175 -40
c38 -21 73 -52 73 -95z" fill="currentColor"/>
</g>
<g transform="translate(60.7656, 46.9824)">
<text font-family="C059" font-size="2.4695" text-anchor="start" fill="currentColor">
<tspan>mot.</tspan>
</text>
</g>
<g color="rgb(100.0000%, 100.0000%, 100.0000%)">
<g transform="translate(62.3000, 50.5189)">
<rect x="0.1110" y="-0.6489" width="1.1097" height="1.2978" ry="0.0000" fill="currentColor"/>
</g>
</g>
<g transform="scale(1.0000, 1.0000)">
<g transform="translate(62.4109, 51.1593)">
<text font-family="IPAexGothic" font-weight="bold" font-size="1.7463" text-anchor="start" fill="currentColor">
<tspan>0</tspan>
</text>
</g>
</g>
<g transform="translate(56.9199, 41.4538)">
<rect x="-0.0490" y="-3.0000" width="0.0980" height="3.3033" ry="0.0250" fill="currentColor"/>
</g>
<g color="rgb(100.0000%, 100.0000%, 100.0000%)">
<g transform="translate(7.9161, 50.5189)">
<rect x="0.1110" y="-0.6489" width="1.1097" height="1.2978" ry="0.0000" fill="currentColor"/>
</g>
</g>
<g transform="scale(1.0000, 1.0000)">
<g transform="translate(8.0270, 51.1593)">
<text font-family="IPAexGothic" font-weight="bold" font-size="1.7463" text-anchor="start" fill="currentColor">
<tspan>0</tspan>
</text>
</g>
</g>
<g transform="translate(9.1729, 41.4538)">
<rect x="-0.0490" y="-2.5000" width="0.0980" height="3.3033" ry="0.0250" fill="currentColor"/>
</g>
<g transform="translate(12.1146, 42.4538)">
<path transform="scale(0.0040, -0.0040)" d="M222 135c53 0 104 -27 104 -86c0 -71 -56 -120 -103 -148c-36 -22 -76 -36 -118 -36c-53 0 -105 27 -105 86c0 71 57 120 104 148c36 22 76 36 118 36z" fill="currentColor"/>
</g>
<g transform="translate(11.6578, 46.9824)">
<text font-family="C059" font-size="2.4695" text-anchor="start" fill="currentColor">
<tspan>te</tspan>
</text>
</g>
<g color="rgb(100.0000%, 100.0000%, 100.0000%)">
<g transform="translate(12.1146, 50.5189)">
<rect x="0.1110" y="-0.6489" width="1.1097" height="1.2978" ry="0.0000" fill="currentColor"/>
</g>
</g>
<g transform="scale(1.0000, 1.0000)">
<g transform="translate(12.2256, 51.1593)">
<text font-family="IPAexGothic" font-weight="bold" font-size="1.7463" text-anchor="start" fill="currentColor">
<tspan>0</tspan>
</text>
</g>
</g>
<g transform="translate(13.3714, 41.4538)">
<rect x="-0.0490" y="-2.5000" width="0.0980" height="3.3033" ry="0.0250" fill="currentColor"/>
</g>
<g transform="translate(6.5844, 46.9824)">
<text font-family="C059" font-size="2.4695" text-anchor="start" fill="currentColor">
<tspan>Prê</tspan>
</text>
</g>
<g transform="translate(16.3131, 42.4538)">
<path transform="scale(0.0040, -0.0040)" d="M222 135c53 0 104 -27 104 -86c0 -71 -56 -120 -103 -148c-36 -22 -76 -36 -118 -36c-53 0 -105 27 -105 86c0 71 57 120 104 148c36 22 76 36 118 36z" fill="currentColor"/>
</g>
<g transform="translate(14.8641, 46.9824)">
<text font-family="C059" font-size="2.4695" text-anchor="start" fill="currentColor">
<tspan>moi</tspan>
</text>
</g>
<g color="rgb(100.0000%, 100.0000%, 100.0000%)">
<g transform="translate(16.3131, 50.5189)">
<rect x="0.1110" y="-0.6489" width="1.1097" height="1.2978" ry="0.0000" fill="currentColor"/>
</g>
</g>
<g transform="scale(1.0000, 1.0000)">
<g transform="translate(16.4241, 51.1593)">
<text font-family="IPAexGothic" font-weight="bold" font-size="1.7463" text-anchor="start" fill="currentColor">
<tspan>0</tspan>
</text>
</g>
</g>
<g transform="translate(17.5699, 41.4538)">
<rect x="-0.0490" y="-2.5000" width="0.0980" height="3.3033" ry="0.0250" fill="currentColor"/>
</g>
<g transform="translate(2.2860, 39.1911)">
<path transform="scale(0.0040, -0.0040)" d="M0 -56v91c0 12 10 21 22 21h43c164 0 281 136 377 272c10 14 32 -1 22 -15c-103 -145 -222 -369 -399 -369h-65z" fill="currentColor"/>
</g>
<g transform="translate(2.2860, 52.2816)">
<path transform="scale(0.0040, -0.0040)" d="M0 56h65c177 0 296 -224 399 -369c10 -14 -12 -29 -22 -15c-96 136 -213 272 -377 272h-43c-12 0 -22 9 -22 21v91z" fill="currentColor"/>
</g>
<g transform="translate(2.2860, 45.7363)">
<rect x="0.0000" y="-6.3653" width="0.4500" height="12.7305" ry="0.0000" fill="currentColor"/>
</g>
<g transform="translate(3.5360, 45.7363)">
<rect x="0.0000" y="-6.3203" width="0.1206" height="12.6405" ry="0.0377" fill="currentColor"/>
</g>
<g transform="translate(4.3566, 42.4538)">
<path transform="scale(0.0040, -0.0040)" d="M374 260c5 0 10 1 15 1c154 0 254 -127 254 -259c0 -76 -33 -153 -107 -208c-22 -17 -47 -29 -73 -37c3 -36 5 -72 5 -108c0 -19 0 -37 -1 -56c-7 -120 -88 -226 -206 -226c-108 0 -195 87 -195 195c0 58 53 104 112 104c54 0 95 -48 95 -104c0 -52 -43 -95 -95 -95
c-12 0 -24 4 -35 9c26 -41 70 -70 121 -70c1 0 2 1 3 1c93 2 154 93 160 192c1 18 2 35 2 53c0 32 -2 64 -5 96c-29 -5 -58 -8 -89 -8c-188 0 -333 171 -333 372c0 178 133 306 251 440c-18 63 -35 126 -42 191c-6 51 -7 102 -7 154c0 116 55 226 150 295c5 4 11 4 16 0
c70 -84 132 -246 132 -359c0 -144 -87 -256 -183 -365c20 -69 39 -138 55 -208zM459 -205c69 24 117 96 117 166c0 92 -69 184 -179 193c25 -117 48 -235 62 -359zM71 31c0 -136 131 -251 267 -251c28 0 55 2 82 6c-15 128 -38 247 -64 367c-79 -9 -125 -62 -125 -121
c0 -44 26 -92 82 -124c4 -4 7 -9 7 -14c0 -11 -9 -21 -20 -21c-3 0 -6 1 -9 2c-80 43 -116 114 -116 184c0 88 57 173 158 196c-14 60 -30 119 -46 178c-108 -121 -216 -242 -216 -402zM411 1050c-99 -50 -161 -151 -161 -262c0 -76 15 -137 33 -200c82 97 149 198 149 325
c0 58 -4 84 -21 137z" fill="currentColor"/>
</g>
<g transform="translate(4.9451, 45.9876)">
<text font-family="IPAexGothic" font-style="italic" font-size="1.3862" text-anchor="start" fill="currentColor">
<tspan>8</tspan>
</text>
</g>
<g transform="translate(7.9161, 42.4538)">
<path transform="scale(0.0040, -0.0040)" d="M222 135c53 0 104 -27 104 -86c0 -71 -56 -120 -103 -148c-36 -22 -76 -36 -118 -36c-53 0 -105 27 -105 86c0 71 57 120 104 148c36 22 76 36 118 36z" fill="currentColor"/>
</g>
<g transform="translate(27.4063, 50.5189)">
<path stroke-width="0.1200" stroke-linejoin="round" stroke-linecap="square" stroke="currentColor" fill="none" d="M2 -0.6700l1 0"/>
</g>
<g transform="translate(33.2066, 41.9538)">
<path transform="scale(0.0040, -0.0040)" d="M316 67c0 25 -20 42 -42 42c-4 0 -9 -1 -13 -2c-31 -9 -79 -41 -117 -65s-86 -55 -107 -80c-7 -8 -10 -19 -10 -29c0 -25 20 -42 42 -42c4 0 9 1 13 2c31 9 79 41 117 65s86 55 107 80c7 8 10 19 10 29zM265 135c44 0 78 -21 78 -68c0 -19 -5 -39 -11 -57
c-12 -37 -33 -71 -65 -93c-53 -36 -114 -52 -189 -52c-44 0 -78 21 -78 68c0 19 5 39 11 57c12 37 33 71 65 93c53 36 114 52 189 52z" fill="currentColor"/>
</g>
<g transform="translate(32.1748, 46.9824)">
<text font-family="C059" font-size="2.4695" text-anchor="start" fill="currentColor">
<tspan>me</tspan>
</text>
</g>
<g color="rgb(100.0000%, 100.0000%, 100.0000%)">
<g transform="translate(33.2066, 50.5189)">
<rect x="0.1110" y="-0.6446" width="1.1097" height="1.2893" ry="0.0000" fill="currentColor"/>
</g>
</g>
<g transform="scale(1.0000, 1.0000)">
<g transform="translate(33.3175, 51.1636)">
<text font-family="IPAexGothic" font-weight="bold" font-size="1.7463" text-anchor="start" fill="currentColor">
<tspan>2</tspan>
</text>
</g>
</g>
<g transform="translate(34.5296, 41.4538)">
<rect x="-0.0490" y="-3.0000" width="0.0980" height="3.2316" ry="0.0250" fill="currentColor"/>
</g>
<g transform="translate(33.8724, 50.5189)">
<path stroke-width="0.1200" stroke-linejoin="round" stroke-linecap="square" stroke="currentColor" fill="none" d="M2 -0.6700l1 0"/>
</g>
<g transform="translate(20.5116, 41.9538)">
<path transform="scale(0.0040, -0.0040)" d="M222 135c53 0 104 -27 104 -86c0 -71 -56 -120 -103 -148c-36 -22 -76 -36 -118 -36c-53 0 -105 27 -105 86c0 71 57 120 104 148c36 22 76 36 118 36z" fill="currentColor"/>
</g>
<g transform="translate(20.0015, 46.9824)">
<text font-family="C059" font-size="2.4695" text-anchor="start" fill="currentColor">
<tspan>ta</tspan>
</text>
</g>
<g color="rgb(100.0000%, 100.0000%, 100.0000%)">
<g transform="translate(20.5116, 50.5189)">
<rect x="0.1110" y="-0.6446" width="1.1097" height="1.2893" ry="0.0000" fill="currentColor"/>
</g>
</g>
<g transform="scale(1.0000, 1.0000)">
<g transform="translate(20.6226, 51.1636)">
<text font-family="IPAexGothic" font-weight="bold" font-size="1.7463" text-anchor="start" fill="currentColor">
<tspan>2</tspan>
</text>
</g>
</g>
<g transform="translate(21.7685, 41.4538)">
<rect x="-0.0490" y="-3.0000" width="0.0980" height="3.3033" ry="0.0250" fill="currentColor"/>
</g>
<g transform="translate(26.7405, 41.4538)">
<path transform="scale(0.0040, -0.0040)" d="M316 67c0 25 -20 42 -42 42c-4 0 -9 -1 -13 -2c-31 -9 -79 -41 -117 -65s-86 -55 -107 -80c-7 -8 -10 -19 -10 -29c0 -25 20 -42 42 -42c4 0 9 1 13 2c31 9 79 41 117 65s86 55 107 80c7 8 10 19 10 29zM265 135c44 0 78 -21 78 -68c0 -19 -5 -39 -11 -57
c-12 -37 -33 -71 -65 -93c-53 -36 -114 -52 -189 -52c-44 0 -78 21 -78 68c0 19 5 39 11 57c12 37 33 71 65 93c53 36 114 52 189 52z" fill="currentColor"/>
</g>
<g transform="translate(25.5807, 46.9824)">
<text font-family="C059" font-size="2.4695" text-anchor="start" fill="currentColor">
<tspan>plu</tspan>
</text>
</g>
<g color="rgb(100.0000%, 100.0000%, 100.0000%)">
<g transform="translate(26.7405, 50.5189)">
<rect x="-0.2091" y="-0.7474" width="1.7498" height="1.4948" ry="0.0000" fill="currentColor"/>
</g>
</g>
<g transform="scale(1.0000, 1.0000)">
<g transform="translate(26.5314, 51.1827)">
<text font-family="IPAexGothic" font-weight="bold" font-size="1.7463" text-anchor="start" fill="currentColor">
<tspan>♯</tspan>
</text>
</g>
</g>
<g transform="translate(26.7895, 41.4538)">
<rect x="-0.0490" y="0.2684" width="0.0980" height="3.0649" ry="0.0250" fill="currentColor"/>
</g>
<g transform="translate(3.5566, 64.5189)">
<line stroke-linejoin="round" stroke-linecap="round" stroke-width="0.0754" stroke="currentColor" x1="0.0377" y1="0" x2="67.5376" y2="0"/>
</g>
<g transform="translate(3.5566, 63.5189)">
<line stroke-linejoin="round" stroke-linecap="round" stroke-width="0.0754" stroke="currentColor" x1="0.0377" y1="0" x2="67.5376" y2="0"/>
</g>
<g transform="translate(3.5566, 62.5189)">
<line stroke-linejoin="round" stroke-linecap="round" stroke-width="0.0754" stroke="currentColor" x1="0.0377" y1="0" x2="67.5376" y2="0"/>
</g>
<g transform="translate(3.5566, 61.5189)">
<line stroke-linejoin="round" stroke-linecap="round" stroke-width="0.0754" stroke="currentColor" x1="0.0377" y1="0" x2="67.5376" y2="0"/>
</g>
<g transform="translate(3.5566, 60.5189)">
<line stroke-linejoin="round" stroke-linecap="round" stroke-width="0.0754" stroke="currentColor" x1="0.0377" y1="0" x2="67.5376" y2="0"/>
</g>
<g transform="translate(60.5021, 62.5189)">
<rect x="0.0000" y="-2.0000" width="0.1432" height="4.0377" ry="0.0000" fill="currentColor"/>
</g>
<g transform="translate(27.0829, 62.5189)">
<rect x="0.0000" y="-2.0000" width="0.1432" height="4.0377" ry="0.0000" fill="currentColor"/>
</g>
<g transform="translate(60.5021, 71.5189)">
<rect x="0.0000" y="-1.5377" width="0.1432" height="3.0377" ry="0.0000" fill="currentColor"/>
</g>
<g transform="translate(60.5021, 58.7389)">
<rect x="0.0000" y="5.8177" width="0.1432" height="5.4623" ry="0.0000" fill="currentColor"/>
</g>
<g transform="translate(27.0829, 71.5189)">
<rect x="0.0000" y="-1.5377" width="0.1432" height="3.0377" ry="0.0000" fill="currentColor"/>
</g>
<g transform="translate(70.9887, 62.5189)">
<rect x="0.0000" y="-2.0000" width="0.1432" height="4.0377" ry="0.0000" fill="currentColor"/>
</g>
<g transform="translate(27.0829, 58.7389)">
<rect x="0.0000" y="5.8177" width="0.1432" height="5.4623" ry="0.0000" fill="currentColor"/>
</g>
<g transform="translate(70.9887, 71.5189)">
<rect x="0.0000" y="-1.5377" width="0.1432" height="3.0377" ry="0.0000" fill="currentColor"/>
</g>
<g transform="translate(41.7225, 58.7389)">
<rect x="0.0000" y="5.8177" width="0.1432" height="5.4623" ry="0.0000" fill="currentColor"/>
</g>
<g transform="translate(70.9887, 58.7389)">
<rect x="0.0000" y="5.8177" width="0.1432" height="5.4623" ry="0.0000" fill="currentColor"/>
</g>
<g transform="translate(41.7225, 71.5189)">
<rect x="0.0000" y="-1.5377" width="0.1432" height="3.0377" ry="0.0000" fill="currentColor"/>
</g>
<g transform="translate(41.7225, 62.5189)">
<rect x="0.0000" y="-2.0000" width="0.1432" height="4.0377" ry="0.0000" fill="currentColor"/>
</g>
<g transform="translate(3.5566, 73.0189)">
<line stroke-linejoin="round" stroke-linecap="round" stroke-width="0.0754" stroke="currentColor" x1="0.0377" y1="0" x2="67.5376" y2="0"/>
</g>
<g transform="translate(3.5566, 71.5189)">
<line stroke-linejoin="round" stroke-linecap="round" stroke-width="0.0754" stroke="currentColor" x1="0.0377" y1="0" x2="67.5376" y2="0"/>
</g>
<g transform="translate(3.5566, 70.0189)">
<line stroke-linejoin="round" stroke-linecap="round" stroke-width="0.0754" stroke="currentColor" x1="0.0377" y1="0" x2="67.5376" y2="0"/>
</g>
<g color="rgb(100.0000%, 100.0000%, 100.0000%)">
<g transform="translate(52.0444, 73.0189)">
<rect x="0.1110" y="-0.6366" width="1.1097" height="1.2731" ry="0.0000" fill="currentColor"/>
</g>
</g>
<g transform="scale(1.0000, 1.0000)">
<g transform="translate(52.1554, 73.6469)">
<text font-family="IPAexGothic" font-weight="bold" font-size="1.7463" text-anchor="start" fill="currentColor">
<tspan>5</tspan>
</text>
</g>
</g>
<g transform="translate(42.4691, 67.9824)">
<text font-family="C059" font-size="2.4695" text-anchor="start" fill="currentColor">
<tspan>Je</tspan>
</text>
</g>
<g transform="translate(52.0444, 64.0189)">
<path transform="scale(0.0040, -0.0040)" d="M222 135c53 0 104 -27 104 -86c0 -71 -56 -120 -103 -148c-36 -22 -76 -36 -118 -36c-53 0 -105 27 -105 86c0 71 57 120 104 148c36 22 76 36 118 36z" fill="currentColor"/>
</g>
<g transform="translate(50.2753, 67.9824)">
<text font-family="C059" font-size="2.4695" text-anchor="start" fill="currentColor">
<tspan>plus</tspan>
</text>
</g>
<g transform="translate(55.5693, 67.9824)">
<text font-family="C059" font-size="2.4695" text-anchor="start" fill="currentColor">
<tspan>de</tspan>
</text>
</g>
<g transform="translate(53.3012, 62.5189)">
<rect x="-0.0490" y="-2.0000" width="0.0980" height="3.3033" ry="0.0250" fill="currentColor"/>
</g>
<g transform="translate(50.5944, 64.0189)">
<path transform="scale(0.0040, -0.0040)" d="M215 -316c0 -9 -8 -17 -17 -17s-17 8 -17 17v151l-87 -31v-162c0 -9 -8 -17 -17 -17s-17 8 -17 17v150l-39 -13c-10 -4 -21 4 -21 15v64c0 7 5 13 11 15l49 18v164l-39 -14c-10 -4 -21 4 -21 15v65c0 7 5 13 11 15l49 17v163c0 9 8 17 17 17s17 -8 17 -17v-151l87 31v162
c0 9 8 17 17 17s17 -8 17 -17v-150l39 13c10 4 21 -4 21 -15v-64c0 -7 -5 -13 -11 -15l-49 -18v-164l39 14c10 4 21 -4 21 -15v-65c0 -7 -5 -13 -11 -15l-49 -17v-163zM94 67v-164l87 30v164z" fill="currentColor"/>
</g>
<g transform="translate(56.2395, 64.5189)">
<path transform="scale(0.0040, -0.0040)" d="M222 135c53 0 104 -27 104 -86c0 -71 -56 -120 -103 -148c-36 -22 -76 -36 -118 -36c-53 0 -105 27 -105 86c0 71 57 120 104 148c36 22 76 36 118 36z" fill="currentColor"/>
</g>
<g transform="translate(48.3592, 62.5189)">
<rect x="-0.0490" y="-2.5000" width="0.0980" height="3.3033" ry="0.0250" fill="currentColor"/>
</g>
<g transform="translate(44.3747, 62.5189)">
<rect x="-0.0490" y="-3.0000" width="0.0980" height="3.3033" ry="0.0250" fill="currentColor"/>
</g>
<g color="rgb(100.0000%, 100.0000%, 100.0000%)">
<g transform="translate(43.1179, 71.5189)">
<rect x="0.1110" y="-0.6446" width="1.1097" height="1.2893" ry="0.0000" fill="currentColor"/>
</g>
</g>
<g transform="scale(1.0000, 1.0000)">
<g transform="translate(43.2288, 72.1636)">
<text font-family="IPAexGothic" font-weight="bold" font-size="1.7463" text-anchor="start" fill="currentColor">
<tspan>2</tspan>
</text>
</g>
</g>
<g transform="translate(47.1024, 63.5189)">
<path transform="scale(0.0040, -0.0040)" d="M222 135c53 0 104 -27 104 -86c0 -71 -56 -120 -103 -148c-36 -22 -76 -36 -118 -36c-53 0 -105 27 -105 86c0 71 57 120 104 148c36 22 76 36 118 36z" fill="currentColor"/>
</g>
<g transform="translate(45.6854, 67.9824)">
<text font-family="C059" font-size="2.4695" text-anchor="start" fill="currentColor">
<tspan>n’ai</tspan>
</text>
</g>
<g color="rgb(100.0000%, 100.0000%, 100.0000%)">
<g transform="translate(47.1024, 71.5189)">
<rect x="0.1110" y="-0.6489" width="1.1097" height="1.2978" ry="0.0000" fill="currentColor"/>
</g>
</g>
<g transform="scale(1.0000, 1.0000)">
<g transform="translate(47.2134, 72.1593)">
<text font-family="IPAexGothic" font-weight="bold" font-size="1.7463" text-anchor="start" fill="currentColor">
<tspan>0</tspan>
</text>
</g>
</g>
<g transform="translate(33.2227, 67.9824)">
<rect x="0.0000" y="-0.5180" width="0.6600" height="0.0980" ry="0.0301" fill="currentColor"/>
</g>
<g transform="translate(57.4963, 62.5189)">
<rect x="-0.0490" y="-1.5000" width="0.0980" height="3.3033" ry="0.0250" fill="currentColor"/>
</g>
<g transform="translate(62.8164, 65.0189)">
<path transform="scale(0.0040, -0.0040)" d="M215 114c-50 0 -71 -42 -71 -88c0 -79 60 -140 139 -140c50 0 70 42 70 88c0 79 -59 140 -138 140zM497 0c0 -43 -35 -74 -73 -95c-54 -29 -114 -40 -175 -40s-122 11 -176 40c-38 21 -73 52 -73 95s35 74 73 95c54 29 115 40 176 40s121 -11 175 -40
c38 -21 73 -52 73 -95z" fill="currentColor"/>
</g>
<g transform="translate(61.3781, 67.9824)">
<text font-family="C059" font-size="2.4695" text-anchor="start" fill="currentColor">
<tspan>feu ;</tspan>
</text>
</g>
<g color="rgb(100.0000%, 100.0000%, 100.0000%)">
<g transform="translate(62.8164, 73.0189)">
<rect x="0.1110" y="-0.6446" width="1.1097" height="1.2893" ry="0.0000" fill="currentColor"/>
</g>
</g>
<g transform="scale(1.0000, 1.0000)">
<g transform="translate(62.9274, 73.6636)">
<text font-family="IPAexGothic" font-weight="bold" font-size="1.7463" text-anchor="start" fill="currentColor">
<tspan>2</tspan>
</text>
</g>
</g>
<g color="rgb(100.0000%, 100.0000%, 100.0000%)">
<g transform="translate(56.2395, 73.0189)">
<rect x="-0.2091" y="-0.7474" width="1.7498" height="1.4948" ry="0.0000" fill="currentColor"/>
</g>
</g>
<g transform="scale(1.0000, 1.0000)">
<g transform="translate(56.0304, 73.6827)">
<text font-family="IPAexGothic" font-weight="bold" font-size="1.7463" text-anchor="start" fill="currentColor">
<tspan>♯</tspan>
</text>
</g>
</g>
<g color="rgb(100.0000%, 100.0000%, 100.0000%)">
<g transform="translate(7.7229, 71.5189)">
<rect x="0.1110" y="-0.6446" width="1.1097" height="1.2893" ry="0.0000" fill="currentColor"/>
</g>
</g>
<g transform="scale(1.0000, 1.0000)">
<g transform="translate(7.8339, 72.1636)">
<text font-family="IPAexGothic" font-weight="bold" font-size="1.7463" text-anchor="start" fill="currentColor">
<tspan>2</tspan>
</text>
</g>
</g>
<g transform="translate(8.9797, 62.5189)">
<rect x="-0.0490" y="-3.0000" width="0.0980" height="3.3033" ry="0.0250" fill="currentColor"/>
</g>
<g transform="translate(12.7503, 63.0189)">
<path transform="scale(0.0040, -0.0040)" d="M222 135c53 0 104 -27 104 -86c0 -71 -56 -120 -103 -148c-36 -22 -76 -36 -118 -36c-53 0 -105 27 -105 86c0 71 57 120 104 148c36 22 76 36 118 36z" fill="currentColor"/>
</g>
<g transform="translate(10.6717, 67.9824)">
<text font-family="C059" font-size="2.4695" text-anchor="start" fill="currentColor">
<tspan>chan</tspan>
</text>
</g>
<g color="rgb(100.0000%, 100.0000%, 100.0000%)">
<g transform="translate(12.7503, 71.5189)">
<rect x="0.1110" y="-0.6446" width="1.1097" height="1.2893" ry="0.0000" fill="currentColor"/>
</g>
</g>
<g transform="scale(1.0000, 1.0000)">
<g transform="translate(12.8612, 72.1636)">
<text font-family="IPAexGothic" font-weight="bold" font-size="1.7463" text-anchor="start" fill="currentColor">
<tspan>2</tspan>
</text>
</g>
</g>
<g transform="translate(14.0071, 62.5189)">
<rect x="-0.0490" y="-3.0000" width="0.0980" height="3.3033" ry="0.0250" fill="currentColor"/>
</g>
<g transform="translate(6.5300, 67.9824)">
<text font-family="C059" font-size="2.4695" text-anchor="start" fill="currentColor">
<tspan>Ma</tspan>
</text>
</g>
<g transform="translate(18.2598, 63.0189)">
<path transform="scale(0.0040, -0.0040)" d="M222 135c53 0 104 -27 104 -86c0 -71 -56 -120 -103 -148c-36 -22 -76 -36 -118 -36c-53 0 -105 27 -105 86c0 71 57 120 104 148c36 22 76 36 118 36z" fill="currentColor"/>
</g>
<g transform="translate(16.2346, 67.9824)">
<text font-family="C059" font-size="2.4695" text-anchor="start" fill="currentColor">
<tspan>delle</tspan>
</text>
</g>
<g color="rgb(100.0000%, 100.0000%, 100.0000%)">
<g transform="translate(18.2598, 71.5189)">
<rect x="0.1110" y="-0.6446" width="1.1097" height="1.2893" ry="0.0000" fill="currentColor"/>
</g>
</g>
<g transform="scale(1.0000, 1.0000)">
<g transform="translate(18.3708, 72.1636)">
<text font-family="IPAexGothic" font-weight="bold" font-size="1.7463" text-anchor="start" fill="currentColor">
<tspan>2</tspan>
</text>
</g>
</g>
<g transform="translate(19.5167, 62.5189)">
<rect x="-0.0490" y="-3.0000" width="0.0980" height="3.3033" ry="0.0250" fill="currentColor"/>
</g>
<g transform="translate(43.1179, 63.0189)">
<path transform="scale(0.0040, -0.0040)" d="M222 135c53 0 104 -27 104 -86c0 -71 -56 -120 -103 -148c-36 -22 -76 -36 -118 -36c-53 0 -105 27 -105 86c0 71 57 120 104 148c36 22 76 36 118 36z" fill="currentColor"/>
</g>
<g transform="translate(2.2860, 60.2562)">
<path transform="scale(0.0040, -0.0040)" d="M0 -56v91c0 12 10 21 22 21h43c164 0 281 136 377 272c10 14 32 -1 22 -15c-103 -145 -222 -369 -399 -369h-65z" fill="currentColor"/>
</g>
<g transform="translate(2.2860, 73.2816)">
<path transform="scale(0.0040, -0.0040)" d="M0 56h65c177 0 296 -224 399 -369c10 -14 -12 -29 -22 -15c-96 136 -213 272 -377 272h-43c-12 0 -22 9 -22 21v91z" fill="currentColor"/>
</g>
<g transform="translate(2.2860, 66.7689)">
<rect x="0.0000" y="-6.3327" width="0.4500" height="12.6654" ry="0.0000" fill="currentColor"/>
</g>
<g transform="translate(3.5360, 66.7689)">
<rect x="0.0000" y="-6.2877" width="0.1206" height="12.5754" ry="0.0377" fill="currentColor"/>
</g>
<g transform="translate(4.3566, 63.5189)">
<path transform="scale(0.0040, -0.0040)" d="M374 260c5 0 10 1 15 1c154 0 254 -127 254 -259c0 -76 -33 -153 -107 -208c-22 -17 -47 -29 -73 -37c3 -36 5 -72 5 -108c0 -19 0 -37 -1 -56c-7 -120 -88 -226 -206 -226c-108 0 -195 87 -195 195c0 58 53 104 112 104c54 0 95 -48 95 -104c0 -52 -43 -95 -95 -95
c-12 0 -24 4 -35 9c26 -41 70 -70 121 -70c1 0 2 1 3 1c93 2 154 93 160 192c1 18 2 35 2 53c0 32 -2 64 -5 96c-29 -5 -58 -8 -89 -8c-188 0 -333 171 -333 372c0 178 133 306 251 440c-18 63 -35 126 -42 191c-6 51 -7 102 -7 154c0 116 55 226 150 295c5 4 11 4 16 0
c70 -84 132 -246 132 -359c0 -144 -87 -256 -183 -365c20 -69 39 -138 55 -208zM459 -205c69 24 117 96 117 166c0 92 -69 184 -179 193c25 -117 48 -235 62 -359zM71 31c0 -136 131 -251 267 -251c28 0 55 2 82 6c-15 128 -38 247 -64 367c-79 -9 -125 -62 -125 -121
c0 -44 26 -92 82 -124c4 -4 7 -9 7 -14c0 -11 -9 -21 -20 -21c-3 0 -6 1 -9 2c-80 43 -116 114 -116 184c0 88 57 173 158 196c-14 60 -30 119 -46 178c-108 -121 -216 -242 -216 -402zM411 1050c-99 -50 -161 -151 -161 -262c0 -76 15 -137 33 -200c82 97 149 198 149 325
c0 58 -4 84 -21 137z" fill="currentColor"/>
</g>
<g transform="translate(4.9451, 67.0528)">
<text font-family="IPAexGothic" font-style="italic" font-size="1.3862" text-anchor="start" fill="currentColor">
<tspan>8</tspan>
</text>
</g>
<g transform="translate(7.7229, 63.0189)">
<path transform="scale(0.0040, -0.0040)" d="M222 135c53 0 104 -27 104 -86c0 -71 -56 -120 -103 -148c-36 -22 -76 -36 -118 -36c-53 0 -105 27 -105 86c0 71 57 120 104 148c36 22 76 36 118 36z" fill="currentColor"/>
</g>
<g transform="translate(30.0712, 71.5189)">
<path stroke-width="0.1200" stroke-linejoin="round" stroke-linecap="square" stroke="currentColor" fill="none" d="M2 -0.6700l1 0"/>
</g>
<g transform="translate(35.5063, 64.5189)">
<path transform="scale(0.0040, -0.0040)" d="M316 67c0 25 -20 42 -42 42c-4 0 -9 -1 -13 -2c-31 -9 -79 -41 -117 -65s-86 -55 -107 -80c-7 -8 -10 -19 -10 -29c0 -25 20 -42 42 -42c4 0 9 1 13 2c31 9 79 41 117 65s86 55 107 80c7 8 10 19 10 29zM265 135c44 0 78 -21 78 -68c0 -19 -5 -39 -11 -57
c-12 -37 -33 -71 -65 -93c-53 -36 -114 -52 -189 -52c-44 0 -78 21 -78 68c0 19 5 39 11 57c12 37 33 71 65 93c53 36 114 52 189 52z" fill="currentColor"/>
</g>
<g transform="translate(34.7519, 67.9824)">
<text font-family="C059" font-size="2.4695" text-anchor="start" fill="currentColor">
<tspan>te,</tspan>
</text>
</g>
<g color="rgb(100.0000%, 100.0000%, 100.0000%)">
<g transform="translate(35.5063, 73.0189)">
<rect x="-0.2091" y="-0.7474" width="1.7498" height="1.4948" ry="0.0000" fill="currentColor"/>
</g>
</g>
<g transform="scale(1.0000, 1.0000)">
<g transform="translate(35.2971, 73.6827)">
<text font-family="IPAexGothic" font-weight="bold" font-size="1.7463" text-anchor="start" fill="currentColor">
<tspan>♯</tspan>
</text>
</g>
</g>
<g transform="translate(36.8293, 62.5189)">
<rect x="-0.0490" y="-1.5000" width="0.0980" height="3.2316" ry="0.0250" fill="currentColor"/>
</g>
<g transform="translate(36.1721, 71.5189)">
<path stroke-width="0.1200" stroke-linejoin="round" stroke-linecap="square" stroke="currentColor" fill="none" d="M2 -0.6700l1 0"/>
</g>
<g transform="translate(23.0311, 63.0189)">
<path transform="scale(0.0040, -0.0040)" d="M222 135c53 0 104 -27 104 -86c0 -71 -56 -120 -103 -148c-36 -22 -76 -36 -118 -36c-53 0 -105 27 -105 86c0 71 57 120 104 148c36 22 76 36 118 36z" fill="currentColor"/>
</g>
<g transform="translate(22.0409, 67.9824)">
<text font-family="C059" font-size="2.4695" text-anchor="start" fill="currentColor">
<tspan>est</tspan>
</text>
</g>
<g color="rgb(100.0000%, 100.0000%, 100.0000%)">
<g transform="translate(23.0311, 71.5189)">
<rect x="0.1110" y="-0.6446" width="1.1097" height="1.2893" ry="0.0000" fill="currentColor"/>
</g>
</g>
<g transform="scale(1.0000, 1.0000)">
<g transform="translate(23.1421, 72.1636)">
<text font-family="IPAexGothic" font-weight="bold" font-size="1.7463" text-anchor="start" fill="currentColor">
<tspan>2</tspan>
</text>
</g>
</g>
<g transform="translate(24.2879, 62.5189)">
<rect x="-0.0490" y="-3.0000" width="0.0980" height="3.3033" ry="0.0250" fill="currentColor"/>
</g>
<g transform="translate(29.4054, 64.5189)">
<path transform="scale(0.0040, -0.0040)" d="M316 67c0 25 -20 42 -42 42c-4 0 -9 -1 -13 -2c-31 -9 -79 -41 -117 -65s-86 -55 -107 -80c-7 -8 -10 -19 -10 -29c0 -25 20 -42 42 -42c4 0 9 1 13 2c31 9 79 41 117 65s86 55 107 80c7 8 10 19 10 29zM265 135c44 0 78 -21 78 -68c0 -19 -5 -39 -11 -57
c-12 -37 -33 -71 -65 -93c-53 -36 -114 -52 -189 -52c-44 0 -78 21 -78 68c0 19 5 39 11 57c12 37 33 71 65 93c53 36 114 52 189 52z" fill="currentColor"/>
</g>
<g transform="translate(27.8294, 67.9824)">
<text font-family="C059" font-size="2.4695" text-anchor="start" fill="currentColor">
<tspan>mor</tspan>
</text>
</g>
<g color="rgb(100.0000%, 100.0000%, 100.0000%)">
<g transform="translate(29.4054, 73.0189)">
<rect x="-0.2091" y="-0.7474" width="1.7498" height="1.4948" ry="0.0000" fill="currentColor"/>
</g>
</g>
<g transform="scale(1.0000, 1.0000)">
<g transform="translate(29.1963, 73.6827)">
<text font-family="IPAexGothic" font-weight="bold" font-size="1.7463" text-anchor="start" fill="currentColor">
<tspan>♯</tspan>
</text>
</g>
</g>
<g transform="translate(30.7285, 62.5189)">
<rect x="-0.0490" y="-1.5000" width="0.0980" height="3.2316" ry="0.0250" fill="currentColor"/>
</g>
<g transform="translate(38.4302, 83.5189)">
<rect x="0.0000" y="-2.0000" width="0.1432" height="4.0377" ry="0.0000" fill="currentColor"/>
</g>
<g transform="translate(70.6797, 92.6534)">
<rect x="0.0000" y="-1.5377" width="0.4521" height="3.0377" ry="0.0000" fill="currentColor"/>
</g>
<g transform="translate(70.3105, 92.6534)">
<rect x="0.0000" y="-1.5377" width="0.1432" height="3.0377" ry="0.0000" fill="currentColor"/>
</g>
<g transform="translate(59.1101, 83.5189)">
<rect x="0.0000" y="-2.0000" width="0.1432" height="4.0377" ry="0.0000" fill="currentColor"/>
</g>
<g transform="translate(38.4302, 92.6534)">
<rect x="0.0000" y="-1.5377" width="0.1432" height="3.0377" ry="0.0000" fill="currentColor"/>
</g>
<g transform="translate(70.6797, 79.7389)">
<rect x="0.0000" y="5.8177" width="0.4521" height="5.5968" ry="0.0000" fill="currentColor"/>
</g>
<g transform="translate(70.3105, 79.7389)">
<rect x="0.0000" y="5.8177" width="0.1432" height="5.5968" ry="0.0000" fill="currentColor"/>
</g>
<g transform="translate(38.4302, 79.7389)">
<rect x="0.0000" y="5.8177" width="0.1432" height="5.5968" ry="0.0000" fill="currentColor"/>
</g>
<g transform="translate(24.0880, 79.7389)">
<rect x="0.0000" y="5.8177" width="0.1432" height="5.5968" ry="0.0000" fill="currentColor"/>
</g>
<g transform="translate(70.6797, 83.5189)">
<rect x="0.0000" y="-2.0000" width="0.4521" height="4.0377" ry="0.0000" fill="currentColor"/>
</g>
<g transform="translate(70.3105, 83.5189)">
<rect x="0.0000" y="-2.0000" width="0.1432" height="4.0377" ry="0.0000" fill="currentColor"/>
</g>
<g transform="translate(24.0880, 92.6534)">
<rect x="0.0000" y="-1.5377" width="0.1432" height="3.0377" ry="0.0000" fill="currentColor"/>
</g>
<g transform="translate(24.0880, 83.5189)">
<rect x="0.0000" y="-2.0000" width="0.1432" height="4.0377" ry="0.0000" fill="currentColor"/>
</g>
<g transform="translate(59.1101, 92.6534)">
<rect x="0.0000" y="-1.5377" width="0.1432" height="3.0377" ry="0.0000" fill="currentColor"/>
</g>
<g transform="translate(59.1101, 79.7389)">
<rect x="0.0000" y="5.8177" width="0.1432" height="5.5968" ry="0.0000" fill="currentColor"/>
</g>
<g transform="translate(3.5566, 94.1534)">
<line stroke-linejoin="round" stroke-linecap="round" stroke-width="0.0754" stroke="currentColor" x1="0.0377" y1="0" x2="67.5376" y2="0"/>
</g>
<g transform="translate(3.5566, 92.6534)">
<line stroke-linejoin="round" stroke-linecap="round" stroke-width="0.0754" stroke="currentColor" x1="0.0377" y1="0" x2="67.5376" y2="0"/>
</g>
<g transform="translate(3.5566, 91.1534)">
<line stroke-linejoin="round" stroke-linecap="round" stroke-width="0.0754" stroke="currentColor" x1="0.0377" y1="0" x2="67.5376" y2="0"/>
</g>
<g transform="translate(3.5566, 85.5189)">
<line stroke-linejoin="round" stroke-linecap="round" stroke-width="0.0754" stroke="currentColor" x1="0.0377" y1="0" x2="67.5376" y2="0"/>
</g>
<g transform="translate(3.5566, 84.5189)">
<line stroke-linejoin="round" stroke-linecap="round" stroke-width="0.0754" stroke="currentColor" x1="0.0377" y1="0" x2="67.5376" y2="0"/>
</g>
<g transform="translate(3.5566, 83.5189)">
<line stroke-linejoin="round" stroke-linecap="round" stroke-width="0.0754" stroke="currentColor" x1="0.0377" y1="0" x2="67.5376" y2="0"/>
</g>
<g transform="translate(3.5566, 82.5189)">
<line stroke-linejoin="round" stroke-linecap="round" stroke-width="0.0754" stroke="currentColor" x1="0.0377" y1="0" x2="67.5376" y2="0"/>
</g>
<g transform="translate(3.5566, 81.5189)">
<line stroke-linejoin="round" stroke-linecap="round" stroke-width="0.0754" stroke="currentColor" x1="0.0377" y1="0" x2="67.5376" y2="0"/>
</g>
<g transform="translate(45.7883, 83.5189)">
<rect x="-0.0490" y="0.1967" width="0.0980" height="3.1366" ry="0.0250" fill="currentColor"/>
</g>
<g transform="translate(45.0692, 89.1169)">
<text font-family="C059" font-size="2.4695" text-anchor="start" fill="currentColor">
<tspan>l’a</tspan>
</text>
</g>
<g color="rgb(100.0000%, 100.0000%, 100.0000%)">
<g transform="translate(45.7394, 92.6534)">
<rect x="-0.2091" y="-0.7474" width="1.7498" height="1.4948" ry="0.0000" fill="currentColor"/>
</g>
</g>
<g transform="scale(1.0000, 1.0000)">
<g transform="translate(45.5302, 93.3172)">
<text font-family="IPAexGothic" font-weight="bold" font-size="1.7463" text-anchor="start" fill="currentColor">
<tspan>♯</tspan>
</text>
</g>
</g>
<g transform="translate(54.3044, 89.1169)">
<text font-family="C059" font-size="2.4695" text-anchor="start" fill="currentColor">
<tspan>de</tspan>
</text>
</g>
<g transform="translate(50.1820, 84.0189)">
<path transform="scale(0.0040, -0.0040)" d="M222 135c53 0 104 -27 104 -86c0 -71 -56 -120 -103 -148c-36 -22 -76 -36 -118 -36c-53 0 -105 27 -105 86c0 71 57 120 104 148c36 22 76 36 118 36z" fill="currentColor"/>
</g>
<g transform="translate(47.8153, 89.1169)">
<text font-family="C059" font-size="2.4695" text-anchor="start" fill="currentColor">
<tspan>mour</tspan>
</text>
</g>
<g color="rgb(100.0000%, 100.0000%, 100.0000%)">
<g transform="translate(50.1820, 92.6534)">
<rect x="0.1110" y="-0.6446" width="1.1097" height="1.2893" ry="0.0000" fill="currentColor"/>
</g>
</g>
<g transform="scale(1.0000, 1.0000)">
<g transform="translate(50.2929, 93.2980)">
<text font-family="IPAexGothic" font-weight="bold" font-size="1.7463" text-anchor="start" fill="currentColor">
<tspan>2</tspan>
</text>
</g>
</g>
<g transform="translate(51.4388, 83.5189)">
<rect x="-0.0490" y="-3.0000" width="0.0980" height="3.3033" ry="0.0250" fill="currentColor"/>
</g>
<g transform="translate(54.9746, 84.0189)">
<path transform="scale(0.0040, -0.0040)" d="M222 135c53 0 104 -27 104 -86c0 -71 -56 -120 -103 -148c-36 -22 -76 -36 -118 -36c-53 0 -105 27 -105 86c0 71 57 120 104 148c36 22 76 36 118 36z" fill="currentColor"/>
</g>
<g transform="translate(41.2562, 84.5189)">
<path transform="scale(0.0040, -0.0040)" d="M222 135c53 0 104 -27 104 -86c0 -71 -56 -120 -103 -148c-36 -22 -76 -36 -118 -36c-53 0 -105 27 -105 86c0 71 57 120 104 148c36 22 76 36 118 36z" fill="currentColor"/>
</g>
<g transform="translate(10.1883, 89.1169)">
<rect x="0.0000" y="-0.5180" width="0.3646" height="0.0980" ry="0.0301" fill="currentColor"/>
</g>
<g transform="translate(39.1990, 89.1169)">
<text font-family="C059" font-size="2.4695" text-anchor="start" fill="currentColor">
<tspan>Pour</tspan>
</text>
</g>
<g color="rgb(100.0000%, 100.0000%, 100.0000%)">
<g transform="translate(41.2562, 92.6534)">
<rect x="0.1110" y="-0.6489" width="1.1097" height="1.2978" ry="0.0000" fill="currentColor"/>
</g>
</g>
<g transform="scale(1.0000, 1.0000)">
<g transform="translate(41.3672, 93.2937)">
<text font-family="IPAexGothic" font-weight="bold" font-size="1.7463" text-anchor="start" fill="currentColor">
<tspan>0</tspan>
</text>
</g>
</g>
<g transform="translate(42.5130, 83.5189)">
<rect x="-0.0490" y="-2.5000" width="0.0980" height="3.3033" ry="0.0250" fill="currentColor"/>
</g>
<g transform="translate(45.7394, 83.5189)">
<path transform="scale(0.0040, -0.0040)" d="M222 135c53 0 104 -27 104 -86c0 -71 -56 -120 -103 -148c-36 -22 -76 -36 -118 -36c-53 0 -105 27 -105 86c0 71 57 120 104 148c36 22 76 36 118 36z" fill="currentColor"/>
</g>
<g transform="translate(29.7293, 89.1169)">
<rect x="0.0000" y="-0.5180" width="0.6600" height="0.0980" ry="0.0301" fill="currentColor"/>
</g>
<g transform="translate(56.2314, 83.5189)">
<rect x="-0.0490" y="-3.0000" width="0.0980" height="3.3033" ry="0.0250" fill="currentColor"/>
</g>
<g transform="translate(61.9361, 84.5189)">
<path transform="scale(0.0040, -0.0040)" d="M215 114c-50 0 -71 -42 -71 -88c0 -79 60 -140 139 -140c50 0 70 42 70 88c0 79 -59 140 -138 140zM497 0c0 -43 -35 -74 -73 -95c-54 -29 -114 -40 -175 -40s-122 11 -176 40c-38 21 -73 52 -73 95s35 74 73 95c54 29 115 40 176 40s121 -11 175 -40
c38 -21 73 -52 73 -95z" fill="currentColor"/>
</g>
<g transform="translate(59.8789, 89.1169)">
<text font-family="C059" font-size="2.4695" text-anchor="start" fill="currentColor">
<tspan>Dieu.</tspan>
</text>
</g>
<g color="rgb(100.0000%, 100.0000%, 100.0000%)">
<g transform="translate(61.9361, 92.6534)">
<rect x="0.1110" y="-0.6489" width="1.1097" height="1.2978" ry="0.0000" fill="currentColor"/>
</g>
</g>
<g transform="scale(1.0000, 1.0000)">
<g transform="translate(62.0470, 93.2937)">
<text font-family="IPAexGothic" font-weight="bold" font-size="1.7463" text-anchor="start" fill="currentColor">
<tspan>0</tspan>
</text>
</g>
</g>
<g color="rgb(100.0000%, 100.0000%, 100.0000%)">
<g transform="translate(54.9746, 92.6534)">
<rect x="0.1110" y="-0.6446" width="1.1097" height="1.2893" ry="0.0000" fill="currentColor"/>
</g>
</g>
<g transform="scale(1.0000, 1.0000)">
<g transform="translate(55.0855, 93.2980)">
<text font-family="IPAexGothic" font-weight="bold" font-size="1.7463" text-anchor="start" fill="currentColor">
<tspan>2</tspan>
</text>
</g>
</g>
<g color="rgb(100.0000%, 100.0000%, 100.0000%)">
<g transform="translate(7.7476, 92.6534)">
<rect x="0.1110" y="-0.6489" width="1.1097" height="1.2978" ry="0.0000" fill="currentColor"/>
</g>
</g>
<g transform="scale(1.0000, 1.0000)">
<g transform="translate(7.8586, 93.2937)">
<text font-family="IPAexGothic" font-weight="bold" font-size="1.7463" text-anchor="start" fill="currentColor">
<tspan>0</tspan>
</text>
</g>
</g>
<g transform="translate(9.0044, 83.5189)">
<rect x="-0.0490" y="-2.5000" width="0.0980" height="3.3033" ry="0.0250" fill="currentColor"/>
</g>
<g transform="translate(11.8159, 84.5189)">
<path transform="scale(0.0040, -0.0040)" d="M222 135c53 0 104 -27 104 -86c0 -71 -56 -120 -103 -148c-36 -22 -76 -36 -118 -36c-53 0 -105 27 -105 86c0 71 57 120 104 148c36 22 76 36 118 36z" fill="currentColor"/>
</g>
<g transform="translate(10.6229, 89.1169)">
<text font-family="C059" font-size="2.4695" text-anchor="start" fill="currentColor">
<tspan>vre</tspan>
</text>
</g>
<g color="rgb(100.0000%, 100.0000%, 100.0000%)">
<g transform="translate(11.8159, 92.6534)">
<rect x="0.1110" y="-0.6489" width="1.1097" height="1.2978" ry="0.0000" fill="currentColor"/>
</g>
</g>
<g transform="scale(1.0000, 1.0000)">
<g transform="translate(11.9269, 93.2937)">
<text font-family="IPAexGothic" font-weight="bold" font-size="1.7463" text-anchor="start" fill="currentColor">
<tspan>0</tspan>
</text>
</g>
</g>
<g transform="translate(13.0727, 83.5189)">
<rect x="-0.0490" y="-2.5000" width="0.0980" height="3.3033" ry="0.0250" fill="currentColor"/>
</g>
<g transform="translate(6.6827, 89.1169)">
<text font-family="C059" font-size="2.4695" text-anchor="start" fill="currentColor">
<tspan>Ou</tspan>
</text>
</g>
<g transform="translate(15.8842, 84.5189)">
<path transform="scale(0.0040, -0.0040)" d="M222 135c53 0 104 -27 104 -86c0 -71 -56 -120 -103 -148c-36 -22 -76 -36 -118 -36c-53 0 -105 27 -105 86c0 71 57 120 104 148c36 22 76 36 118 36z" fill="currentColor"/>
</g>
<g transform="translate(14.4351, 89.1169)">
<text font-family="C059" font-size="2.4695" text-anchor="start" fill="currentColor">
<tspan>moi</tspan>
</text>
</g>
<g color="rgb(100.0000%, 100.0000%, 100.0000%)">
<g transform="translate(15.8842, 92.6534)">
<rect x="0.1110" y="-0.6489" width="1.1097" height="1.2978" ry="0.0000" fill="currentColor"/>
</g>
</g>
<g transform="scale(1.0000, 1.0000)">
<g transform="translate(15.9952, 93.2937)">
<text font-family="IPAexGothic" font-weight="bold" font-size="1.7463" text-anchor="start" fill="currentColor">
<tspan>0</tspan>
</text>
</g>
</g>
<g transform="translate(17.1410, 83.5189)">
<rect x="-0.0490" y="-2.5000" width="0.0980" height="3.3033" ry="0.0250" fill="currentColor"/>
</g>
<g transform="translate(2.2860, 81.2562)">
<path transform="scale(0.0040, -0.0040)" d="M0 -56v91c0 12 10 21 22 21h43c164 0 281 136 377 272c10 14 32 -1 22 -15c-103 -145 -222 -369 -399 -369h-65z" fill="currentColor"/>
</g>
<g transform="translate(2.2860, 94.4161)">
<path transform="scale(0.0040, -0.0040)" d="M0 56h65c177 0 296 -224 399 -369c10 -14 -12 -29 -22 -15c-96 136 -213 272 -377 272h-43c-12 0 -22 9 -22 21v91z" fill="currentColor"/>
</g>
<g transform="translate(2.2860, 87.8362)">
<rect x="0.0000" y="-6.3999" width="0.4500" height="12.7998" ry="0.0000" fill="currentColor"/>
</g>
<g transform="translate(3.5360, 87.8362)">
<rect x="0.0000" y="-6.3549" width="0.1206" height="12.7098" ry="0.0377" fill="currentColor"/>
</g>
<g transform="translate(4.3566, 84.5189)">
<path transform="scale(0.0040, -0.0040)" d="M374 260c5 0 10 1 15 1c154 0 254 -127 254 -259c0 -76 -33 -153 -107 -208c-22 -17 -47 -29 -73 -37c3 -36 5 -72 5 -108c0 -19 0 -37 -1 -56c-7 -120 -88 -226 -206 -226c-108 0 -195 87 -195 195c0 58 53 104 112 104c54 0 95 -48 95 -104c0 -52 -43 -95 -95 -95
c-12 0 -24 4 -35 9c26 -41 70 -70 121 -70c1 0 2 1 3 1c93 2 154 93 160 192c1 18 2 35 2 53c0 32 -2 64 -5 96c-29 -5 -58 -8 -89 -8c-188 0 -333 171 -333 372c0 178 133 306 251 440c-18 63 -35 126 -42 191c-6 51 -7 102 -7 154c0 116 55 226 150 295c5 4 11 4 16 0
c70 -84 132 -246 132 -359c0 -144 -87 -256 -183 -365c20 -69 39 -138 55 -208zM459 -205c69 24 117 96 117 166c0 92 -69 184 -179 193c25 -117 48 -235 62 -359zM71 31c0 -136 131 -251 267 -251c28 0 55 2 82 6c-15 128 -38 247 -64 367c-79 -9 -125 -62 -125 -121
c0 -44 26 -92 82 -124c4 -4 7 -9 7 -14c0 -11 -9 -21 -20 -21c-3 0 -6 1 -9 2c-80 43 -116 114 -116 184c0 88 57 173 158 196c-14 60 -30 119 -46 178c-108 -121 -216 -242 -216 -402zM411 1050c-99 -50 -161 -151 -161 -262c0 -76 15 -137 33 -200c82 97 149 198 149 325
c0 58 -4 84 -21 137z" fill="currentColor"/>
</g>
<g transform="translate(4.9451, 88.0528)">
<text font-family="IPAexGothic" font-style="italic" font-size="1.3862" text-anchor="start" fill="currentColor">
<tspan>8</tspan>
</text>
</g>
<g transform="translate(7.7476, 84.5189)">
<path transform="scale(0.0040, -0.0040)" d="M222 135c53 0 104 -27 104 -86c0 -71 -56 -120 -103 -148c-36 -22 -76 -36 -118 -36c-53 0 -105 27 -105 86c0 71 57 120 104 148c36 22 76 36 118 36z" fill="currentColor"/>
</g>
<g transform="translate(26.7038, 92.6534)">
<path stroke-width="0.1200" stroke-linejoin="round" stroke-linecap="square" stroke="currentColor" fill="none" d="M2 -0.6700l1 0"/>
</g>
<g transform="translate(32.2818, 84.0189)">
<path transform="scale(0.0040, -0.0040)" d="M316 67c0 25 -20 42 -42 42c-4 0 -9 -1 -13 -2c-31 -9 -79 -41 -117 -65s-86 -55 -107 -80c-7 -8 -10 -19 -10 -29c0 -25 20 -42 42 -42c4 0 9 1 13 2c31 9 79 41 117 65s86 55 107 80c7 8 10 19 10 29zM265 135c44 0 78 -21 78 -68c0 -19 -5 -39 -11 -57
c-12 -37 -33 -71 -65 -93c-53 -36 -114 -52 -189 -52c-44 0 -78 21 -78 68c0 19 5 39 11 57c12 37 33 71 65 93c53 36 114 52 189 52z" fill="currentColor"/>
</g>
<g transform="translate(31.5274, 89.1169)">
<text font-family="C059" font-size="2.4695" text-anchor="start" fill="currentColor">
<tspan>te,</tspan>
</text>
</g>
<g color="rgb(100.0000%, 100.0000%, 100.0000%)">
<g transform="translate(32.2818, 92.6534)">
<rect x="0.1110" y="-0.6446" width="1.1097" height="1.2893" ry="0.0000" fill="currentColor"/>
</g>
</g>
<g transform="scale(1.0000, 1.0000)">
<g transform="translate(32.3927, 93.2980)">
<text font-family="IPAexGothic" font-weight="bold" font-size="1.7463" text-anchor="start" fill="currentColor">
<tspan>2</tspan>
</text>
</g>
</g>
<g transform="translate(33.6048, 83.5189)">
<rect x="-0.0490" y="-3.0000" width="0.0980" height="3.2316" ry="0.0250" fill="currentColor"/>
</g>
<g transform="translate(32.9476, 92.6534)">
<path stroke-width="0.1200" stroke-linejoin="round" stroke-linecap="square" stroke="currentColor" fill="none" d="M2 -0.6700l1 0"/>
</g>
<g transform="translate(19.9525, 84.0189)">
<path transform="scale(0.0040, -0.0040)" d="M222 135c53 0 104 -27 104 -86c0 -71 -56 -120 -103 -148c-36 -22 -76 -36 -118 -36c-53 0 -105 27 -105 86c0 71 57 120 104 148c36 22 76 36 118 36z" fill="currentColor"/>
</g>
<g transform="translate(19.4424, 89.1169)">
<text font-family="C059" font-size="2.4695" text-anchor="start" fill="currentColor">
<tspan>ta</tspan>
</text>
</g>
<g color="rgb(100.0000%, 100.0000%, 100.0000%)">
<g transform="translate(19.9525, 92.6534)">
<rect x="0.1110" y="-0.6446" width="1.1097" height="1.2893" ry="0.0000" fill="currentColor"/>
</g>
</g>
<g transform="scale(1.0000, 1.0000)">
<g transform="translate(20.0634, 93.2980)">
<text font-family="IPAexGothic" font-weight="bold" font-size="1.7463" text-anchor="start" fill="currentColor">
<tspan>2</tspan>
</text>
</g>
</g>
<g transform="translate(21.2093, 83.5189)">
<rect x="-0.0490" y="-3.0000" width="0.0980" height="3.3033" ry="0.0250" fill="currentColor"/>
</g>
<g transform="translate(26.0380, 83.5189)">
<path transform="scale(0.0040, -0.0040)" d="M316 67c0 25 -20 42 -42 42c-4 0 -9 -1 -13 -2c-31 -9 -79 -41 -117 -65s-86 -55 -107 -80c-7 -8 -10 -19 -10 -29c0 -25 20 -42 42 -42c4 0 9 1 13 2c31 9 79 41 117 65s86 55 107 80c7 8 10 19 10 29zM265 135c44 0 78 -21 78 -68c0 -19 -5 -39 -11 -57
c-12 -37 -33 -71 -65 -93c-53 -36 -114 -52 -189 -52c-44 0 -78 21 -78 68c0 19 5 39 11 57c12 37 33 71 65 93c53 36 114 52 189 52z" fill="currentColor"/>
</g>
<g transform="translate(24.8568, 89.1169)">
<text font-family="C059" font-size="2.4695" text-anchor="start" fill="currentColor">
<tspan>por</tspan>
</text>
</g>
<g color="rgb(100.0000%, 100.0000%, 100.0000%)">
<g transform="translate(26.0380, 92.6534)">
<rect x="-0.2091" y="-0.7474" width="1.7498" height="1.4948" ry="0.0000" fill="currentColor"/>
</g>
</g>
<g transform="scale(1.0000, 1.0000)">
<g transform="translate(25.8289, 93.3172)">
<text font-family="IPAexGothic" font-weight="bold" font-size="1.7463" text-anchor="start" fill="currentColor">
<tspan>♯</tspan>
</text>
</g>
</g>
<g transform="translate(26.0870, 83.5189)">
<rect x="-0.0490" y="0.2684" width="0.0980" height="3.0649" ry="0.0250" fill="currentColor"/>
</g>
</svg>
