<svg xmlns="http://www.w3.org/2000/svg" xmlns:xlink="http://www.w3.org/1999/xlink" version="1.2" width="210.00mm" height="297.00mm" viewBox="0 0 66.3898 93.8941">
<style type="text/css">
<![CDATA[
tspan { white-space: pre; }
]]>
</style>
<!-- Page: 1/1 -->
<g transform="translate(18.4184, 5.1546)">
<text font-family="C059" font-size="3.4924" text-anchor="start" fill="currentColor">
<tspan>Au clair de la lune</tspan>
</text>
</g>
<g transform="translate(3.1614, 8.6546)">
<text font-family="IPAexGothic" font-size="2.2000" text-anchor="start" fill="currentColor">
<tspan>4/4 二上り</tspan>
</text>
</g>
<g transform="translate(3.1614, 16.9940)">
<line stroke-linejoin="round" stroke-linecap="round" stroke-width="0.0708" stroke="currentColor" x1="0.0354" y1="0" x2="60.0315" y2="0"/>
</g>
<g transform="translate(3.1614, 15.4940)">
<line stroke-linejoin="round" stroke-linecap="round" stroke-width="0.0708" stroke="currentColor" x1="0.0354" y1="0" x2="60.0315" y2="0"/>
</g>
<g transform="translate(3.1614, 13.9940)">
<line stroke-linejoin="round" stroke-linecap="round" stroke-width="0.0708" stroke="currentColor" x1="0.0354" y1="0" x2="60.0315" y2="0"/>
</g>
<g transform="translate(63.0938, 15.4940)">
<rect x="0.0000" y="-1.5000" width="0.1345" height="3.0000" ry="0.0000" fill="currentColor"/>
</g>
<g transform="translate(22.0517, 15.4940)">
<rect x="0.0000" y="-1.5000" width="0.1345" height="3.0000" ry="0.0000" fill="currentColor"/>
</g>
<g transform="translate(52.8569, 15.4940)">
<rect x="0.0000" y="-1.5000" width="0.1345" height="3.0000" ry="0.0000" fill="currentColor"/>
</g>
<g transform="translate(35.2540, 15.4940)">
<rect x="0.0000" y="-1.5000" width="0.1345" height="3.0000" ry="0.0000" fill="currentColor"/>
</g>
<g transform="translate(47.1587, 19.3495)">
<text font-family="C059" font-size="2.4695" text-anchor="start" fill="currentColor">
<tspan>Pier</tspan>
</text>
</g>
<g color="rgb(100.0000%, 100.0000%, 100.0000%)">
<g transform="translate(48.8981, 15.4940)">
<rect x="0.1100" y="-0.6446" width="1.1002" height="1.2892" ry="0.0000" fill="currentColor"/>
</g>
</g>
<g transform="scale(1.0000, 1.0000)">
<g transform="translate(49.0081, 16.1386)">
<text font-family="IPAexGothic" font-weight="bold" font-size="1.7462" text-anchor="start" fill="currentColor">
<tspan>2</tspan>
</text>
</g>
</g>
<g color="rgb(100.0000%, 100.0000%, 100.0000%)">
<g transform="translate(36.5819, 15.4940)">
<rect x="0.1100" y="-0.6489" width="1.1002" height="1.2977" ry="0.0000" fill="currentColor"/>
</g>
</g>
<g transform="scale(1.0000, 1.0000)">
<g transform="translate(36.6919, 16.1343)">
<text font-family="IPAexGothic" font-weight="bold" font-size="1.7462" text-anchor="start" fill="currentColor">
<tspan>0</tspan>
</text>
</g>
</g>
<g transform="translate(43.7306, 19.3495)">
<text font-family="C059" font-size="2.4695" text-anchor="start" fill="currentColor">
<tspan>mi</tspan>
</text>
</g>
<g color="rgb(100.0000%, 100.0000%, 100.0000%)">
<g transform="translate(44.5595, 15.4940)">
<rect x="0.1100" y="-0.6446" width="1.1002" height="1.2892" ry="0.0000" fill="currentColor"/>
</g>
</g>
<g transform="scale(1.0000, 1.0000)">
<g transform="translate(44.6696, 16.1386)">
<text font-family="IPAexGothic" font-weight="bold" font-size="1.7462" text-anchor="start" fill="currentColor">
<tspan>2</tspan>
</text>
</g>
</g>
<g transform="translate(40.5480, 19.3495)">
<text font-family="C059" font-size="2.4695" text-anchor="start" fill="currentColor">
<tspan>a</tspan>
</text>
</g>
<g color="rgb(100.0000%, 100.0000%, 100.0000%)">
<g transform="translate(40.5707, 15.4940)">
<rect x="0.1100" y="-0.6561" width="1.1002" height="1.3122" ry="0.0000" fill="currentColor"/>
</g>
</g>
<g transform="scale(1.0000, 1.0000)">
<g transform="translate(40.6808, 16.1254)">
<text font-family="IPAexGothic" font-weight="bold" font-size="1.7462" text-anchor="start" fill="currentColor">
<tspan>#</tspan>
</text>
</g>
</g>
<g transform="translate(34.7003, 19.3495)">
<text font-family="C059" font-size="2.4695" text-anchor="start" fill="currentColor">
<tspan>Mon</tspan>
</text>
</g>
<g transform="translate(52.5862, 19.3495)">
<rect x="0.0000" y="-0.5120" width="0.6600" height="0.0920" ry="0.0283" fill="currentColor"/>
</g>
<g transform="translate(42.4922, 19.3495)">
<rect x="0.0000" y="-0.5120" width="0.6600" height="0.0920" ry="0.0283" fill="currentColor"/>
</g>
<g transform="translate(26.4056, 19.3495)">
<rect x="0.0000" y="-0.5120" width="0.6600" height="0.0920" ry="0.0283" fill="currentColor"/>
</g>
<g transform="translate(53.8746, 19.3495)">
<text font-family="C059" font-size="2.4695" text-anchor="start" fill="currentColor">
<tspan>rot,</tspan>
</text>
</g>
<g color="rgb(100.0000%, 100.0000%, 100.0000%)">
<g transform="translate(55.1778, 15.4940)">
<rect x="0.1100" y="-0.6489" width="1.1002" height="1.2977" ry="0.0000" fill="currentColor"/>
</g>
</g>
<g transform="scale(1.0000, 1.0000)">
<g transform="translate(55.2878, 16.1343)">
<text font-family="IPAexGothic" font-weight="bold" font-size="1.7462" text-anchor="start" fill="currentColor">
<tspan>0</tspan>
</text>
</g>
</g>
<g color="rgb(100.0000%, 100.0000%, 100.0000%)">
<g transform="translate(9.7845, 15.4940)">
<rect x="0.1100" y="-0.6489" width="1.1002" height="1.2977" ry="0.0000" fill="currentColor"/>
</g>
</g>
<g transform="scale(1.0000, 1.0000)">
<g transform="translate(9.8945, 16.1343)">
<text font-family="IPAexGothic" font-weight="bold" font-size="1.7462" text-anchor="start" fill="currentColor">
<tspan>0</tspan>
</text>
</g>
</g>
<g transform="translate(7.9028, 19.3495)">
<text font-family="C059" font-size="2.4695" text-anchor="start" fill="currentColor">
<tspan>clair</tspan>
</text>
</g>
<g color="rgb(100.0000%, 100.0000%, 100.0000%)">
<g transform="translate(14.1041, 15.4940)">
<rect x="0.1100" y="-0.6489" width="1.1002" height="1.2977" ry="0.0000" fill="currentColor"/>
</g>
</g>
<g transform="scale(1.0000, 1.0000)">
<g transform="translate(14.2141, 16.1343)">
<text font-family="IPAexGothic" font-weight="bold" font-size="1.7462" text-anchor="start" fill="currentColor">
<tspan>0</tspan>
</text>
</g>
</g>
<g transform="translate(13.4364, 19.3495)">
<text font-family="C059" font-size="2.4695" text-anchor="start" fill="currentColor">
<tspan>de</tspan>
</text>
</g>
<g color="rgb(100.0000%, 100.0000%, 100.0000%)">
<g transform="translate(5.1614, 15.4940)">
<rect x="0.1100" y="-0.6489" width="1.1002" height="1.2977" ry="0.0000" fill="currentColor"/>
</g>
</g>
<g transform="scale(1.0000, 1.0000)">
<g transform="translate(5.2714, 16.1343)">
<text font-family="IPAexGothic" font-weight="bold" font-size="1.7462" text-anchor="start" fill="currentColor">
<tspan>0</tspan>
</text>
</g>
</g>
<g transform="translate(3.1481, 15.4940)">
<rect x="0.0000" y="-1.5354" width="0.1133" height="3.0708" ry="0.0354" fill="currentColor"/>
</g>
<g transform="translate(4.1902, 19.3495)">
<text font-family="C059" font-size="2.4695" text-anchor="start" fill="currentColor">
<tspan>Au</tspan>
</text>
</g>
<g color="rgb(100.0000%, 100.0000%, 100.0000%)">
<g transform="translate(18.0929, 15.4940)">
<rect x="0.1100" y="-0.6446" width="1.1002" height="1.2892" ry="0.0000" fill="currentColor"/>
</g>
</g>
<g transform="scale(1.0000, 1.0000)">
<g transform="translate(18.2029, 16.1386)">
<text font-family="IPAexGothic" font-weight="bold" font-size="1.7462" text-anchor="start" fill="currentColor">
<tspan>2</tspan>
</text>
</g>
</g>
<g transform="translate(24.0392, 15.4940)">
<path stroke-width="0.1200" stroke-linejoin="round" stroke-linecap="square" stroke="currentColor" fill="none" d="M2 -0.6700l1 0"/>
</g>
<g transform="translate(22.8916, 19.3495)">
<text font-family="C059" font-size="2.4695" text-anchor="start" fill="currentColor">
<tspan>lu</tspan>
</text>
</g>
<g color="rgb(100.0000%, 100.0000%, 100.0000%)">
<g transform="translate(23.3791, 15.4940)">
<rect x="0.1100" y="-0.6561" width="1.1002" height="1.3122" ry="0.0000" fill="currentColor"/>
</g>
</g>
<g transform="scale(1.0000, 1.0000)">
<g transform="translate(23.4891, 16.1254)">
<text font-family="IPAexGothic" font-weight="bold" font-size="1.7462" text-anchor="start" fill="currentColor">
<tspan>#</tspan>
</text>
</g>
</g>
<g color="rgb(100.0000%, 100.0000%, 100.0000%)">
<g transform="translate(29.3315, 15.4940)">
<rect x="0.1100" y="-0.6446" width="1.1002" height="1.2892" ry="0.0000" fill="currentColor"/>
</g>
</g>
<g transform="scale(1.0000, 1.0000)">
<g transform="translate(29.4415, 16.1386)">
<text font-family="IPAexGothic" font-weight="bold" font-size="1.7462" text-anchor="start" fill="currentColor">
<tspan>2</tspan>
</text>
</g>
</g>
<g transform="translate(28.2845, 19.3495)">
<text font-family="C059" font-size="2.4695" text-anchor="start" fill="currentColor">
<tspan>ne,</tspan>
</text>
</g>
<g transform="translate(29.9916, 15.4940)">
<path stroke-width="0.1200" stroke-linejoin="round" stroke-linecap="square" stroke="currentColor" fill="none" d="M2 -0.6700l1 0"/>
</g>
<g transform="translate(17.6813, 19.3495)">
<text font-family="C059" font-size="2.4695" text-anchor="start" fill="currentColor">
<tspan>la</tspan>
</text>
</g>
<g transform="translate(3.1614, 24.8393)">
<line stroke-linejoin="round" stroke-linecap="round" stroke-width="0.0708" stroke="currentColor" x1="0.0354" y1="0" x2="60.0315" y2="0"/>
</g>
<g transform="translate(3.1614, 23.3393)">
<line stroke-linejoin="round" stroke-linecap="round" stroke-width="0.0708" stroke="currentColor" x1="0.0354" y1="0" x2="60.0315" y2="0"/>
</g>
<g transform="translate(3.1614, 21.8393)">
<line stroke-linejoin="round" stroke-linecap="round" stroke-width="0.0708" stroke="currentColor" x1="0.0354" y1="0" x2="60.0315" y2="0"/>
</g>
<g transform="translate(63.0938, 23.3393)">
<rect x="0.0000" y="-1.5000" width="0.1345" height="3.0000" ry="0.0000" fill="currentColor"/>
</g>
<g transform="translate(21.2837, 23.3393)">
<rect x="0.0000" y="-1.5000" width="0.1345" height="3.0000" ry="0.0000" fill="currentColor"/>
</g>
<g transform="translate(34.6672, 23.3393)">
<rect x="0.0000" y="-1.5000" width="0.1345" height="3.0000" ry="0.0000" fill="currentColor"/>
</g>
<g transform="translate(52.7250, 23.3393)">
<rect x="0.0000" y="-1.5000" width="0.1345" height="3.0000" ry="0.0000" fill="currentColor"/>
</g>
<g transform="translate(40.0899, 27.2188)">
<text font-family="C059" font-size="2.4695" text-anchor="start" fill="currentColor">
<tspan>é</tspan>
</text>
</g>
<g color="rgb(100.0000%, 100.0000%, 100.0000%)">
<g transform="translate(44.0843, 23.3393)">
<rect x="0.1100" y="-0.6446" width="1.1002" height="1.2892" ry="0.0000" fill="currentColor"/>
</g>
</g>
<g transform="scale(1.0000, 1.0000)">
<g transform="translate(44.1943, 23.9839)">
<text font-family="IPAexGothic" font-weight="bold" font-size="1.7462" text-anchor="start" fill="currentColor">
<tspan>2</tspan>
</text>
</g>
</g>
<g transform="translate(42.0794, 27.2188)">
<text font-family="C059" font-size="2.4695" text-anchor="start" fill="currentColor">
<tspan>crire</tspan>
</text>
</g>
<g color="rgb(100.0000%, 100.0000%, 100.0000%)">
<g transform="translate(48.7169, 23.3393)">
<rect x="0.1100" y="-0.6446" width="1.1002" height="1.2892" ry="0.0000" fill="currentColor"/>
</g>
</g>
<g transform="scale(1.0000, 1.0000)">
<g transform="translate(48.8269, 23.9839)">
<text font-family="IPAexGothic" font-weight="bold" font-size="1.7462" text-anchor="start" fill="currentColor">
<tspan>2</tspan>
</text>
</g>
</g>
<g transform="translate(47.8595, 27.2188)">
<text font-family="C059" font-size="2.4695" text-anchor="start" fill="currentColor">
<tspan>un</tspan>
</text>
</g>
<g color="rgb(100.0000%, 100.0000%, 100.0000%)">
<g transform="translate(40.0463, 23.3393)">
<rect x="0.1100" y="-0.6561" width="1.1002" height="1.3122" ry="0.0000" fill="currentColor"/>
</g>
</g>
<g transform="scale(1.0000, 1.0000)">
<g transform="translate(40.1563, 23.9706)">
<text font-family="IPAexGothic" font-weight="bold" font-size="1.7462" text-anchor="start" fill="currentColor">
<tspan>#</tspan>
</text>
</g>
</g>
<g transform="translate(33.9558, 27.2188)">
<text font-family="C059" font-size="2.4695" text-anchor="start" fill="currentColor">
<tspan>Pour</tspan>
</text>
</g>
<g color="rgb(100.0000%, 100.0000%, 100.0000%)">
<g transform="translate(36.0082, 23.3393)">
<rect x="0.1100" y="-0.6489" width="1.1002" height="1.2977" ry="0.0000" fill="currentColor"/>
</g>
</g>
<g transform="scale(1.0000, 1.0000)">
<g transform="translate(36.1182, 23.9796)">
<text font-family="IPAexGothic" font-weight="bold" font-size="1.7462" text-anchor="start" fill="currentColor">
<tspan>0</tspan>
</text>
</g>
</g>
<g transform="translate(7.9468, 27.2188)">
<rect x="0.0000" y="-0.5120" width="0.6600" height="0.0920" ry="0.0283" fill="currentColor"/>
</g>
<g transform="translate(41.3928, 27.2188)">
<rect x="0.0000" y="-0.5120" width="0.6165" height="0.0920" ry="0.0283" fill="currentColor"/>
</g>
<g transform="translate(26.0436, 27.2188)">
<rect x="0.0000" y="-0.5120" width="0.6600" height="0.0920" ry="0.0283" fill="currentColor"/>
</g>
<g transform="translate(11.0507, 27.2188)">
<rect x="0.0000" y="-0.5120" width="0.6600" height="0.0920" ry="0.0283" fill="currentColor"/>
</g>
<g transform="translate(53.1962, 27.2188)">
<text font-family="C059" font-size="2.4695" text-anchor="start" fill="currentColor">
<tspan>mot.</tspan>
</text>
</g>
<g color="rgb(100.0000%, 100.0000%, 100.0000%)">
<g transform="translate(55.0589, 23.3393)">
<rect x="0.1100" y="-0.6489" width="1.1002" height="1.2977" ry="0.0000" fill="currentColor"/>
</g>
</g>
<g transform="scale(1.0000, 1.0000)">
<g transform="translate(55.1689, 23.9796)">
<text font-family="IPAexGothic" font-weight="bold" font-size="1.7462" text-anchor="start" fill="currentColor">
<tspan>0</tspan>
</text>
</g>
</g>
<g transform="translate(8.7499, 27.2188)">
<text font-family="C059" font-size="2.4695" text-anchor="start" fill="currentColor">
<tspan>te</tspan>
</text>
</g>
<g color="rgb(100.0000%, 100.0000%, 100.0000%)">
<g transform="translate(5.1614, 23.3393)">
<rect x="0.1100" y="-0.6489" width="1.1002" height="1.2977" ry="0.0000" fill="currentColor"/>
</g>
</g>
<g transform="scale(1.0000, 1.0000)">
<g transform="translate(5.2714, 23.9796)">
<text font-family="IPAexGothic" font-weight="bold" font-size="1.7462" text-anchor="start" fill="currentColor">
<tspan>0</tspan>
</text>
</g>
</g>
<g transform="translate(3.8393, 27.2188)">
<text font-family="C059" font-size="2.4695" text-anchor="start" fill="currentColor">
<tspan>Prê</tspan>
</text>
</g>
<g color="rgb(100.0000%, 100.0000%, 100.0000%)">
<g transform="translate(9.1995, 23.3393)">
<rect x="0.1100" y="-0.6489" width="1.1002" height="1.2977" ry="0.0000" fill="currentColor"/>
</g>
</g>
<g transform="scale(1.0000, 1.0000)">
<g transform="translate(9.3095, 23.9796)">
<text font-family="IPAexGothic" font-weight="bold" font-size="1.7462" text-anchor="start" fill="currentColor">
<tspan>0</tspan>
</text>
</g>
</g>
<g color="rgb(100.0000%, 100.0000%, 100.0000%)">
<g transform="translate(13.2375, 23.3393)">
<rect x="0.1100" y="-0.6489" width="1.1002" height="1.2977" ry="0.0000" fill="currentColor"/>
</g>
</g>
<g transform="scale(1.0000, 1.0000)">
<g transform="translate(13.3476, 23.9796)">
<text font-family="IPAexGothic" font-weight="bold" font-size="1.7462" text-anchor="start" fill="currentColor">
<tspan>0</tspan>
</text>
</g>
</g>
<g transform="translate(3.1481, 23.3393)">
<rect x="0.0000" y="-1.5354" width="0.1133" height="3.0708" ry="0.0354" fill="currentColor"/>
</g>
<g transform="translate(11.7921, 27.2188)">
<text font-family="C059" font-size="2.4695" text-anchor="start" fill="currentColor">
<tspan>moi</tspan>
</text>
</g>
<g transform="translate(21.4253, 27.2188)">
<text font-family="C059" font-size="2.4695" text-anchor="start" fill="currentColor">
<tspan>plu</tspan>
</text>
</g>
<g transform="translate(23.2842, 23.3393)">
<path stroke-width="0.1200" stroke-linejoin="round" stroke-linecap="square" stroke="currentColor" fill="none" d="M2 -0.6700l1 0"/>
</g>
<g color="rgb(100.0000%, 100.0000%, 100.0000%)">
<g transform="translate(28.6607, 23.3393)">
<rect x="0.1100" y="-0.6446" width="1.1002" height="1.2892" ry="0.0000" fill="currentColor"/>
</g>
</g>
<g transform="scale(1.0000, 1.0000)">
<g transform="translate(28.7707, 23.9839)">
<text font-family="IPAexGothic" font-weight="bold" font-size="1.7462" text-anchor="start" fill="currentColor">
<tspan>2</tspan>
</text>
</g>
</g>
<g transform="translate(27.6041, 27.2188)">
<text font-family="C059" font-size="2.4695" text-anchor="start" fill="currentColor">
<tspan>me</tspan>
</text>
</g>
<g transform="translate(29.3208, 23.3393)">
<path stroke-width="0.1200" stroke-linejoin="round" stroke-linecap="square" stroke="currentColor" fill="none" d="M2 -0.6700l1 0"/>
</g>
<g transform="translate(16.7692, 27.2188)">
<text font-family="C059" font-size="2.4695" text-anchor="start" fill="currentColor">
<tspan>ta</tspan>
</text>
</g>
<g color="rgb(100.0000%, 100.0000%, 100.0000%)">
<g transform="translate(17.2756, 23.3393)">
<rect x="0.1100" y="-0.6446" width="1.1002" height="1.2892" ry="0.0000" fill="currentColor"/>
</g>
</g>
<g transform="scale(1.0000, 1.0000)">
<g transform="translate(17.3856, 23.9839)">
<text font-family="IPAexGothic" font-weight="bold" font-size="1.7462" text-anchor="start" fill="currentColor">
<tspan>2</tspan>
</text>
</g>
</g>
<g color="rgb(100.0000%, 100.0000%, 100.0000%)">
<g transform="translate(22.6241, 23.3393)">
<rect x="0.1100" y="-0.6561" width="1.1002" height="1.3122" ry="0.0000" fill="currentColor"/>
</g>
</g>
<g transform="scale(1.0000, 1.0000)">
<g transform="translate(22.7342, 23.9706)">
<text font-family="IPAexGothic" font-weight="bold" font-size="1.7462" text-anchor="start" fill="currentColor">
<tspan>#</tspan>
</text>
</g>
</g>
<g transform="translate(3.1614, 32.7531)">
<line stroke-linejoin="round" stroke-linecap="round" stroke-width="0.0708" stroke="currentColor" x1="0.0354" y1="0" x2="60.0315" y2="0"/>
</g>
<g transform="translate(3.1614, 31.2531)">
<line stroke-linejoin="round" stroke-linecap="round" stroke-width="0.0708" stroke="currentColor" x1="0.0354" y1="0" x2="60.0315" y2="0"/>
</g>
<g transform="translate(3.1614, 29.7531)">
<line stroke-linejoin="round" stroke-linecap="round" stroke-width="0.0708" stroke="currentColor" x1="0.0354" y1="0" x2="60.0315" y2="0"/>
</g>
<g transform="translate(63.0938, 31.2531)">
<rect x="0.0000" y="-1.5000" width="0.1345" height="3.0000" ry="0.0000" fill="currentColor"/>
</g>
<g transform="translate(24.1159, 31.2531)">
<rect x="0.0000" y="-1.5000" width="0.1345" height="3.0000" ry="0.0000" fill="currentColor"/>
</g>
<g transform="translate(36.0048, 31.2531)">
<rect x="0.0000" y="-1.5000" width="0.1345" height="3.0000" ry="0.0000" fill="currentColor"/>
</g>
<g transform="translate(53.8303, 31.2531)">
<rect x="0.0000" y="-1.5000" width="0.1345" height="3.0000" ry="0.0000" fill="currentColor"/>
</g>
<g transform="translate(39.6462, 35.9711)">
<text font-family="C059" font-size="2.4695" text-anchor="start" fill="currentColor">
<tspan>n’ai</tspan>
</text>
</g>
<g color="rgb(100.0000%, 100.0000%, 100.0000%)">
<g transform="translate(45.9992, 32.7531)">
<rect x="0.1100" y="-0.6365" width="1.1002" height="1.2730" ry="0.0000" fill="currentColor"/>
</g>
</g>
<g transform="scale(1.0000, 1.0000)">
<g transform="translate(46.1092, 33.3810)">
<text font-family="IPAexGothic" font-weight="bold" font-size="1.7462" text-anchor="start" fill="currentColor">
<tspan>5</tspan>
</text>
</g>
</g>
<g transform="translate(44.2314, 35.9711)">
<text font-family="C059" font-size="2.4695" text-anchor="start" fill="currentColor">
<tspan>plus</tspan>
</text>
</g>
<g color="rgb(100.0000%, 100.0000%, 100.0000%)">
<g transform="translate(50.2050, 32.7531)">
<rect x="0.1100" y="-0.6561" width="1.1002" height="1.3122" ry="0.0000" fill="currentColor"/>
</g>
</g>
<g transform="scale(1.0000, 1.0000)">
<g transform="translate(50.3150, 33.3844)">
<text font-family="IPAexGothic" font-weight="bold" font-size="1.7462" text-anchor="start" fill="currentColor">
<tspan>#</tspan>
</text>
</g>
</g>
<g transform="translate(49.5373, 35.9711)">
<text font-family="C059" font-size="2.4695" text-anchor="start" fill="currentColor">
<tspan>de</tspan>
</text>
</g>
<g color="rgb(100.0000%, 100.0000%, 100.0000%)">
<g transform="translate(41.0537, 31.2531)">
<rect x="0.1100" y="-0.6489" width="1.1002" height="1.2977" ry="0.0000" fill="currentColor"/>
</g>
</g>
<g transform="scale(1.0000, 1.0000)">
<g transform="translate(41.1637, 31.8934)">
<text font-family="IPAexGothic" font-weight="bold" font-size="1.7462" text-anchor="start" fill="currentColor">
<tspan>0</tspan>
</text>
</g>
</g>
<g transform="translate(36.5975, 35.9711)">
<text font-family="C059" font-size="2.4695" text-anchor="start" fill="currentColor">
<tspan>Je</tspan>
</text>
</g>
<g color="rgb(100.0000%, 100.0000%, 100.0000%)">
<g transform="translate(37.2368, 31.2531)">
<rect x="0.1100" y="-0.6446" width="1.1002" height="1.2892" ry="0.0000" fill="currentColor"/>
</g>
</g>
<g transform="scale(1.0000, 1.0000)">
<g transform="translate(37.3468, 31.8977)">
<text font-family="IPAexGothic" font-weight="bold" font-size="1.7462" text-anchor="start" fill="currentColor">
<tspan>2</tspan>
</text>
</g>
</g>
<g transform="translate(28.7492, 35.9711)">
<rect x="0.0000" y="-0.5120" width="0.6600" height="0.0920" ry="0.0283" fill="currentColor"/>
</g>
<g transform="translate(54.2775, 35.9711)">
<text font-family="C059" font-size="2.4695" text-anchor="start" fill="currentColor">
<tspan>feu ;</tspan>
</text>
</g>
<g color="rgb(100.0000%, 100.0000%, 100.0000%)">
<g transform="translate(56.0549, 32.7531)">
<rect x="0.1100" y="-0.6446" width="1.1002" height="1.2892" ry="0.0000" fill="currentColor"/>
</g>
</g>
<g transform="scale(1.0000, 1.0000)">
<g transform="translate(56.1649, 33.3977)">
<text font-family="IPAexGothic" font-weight="bold" font-size="1.7462" text-anchor="start" fill="currentColor">
<tspan>2</tspan>
</text>
</g>
</g>
<g transform="translate(8.1210, 35.9711)">
<text font-family="C059" font-size="2.4695" text-anchor="start" fill="currentColor">
<tspan>chan</tspan>
</text>
</g>
<g color="rgb(100.0000%, 100.0000%, 100.0000%)">
<g transform="translate(5.1614, 31.2531)">
<rect x="0.1100" y="-0.6446" width="1.1002" height="1.2892" ry="0.0000" fill="currentColor"/>
</g>
</g>
<g transform="scale(1.0000, 1.0000)">
<g transform="translate(5.2714, 31.8977)">
<text font-family="IPAexGothic" font-weight="bold" font-size="1.7462" text-anchor="start" fill="currentColor">
<tspan>2</tspan>
</text>
</g>
</g>
<g transform="translate(3.9721, 35.9711)">
<text font-family="C059" font-size="2.4695" text-anchor="start" fill="currentColor">
<tspan>Ma</tspan>
</text>
</g>
<g color="rgb(100.0000%, 100.0000%, 100.0000%)">
<g transform="translate(10.1923, 31.2531)">
<rect x="0.1100" y="-0.6446" width="1.1002" height="1.2892" ry="0.0000" fill="currentColor"/>
</g>
</g>
<g transform="scale(1.0000, 1.0000)">
<g transform="translate(10.3023, 31.8977)">
<text font-family="IPAexGothic" font-weight="bold" font-size="1.7462" text-anchor="start" fill="currentColor">
<tspan>2</tspan>
</text>
</g>
</g>
<g color="rgb(100.0000%, 100.0000%, 100.0000%)">
<g transform="translate(15.7173, 31.2531)">
<rect x="0.1100" y="-0.6446" width="1.1002" height="1.2892" ry="0.0000" fill="currentColor"/>
</g>
</g>
<g transform="scale(1.0000, 1.0000)">
<g transform="translate(15.8273, 31.8977)">
<text font-family="IPAexGothic" font-weight="bold" font-size="1.7462" text-anchor="start" fill="currentColor">
<tspan>2</tspan>
</text>
</g>
</g>
<g transform="translate(3.1481, 31.2531)">
<rect x="0.0000" y="-1.5354" width="0.1133" height="3.0708" ry="0.0354" fill="currentColor"/>
</g>
<g transform="translate(13.6839, 35.9711)">
<text font-family="C059" font-size="2.4695" text-anchor="start" fill="currentColor">
<tspan>delle</tspan>
</text>
</g>
<g transform="translate(23.7339, 35.9711)">
<text font-family="C059" font-size="2.4695" text-anchor="start" fill="currentColor">
<tspan>mor</tspan>
</text>
</g>
<g transform="translate(26.0006, 31.2531)">
<path stroke-width="0.1200" stroke-linejoin="round" stroke-linecap="square" stroke="currentColor" fill="none" d="M2 -0.6700l1 0"/>
</g>
<g color="rgb(100.0000%, 100.0000%, 100.0000%)">
<g transform="translate(30.6727, 32.7531)">
<rect x="0.1100" y="-0.6561" width="1.1002" height="1.3122" ry="0.0000" fill="currentColor"/>
</g>
</g>
<g transform="scale(1.0000, 1.0000)">
<g transform="translate(30.7827, 33.3844)">
<text font-family="IPAexGothic" font-weight="bold" font-size="1.7462" text-anchor="start" fill="currentColor">
<tspan>#</tspan>
</text>
</g>
</g>
<g transform="translate(29.8911, 35.9711)">
<text font-family="C059" font-size="2.4695" text-anchor="start" fill="currentColor">
<tspan>te,</tspan>
</text>
</g>
<g transform="translate(31.3328, 31.2531)">
<path stroke-width="0.1200" stroke-linejoin="round" stroke-linecap="square" stroke="currentColor" fill="none" d="M2 -0.6700l1 0"/>
</g>
<g transform="translate(19.5209, 35.9711)">
<text font-family="C059" font-size="2.4695" text-anchor="start" fill="currentColor">
<tspan>est</tspan>
</text>
</g>
<g color="rgb(100.0000%, 100.0000%, 100.0000%)">
<g transform="translate(20.5206, 31.2531)">
<rect x="0.1100" y="-0.6446" width="1.1002" height="1.2892" ry="0.0000" fill="currentColor"/>
</g>
</g>
<g transform="scale(1.0000, 1.0000)">
<g transform="translate(20.6306, 31.8977)">
<text font-family="IPAexGothic" font-weight="bold" font-size="1.7462" text-anchor="start" fill="currentColor">
<tspan>2</tspan>
</text>
</g>
</g>
<g color="rgb(100.0000%, 100.0000%, 100.0000%)">
<g transform="translate(25.3405, 32.7531)">
<rect x="0.1100" y="-0.6561" width="1.1002" height="1.3122" ry="0.0000" fill="currentColor"/>
</g>
</g>
<g transform="scale(1.0000, 1.0000)">
<g transform="translate(25.4505, 33.3844)">
<text font-family="IPAexGothic" font-weight="bold" font-size="1.7462" text-anchor="start" fill="currentColor">
<tspan>#</tspan>
</text>
</g>
</g>
<g transform="translate(3.1614, 41.5053)">
<line stroke-linejoin="round" stroke-linecap="round" stroke-width="0.0708" stroke="currentColor" x1="0.0354" y1="0" x2="60.0315" y2="0"/>
</g>
<g transform="translate(3.1614, 40.0053)">
<line stroke-linejoin="round" stroke-linecap="round" stroke-width="0.0708" stroke="currentColor" x1="0.0354" y1="0" x2="60.0315" y2="0"/>
</g>
<g transform="translate(3.1614, 38.5053)">
<line stroke-linejoin="round" stroke-linecap="round" stroke-width="0.0708" stroke="currentColor" x1="0.0354" y1="0" x2="60.0315" y2="0"/>
</g>
<g transform="translate(63.0938, 40.0053)">
<rect x="0.0000" y="-1.5000" width="0.1345" height="3.0000" ry="0.0000" fill="currentColor"/>
</g>
<g transform="translate(20.9958, 40.0053)">
<rect x="0.0000" y="-1.5000" width="0.1345" height="3.0000" ry="0.0000" fill="currentColor"/>
</g>
<g transform="translate(34.0172, 40.0053)">
<rect x="0.0000" y="-1.5000" width="0.1345" height="3.0000" ry="0.0000" fill="currentColor"/>
</g>
<g transform="translate(52.9886, 40.0053)">
<rect x="0.0000" y="-1.5000" width="0.1345" height="3.0000" ry="0.0000" fill="currentColor"/>
</g>
<g transform="translate(39.1547, 45.5053)">
<text font-family="C059" font-size="2.4695" text-anchor="start" fill="currentColor">
<tspan>l’a</tspan>
</text>
</g>
<g color="rgb(100.0000%, 100.0000%, 100.0000%)">
<g transform="translate(44.2757, 40.0053)">
<rect x="0.1100" y="-0.6446" width="1.1002" height="1.2892" ry="0.0000" fill="currentColor"/>
</g>
</g>
<g transform="scale(1.0000, 1.0000)">
<g transform="translate(44.3857, 40.6499)">
<text font-family="IPAexGothic" font-weight="bold" font-size="1.7462" text-anchor="start" fill="currentColor">
<tspan>2</tspan>
</text>
</g>
</g>
<g transform="translate(41.9103, 45.5053)">
<text font-family="C059" font-size="2.4695" text-anchor="start" fill="currentColor">
<tspan>mour</tspan>
</text>
</g>
<g color="rgb(100.0000%, 100.0000%, 100.0000%)">
<g transform="translate(49.0790, 40.0053)">
<rect x="0.1100" y="-0.6446" width="1.1002" height="1.2892" ry="0.0000" fill="currentColor"/>
</g>
</g>
<g transform="scale(1.0000, 1.0000)">
<g transform="translate(49.1890, 40.6499)">
<text font-family="IPAexGothic" font-weight="bold" font-size="1.7462" text-anchor="start" fill="currentColor">
<tspan>2</tspan>
</text>
</g>
</g>
<g transform="translate(48.4113, 45.5053)">
<text font-family="C059" font-size="2.4695" text-anchor="start" fill="currentColor">
<tspan>de</tspan>
</text>
</g>
<g color="rgb(100.0000%, 100.0000%, 100.0000%)">
<g transform="translate(39.8224, 40.0053)">
<rect x="0.1100" y="-0.6561" width="1.1002" height="1.3122" ry="0.0000" fill="currentColor"/>
</g>
</g>
<g transform="scale(1.0000, 1.0000)">
<g transform="translate(39.9324, 40.6367)">
<text font-family="IPAexGothic" font-weight="bold" font-size="1.7462" text-anchor="start" fill="currentColor">
<tspan>#</tspan>
</text>
</g>
</g>
<g transform="translate(33.2797, 45.5053)">
<text font-family="C059" font-size="2.4695" text-anchor="start" fill="currentColor">
<tspan>Pour</tspan>
</text>
</g>
<g color="rgb(100.0000%, 100.0000%, 100.0000%)">
<g transform="translate(35.3321, 40.0053)">
<rect x="0.1100" y="-0.6489" width="1.1002" height="1.2977" ry="0.0000" fill="currentColor"/>
</g>
</g>
<g transform="scale(1.0000, 1.0000)">
<g transform="translate(35.4421, 40.6457)">
<text font-family="IPAexGothic" font-weight="bold" font-size="1.7462" text-anchor="start" fill="currentColor">
<tspan>0</tspan>
</text>
</g>
</g>
<g transform="translate(7.5797, 45.5053)">
<rect x="0.0000" y="-0.5120" width="0.3000" height="0.0920" ry="0.0283" fill="currentColor"/>
</g>
<g transform="translate(25.7926, 45.5053)">
<rect x="0.0000" y="-0.5120" width="0.6600" height="0.0920" ry="0.0283" fill="currentColor"/>
</g>
<g transform="translate(52.9026, 45.5053)">
<text font-family="C059" font-size="2.4695" text-anchor="start" fill="currentColor">
<tspan>Dieu.</tspan>
</text>
</g>
<g color="rgb(100.0000%, 100.0000%, 100.0000%)">
<g transform="translate(55.2964, 40.0053)">
<rect x="0.1100" y="-0.6489" width="1.1002" height="1.2977" ry="0.0000" fill="currentColor"/>
</g>
</g>
<g transform="scale(1.0000, 1.0000)">
<g transform="translate(55.4065, 40.6457)">
<text font-family="IPAexGothic" font-weight="bold" font-size="1.7462" text-anchor="start" fill="currentColor">
<tspan>0</tspan>
</text>
</g>
</g>
<g color="rgb(100.0000%, 100.0000%, 100.0000%)">
<g transform="translate(5.1614, 40.0053)">
<rect x="0.1100" y="-0.6489" width="1.1002" height="1.2977" ry="0.0000" fill="currentColor"/>
</g>
</g>
<g transform="scale(1.0000, 1.0000)">
<g transform="translate(5.2714, 40.6457)">
<text font-family="IPAexGothic" font-weight="bold" font-size="1.7462" text-anchor="start" fill="currentColor">
<tspan>0</tspan>
</text>
</g>
</g>
<g transform="translate(4.1049, 45.5053)">
<text font-family="C059" font-size="2.4695" text-anchor="start" fill="currentColor">
<tspan>Ou</tspan>
</text>
</g>
<g color="rgb(100.0000%, 100.0000%, 100.0000%)">
<g transform="translate(9.1011, 40.0053)">
<rect x="0.1100" y="-0.6489" width="1.1002" height="1.2977" ry="0.0000" fill="currentColor"/>
</g>
</g>
<g transform="scale(1.0000, 1.0000)">
<g transform="translate(9.2111, 40.6457)">
<text font-family="IPAexGothic" font-weight="bold" font-size="1.7462" text-anchor="start" fill="currentColor">
<tspan>0</tspan>
</text>
</g>
</g>
<g transform="translate(7.9212, 45.5053)">
<text font-family="C059" font-size="2.4695" text-anchor="start" fill="currentColor">
<tspan>vre</tspan>
</text>
</g>
<g color="rgb(100.0000%, 100.0000%, 100.0000%)">
<g transform="translate(13.1465, 40.0053)">
<rect x="0.1100" y="-0.6489" width="1.1002" height="1.2977" ry="0.0000" fill="currentColor"/>
</g>
</g>
<g transform="scale(1.0000, 1.0000)">
<g transform="translate(13.2565, 40.6457)">
<text font-family="IPAexGothic" font-weight="bold" font-size="1.7462" text-anchor="start" fill="currentColor">
<tspan>0</tspan>
</text>
</g>
</g>
<g transform="translate(3.1481, 40.0053)">
<rect x="0.0000" y="-1.5354" width="0.1133" height="3.0708" ry="0.0354" fill="currentColor"/>
</g>
<g transform="translate(11.7011, 45.5053)">
<text font-family="C059" font-size="2.4695" text-anchor="start" fill="currentColor">
<tspan>moi</tspan>
</text>
</g>
<g transform="translate(22.9702, 40.0053)">
<path stroke-width="0.1200" stroke-linejoin="round" stroke-linecap="square" stroke="currentColor" fill="none" d="M2 -0.6700l1 0"/>
</g>
<g transform="translate(21.0924, 45.5053)">
<text font-family="C059" font-size="2.4695" text-anchor="start" fill="currentColor">
<tspan>por</tspan>
</text>
</g>
<g color="rgb(100.0000%, 100.0000%, 100.0000%)">
<g transform="translate(22.3101, 40.0053)">
<rect x="0.1100" y="-0.6561" width="1.1002" height="1.3122" ry="0.0000" fill="currentColor"/>
</g>
</g>
<g transform="scale(1.0000, 1.0000)">
<g transform="translate(22.4202, 40.6367)">
<text font-family="IPAexGothic" font-weight="bold" font-size="1.7462" text-anchor="start" fill="currentColor">
<tspan>#</tspan>
</text>
</g>
</g>
<g color="rgb(100.0000%, 100.0000%, 100.0000%)">
<g transform="translate(28.1787, 40.0053)">
<rect x="0.1100" y="-0.6446" width="1.1002" height="1.2892" ry="0.0000" fill="currentColor"/>
</g>
</g>
<g transform="scale(1.0000, 1.0000)">
<g transform="translate(28.2887, 40.6499)">
<text font-family="IPAexGothic" font-weight="bold" font-size="1.7462" text-anchor="start" fill="currentColor">
<tspan>2</tspan>
</text>
</g>
</g>
<g transform="translate(27.3972, 45.5053)">
<text font-family="C059" font-size="2.4695" text-anchor="start" fill="currentColor">
<tspan>te,</tspan>
</text>
</g>
<g transform="translate(16.5797, 45.5053)">
<text font-family="C059" font-size="2.4695" text-anchor="start" fill="currentColor">
<tspan>ta</tspan>
</text>
</g>
<g transform="translate(28.8388, 40.0053)">
<path stroke-width="0.1200" stroke-linejoin="round" stroke-linecap="square" stroke="currentColor" fill="none" d="M2 -0.6700l1 0"/>
</g>
<g color="rgb(100.0000%, 100.0000%, 100.0000%)">
<g transform="translate(17.0861, 40.0053)">
<rect x="0.1100" y="-0.6446" width="1.1002" height="1.2892" ry="0.0000" fill="currentColor"/>
</g>
</g>
<g transform="scale(1.0000, 1.0000)">
<g transform="translate(17.1962, 40.6499)">
<text font-family="IPAexGothic" font-weight="bold" font-size="1.7462" text-anchor="start" fill="currentColor">
<tspan>2</tspan>
</text>
</g>
</g>
</svg>
