<svg xmlns="http://www.w3.org/2000/svg" xmlns:xlink="http://www.w3.org/1999/xlink" version="1.2" width="210.00mm" height="297.00mm" viewBox="0 0 66.3898 93.8941">
<style type="text/css">
<![CDATA[
tspan { white-space: pre; }
]]>
</style>
<!-- Page: 1/1 -->
<g transform="translate(22.7243, 5.5001)">
<text font-family="IPAexGothic" font-weight="bold" font-size="3.4924" text-anchor="start" fill="currentColor">
<tspan>かごめかごめ</tspan>
</text>
</g>
<g transform="translate(3.1614, 9.0001)">
<text font-family="IPAexGothic" font-size="2.2000" text-anchor="start" fill="currentColor">
<tspan>4/4 二上り</tspan>
</text>
</g>
<g transform="translate(3.1614, 17.0260)">
<line stroke-linejoin="round" stroke-linecap="round" stroke-width="0.0708" stroke="currentColor" x1="0.0354" y1="0" x2="60.0315" y2="0"/>
</g>
<g transform="translate(3.1614, 15.5260)">
<line stroke-linejoin="round" stroke-linecap="round" stroke-width="0.0708" stroke="currentColor" x1="0.0354" y1="0" x2="60.0315" y2="0"/>
</g>
<g transform="translate(3.1614, 14.0260)">
<line stroke-linejoin="round" stroke-linecap="round" stroke-width="0.0708" stroke="currentColor" x1="0.0354" y1="0" x2="60.0315" y2="0"/>
</g>
<g transform="translate(16.0983, 15.5260)">
<rect x="0.0000" y="-1.5000" width="0.1345" height="3.0000" ry="0.0000" fill="currentColor"/>
</g>
<g transform="translate(48.0051, 15.5260)">
<rect x="0.0000" y="-1.5000" width="0.1345" height="3.0000" ry="0.0000" fill="currentColor"/>
</g>
<g transform="translate(63.0938, 15.5260)">
<rect x="0.0000" y="-1.5000" width="0.1345" height="3.0000" ry="0.0000" fill="currentColor"/>
</g>
<g transform="translate(29.6544, 15.5260)">
<rect x="0.0000" y="-1.5000" width="0.1345" height="3.0000" ry="0.0000" fill="currentColor"/>
</g>
<g color="rgb(100.0000%, 100.0000%, 100.0000%)">
<g transform="translate(45.7939, 15.5260)">
<rect x="0.1100" y="-0.6489" width="1.1002" height="1.2977" ry="0.0000" fill="currentColor"/>
</g>
</g>
<g transform="scale(1.0000, 1.0000)">
<g transform="translate(45.9039, 16.1664)">
<text font-family="IPAexGothic" font-weight="bold" font-size="1.7462" text-anchor="start" fill="currentColor">
<tspan>0</tspan>
</text>
</g>
</g>
<g transform="translate(45.2210, 20.1581)">
<text font-family="IPAexGothic" font-size="2.4695" text-anchor="start" fill="currentColor">
<tspan>の</tspan>
</text>
</g>
<g transform="translate(46.4540, 15.5260)">
<path stroke-width="0.1200" stroke-linejoin="round" stroke-linecap="square" stroke="currentColor" fill="none" d="M-0.5500 0.8760L0.5500 0.8760"/>
</g>
<g transform="translate(48.9724, 13.2406)">
<text font-family="Libertinus Serif" font-size="1.5557" text-anchor="start" fill="currentColor">
<tspan> Ⅰ</tspan>
</text>
</g>
<g color="rgb(100.0000%, 100.0000%, 100.0000%)">
<g transform="translate(48.9724, 15.5260)">
<rect x="0.1100" y="-0.6446" width="1.1002" height="1.2892" ry="0.0000" fill="currentColor"/>
</g>
</g>
<g transform="scale(1.0000, 1.0000)">
<g transform="translate(49.0824, 16.1706)">
<text font-family="IPAexGothic" font-weight="bold" font-size="1.7462" text-anchor="start" fill="currentColor">
<tspan>2</tspan>
</text>
</g>
</g>
<g transform="translate(48.3995, 20.1581)">
<text font-family="IPAexGothic" font-size="2.4695" text-anchor="start" fill="currentColor">
<tspan>と</tspan>
</text>
</g>
<g transform="translate(34.4940, 15.5260)">
<path stroke-width="0.1200" stroke-linejoin="round" stroke-linecap="square" stroke="currentColor" fill="none" d="M-0.5500 0.8702L0.5500 0.8702"/>
</g>
<g transform="translate(39.0929, 20.1581)">
<text font-family="IPAexGothic" font-size="2.4695" text-anchor="start" fill="currentColor">
<tspan>な</tspan>
</text>
</g>
<g color="rgb(100.0000%, 100.0000%, 100.0000%)">
<g transform="translate(36.7498, 15.5260)">
<rect x="0.1100" y="-0.6446" width="1.1002" height="1.2892" ry="0.0000" fill="currentColor"/>
</g>
</g>
<g transform="scale(1.0000, 1.0000)">
<g transform="translate(36.8598, 16.1706)">
<text font-family="IPAexGothic" font-weight="bold" font-size="1.7462" text-anchor="start" fill="currentColor">
<tspan>2</tspan>
</text>
</g>
</g>
<g transform="translate(36.1770, 20.1581)">
<text font-family="IPAexGothic" font-size="2.4695" text-anchor="start" fill="currentColor">
<tspan>の</tspan>
</text>
</g>
<g transform="translate(37.4099, 15.5260)">
<path stroke-width="0.1200" stroke-linejoin="round" stroke-linecap="square" stroke="currentColor" fill="none" d="M-0.5500 0.8702L0.5500 0.8702"/>
</g>
<g color="rgb(100.0000%, 100.0000%, 100.0000%)">
<g transform="translate(39.6657, 15.5260)">
<rect x="0.1100" y="-0.6446" width="1.1002" height="1.2892" ry="0.0000" fill="currentColor"/>
</g>
</g>
<g transform="scale(1.0000, 1.0000)">
<g transform="translate(39.7757, 16.1706)">
<text font-family="IPAexGothic" font-weight="bold" font-size="1.7462" text-anchor="start" fill="currentColor">
<tspan>2</tspan>
</text>
</g>
</g>
<g color="rgb(100.0000%, 100.0000%, 100.0000%)">
<g transform="translate(42.8780, 15.5260)">
<rect x="0.1100" y="-0.6489" width="1.1002" height="1.2977" ry="0.0000" fill="currentColor"/>
</g>
</g>
<g transform="scale(1.0000, 1.0000)">
<g transform="translate(42.9880, 16.1664)">
<text font-family="IPAexGothic" font-weight="bold" font-size="1.7462" text-anchor="start" fill="currentColor">
<tspan>0</tspan>
</text>
</g>
</g>
<g transform="translate(42.3051, 20.1581)">
<text font-family="IPAexGothic" font-size="2.4695" text-anchor="start" fill="currentColor">
<tspan>か</tspan>
</text>
</g>
<g transform="translate(43.5381, 15.5260)">
<path stroke-width="0.1200" stroke-linejoin="round" stroke-linecap="square" stroke="currentColor" fill="none" d="M-0.5500 0.8760L0.5500 0.8760"/>
</g>
<g color="rgb(100.0000%, 100.0000%, 100.0000%)">
<g transform="translate(52.1846, 15.5260)">
<rect x="0.1100" y="-0.6446" width="1.1002" height="1.2892" ry="0.0000" fill="currentColor"/>
</g>
</g>
<g transform="scale(1.0000, 1.0000)">
<g transform="translate(52.2947, 16.1706)">
<text font-family="IPAexGothic" font-weight="bold" font-size="1.7462" text-anchor="start" fill="currentColor">
<tspan>2</tspan>
</text>
</g>
</g>
<g transform="translate(52.2947, 20.1581)">
<text font-family="IPAexGothic" font-size="2.4695" text-anchor="start" fill="currentColor">
<tspan>り</tspan>
</text>
</g>
<g transform="translate(52.8447, 15.5260)">
<path stroke-width="0.1200" stroke-linejoin="round" stroke-linecap="square" stroke="currentColor" fill="none" d="M-0.5500 0.8702L0.5500 0.8702"/>
</g>
<g color="rgb(100.0000%, 100.0000%, 100.0000%)">
<g transform="translate(54.3959, 15.5260)">
<rect x="0.1100" y="-0.6489" width="1.1002" height="1.2977" ry="0.0000" fill="currentColor"/>
</g>
</g>
<g transform="scale(1.0000, 1.0000)">
<g transform="translate(54.5059, 16.1664)">
<text font-family="IPAexGothic" font-weight="bold" font-size="1.7462" text-anchor="start" fill="currentColor">
<tspan>0</tspan>
</text>
</g>
</g>
<g transform="translate(55.0560, 15.5260)">
<path stroke-width="0.1200" stroke-linejoin="round" stroke-linecap="square" stroke="currentColor" fill="none" d="M-0.5500 0.8760L0.5500 0.8760"/>
</g>
<g transform="translate(56.6071, 13.2406)">
<text font-family="Libertinus Serif" font-size="1.5557" text-anchor="start" fill="currentColor">
<tspan> Ⅲ</tspan>
</text>
</g>
<g color="rgb(100.0000%, 100.0000%, 100.0000%)">
<g transform="translate(56.6071, 17.0260)">
<rect x="-0.2124" y="-0.7473" width="1.7451" height="1.4947" ry="0.0000" fill="currentColor"/>
</g>
</g>
<g transform="scale(1.0000, 1.0000)">
<g transform="translate(56.3946, 17.6898)">
<text font-family="IPAexGothic" font-weight="bold" font-size="1.7462" text-anchor="start" fill="currentColor">
<tspan>♯</tspan>
</text>
</g>
</g>
<g transform="translate(56.0342, 20.1581)">
<text font-family="IPAexGothic" font-size="2.4695" text-anchor="start" fill="currentColor">
<tspan>は</tspan>
</text>
</g>
<g transform="translate(60.5918, 15.5260)">
<circle stroke-linejoin="round" stroke-linecap="round" fill="currentColor" stroke="currentColor" stroke-width="0" r="0.4500"/>
</g>
<g transform="translate(17.0656, 13.2406)">
<text font-family="Libertinus Serif" font-size="1.5557" text-anchor="start" fill="currentColor">
<tspan> Ⅰ</tspan>
</text>
</g>
<g transform="translate(8.8018, 20.1581)">
<text font-family="IPAexGothic" font-size="2.4695" text-anchor="start" fill="currentColor">
<tspan>ご</tspan>
</text>
</g>
<g transform="translate(12.5869, 13.2406)">
<text font-family="Libertinus Serif" font-size="1.5557" text-anchor="start" fill="currentColor">
<tspan> Ⅲ</tspan>
</text>
</g>
<g color="rgb(100.0000%, 100.0000%, 100.0000%)">
<g transform="translate(12.5869, 15.5260)">
<rect x="-0.2124" y="-0.7473" width="1.7451" height="1.4947" ry="0.0000" fill="currentColor"/>
</g>
</g>
<g transform="scale(1.0000, 1.0000)">
<g transform="translate(12.3745, 16.1898)">
<text font-family="IPAexGothic" font-weight="bold" font-size="1.7462" text-anchor="start" fill="currentColor">
<tspan>♯</tspan>
</text>
</g>
</g>
<g transform="translate(12.0141, 20.1581)">
<text font-family="IPAexGothic" font-size="2.4695" text-anchor="start" fill="currentColor">
<tspan>め</tspan>
</text>
</g>
<g color="rgb(100.0000%, 100.0000%, 100.0000%)">
<g transform="translate(9.3747, 15.5260)">
<rect x="0.1100" y="-0.6446" width="1.1002" height="1.2892" ry="0.0000" fill="currentColor"/>
</g>
</g>
<g transform="scale(1.0000, 1.0000)">
<g transform="translate(9.4847, 16.1706)">
<text font-family="IPAexGothic" font-weight="bold" font-size="1.7462" text-anchor="start" fill="currentColor">
<tspan>2</tspan>
</text>
</g>
</g>
<g color="rgb(100.0000%, 100.0000%, 100.0000%)">
<g transform="translate(17.0656, 15.5260)">
<rect x="0.1100" y="-0.6446" width="1.1002" height="1.2892" ry="0.0000" fill="currentColor"/>
</g>
</g>
<g transform="scale(1.0000, 1.0000)">
<g transform="translate(17.1756, 16.1706)">
<text font-family="IPAexGothic" font-weight="bold" font-size="1.7462" text-anchor="start" fill="currentColor">
<tspan>2</tspan>
</text>
</g>
</g>
<g transform="translate(16.4927, 20.1581)">
<text font-family="IPAexGothic" font-size="2.4695" text-anchor="start" fill="currentColor">
<tspan>か</tspan>
</text>
</g>
<g transform="translate(33.2611, 20.1581)">
<text font-family="IPAexGothic" font-size="2.4695" text-anchor="start" fill="currentColor">
<tspan>ご</tspan>
</text>
</g>
<g transform="translate(3.1481, 15.5260)">
<rect x="0.0000" y="-1.5354" width="0.1133" height="3.0708" ry="0.0354" fill="currentColor"/>
</g>
<g transform="translate(5.1614, 13.2406)">
<text font-family="Libertinus Serif" font-size="1.5557" text-anchor="start" fill="currentColor">
<tspan> Ⅰ</tspan>
</text>
</g>
<g color="rgb(100.0000%, 100.0000%, 100.0000%)">
<g transform="translate(5.1614, 15.5260)">
<rect x="0.1100" y="-0.6446" width="1.1002" height="1.2892" ry="0.0000" fill="currentColor"/>
</g>
</g>
<g transform="scale(1.0000, 1.0000)">
<g transform="translate(5.2714, 16.1706)">
<text font-family="IPAexGothic" font-weight="bold" font-size="1.7462" text-anchor="start" fill="currentColor">
<tspan>2</tspan>
</text>
</g>
</g>
<g transform="translate(4.5886, 20.1581)">
<text font-family="IPAexGothic" font-size="2.4695" text-anchor="start" fill="currentColor">
<tspan>か</tspan>
</text>
</g>
<g transform="translate(5.8215, 15.5260)">
<path stroke-width="0.1200" stroke-linejoin="round" stroke-linecap="square" stroke="currentColor" fill="none" d="M2 -0.6700l1 0"/>
</g>
<g transform="translate(27.1523, 15.5260)">
<circle stroke-linejoin="round" stroke-linecap="round" fill="currentColor" stroke="currentColor" stroke-width="0" r="0.4500"/>
</g>
<g transform="translate(30.6217, 13.2406)">
<text font-family="Libertinus Serif" font-size="1.5557" text-anchor="start" fill="currentColor">
<tspan> Ⅰ</tspan>
</text>
</g>
<g color="rgb(100.0000%, 100.0000%, 100.0000%)">
<g transform="translate(30.6217, 15.5260)">
<rect x="0.1100" y="-0.6446" width="1.1002" height="1.2892" ry="0.0000" fill="currentColor"/>
</g>
</g>
<g transform="scale(1.0000, 1.0000)">
<g transform="translate(30.7317, 16.1706)">
<text font-family="IPAexGothic" font-weight="bold" font-size="1.7462" text-anchor="start" fill="currentColor">
<tspan>2</tspan>
</text>
</g>
</g>
<g transform="translate(30.0488, 20.1581)">
<text font-family="IPAexGothic" font-size="2.4695" text-anchor="start" fill="currentColor">
<tspan>か</tspan>
</text>
</g>
<g color="rgb(100.0000%, 100.0000%, 100.0000%)">
<g transform="translate(33.8339, 15.5260)">
<rect x="0.1100" y="-0.6446" width="1.1002" height="1.2892" ry="0.0000" fill="currentColor"/>
</g>
</g>
<g transform="scale(1.0000, 1.0000)">
<g transform="translate(33.9439, 16.1706)">
<text font-family="IPAexGothic" font-weight="bold" font-size="1.7462" text-anchor="start" fill="currentColor">
<tspan>2</tspan>
</text>
</g>
</g>
<g transform="translate(19.7050, 20.1581)">
<text font-family="IPAexGothic" font-size="2.4695" text-anchor="start" fill="currentColor">
<tspan>ご</tspan>
</text>
</g>
<g color="rgb(100.0000%, 100.0000%, 100.0000%)">
<g transform="translate(23.4901, 15.5260)">
<rect x="0.1100" y="-0.6446" width="1.1002" height="1.2892" ry="0.0000" fill="currentColor"/>
</g>
</g>
<g transform="scale(1.0000, 1.0000)">
<g transform="translate(23.6001, 16.1706)">
<text font-family="IPAexGothic" font-weight="bold" font-size="1.7462" text-anchor="start" fill="currentColor">
<tspan>2</tspan>
</text>
</g>
</g>
<g transform="translate(22.9172, 20.1581)">
<text font-family="IPAexGothic" font-size="2.4695" text-anchor="start" fill="currentColor">
<tspan>め</tspan>
</text>
</g>
<g color="rgb(100.0000%, 100.0000%, 100.0000%)">
<g transform="translate(20.2778, 15.5260)">
<rect x="0.1100" y="-0.6446" width="1.1002" height="1.2892" ry="0.0000" fill="currentColor"/>
</g>
</g>
<g transform="scale(1.0000, 1.0000)">
<g transform="translate(20.3878, 16.1706)">
<text font-family="IPAexGothic" font-weight="bold" font-size="1.7462" text-anchor="start" fill="currentColor">
<tspan>2</tspan>
</text>
</g>
</g>
<g transform="translate(3.1614, 26.9078)">
<line stroke-linejoin="round" stroke-linecap="round" stroke-width="0.0708" stroke="currentColor" x1="0.0354" y1="0" x2="60.0315" y2="0"/>
</g>
<g transform="translate(3.1614, 25.4078)">
<line stroke-linejoin="round" stroke-linecap="round" stroke-width="0.0708" stroke="currentColor" x1="0.0354" y1="0" x2="60.0315" y2="0"/>
</g>
<g transform="translate(3.1614, 23.9078)">
<line stroke-linejoin="round" stroke-linecap="round" stroke-width="0.0708" stroke="currentColor" x1="0.0354" y1="0" x2="60.0315" y2="0"/>
</g>
<g transform="translate(48.9428, 25.4078)">
<rect x="0.0000" y="-1.5000" width="0.1345" height="3.0000" ry="0.0000" fill="currentColor"/>
</g>
<g transform="translate(18.5489, 25.4078)">
<rect x="0.0000" y="-1.5000" width="0.1345" height="3.0000" ry="0.0000" fill="currentColor"/>
</g>
<g transform="translate(63.0938, 25.4078)">
<rect x="0.0000" y="-1.5000" width="0.1345" height="3.0000" ry="0.0000" fill="currentColor"/>
</g>
<g transform="translate(34.2326, 25.4078)">
<rect x="0.0000" y="-1.5000" width="0.1345" height="3.0000" ry="0.0000" fill="currentColor"/>
</g>
<g color="rgb(100.0000%, 100.0000%, 100.0000%)">
<g transform="translate(41.9351, 25.4078)">
<rect x="0.1100" y="-0.6446" width="1.1002" height="1.2892" ry="0.0000" fill="currentColor"/>
</g>
</g>
<g transform="scale(1.0000, 1.0000)">
<g transform="translate(42.0452, 26.0524)">
<text font-family="IPAexGothic" font-weight="bold" font-size="1.7462" text-anchor="start" fill="currentColor">
<tspan>2</tspan>
</text>
</g>
</g>
<g transform="translate(41.3623, 29.9928)">
<text font-family="IPAexGothic" font-size="2.4695" text-anchor="start" fill="currentColor">
<tspan>け</tspan>
</text>
</g>
<g transform="translate(45.2895, 23.1224)">
<text font-family="Libertinus Serif" font-size="1.5557" text-anchor="start" fill="currentColor">
<tspan> Ⅲ</tspan>
</text>
</g>
<g color="rgb(100.0000%, 100.0000%, 100.0000%)">
<g transform="translate(45.2895, 25.4078)">
<rect x="-0.2124" y="-0.7473" width="1.7451" height="1.4947" ry="0.0000" fill="currentColor"/>
</g>
</g>
<g transform="scale(1.0000, 1.0000)">
<g transform="translate(45.0770, 26.0715)">
<text font-family="IPAexGothic" font-weight="bold" font-size="1.7462" text-anchor="start" fill="currentColor">
<tspan>♯</tspan>
</text>
</g>
</g>
<g transform="translate(44.7166, 29.9928)">
<text font-family="IPAexGothic" font-size="2.4695" text-anchor="start" fill="currentColor">
<tspan>の</tspan>
</text>
</g>
<g transform="translate(49.9368, 23.1224)">
<text font-family="Libertinus Serif" font-size="1.5557" text-anchor="start" fill="currentColor">
<tspan> Ⅰ</tspan>
</text>
</g>
<g color="rgb(100.0000%, 100.0000%, 100.0000%)">
<g transform="translate(49.9368, 25.4078)">
<rect x="0.1100" y="-0.6446" width="1.1002" height="1.2892" ry="0.0000" fill="currentColor"/>
</g>
</g>
<g transform="scale(1.0000, 1.0000)">
<g transform="translate(50.0468, 26.0524)">
<text font-family="IPAexGothic" font-weight="bold" font-size="1.7462" text-anchor="start" fill="currentColor">
<tspan>2</tspan>
</text>
</g>
</g>
<g transform="translate(49.3639, 29.9928)">
<text font-family="IPAexGothic" font-size="2.4695" text-anchor="start" fill="currentColor">
<tspan>ば</tspan>
</text>
</g>
<g color="rgb(100.0000%, 100.0000%, 100.0000%)">
<g transform="translate(35.2265, 25.4078)">
<rect x="0.1100" y="-0.6446" width="1.1002" height="1.2892" ry="0.0000" fill="currentColor"/>
</g>
</g>
<g transform="scale(1.0000, 1.0000)">
<g transform="translate(35.3365, 26.0524)">
<text font-family="IPAexGothic" font-weight="bold" font-size="1.7462" text-anchor="start" fill="currentColor">
<tspan>2</tspan>
</text>
</g>
</g>
<g transform="translate(34.6537, 29.9928)">
<text font-family="IPAexGothic" font-size="2.4695" text-anchor="start" fill="currentColor">
<tspan>よ</tspan>
</text>
</g>
<g transform="translate(35.2265, 23.1224)">
<text font-family="Libertinus Serif" font-size="1.5557" text-anchor="start" fill="currentColor">
<tspan> Ⅰ</tspan>
</text>
</g>
<g color="rgb(100.0000%, 100.0000%, 100.0000%)">
<g transform="translate(38.5808, 25.4078)">
<rect x="0.1100" y="-0.6446" width="1.1002" height="1.2892" ry="0.0000" fill="currentColor"/>
</g>
</g>
<g transform="scale(1.0000, 1.0000)">
<g transform="translate(38.6909, 26.0524)">
<text font-family="IPAexGothic" font-weight="bold" font-size="1.7462" text-anchor="start" fill="currentColor">
<tspan>2</tspan>
</text>
</g>
</g>
<g transform="translate(38.0080, 29.9928)">
<text font-family="IPAexGothic" font-size="2.4695" text-anchor="start" fill="currentColor">
<tspan>あ</tspan>
</text>
</g>
<g color="rgb(100.0000%, 100.0000%, 100.0000%)">
<g transform="translate(53.2911, 25.4078)">
<rect x="0.1100" y="-0.6446" width="1.1002" height="1.2892" ry="0.0000" fill="currentColor"/>
</g>
</g>
<g transform="scale(1.0000, 1.0000)">
<g transform="translate(53.4011, 26.0524)">
<text font-family="IPAexGothic" font-weight="bold" font-size="1.7462" text-anchor="start" fill="currentColor">
<tspan>2</tspan>
</text>
</g>
</g>
<g transform="translate(52.7183, 29.9928)">
<text font-family="IPAexGothic" font-size="2.4695" text-anchor="start" fill="currentColor">
<tspan>ん</tspan>
</text>
</g>
<g color="rgb(100.0000%, 100.0000%, 100.0000%)">
<g transform="translate(56.6454, 25.4078)">
<rect x="0.1100" y="-0.6446" width="1.1002" height="1.2892" ry="0.0000" fill="currentColor"/>
</g>
</g>
<g transform="scale(1.0000, 1.0000)">
<g transform="translate(56.7554, 26.0524)">
<text font-family="IPAexGothic" font-weight="bold" font-size="1.7462" text-anchor="start" fill="currentColor">
<tspan>2</tspan>
</text>
</g>
</g>
<g transform="translate(56.0726, 29.9928)">
<text font-family="IPAexGothic" font-size="2.4695" text-anchor="start" fill="currentColor">
<tspan>に</tspan>
</text>
</g>
<g transform="translate(60.4497, 25.4078)">
<circle stroke-linejoin="round" stroke-linecap="round" fill="currentColor" stroke="currentColor" stroke-width="0" r="0.4500"/>
</g>
<g color="rgb(100.0000%, 100.0000%, 100.0000%)">
<g transform="translate(8.5157, 25.4078)">
<rect x="0.1100" y="-0.6489" width="1.1002" height="1.2977" ry="0.0000" fill="currentColor"/>
</g>
</g>
<g transform="scale(1.0000, 1.0000)">
<g transform="translate(8.6257, 26.0481)">
<text font-family="IPAexGothic" font-weight="bold" font-size="1.7462" text-anchor="start" fill="currentColor">
<tspan>0</tspan>
</text>
</g>
</g>
<g transform="translate(7.9429, 29.9928)">
<text font-family="IPAexGothic" font-size="2.4695" text-anchor="start" fill="currentColor">
<tspan>つ</tspan>
</text>
</g>
<g color="rgb(100.0000%, 100.0000%, 100.0000%)">
<g transform="translate(11.8700, 25.4078)">
<rect x="0.1100" y="-0.6446" width="1.1002" height="1.2892" ry="0.0000" fill="currentColor"/>
</g>
</g>
<g transform="scale(1.0000, 1.0000)">
<g transform="translate(11.9801, 26.0524)">
<text font-family="IPAexGothic" font-weight="bold" font-size="1.7462" text-anchor="start" fill="currentColor">
<tspan>2</tspan>
</text>
</g>
</g>
<g transform="translate(11.2972, 29.9928)">
<text font-family="IPAexGothic" font-size="2.4695" text-anchor="start" fill="currentColor">
<tspan>い</tspan>
</text>
</g>
<g color="rgb(100.0000%, 100.0000%, 100.0000%)">
<g transform="translate(15.2243, 25.4078)">
<rect x="0.1100" y="-0.6489" width="1.1002" height="1.2977" ry="0.0000" fill="currentColor"/>
</g>
</g>
<g transform="scale(1.0000, 1.0000)">
<g transform="translate(15.3344, 26.0481)">
<text font-family="IPAexGothic" font-weight="bold" font-size="1.7462" text-anchor="start" fill="currentColor">
<tspan>0</tspan>
</text>
</g>
</g>
<g transform="translate(14.6515, 29.9928)">
<text font-family="IPAexGothic" font-size="2.4695" text-anchor="start" fill="currentColor">
<tspan>つ</tspan>
</text>
</g>
<g transform="translate(19.5429, 23.1224)">
<text font-family="Libertinus Serif" font-size="1.5557" text-anchor="start" fill="currentColor">
<tspan> Ⅰ</tspan>
</text>
</g>
<g color="rgb(100.0000%, 100.0000%, 100.0000%)">
<g transform="translate(19.5429, 25.4078)">
<rect x="0.1100" y="-0.6446" width="1.1002" height="1.2892" ry="0.0000" fill="currentColor"/>
</g>
</g>
<g transform="scale(1.0000, 1.0000)">
<g transform="translate(19.6529, 26.0524)">
<text font-family="IPAexGothic" font-weight="bold" font-size="1.7462" text-anchor="start" fill="currentColor">
<tspan>2</tspan>
</text>
</g>
</g>
<g transform="translate(18.9700, 29.9928)">
<text font-family="IPAexGothic" font-size="2.4695" text-anchor="start" fill="currentColor">
<tspan>で</tspan>
</text>
</g>
<g transform="translate(3.1481, 25.4078)">
<rect x="0.0000" y="-1.5354" width="0.1133" height="3.0708" ry="0.0354" fill="currentColor"/>
</g>
<g transform="translate(5.1614, 23.1224)">
<text font-family="Libertinus Serif" font-size="1.5557" text-anchor="start" fill="currentColor">
<tspan> Ⅰ</tspan>
</text>
</g>
<g color="rgb(100.0000%, 100.0000%, 100.0000%)">
<g transform="translate(5.1614, 25.4078)">
<rect x="0.1100" y="-0.6446" width="1.1002" height="1.2892" ry="0.0000" fill="currentColor"/>
</g>
</g>
<g transform="scale(1.0000, 1.0000)">
<g transform="translate(5.2714, 26.0524)">
<text font-family="IPAexGothic" font-weight="bold" font-size="1.7462" text-anchor="start" fill="currentColor">
<tspan>2</tspan>
</text>
</g>
</g>
<g transform="translate(4.5886, 29.9928)">
<text font-family="IPAexGothic" font-size="2.4695" text-anchor="start" fill="currentColor">
<tspan>い</tspan>
</text>
</g>
<g transform="translate(23.0072, 29.9928)">
<text font-family="IPAexGothic" font-size="2.4695" text-anchor="start" fill="currentColor">
<tspan>や</tspan>
</text>
</g>
<g transform="translate(23.5573, 25.4078)">
<path stroke-width="0.1200" stroke-linejoin="round" stroke-linecap="square" stroke="currentColor" fill="none" d="M-0.5500 0.8702L0.5500 0.8702"/>
</g>
<g transform="translate(25.8360, 27.6578)">
<path stroke-width="0.1200" stroke-linejoin="miter" stroke-linecap="square" stroke="currentColor" fill="none" d="M-0.4120 -0.4220L0.2280 -0.4270L0.2680 -0.3860C0.1100 0.0460 -0.1310 0.2760 -0.4870 0.4570M0.4940 0.4340C0.3790 0.3130 0.2470 0.1870 0.0440 0.0360"/>
</g>
<g color="rgb(100.0000%, 100.0000%, 100.0000%)">
<g transform="translate(25.1794, 25.4078)">
<rect x="0.1100" y="-0.6489" width="1.1002" height="1.2977" ry="0.0000" fill="currentColor"/>
</g>
</g>
<g transform="scale(1.0000, 1.0000)">
<g transform="translate(25.2895, 26.0481)">
<text font-family="IPAexGothic" font-weight="bold" font-size="1.7462" text-anchor="start" fill="currentColor">
<tspan>0</tspan>
</text>
</g>
</g>
<g transform="translate(25.8395, 25.4078)">
<path stroke-width="0.1200" stroke-linejoin="round" stroke-linecap="square" stroke="currentColor" fill="none" d="M-0.5500 0.8760L0.5500 0.8760"/>
</g>
<g transform="translate(27.4617, 23.1224)">
<text font-family="Libertinus Serif" font-size="1.5557" text-anchor="start" fill="currentColor">
<tspan> Ⅲ</tspan>
</text>
</g>
<g color="rgb(100.0000%, 100.0000%, 100.0000%)">
<g transform="translate(27.4617, 26.9078)">
<rect x="-0.2124" y="-0.7473" width="1.7451" height="1.4947" ry="0.0000" fill="currentColor"/>
</g>
</g>
<g transform="scale(1.0000, 1.0000)">
<g transform="translate(27.2492, 27.5715)">
<text font-family="IPAexGothic" font-weight="bold" font-size="1.7462" text-anchor="start" fill="currentColor">
<tspan>♯</tspan>
</text>
</g>
</g>
<g transform="translate(26.8888, 29.9928)">
<text font-family="IPAexGothic" font-size="2.4695" text-anchor="start" fill="currentColor">
<tspan>る</tspan>
</text>
</g>
<g transform="translate(31.5885, 25.4078)">
<circle stroke-linejoin="round" stroke-linecap="round" fill="currentColor" stroke="currentColor" stroke-width="0" r="0.4500"/>
</g>
<g color="rgb(100.0000%, 100.0000%, 100.0000%)">
<g transform="translate(22.8972, 25.4078)">
<rect x="0.1100" y="-0.6446" width="1.1002" height="1.2892" ry="0.0000" fill="currentColor"/>
</g>
</g>
<g transform="scale(1.0000, 1.0000)">
<g transform="translate(23.0072, 26.0524)">
<text font-family="IPAexGothic" font-weight="bold" font-size="1.7462" text-anchor="start" fill="currentColor">
<tspan>2</tspan>
</text>
</g>
</g>
<g transform="translate(3.1614, 36.7521)">
<line stroke-linejoin="round" stroke-linecap="round" stroke-width="0.0708" stroke="currentColor" x1="0.0354" y1="0" x2="60.0315" y2="0"/>
</g>
<g transform="translate(3.1614, 35.2521)">
<line stroke-linejoin="round" stroke-linecap="round" stroke-width="0.0708" stroke="currentColor" x1="0.0354" y1="0" x2="60.0315" y2="0"/>
</g>
<g transform="translate(3.1614, 33.7521)">
<line stroke-linejoin="round" stroke-linecap="round" stroke-width="0.0708" stroke="currentColor" x1="0.0354" y1="0" x2="60.0315" y2="0"/>
</g>
<g transform="translate(63.0938, 35.2521)">
<rect x="0.0000" y="-1.5000" width="0.1345" height="3.0000" ry="0.0000" fill="currentColor"/>
</g>
<g transform="translate(34.6156, 35.2521)">
<rect x="0.0000" y="-1.5000" width="0.1345" height="3.0000" ry="0.0000" fill="currentColor"/>
</g>
<g transform="translate(31.2879, 37.5021)">
<path stroke-width="0.1200" stroke-linejoin="miter" stroke-linecap="square" stroke="currentColor" fill="none" d="M-0.4120 -0.4220L0.2280 -0.4270L0.2680 -0.3860C0.1100 0.0460 -0.1310 0.2760 -0.4870 0.4570M0.4940 0.4340C0.3790 0.3130 0.2470 0.1870 0.0440 0.0360"/>
</g>
<g transform="translate(42.4334, 40.4014)">
<text font-family="IPAexGothic" font-size="2.4695" text-anchor="start" fill="currentColor">
<tspan>べ</tspan>
</text>
</g>
<g color="rgb(100.0000%, 100.0000%, 100.0000%)">
<g transform="translate(43.0062, 35.2521)">
<rect x="0.1100" y="-0.6446" width="1.1002" height="1.2892" ry="0.0000" fill="currentColor"/>
</g>
</g>
<g transform="scale(1.0000, 1.0000)">
<g transform="translate(43.1163, 35.8967)">
<text font-family="IPAexGothic" font-weight="bold" font-size="1.7462" text-anchor="start" fill="currentColor">
<tspan>2</tspan>
</text>
</g>
</g>
<g transform="translate(35.6749, 40.4014)">
<text font-family="IPAexGothic" font-size="2.4695" text-anchor="start" fill="currentColor">
<tspan>す</tspan>
</text>
</g>
<g color="rgb(100.0000%, 100.0000%, 100.0000%)">
<g transform="translate(36.2478, 35.2521)">
<rect x="0.1100" y="-0.6446" width="1.1002" height="1.2892" ry="0.0000" fill="currentColor"/>
</g>
</g>
<g transform="scale(1.0000, 1.0000)">
<g transform="translate(36.3578, 35.8967)">
<text font-family="IPAexGothic" font-weight="bold" font-size="1.7462" text-anchor="start" fill="currentColor">
<tspan>2</tspan>
</text>
</g>
</g>
<g transform="translate(36.2478, 32.9667)">
<text font-family="Libertinus Serif" font-size="1.5557" text-anchor="start" fill="currentColor">
<tspan> Ⅰ</tspan>
</text>
</g>
<g transform="translate(31.2914, 35.2521)">
<path stroke-width="0.1200" stroke-linejoin="round" stroke-linecap="square" stroke="currentColor" fill="none" d="M-0.5500 0.8760L0.5500 0.8760"/>
</g>
<g transform="translate(30.0584, 40.4014)">
<text font-family="IPAexGothic" font-size="2.4695" text-anchor="start" fill="currentColor">
<tspan>と</tspan>
</text>
</g>
<g color="rgb(100.0000%, 100.0000%, 100.0000%)">
<g transform="translate(30.6313, 35.2521)">
<rect x="0.1100" y="-0.6489" width="1.1002" height="1.2977" ry="0.0000" fill="currentColor"/>
</g>
</g>
<g transform="scale(1.0000, 1.0000)">
<g transform="translate(30.7413, 35.8924)">
<text font-family="IPAexGothic" font-weight="bold" font-size="1.7462" text-anchor="start" fill="currentColor">
<tspan>0</tspan>
</text>
</g>
</g>
<g transform="translate(57.0456, 35.2521)">
<circle stroke-linejoin="round" stroke-linecap="round" fill="currentColor" stroke="currentColor" stroke-width="0" r="0.4500"/>
</g>
<g transform="translate(47.7089, 40.4014)">
<text font-family="IPAexGothic" font-size="2.4695" text-anchor="start" fill="currentColor">
<tspan>った</tspan>
</text>
</g>
<g color="rgb(100.0000%, 100.0000%, 100.0000%)">
<g transform="translate(49.5147, 36.7521)">
<rect x="-0.2124" y="-0.7473" width="1.7451" height="1.4947" ry="0.0000" fill="currentColor"/>
</g>
</g>
<g transform="scale(1.0000, 1.0000)">
<g transform="translate(49.3022, 37.4159)">
<text font-family="IPAexGothic" font-weight="bold" font-size="1.7462" text-anchor="start" fill="currentColor">
<tspan>♯</tspan>
</text>
</g>
</g>
<g transform="translate(49.5147, 32.9667)">
<text font-family="Libertinus Serif" font-size="1.5557" text-anchor="start" fill="currentColor">
<tspan> Ⅲ</tspan>
</text>
</g>
<g transform="translate(12.5800, 35.2521)">
<path stroke-width="0.1200" stroke-linejoin="round" stroke-linecap="square" stroke="currentColor" fill="none" d="M-0.5500 0.8760L0.5500 0.8760"/>
</g>
<g color="rgb(100.0000%, 100.0000%, 100.0000%)">
<g transform="translate(11.9199, 35.2521)">
<rect x="0.1100" y="-0.6489" width="1.1002" height="1.2977" ry="0.0000" fill="currentColor"/>
</g>
</g>
<g transform="scale(1.0000, 1.0000)">
<g transform="translate(12.0299, 35.8924)">
<text font-family="IPAexGothic" font-weight="bold" font-size="1.7462" text-anchor="start" fill="currentColor">
<tspan>0</tspan>
</text>
</g>
</g>
<g transform="translate(4.5886, 40.4014)">
<text font-family="IPAexGothic" font-size="2.4695" text-anchor="start" fill="currentColor">
<tspan>つ</tspan>
</text>
</g>
<g color="rgb(100.0000%, 100.0000%, 100.0000%)">
<g transform="translate(5.1614, 35.2521)">
<rect x="0.1100" y="-0.6446" width="1.1002" height="1.2892" ry="0.0000" fill="currentColor"/>
</g>
</g>
<g transform="scale(1.0000, 1.0000)">
<g transform="translate(5.2714, 35.8967)">
<text font-family="IPAexGothic" font-weight="bold" font-size="1.7462" text-anchor="start" fill="currentColor">
<tspan>2</tspan>
</text>
</g>
</g>
<g transform="translate(5.1614, 32.9667)">
<text font-family="Libertinus Serif" font-size="1.5557" text-anchor="start" fill="currentColor">
<tspan> Ⅰ</tspan>
</text>
</g>
<g transform="translate(11.3470, 40.4014)">
<text font-family="IPAexGothic" font-size="2.4695" text-anchor="start" fill="currentColor">
<tspan>る</tspan>
</text>
</g>
<g transform="translate(3.1481, 35.2521)">
<rect x="0.0000" y="-1.5354" width="0.1133" height="3.0708" ry="0.0354" fill="currentColor"/>
</g>
<g transform="translate(27.3070, 35.2521)">
<path stroke-width="0.1200" stroke-linejoin="round" stroke-linecap="square" stroke="currentColor" fill="none" d="M-0.5500 0.8760L0.5500 0.8760"/>
</g>
<g transform="translate(26.0741, 40.4014)">
<text font-family="IPAexGothic" font-size="2.4695" text-anchor="start" fill="currentColor">
<tspan>め</tspan>
</text>
</g>
<g color="rgb(100.0000%, 100.0000%, 100.0000%)">
<g transform="translate(26.6469, 35.2521)">
<rect x="0.1100" y="-0.6489" width="1.1002" height="1.2977" ry="0.0000" fill="currentColor"/>
</g>
</g>
<g transform="scale(1.0000, 1.0000)">
<g transform="translate(26.7570, 35.8924)">
<text font-family="IPAexGothic" font-weight="bold" font-size="1.7462" text-anchor="start" fill="currentColor">
<tspan>0</tspan>
</text>
</g>
</g>
<g transform="translate(19.3156, 40.4014)">
<text font-family="IPAexGothic" font-size="2.4695" text-anchor="start" fill="currentColor">
<tspan>か</tspan>
</text>
</g>
<g color="rgb(100.0000%, 100.0000%, 100.0000%)">
<g transform="translate(19.8885, 35.2521)">
<rect x="0.1100" y="-0.6446" width="1.1002" height="1.2892" ry="0.0000" fill="currentColor"/>
</g>
</g>
<g transform="scale(1.0000, 1.0000)">
<g transform="translate(19.9985, 35.8967)">
<text font-family="IPAexGothic" font-weight="bold" font-size="1.7462" text-anchor="start" fill="currentColor">
<tspan>2</tspan>
</text>
</g>
</g>
<g transform="translate(16.5608, 37.5021)">
<path stroke-width="0.1200" stroke-linejoin="miter" stroke-linecap="square" stroke="currentColor" fill="none" d="M-0.4120 -0.4220L0.2280 -0.4270L0.2680 -0.3860C0.1100 0.0460 -0.1310 0.2760 -0.4870 0.4570M0.4940 0.4340C0.3790 0.3130 0.2470 0.1870 0.0440 0.0360"/>
</g>
<g color="rgb(100.0000%, 100.0000%, 100.0000%)">
<g transform="translate(15.9042, 35.2521)">
<rect x="0.1100" y="-0.6489" width="1.1002" height="1.2977" ry="0.0000" fill="currentColor"/>
</g>
</g>
<g transform="scale(1.0000, 1.0000)">
<g transform="translate(16.0142, 35.8924)">
<text font-family="IPAexGothic" font-weight="bold" font-size="1.7462" text-anchor="start" fill="currentColor">
<tspan>0</tspan>
</text>
</g>
</g>
<g transform="translate(15.3313, 40.4014)">
<text font-family="IPAexGothic" font-size="2.4695" text-anchor="start" fill="currentColor">
<tspan>と</tspan>
</text>
</g>
<g transform="translate(16.5643, 35.2521)">
<path stroke-width="0.1200" stroke-linejoin="round" stroke-linecap="square" stroke="currentColor" fill="none" d="M-0.5500 0.8760L0.5500 0.8760"/>
</g>
<g transform="translate(3.1614, 47.1337)">
<line stroke-linejoin="round" stroke-linecap="round" stroke-width="0.0708" stroke="currentColor" x1="0.0354" y1="0" x2="60.0315" y2="0"/>
</g>
<g transform="translate(3.1614, 45.6337)">
<line stroke-linejoin="round" stroke-linecap="round" stroke-width="0.0708" stroke="currentColor" x1="0.0354" y1="0" x2="60.0315" y2="0"/>
</g>
<g transform="translate(3.1614, 44.1337)">
<line stroke-linejoin="round" stroke-linecap="round" stroke-width="0.0708" stroke="currentColor" x1="0.0354" y1="0" x2="60.0315" y2="0"/>
</g>
<g transform="translate(63.0938, 45.6337)">
<rect x="0.0000" y="-1.5000" width="0.1345" height="3.0000" ry="0.0000" fill="currentColor"/>
</g>
<g transform="translate(36.0909, 45.6337)">
<rect x="0.0000" y="-1.5000" width="0.1345" height="3.0000" ry="0.0000" fill="currentColor"/>
</g>
<g color="rgb(100.0000%, 100.0000%, 100.0000%)">
<g transform="translate(46.0108, 45.6337)">
<rect x="0.1100" y="-0.6489" width="1.1002" height="1.2977" ry="0.0000" fill="currentColor"/>
</g>
</g>
<g transform="scale(1.0000, 1.0000)">
<g transform="translate(46.1208, 46.2740)">
<text font-family="IPAexGothic" font-weight="bold" font-size="1.7462" text-anchor="start" fill="currentColor">
<tspan>0</tspan>
</text>
</g>
</g>
<g transform="translate(46.6709, 45.6337)">
<path stroke-width="0.1200" stroke-linejoin="round" stroke-linecap="square" stroke="currentColor" fill="none" d="M-0.5500 0.8760L0.5500 0.8760"/>
</g>
<g transform="translate(39.3783, 44.8837)">
<path transform="scale(0.0040, -0.0040)" d="M0 0c0 32 25 57 57 57s57 -25 57 -57s-25 -57 -57 -57s-57 25 -57 57z" fill="currentColor"/>
</g>
<g transform="translate(37.8213, 51.1337)">
<text font-family="IPAexGothic" font-size="2.4695" text-anchor="start" fill="currentColor">
<tspan>だ</tspan>
</text>
</g>
<g color="rgb(100.0000%, 100.0000%, 100.0000%)">
<g transform="translate(37.7113, 45.6337)">
<rect x="0.1100" y="-0.6446" width="1.1002" height="1.2892" ry="0.0000" fill="currentColor"/>
</g>
</g>
<g transform="scale(1.0000, 1.0000)">
<g transform="translate(37.8213, 46.2783)">
<text font-family="IPAexGothic" font-weight="bold" font-size="1.7462" text-anchor="start" fill="currentColor">
<tspan>2</tspan>
</text>
</g>
</g>
<g transform="translate(37.7113, 43.3483)">
<text font-family="Libertinus Serif" font-size="1.5557" text-anchor="start" fill="currentColor">
<tspan> Ⅰ</tspan>
</text>
</g>
<g transform="translate(27.2908, 51.1337)">
<text font-family="IPAexGothic" font-size="2.4695" text-anchor="start" fill="currentColor">
<tspan>めん</tspan>
</text>
</g>
<g color="rgb(100.0000%, 100.0000%, 100.0000%)">
<g transform="translate(29.0966, 45.6337)">
<rect x="-0.2124" y="-0.7473" width="1.7451" height="1.4947" ry="0.0000" fill="currentColor"/>
</g>
</g>
<g transform="scale(1.0000, 1.0000)">
<g transform="translate(28.8842, 46.2974)">
<text font-family="IPAexGothic" font-weight="bold" font-size="1.7462" text-anchor="start" fill="currentColor">
<tspan>♯</tspan>
</text>
</g>
</g>
<g transform="translate(29.0966, 43.3483)">
<text font-family="Libertinus Serif" font-size="1.5557" text-anchor="start" fill="currentColor">
<tspan> Ⅲ</tspan>
</text>
</g>
<g transform="translate(57.1088, 45.6337)">
<circle stroke-linejoin="round" stroke-linecap="round" fill="currentColor" stroke="currentColor" stroke-width="0" r="0.4500"/>
</g>
<g transform="translate(49.3907, 51.1337)">
<text font-family="IPAexGothic" font-size="2.4695" text-anchor="start" fill="currentColor">
<tspan>れ</tspan>
</text>
</g>
<g color="rgb(100.0000%, 100.0000%, 100.0000%)">
<g transform="translate(49.9635, 45.6337)">
<rect x="0.1100" y="-0.6446" width="1.1002" height="1.2892" ry="0.0000" fill="currentColor"/>
</g>
</g>
<g transform="scale(1.0000, 1.0000)">
<g transform="translate(50.0736, 46.2783)">
<text font-family="IPAexGothic" font-weight="bold" font-size="1.7462" text-anchor="start" fill="currentColor">
<tspan>2</tspan>
</text>
</g>
</g>
<g transform="translate(9.7742, 45.6337)">
<path stroke-width="0.1200" stroke-linejoin="round" stroke-linecap="square" stroke="currentColor" fill="none" d="M-0.5500 0.8702L0.5500 0.8702"/>
</g>
<g transform="translate(8.5413, 51.1337)">
<text font-family="IPAexGothic" font-size="2.4695" text-anchor="start" fill="currentColor">
<tspan>し</tspan>
</text>
</g>
<g transform="translate(9.7707, 47.8837)">
<path stroke-width="0.1200" stroke-linejoin="miter" stroke-linecap="square" stroke="currentColor" fill="none" d="M-0.4120 -0.4220L0.2280 -0.4270L0.2680 -0.3860C0.1100 0.0460 -0.1310 0.2760 -0.4870 0.4570M0.4940 0.4340C0.3790 0.3130 0.2470 0.1870 0.0440 0.0360"/>
</g>
<g transform="translate(5.8215, 45.6337)">
<path stroke-width="0.1200" stroke-linejoin="round" stroke-linecap="square" stroke="currentColor" fill="none" d="M-0.5500 0.8702L0.5500 0.8702"/>
</g>
<g transform="translate(4.5886, 51.1337)">
<text font-family="IPAexGothic" font-size="2.4695" text-anchor="start" fill="currentColor">
<tspan>う</tspan>
</text>
</g>
<g color="rgb(100.0000%, 100.0000%, 100.0000%)">
<g transform="translate(5.1614, 45.6337)">
<rect x="0.1100" y="-0.6446" width="1.1002" height="1.2892" ry="0.0000" fill="currentColor"/>
</g>
</g>
<g transform="scale(1.0000, 1.0000)">
<g transform="translate(5.2714, 46.2783)">
<text font-family="IPAexGothic" font-weight="bold" font-size="1.7462" text-anchor="start" fill="currentColor">
<tspan>2</tspan>
</text>
</g>
</g>
<g transform="translate(5.1614, 43.3483)">
<text font-family="Libertinus Serif" font-size="1.5557" text-anchor="start" fill="currentColor">
<tspan> Ⅰ</tspan>
</text>
</g>
<g color="rgb(100.0000%, 100.0000%, 100.0000%)">
<g transform="translate(9.1141, 45.6337)">
<rect x="0.1100" y="-0.6446" width="1.1002" height="1.2892" ry="0.0000" fill="currentColor"/>
</g>
</g>
<g transform="scale(1.0000, 1.0000)">
<g transform="translate(9.2242, 46.2783)">
<text font-family="IPAexGothic" font-weight="bold" font-size="1.7462" text-anchor="start" fill="currentColor">
<tspan>2</tspan>
</text>
</g>
</g>
<g transform="translate(3.1481, 45.6337)">
<rect x="0.0000" y="-1.5354" width="0.1133" height="3.0708" ry="0.0354" fill="currentColor"/>
</g>
<g transform="translate(17.6797, 45.6337)">
<path stroke-width="0.1200" stroke-linejoin="round" stroke-linecap="square" stroke="currentColor" fill="none" d="M-0.5500 0.8702L0.5500 0.8702"/>
</g>
<g transform="translate(16.4467, 51.1337)">
<text font-family="IPAexGothic" font-size="2.4695" text-anchor="start" fill="currentColor">
<tspan>の</tspan>
</text>
</g>
<g color="rgb(100.0000%, 100.0000%, 100.0000%)">
<g transform="translate(17.0196, 45.6337)">
<rect x="0.1100" y="-0.6446" width="1.1002" height="1.2892" ry="0.0000" fill="currentColor"/>
</g>
</g>
<g transform="scale(1.0000, 1.0000)">
<g transform="translate(17.1296, 46.2783)">
<text font-family="IPAexGothic" font-weight="bold" font-size="1.7462" text-anchor="start" fill="currentColor">
<tspan>2</tspan>
</text>
</g>
</g>
<g transform="translate(17.6762, 47.8837)">
<path stroke-width="0.1200" stroke-linejoin="miter" stroke-linecap="square" stroke="currentColor" fill="none" d="M-0.4120 -0.4220L0.2280 -0.4270L0.2680 -0.3860C0.1100 0.0460 -0.1310 0.2760 -0.4870 0.4570M0.4940 0.4340C0.3790 0.3130 0.2470 0.1870 0.0440 0.0360"/>
</g>
<g color="rgb(100.0000%, 100.0000%, 100.0000%)">
<g transform="translate(22.4014, 45.6337)">
<rect x="0.1100" y="-0.6446" width="1.1002" height="1.2892" ry="0.0000" fill="currentColor"/>
</g>
</g>
<g transform="scale(1.0000, 1.0000)">
<g transform="translate(22.5114, 46.2783)">
<text font-family="IPAexGothic" font-weight="bold" font-size="1.7462" text-anchor="start" fill="currentColor">
<tspan>2</tspan>
</text>
</g>
</g>
<g transform="translate(13.7270, 45.6337)">
<path stroke-width="0.1200" stroke-linejoin="round" stroke-linecap="square" stroke="currentColor" fill="none" d="M-0.5500 0.8702L0.5500 0.8702"/>
</g>
<g transform="translate(12.4940, 51.1337)">
<text font-family="IPAexGothic" font-size="2.4695" text-anchor="start" fill="currentColor">
<tspan>ろ</tspan>
</text>
</g>
<g color="rgb(100.0000%, 100.0000%, 100.0000%)">
<g transform="translate(13.0668, 45.6337)">
<rect x="0.1100" y="-0.6446" width="1.1002" height="1.2892" ry="0.0000" fill="currentColor"/>
</g>
</g>
<g transform="scale(1.0000, 1.0000)">
<g transform="translate(13.1769, 46.2783)">
<text font-family="IPAexGothic" font-weight="bold" font-size="1.7462" text-anchor="start" fill="currentColor">
<tspan>2</tspan>
</text>
</g>
</g>
<g transform="translate(19.3626, 51.1337)">
<text font-family="IPAexGothic" font-size="2.4695" text-anchor="start" fill="currentColor">
<tspan>しょう</tspan>
</text>
</g>
</svg>
