<svg xmlns="http://www.w3.org/2000/svg" xmlns:xlink="http://www.w3.org/1999/xlink" version="1.2" width="210.00mm" height="297.00mm" viewBox="0 0 66.3898 93.8941">
<style type="text/css">
<![CDATA[
tspan { white-space: pre; }
]]>
</style>
<!-- Page: 1/1 -->
<g transform="translate(22.7243, 5.5001)">
<text font-family="IPAexGothic" font-weight="bold" font-size="3.4924" text-anchor="start" fill="currentColor">
<tspan>かごめかごめ</tspan>
</text>
</g>
<g transform="translate(3.1614, 9.0001)">
<text font-family="IPAexGothic" font-size="2.2000" text-anchor="start" fill="currentColor">
<tspan>4本（神仙）</tspan>
</text>
</g>
<g transform="translate(3.1614, 12.5001)">
<text font-family="IPAexGothic" font-size="2.2000" text-anchor="start" fill="currentColor">
<tspan>二上り（調弦 C G C）</tspan>
</text>
</g>
<g transform="translate(3.1614, 21.4563)">
<line stroke-linejoin="round" stroke-linecap="round" stroke-width="0.0708" stroke="currentColor" x1="0.0354" y1="0" x2="60.0315" y2="0"/>
</g>
<g transform="translate(3.1614, 20.4563)">
<line stroke-linejoin="round" stroke-linecap="round" stroke-width="0.0708" stroke="currentColor" x1="0.0354" y1="0" x2="60.0315" y2="0"/>
</g>
<g transform="translate(3.1614, 19.4563)">
<line stroke-linejoin="round" stroke-linecap="round" stroke-width="0.0708" stroke="currentColor" x1="0.0354" y1="0" x2="60.0315" y2="0"/>
</g>
<g transform="translate(3.1614, 18.4563)">
<line stroke-linejoin="round" stroke-linecap="round" stroke-width="0.0708" stroke="currentColor" x1="0.0354" y1="0" x2="60.0315" y2="0"/>
</g>
<g transform="translate(3.1614, 17.4563)">
<line stroke-linejoin="round" stroke-linecap="round" stroke-width="0.0708" stroke="currentColor" x1="0.0354" y1="0" x2="60.0315" y2="0"/>
</g>
<g transform="translate(32.2908, 15.6763)">
<rect x="0.0000" y="5.8154" width="0.1345" height="6.8219" ry="0.0000" fill="currentColor"/>
</g>
<g transform="translate(32.2908, 29.8136)">
<rect x="0.0000" y="-1.5354" width="0.1345" height="3.0354" ry="0.0000" fill="currentColor"/>
</g>
<g transform="translate(32.2908, 19.4563)">
<rect x="0.0000" y="-2.0000" width="0.1345" height="4.0354" ry="0.0000" fill="currentColor"/>
</g>
<g transform="translate(50.0374, 19.4563)">
<rect x="0.0000" y="-2.0000" width="0.1345" height="4.0354" ry="0.0000" fill="currentColor"/>
</g>
<g transform="translate(50.0374, 29.8136)">
<rect x="0.0000" y="-1.5354" width="0.1345" height="3.0354" ry="0.0000" fill="currentColor"/>
</g>
<g transform="translate(50.0374, 15.6763)">
<rect x="0.0000" y="5.8154" width="0.1345" height="6.8219" ry="0.0000" fill="currentColor"/>
</g>
<g transform="translate(20.2009, 15.6763)">
<rect x="0.0000" y="5.8154" width="0.1345" height="6.8219" ry="0.0000" fill="currentColor"/>
</g>
<g transform="translate(20.2009, 29.8136)">
<rect x="0.0000" y="-1.5354" width="0.1345" height="3.0354" ry="0.0000" fill="currentColor"/>
</g>
<g transform="translate(20.2009, 19.4563)">
<rect x="0.0000" y="-2.0000" width="0.1345" height="4.0354" ry="0.0000" fill="currentColor"/>
</g>
<g transform="translate(63.0938, 19.4563)">
<rect x="0.0000" y="-2.0000" width="0.1345" height="4.0354" ry="0.0000" fill="currentColor"/>
</g>
<g transform="translate(63.0938, 29.8136)">
<rect x="0.0000" y="-1.5354" width="0.1345" height="3.0354" ry="0.0000" fill="currentColor"/>
</g>
<g transform="translate(63.0938, 15.6763)">
<rect x="0.0000" y="5.8154" width="0.1345" height="6.8219" ry="0.0000" fill="currentColor"/>
</g>
<g transform="translate(3.1614, 31.3136)">
<line stroke-linejoin="round" stroke-linecap="round" stroke-width="0.0708" stroke="currentColor" x1="0.0354" y1="0" x2="60.0315" y2="0"/>
</g>
<g transform="translate(3.1614, 29.8136)">
<line stroke-linejoin="round" stroke-linecap="round" stroke-width="0.0708" stroke="currentColor" x1="0.0354" y1="0" x2="60.0315" y2="0"/>
</g>
<g transform="translate(3.1614, 28.3136)">
<line stroke-linejoin="round" stroke-linecap="round" stroke-width="0.0708" stroke="currentColor" x1="0.0354" y1="0" x2="60.0315" y2="0"/>
</g>
<g transform="translate(51.0994, 27.5282)">
<text font-family="Libertinus Serif" font-size="1.5557" text-anchor="start" fill="currentColor">
<tspan> Ⅰ</tspan>
</text>
</g>
<g transform="translate(50.5193, 25.0453)">
<text font-family="IPAexGothic" font-size="2.4695" text-anchor="start" fill="currentColor">
<tspan>と</tspan>
</text>
</g>
<g transform="translate(51.0994, 19.9563)">
<path transform="scale(0.0040, -0.0040)" d="M222 135c53 0 104 -27 104 -86c0 -71 -56 -120 -103 -148c-36 -22 -76 -36 -118 -36c-53 0 -105 27 -105 86c0 71 57 120 104 148c36 22 76 36 118 36z" fill="currentColor"/>
</g>
<g transform="translate(48.5924, 29.8136)">
<path stroke-width="0.1200" stroke-linejoin="round" stroke-linecap="square" stroke="currentColor" fill="none" d="M-0.5500 0.8760L0.5500 0.8760"/>
</g>
<g transform="translate(52.3592, 19.4563)">
<rect x="-0.0460" y="-3.0000" width="0.0920" height="3.3033" ry="0.0222" fill="currentColor"/>
</g>
<g transform="translate(49.1920, 19.4563)">
<rect x="-0.0460" y="-2.0000" width="0.0920" height="2.8033" ry="0.0222" fill="currentColor"/>
</g>
<g color="rgb(100.0000%, 100.0000%, 100.0000%)">
<g transform="translate(47.9323, 29.8136)">
<rect x="0.1100" y="-0.6489" width="1.1002" height="1.2977" ry="0.0000" fill="currentColor"/>
</g>
</g>
<g transform="scale(1.0000, 1.0000)">
<g transform="translate(48.0423, 30.4539)">
<text font-family="IPAexGothic" font-weight="bold" font-size="1.7462" text-anchor="start" fill="currentColor">
<tspan>0</tspan>
</text>
</g>
</g>
<g transform="translate(47.3522, 25.0453)">
<text font-family="IPAexGothic" font-size="2.4695" text-anchor="start" fill="currentColor">
<tspan>の</tspan>
</text>
</g>
<g transform="translate(47.9323, 20.4563)">
<path transform="scale(0.0040, -0.0040)" d="M222 135c53 0 104 -27 104 -86c0 -71 -56 -120 -103 -148c-36 -22 -76 -36 -118 -36c-53 0 -105 27 -105 86c0 71 57 120 104 148c36 22 76 36 118 36z" fill="currentColor"/>
</g>
<g color="rgb(100.0000%, 100.0000%, 100.0000%)">
<g transform="translate(51.0994, 29.8136)">
<rect x="0.1100" y="-0.6446" width="1.1002" height="1.2892" ry="0.0000" fill="currentColor"/>
</g>
</g>
<g transform="scale(1.0000, 1.0000)">
<g transform="translate(51.2094, 30.4582)">
<text font-family="IPAexGothic" font-weight="bold" font-size="1.7462" text-anchor="start" fill="currentColor">
<tspan>2</tspan>
</text>
</g>
</g>
<g transform="translate(43.3602, 19.4563)">
<rect x="-0.0460" y="-3.0000" width="0.0920" height="3.3033" ry="0.0222" fill="currentColor"/>
</g>
<g color="rgb(100.0000%, 100.0000%, 100.0000%)">
<g transform="translate(42.1004, 29.8136)">
<rect x="0.1100" y="-0.6446" width="1.1002" height="1.2892" ry="0.0000" fill="currentColor"/>
</g>
</g>
<g transform="scale(1.0000, 1.0000)">
<g transform="translate(42.2105, 30.4582)">
<text font-family="IPAexGothic" font-weight="bold" font-size="1.7462" text-anchor="start" fill="currentColor">
<tspan>2</tspan>
</text>
</g>
</g>
<g transform="translate(41.5204, 25.0453)">
<text font-family="IPAexGothic" font-size="2.4695" text-anchor="start" fill="currentColor">
<tspan>な</tspan>
</text>
</g>
<g transform="translate(42.1004, 19.9563)">
<path transform="scale(0.0040, -0.0040)" d="M222 135c53 0 104 -27 104 -86c0 -71 -56 -120 -103 -148c-36 -22 -76 -36 -118 -36c-53 0 -105 27 -105 86c0 71 57 120 104 148c36 22 76 36 118 36z" fill="currentColor"/>
</g>
<g transform="translate(39.8446, 29.8136)">
<path stroke-width="0.1200" stroke-linejoin="round" stroke-linecap="square" stroke="currentColor" fill="none" d="M-0.5500 0.8702L0.5500 0.8702"/>
</g>
<g transform="translate(40.4443, 19.4563)">
<rect x="-0.0460" y="-2.7954" width="0.0920" height="3.0987" ry="0.0222" fill="currentColor"/>
</g>
<g color="rgb(100.0000%, 100.0000%, 100.0000%)">
<g transform="translate(39.1845, 29.8136)">
<rect x="0.1100" y="-0.6446" width="1.1002" height="1.2892" ry="0.0000" fill="currentColor"/>
</g>
</g>
<g transform="scale(1.0000, 1.0000)">
<g transform="translate(39.2946, 30.4582)">
<text font-family="IPAexGothic" font-weight="bold" font-size="1.7462" text-anchor="start" fill="currentColor">
<tspan>2</tspan>
</text>
</g>
</g>
<g transform="translate(38.6045, 25.0453)">
<text font-family="IPAexGothic" font-size="2.4695" text-anchor="start" fill="currentColor">
<tspan>の</tspan>
</text>
</g>
<g transform="translate(39.1845, 19.9563)">
<path transform="scale(0.0040, -0.0040)" d="M222 135c53 0 104 -27 104 -86c0 -71 -56 -120 -103 -148c-36 -22 -76 -36 -118 -36c-53 0 -105 27 -105 86c0 71 57 120 104 148c36 22 76 36 118 36z" fill="currentColor"/>
</g>
<g transform="translate(44.4363, 25.0453)">
<text font-family="IPAexGothic" font-size="2.4695" text-anchor="start" fill="currentColor">
<tspan>か</tspan>
</text>
</g>
<g transform="translate(45.6765, 29.8136)">
<path stroke-width="0.1200" stroke-linejoin="round" stroke-linecap="square" stroke="currentColor" fill="none" d="M-0.5500 0.8760L0.5500 0.8760"/>
</g>
<g transform="translate(46.2761, 19.4563)">
<rect x="-0.0460" y="-2.0000" width="0.0920" height="2.8033" ry="0.0222" fill="currentColor"/>
</g>
<g color="rgb(100.0000%, 100.0000%, 100.0000%)">
<g transform="translate(45.0164, 29.8136)">
<rect x="0.1100" y="-0.6489" width="1.1002" height="1.2977" ry="0.0000" fill="currentColor"/>
</g>
</g>
<g transform="scale(1.0000, 1.0000)">
<g transform="translate(45.1264, 30.4539)">
<text font-family="IPAexGothic" font-weight="bold" font-size="1.7462" text-anchor="start" fill="currentColor">
<tspan>0</tspan>
</text>
</g>
</g>
<g transform="translate(45.0164, 20.4563)">
<path transform="scale(0.0040, -0.0040)" d="M222 135c53 0 104 -27 104 -86c0 -71 -56 -120 -103 -148c-36 -22 -76 -36 -118 -36c-53 0 -105 27 -105 86c0 71 57 120 104 148c36 22 76 36 118 36z" fill="currentColor"/>
</g>
<g transform="translate(61.0998, 29.8136)">
<circle stroke-linejoin="round" stroke-linecap="round" fill="currentColor" stroke="currentColor" stroke-width="0" r="0.4500"/>
</g>
<g transform="translate(60.6498, 19.4563)">
<path transform="scale(0.0040, -0.0040)" d="M-23 -113c0 26 10 40 36 40c34 0 85 -15 130 -37l-137 164c-7 8 -10 17 -10 25c0 33 49 64 86 96c26 22 39 54 39 85c0 24 -8 47 -24 67l-39 46c-2 3 -3 6 -3 9c0 7 7 14 14 14c3 0 7 -1 10 -5l152 -182c7 -8 10 -17 10 -25c0 -33 -49 -64 -86 -96
c-26 -22 -39 -54 -39 -85c0 -24 8 -47 24 -67l87 -104c2 -3 3 -5 3 -8c0 -7 -7 -14 -14 -14c-3 0 -7 1 -10 5c-19 22 -66 43 -102 43c-40 0 -52 -29 -52 -70c0 -35 11 -75 28 -96c6 -7 -4 -16 -10 -9c-46 55 -93 150 -93 204z" fill="currentColor"/>
</g>
<g transform="translate(46.2301, 17.4563)">
<polygon stroke-linejoin="round" stroke-linecap="round" stroke-width="0.0444" fill="currentColor" stroke="currentColor" points="2.9857 -0.2178 2.9857 0.2178 0.0222 0.2178 0.0222 -0.2178"/>
</g>
<g transform="translate(55.0652, 17.2517)">
<polygon stroke-linejoin="round" stroke-linecap="round" stroke-width="0.0444" fill="currentColor" stroke="currentColor" points="2.0748 -0.0132 2.0748 0.4224 0.0222 0.2178 0.0222 -0.2178"/>
</g>
<g transform="translate(55.1112, 19.4563)">
<rect x="-0.0460" y="-2.2001" width="0.0920" height="2.5034" ry="0.0222" fill="currentColor"/>
</g>
<g transform="translate(54.5115, 29.8136)">
<path stroke-width="0.1200" stroke-linejoin="round" stroke-linecap="square" stroke="currentColor" fill="none" d="M-0.5500 0.8702L0.5500 0.8702"/>
</g>
<g color="rgb(100.0000%, 100.0000%, 100.0000%)">
<g transform="translate(53.8514, 29.8136)">
<rect x="0.1100" y="-0.6446" width="1.1002" height="1.2892" ry="0.0000" fill="currentColor"/>
</g>
</g>
<g transform="scale(1.0000, 1.0000)">
<g transform="translate(53.9614, 30.4582)">
<text font-family="IPAexGothic" font-weight="bold" font-size="1.7462" text-anchor="start" fill="currentColor">
<tspan>2</tspan>
</text>
</g>
</g>
<g transform="translate(53.8514, 25.0453)">
<text font-family="IPAexGothic" font-size="2.4695" text-anchor="start" fill="currentColor">
<tspan>り</tspan>
</text>
</g>
<g transform="translate(53.8514, 19.9563)">
<path transform="scale(0.0040, -0.0040)" d="M222 135c53 0 104 -27 104 -86c0 -71 -56 -120 -103 -148c-36 -22 -76 -36 -118 -36c-53 0 -105 27 -105 86c0 71 57 120 104 148c36 22 76 36 118 36z" fill="currentColor"/>
</g>
<g transform="translate(58.9963, 19.4563)">
<rect x="-0.0460" y="-1.5000" width="0.0920" height="3.3033" ry="0.0222" fill="currentColor"/>
</g>
<g color="rgb(100.0000%, 100.0000%, 100.0000%)">
<g transform="translate(57.7365, 31.3136)">
<rect x="-0.2124" y="-0.7473" width="1.7451" height="1.4947" ry="0.0000" fill="currentColor"/>
</g>
</g>
<g transform="scale(1.0000, 1.0000)">
<g transform="translate(57.5240, 31.9773)">
<text font-family="IPAexGothic" font-weight="bold" font-size="1.7462" text-anchor="start" fill="currentColor">
<tspan>♯</tspan>
</text>
</g>
</g>
<g transform="translate(57.7365, 27.5282)">
<text font-family="Libertinus Serif" font-size="1.5557" text-anchor="start" fill="currentColor">
<tspan> Ⅲ</tspan>
</text>
</g>
<g transform="translate(57.1564, 25.0453)">
<text font-family="IPAexGothic" font-size="2.4695" text-anchor="start" fill="currentColor">
<tspan>は</tspan>
</text>
</g>
<g transform="translate(57.7365, 21.4563)">
<path transform="scale(0.0040, -0.0040)" d="M222 135c53 0 104 -27 104 -86c0 -71 -56 -120 -103 -148c-36 -22 -76 -36 -118 -36c-53 0 -105 27 -105 86c0 71 57 120 104 148c36 22 76 36 118 36z" fill="currentColor"/>
</g>
<g transform="translate(37.4824, 16.6609)">
<polygon stroke-linejoin="round" stroke-linecap="round" stroke-width="0.0444" fill="currentColor" stroke="currentColor" points="2.9857 -0.2178 2.9857 0.2178 0.0222 0.2178 0.0222 -0.2178"/>
</g>
<g transform="translate(56.5166, 29.8136)">
<path stroke-width="0.1200" stroke-linejoin="round" stroke-linecap="square" stroke="currentColor" fill="none" d="M-0.5500 0.8760L0.5500 0.8760"/>
</g>
<g transform="translate(57.1162, 19.4563)">
<rect x="-0.0460" y="-2.0045" width="0.0920" height="2.8078" ry="0.0222" fill="currentColor"/>
</g>
<g color="rgb(100.0000%, 100.0000%, 100.0000%)">
<g transform="translate(55.8565, 29.8136)">
<rect x="0.1100" y="-0.6489" width="1.1002" height="1.2977" ry="0.0000" fill="currentColor"/>
</g>
</g>
<g transform="scale(1.0000, 1.0000)">
<g transform="translate(55.9665, 30.4539)">
<text font-family="IPAexGothic" font-weight="bold" font-size="1.7462" text-anchor="start" fill="currentColor">
<tspan>0</tspan>
</text>
</g>
</g>
<g transform="translate(55.8565, 20.4563)">
<path transform="scale(0.0040, -0.0040)" d="M222 135c53 0 104 -27 104 -86c0 -71 -56 -120 -103 -148c-36 -22 -76 -36 -118 -36c-53 0 -105 27 -105 86c0 71 57 120 104 148c36 22 76 36 118 36z" fill="currentColor"/>
</g>
<g transform="translate(22.5226, 19.4563)">
<rect x="-0.0460" y="-3.0000" width="0.0920" height="3.3033" ry="0.0222" fill="currentColor"/>
</g>
<g color="rgb(100.0000%, 100.0000%, 100.0000%)">
<g transform="translate(21.2628, 29.8136)">
<rect x="0.1100" y="-0.6446" width="1.1002" height="1.2892" ry="0.0000" fill="currentColor"/>
</g>
</g>
<g transform="scale(1.0000, 1.0000)">
<g transform="translate(21.3729, 30.4582)">
<text font-family="IPAexGothic" font-weight="bold" font-size="1.7462" text-anchor="start" fill="currentColor">
<tspan>2</tspan>
</text>
</g>
</g>
<g transform="translate(21.2628, 27.5282)">
<text font-family="Libertinus Serif" font-size="1.5557" text-anchor="start" fill="currentColor">
<tspan> Ⅰ</tspan>
</text>
</g>
<g transform="translate(20.6828, 25.0453)">
<text font-family="IPAexGothic" font-size="2.4695" text-anchor="start" fill="currentColor">
<tspan>か</tspan>
</text>
</g>
<g transform="translate(21.2628, 19.9563)">
<path transform="scale(0.0040, -0.0040)" d="M222 135c53 0 104 -27 104 -86c0 -71 -56 -120 -103 -148c-36 -22 -76 -36 -118 -36c-53 0 -105 27 -105 86c0 71 57 120 104 148c36 22 76 36 118 36z" fill="currentColor"/>
</g>
<g transform="translate(17.4110, 19.4563)">
<rect x="-0.0460" y="0.1967" width="0.0920" height="3.1366" ry="0.0222" fill="currentColor"/>
</g>
<g color="rgb(100.0000%, 100.0000%, 100.0000%)">
<g transform="translate(17.3649, 29.8136)">
<rect x="-0.2124" y="-0.7473" width="1.7451" height="1.4947" ry="0.0000" fill="currentColor"/>
</g>
</g>
<g transform="scale(1.0000, 1.0000)">
<g transform="translate(17.1525, 30.4773)">
<text font-family="IPAexGothic" font-weight="bold" font-size="1.7462" text-anchor="start" fill="currentColor">
<tspan>♯</tspan>
</text>
</g>
</g>
<g transform="translate(17.3649, 27.5282)">
<text font-family="Libertinus Serif" font-size="1.5557" text-anchor="start" fill="currentColor">
<tspan> Ⅲ</tspan>
</text>
</g>
<g transform="translate(16.7849, 25.0453)">
<text font-family="IPAexGothic" font-size="2.4695" text-anchor="start" fill="currentColor">
<tspan>め</tspan>
</text>
</g>
<g transform="translate(17.3649, 19.4563)">
<path transform="scale(0.0040, -0.0040)" d="M222 135c53 0 104 -27 104 -86c0 -71 -56 -120 -103 -148c-36 -22 -76 -36 -118 -36c-53 0 -105 27 -105 86c0 71 57 120 104 148c36 22 76 36 118 36z" fill="currentColor"/>
</g>
<g transform="translate(10.9168, 19.9563)">
<path transform="scale(0.0040, -0.0040)" d="M316 67c0 25 -20 42 -42 42c-4 0 -9 -1 -13 -2c-31 -9 -79 -41 -117 -65s-86 -55 -107 -80c-7 -8 -10 -19 -10 -29c0 -25 20 -42 42 -42c4 0 9 1 13 2c31 9 79 41 117 65s86 55 107 80c7 8 10 19 10 29zM265 135c44 0 78 -21 78 -68c0 -19 -5 -39 -11 -57
c-12 -37 -33 -71 -65 -93c-53 -36 -114 -52 -189 -52c-44 0 -78 21 -78 68c0 19 5 39 11 57c12 37 33 71 65 93c53 36 114 52 189 52z" fill="currentColor"/>
</g>
<g transform="translate(12.2428, 19.4563)">
<rect x="-0.0460" y="-3.0000" width="0.0920" height="3.2316" ry="0.0222" fill="currentColor"/>
</g>
<g color="rgb(100.0000%, 100.0000%, 100.0000%)">
<g transform="translate(10.9168, 29.8136)">
<rect x="0.1100" y="-0.6446" width="1.1002" height="1.2892" ry="0.0000" fill="currentColor"/>
</g>
</g>
<g transform="scale(1.0000, 1.0000)">
<g transform="translate(11.0269, 30.4582)">
<text font-family="IPAexGothic" font-weight="bold" font-size="1.7462" text-anchor="start" fill="currentColor">
<tspan>2</tspan>
</text>
</g>
</g>
<g transform="translate(10.9168, 27.5282)">
<text font-family="Libertinus Serif" font-size="1.5557" text-anchor="start" fill="currentColor">
<tspan> Ⅰ</tspan>
</text>
</g>
<g transform="translate(10.3699, 25.0453)">
<text font-family="IPAexGothic" font-size="2.4695" text-anchor="start" fill="currentColor">
<tspan>か</tspan>
</text>
</g>
<g transform="translate(8.1614, 19.4563)">
<path transform="scale(0.0040, -0.0040)" d="M208 319c21 13 42 27 57 47c11 15 18 32 25 49c4 9 20 7 20 -7v-256h68c9 0 13 -7 13 -14s-4 -13 -13 -13h-68v-16c0 -45 26 -88 68 -88c7 0 10 -5 10 -10s-3 -11 -10 -11c-41 0 -82 13 -123 13s-82 -13 -123 -13c-7 0 -10 6 -10 11s3 10 10 10c42 0 68 43 68 88v16h-173
c-21 0 -29 13 -29 21c0 2 1 5 2 6c81 96 146 208 146 333c0 10 7 18 15 15c22 -7 44 -13 67 -13s45 6 67 13c12 4 21 -8 15 -15l-283 -333h173v147c0 8 2 16 8 20z" fill="currentColor"/>
</g>
<g transform="translate(8.1614, 21.4723)">
<path transform="scale(0.0040, -0.0040)" d="M208 319c21 13 42 27 57 47c11 15 18 32 25 49c4 9 20 7 20 -7v-256h68c9 0 13 -7 13 -14s-4 -13 -13 -13h-68v-16c0 -45 26 -88 68 -88c7 0 10 -5 10 -10s-3 -11 -10 -11c-41 0 -82 13 -123 13s-82 -13 -123 -13c-7 0 -10 6 -10 11s3 10 10 10c42 0 68 43 68 88v16h-173
c-21 0 -29 13 -29 21c0 2 1 5 2 6c81 96 146 208 146 333c0 10 7 18 15 15c22 -7 44 -13 67 -13s45 6 67 13c12 4 21 -8 15 -15l-283 -333h173v147c0 8 2 16 8 20z" fill="currentColor"/>
</g>
<g transform="translate(4.5511, 23.9898)">
<text font-family="IPAexGothic" font-style="italic" font-size="1.3859" text-anchor="start" fill="currentColor">
<tspan>8</tspan>
</text>
</g>
<g transform="translate(3.9614, 20.4563)">
<path transform="scale(0.0040, -0.0040)" d="M374 260c5 0 10 1 15 1c154 0 254 -127 254 -259c0 -76 -33 -153 -107 -208c-22 -17 -47 -29 -73 -37c3 -36 5 -72 5 -108c0 -19 0 -37 -1 -56c-7 -120 -88 -226 -206 -226c-108 0 -195 87 -195 195c0 58 53 104 112 104c54 0 95 -48 95 -104c0 -52 -43 -95 -95 -95
c-12 0 -24 4 -35 9c26 -41 70 -70 121 -70c1 0 2 1 3 1c93 2 154 93 160 192c1 18 2 35 2 53c0 32 -2 64 -5 96c-29 -5 -58 -8 -89 -8c-188 0 -333 171 -333 372c0 178 133 306 251 440c-18 63 -35 126 -42 191c-6 51 -7 102 -7 154c0 116 55 226 150 295c5 4 11 4 16 0
c70 -84 132 -246 132 -359c0 -144 -87 -256 -183 -365c20 -69 39 -138 55 -208zM459 -205c69 24 117 96 117 166c0 92 -69 184 -179 193c25 -117 48 -235 62 -359zM71 31c0 -136 131 -251 267 -251c28 0 55 2 82 6c-15 128 -38 247 -64 367c-79 -9 -125 -62 -125 -121
c0 -44 26 -92 82 -124c4 -4 7 -9 7 -14c0 -11 -9 -21 -20 -21c-3 0 -6 1 -9 2c-80 43 -116 114 -116 184c0 88 57 173 158 196c-14 60 -30 119 -46 178c-108 -121 -216 -242 -216 -402zM411 1050c-99 -50 -161 -151 -161 -262c0 -76 15 -137 33 -200c82 97 149 198 149 325
c0 58 -4 84 -21 137z" fill="currentColor"/>
</g>
<g transform="translate(3.1481, 24.3849)">
<rect x="0.0000" y="-6.9640" width="0.1133" height="13.9281" ry="0.0354" fill="currentColor"/>
</g>
<g transform="translate(1.8981, 17.1959)">
<path transform="scale(0.0040, -0.0040)" d="M0 -56v91c0 12 10 21 22 21h43c164 0 281 136 377 272c10 14 32 -1 22 -15c-103 -145 -222 -369 -399 -369h-65z" fill="currentColor"/>
</g>
<g transform="translate(1.8981, 31.5740)">
<path transform="scale(0.0040, -0.0040)" d="M0 56h65c177 0 296 -224 399 -369c10 -14 -12 -29 -22 -15c-96 136 -213 272 -377 272h-43c-12 0 -22 9 -22 21v91z" fill="currentColor"/>
</g>
<g transform="translate(1.8981, 24.3849)">
<rect x="0.0000" y="-7.0090" width="0.4500" height="14.0181" ry="0.0000" fill="currentColor"/>
</g>
<g transform="translate(15.7088, 19.4563)">
<rect x="-0.0460" y="-3.0000" width="0.0920" height="3.3033" ry="0.0222" fill="currentColor"/>
</g>
<g color="rgb(100.0000%, 100.0000%, 100.0000%)">
<g transform="translate(14.4490, 29.8136)">
<rect x="0.1100" y="-0.6446" width="1.1002" height="1.2892" ry="0.0000" fill="currentColor"/>
</g>
</g>
<g transform="scale(1.0000, 1.0000)">
<g transform="translate(14.5591, 30.4582)">
<text font-family="IPAexGothic" font-weight="bold" font-size="1.7462" text-anchor="start" fill="currentColor">
<tspan>2</tspan>
</text>
</g>
</g>
<g transform="translate(13.8690, 25.0453)">
<text font-family="IPAexGothic" font-size="2.4695" text-anchor="start" fill="currentColor">
<tspan>ご</tspan>
</text>
</g>
<g transform="translate(14.4490, 19.9563)">
<path transform="scale(0.0040, -0.0040)" d="M222 135c53 0 104 -27 104 -86c0 -71 -56 -120 -103 -148c-36 -22 -76 -36 -118 -36c-53 0 -105 27 -105 86c0 71 57 120 104 148c36 22 76 36 118 36z" fill="currentColor"/>
</g>
<g transform="translate(11.5769, 29.8136)">
<path stroke-width="0.1200" stroke-linejoin="round" stroke-linecap="square" stroke="currentColor" fill="none" d="M2 -0.6700l1 0"/>
</g>
<g transform="translate(34.6125, 19.4563)">
<rect x="-0.0460" y="-3.0000" width="0.0920" height="3.3033" ry="0.0222" fill="currentColor"/>
</g>
<g color="rgb(100.0000%, 100.0000%, 100.0000%)">
<g transform="translate(33.3527, 29.8136)">
<rect x="0.1100" y="-0.6446" width="1.1002" height="1.2892" ry="0.0000" fill="currentColor"/>
</g>
</g>
<g transform="scale(1.0000, 1.0000)">
<g transform="translate(33.4627, 30.4582)">
<text font-family="IPAexGothic" font-weight="bold" font-size="1.7462" text-anchor="start" fill="currentColor">
<tspan>2</tspan>
</text>
</g>
</g>
<g transform="translate(33.3527, 27.5282)">
<text font-family="Libertinus Serif" font-size="1.5557" text-anchor="start" fill="currentColor">
<tspan> Ⅰ</tspan>
</text>
</g>
<g transform="translate(32.7727, 25.0453)">
<text font-family="IPAexGothic" font-size="2.4695" text-anchor="start" fill="currentColor">
<tspan>か</tspan>
</text>
</g>
<g transform="translate(33.3527, 19.9563)">
<path transform="scale(0.0040, -0.0040)" d="M222 135c53 0 104 -27 104 -86c0 -71 -56 -120 -103 -148c-36 -22 -76 -36 -118 -36c-53 0 -105 27 -105 86c0 71 57 120 104 148c36 22 76 36 118 36z" fill="currentColor"/>
</g>
<g transform="translate(36.2686, 19.9563)">
<path transform="scale(0.0040, -0.0040)" d="M222 135c53 0 104 -27 104 -86c0 -71 -56 -120 -103 -148c-36 -22 -76 -36 -118 -36c-53 0 -105 27 -105 86c0 71 57 120 104 148c36 22 76 36 118 36z" fill="currentColor"/>
</g>
<g transform="translate(35.6886, 25.0453)">
<text font-family="IPAexGothic" font-size="2.4695" text-anchor="start" fill="currentColor">
<tspan>ご</tspan>
</text>
</g>
<g transform="translate(28.3544, 19.4563)">
<rect x="-0.0460" y="-3.0000" width="0.0920" height="3.3033" ry="0.0222" fill="currentColor"/>
</g>
<g color="rgb(100.0000%, 100.0000%, 100.0000%)">
<g transform="translate(27.0946, 29.8136)">
<rect x="0.1100" y="-0.6446" width="1.1002" height="1.2892" ry="0.0000" fill="currentColor"/>
</g>
</g>
<g transform="scale(1.0000, 1.0000)">
<g transform="translate(27.2047, 30.4582)">
<text font-family="IPAexGothic" font-weight="bold" font-size="1.7462" text-anchor="start" fill="currentColor">
<tspan>2</tspan>
</text>
</g>
</g>
<g transform="translate(26.5146, 25.0453)">
<text font-family="IPAexGothic" font-size="2.4695" text-anchor="start" fill="currentColor">
<tspan>め</tspan>
</text>
</g>
<g transform="translate(27.0946, 19.9563)">
<path transform="scale(0.0040, -0.0040)" d="M222 135c53 0 104 -27 104 -86c0 -71 -56 -120 -103 -148c-36 -22 -76 -36 -118 -36c-53 0 -105 27 -105 86c0 71 57 120 104 148c36 22 76 36 118 36z" fill="currentColor"/>
</g>
<g transform="translate(36.9287, 29.8136)">
<path stroke-width="0.1200" stroke-linejoin="round" stroke-linecap="square" stroke="currentColor" fill="none" d="M-0.5500 0.8702L0.5500 0.8702"/>
</g>
<g transform="translate(25.4385, 19.4563)">
<rect x="-0.0460" y="-3.0000" width="0.0920" height="3.3033" ry="0.0222" fill="currentColor"/>
</g>
<g color="rgb(100.0000%, 100.0000%, 100.0000%)">
<g transform="translate(24.1787, 29.8136)">
<rect x="0.1100" y="-0.6446" width="1.1002" height="1.2892" ry="0.0000" fill="currentColor"/>
</g>
</g>
<g transform="scale(1.0000, 1.0000)">
<g transform="translate(24.2888, 30.4582)">
<text font-family="IPAexGothic" font-weight="bold" font-size="1.7462" text-anchor="start" fill="currentColor">
<tspan>2</tspan>
</text>
</g>
</g>
<g transform="translate(23.5987, 25.0453)">
<text font-family="IPAexGothic" font-size="2.4695" text-anchor="start" fill="currentColor">
<tspan>ご</tspan>
</text>
</g>
<g transform="translate(24.1787, 19.9563)">
<path transform="scale(0.0040, -0.0040)" d="M222 135c53 0 104 -27 104 -86c0 -71 -56 -120 -103 -148c-36 -22 -76 -36 -118 -36c-53 0 -105 27 -105 86c0 71 57 120 104 148c36 22 76 36 118 36z" fill="currentColor"/>
</g>
<g transform="translate(30.2967, 29.8136)">
<circle stroke-linejoin="round" stroke-linecap="round" fill="currentColor" stroke="currentColor" stroke-width="0" r="0.4500"/>
</g>
<g transform="translate(29.8467, 19.4563)">
<path transform="scale(0.0040, -0.0040)" d="M-23 -113c0 26 10 40 36 40c34 0 85 -15 130 -37l-137 164c-7 8 -10 17 -10 25c0 33 49 64 86 96c26 22 39 54 39 85c0 24 -8 47 -24 67l-39 46c-2 3 -3 6 -3 9c0 7 7 14 14 14c3 0 7 -1 10 -5l152 -182c7 -8 10 -17 10 -25c0 -33 -49 -64 -86 -96
c-26 -22 -39 -54 -39 -85c0 -24 8 -47 24 -67l87 -104c2 -3 3 -5 3 -8c0 -7 -7 -14 -14 -14c-3 0 -7 1 -10 5c-19 22 -66 43 -102 43c-40 0 -52 -29 -52 -70c0 -35 11 -75 28 -96c6 -7 -4 -16 -10 -9c-46 55 -93 150 -93 204z" fill="currentColor"/>
</g>
<g color="rgb(100.0000%, 100.0000%, 100.0000%)">
<g transform="translate(36.2686, 29.8136)">
<rect x="0.1100" y="-0.6446" width="1.1002" height="1.2892" ry="0.0000" fill="currentColor"/>
</g>
</g>
<g transform="scale(1.0000, 1.0000)">
<g transform="translate(36.3787, 30.4582)">
<text font-family="IPAexGothic" font-weight="bold" font-size="1.7462" text-anchor="start" fill="currentColor">
<tspan>2</tspan>
</text>
</g>
</g>
<g transform="translate(37.5284, 19.4563)">
<rect x="-0.0460" y="-2.7954" width="0.0920" height="3.0987" ry="0.0222" fill="currentColor"/>
</g>
<g transform="translate(3.1614, 41.4225)">
<line stroke-linejoin="round" stroke-linecap="round" stroke-width="0.0708" stroke="currentColor" x1="0.0354" y1="0" x2="60.0315" y2="0"/>
</g>
<g transform="translate(3.1614, 40.4225)">
<line stroke-linejoin="round" stroke-linecap="round" stroke-width="0.0708" stroke="currentColor" x1="0.0354" y1="0" x2="60.0315" y2="0"/>
</g>
<g transform="translate(3.1614, 39.4225)">
<line stroke-linejoin="round" stroke-linecap="round" stroke-width="0.0708" stroke="currentColor" x1="0.0354" y1="0" x2="60.0315" y2="0"/>
</g>
<g transform="translate(3.1614, 38.4225)">
<line stroke-linejoin="round" stroke-linecap="round" stroke-width="0.0708" stroke="currentColor" x1="0.0354" y1="0" x2="60.0315" y2="0"/>
</g>
<g transform="translate(3.1614, 37.4225)">
<line stroke-linejoin="round" stroke-linecap="round" stroke-width="0.0708" stroke="currentColor" x1="0.0354" y1="0" x2="60.0315" y2="0"/>
</g>
<g transform="translate(49.3332, 39.4225)">
<rect x="0.0000" y="-2.0000" width="0.1345" height="4.0354" ry="0.0000" fill="currentColor"/>
</g>
<g transform="translate(20.1183, 39.4225)">
<rect x="0.0000" y="-2.0000" width="0.1345" height="4.0354" ry="0.0000" fill="currentColor"/>
</g>
<g transform="translate(49.3332, 49.5528)">
<rect x="0.0000" y="-1.5354" width="0.1345" height="3.0354" ry="0.0000" fill="currentColor"/>
</g>
<g transform="translate(49.3332, 35.6425)">
<rect x="0.0000" y="5.8154" width="0.1345" height="6.5948" ry="0.0000" fill="currentColor"/>
</g>
<g transform="translate(20.1183, 49.5528)">
<rect x="0.0000" y="-1.5354" width="0.1345" height="3.0354" ry="0.0000" fill="currentColor"/>
</g>
<g transform="translate(20.1183, 35.6425)">
<rect x="0.0000" y="5.8154" width="0.1345" height="6.5948" ry="0.0000" fill="currentColor"/>
</g>
<g transform="translate(63.0938, 39.4225)">
<rect x="0.0000" y="-2.0000" width="0.1345" height="4.0354" ry="0.0000" fill="currentColor"/>
</g>
<g transform="translate(63.0938, 49.5528)">
<rect x="0.0000" y="-1.5354" width="0.1345" height="3.0354" ry="0.0000" fill="currentColor"/>
</g>
<g transform="translate(35.1732, 35.6425)">
<rect x="0.0000" y="5.8154" width="0.1345" height="6.5948" ry="0.0000" fill="currentColor"/>
</g>
<g transform="translate(63.0938, 35.6425)">
<rect x="0.0000" y="5.8154" width="0.1345" height="6.5948" ry="0.0000" fill="currentColor"/>
</g>
<g transform="translate(35.1732, 49.5528)">
<rect x="0.0000" y="-1.5354" width="0.1345" height="3.0354" ry="0.0000" fill="currentColor"/>
</g>
<g transform="translate(35.1732, 39.4225)">
<rect x="0.0000" y="-2.0000" width="0.1345" height="4.0354" ry="0.0000" fill="currentColor"/>
</g>
<g transform="translate(3.1614, 51.0528)">
<line stroke-linejoin="round" stroke-linecap="round" stroke-width="0.0708" stroke="currentColor" x1="0.0354" y1="0" x2="60.0315" y2="0"/>
</g>
<g transform="translate(3.1614, 49.5528)">
<line stroke-linejoin="round" stroke-linecap="round" stroke-width="0.0708" stroke="currentColor" x1="0.0354" y1="0" x2="60.0315" y2="0"/>
</g>
<g transform="translate(3.1614, 48.0528)">
<line stroke-linejoin="round" stroke-linecap="round" stroke-width="0.0708" stroke="currentColor" x1="0.0354" y1="0" x2="60.0315" y2="0"/>
</g>
<g transform="translate(46.0437, 39.4225)">
<rect x="-0.0460" y="0.1967" width="0.0920" height="3.1366" ry="0.0222" fill="currentColor"/>
</g>
<g color="rgb(100.0000%, 100.0000%, 100.0000%)">
<g transform="translate(45.9977, 49.5528)">
<rect x="-0.2124" y="-0.7473" width="1.7451" height="1.4947" ry="0.0000" fill="currentColor"/>
</g>
</g>
<g transform="scale(1.0000, 1.0000)">
<g transform="translate(45.7853, 50.2165)">
<text font-family="IPAexGothic" font-weight="bold" font-size="1.7462" text-anchor="start" fill="currentColor">
<tspan>♯</tspan>
</text>
</g>
</g>
<g transform="translate(45.9977, 47.2674)">
<text font-family="Libertinus Serif" font-size="1.5557" text-anchor="start" fill="currentColor">
<tspan> Ⅲ</tspan>
</text>
</g>
<g transform="translate(45.4177, 44.7700)">
<text font-family="IPAexGothic" font-size="2.4695" text-anchor="start" fill="currentColor">
<tspan>の</tspan>
</text>
</g>
<g transform="translate(45.9977, 39.4225)">
<path transform="scale(0.0040, -0.0040)" d="M222 135c53 0 104 -27 104 -86c0 -71 -56 -120 -103 -148c-36 -22 -76 -36 -118 -36c-53 0 -105 27 -105 86c0 71 57 120 104 148c36 22 76 36 118 36z" fill="currentColor"/>
</g>
<g transform="translate(43.9982, 39.4225)">
<rect x="-0.0460" y="-3.0000" width="0.0920" height="3.3033" ry="0.0222" fill="currentColor"/>
</g>
<g color="rgb(100.0000%, 100.0000%, 100.0000%)">
<g transform="translate(42.7384, 49.5528)">
<rect x="0.1100" y="-0.6446" width="1.1002" height="1.2892" ry="0.0000" fill="currentColor"/>
</g>
</g>
<g transform="scale(1.0000, 1.0000)">
<g transform="translate(42.8485, 50.1973)">
<text font-family="IPAexGothic" font-weight="bold" font-size="1.7462" text-anchor="start" fill="currentColor">
<tspan>2</tspan>
</text>
</g>
</g>
<g transform="translate(42.1584, 44.7700)">
<text font-family="IPAexGothic" font-size="2.4695" text-anchor="start" fill="currentColor">
<tspan>け</tspan>
</text>
</g>
<g transform="translate(49.8152, 44.7700)">
<text font-family="IPAexGothic" font-size="2.4695" text-anchor="start" fill="currentColor">
<tspan>ば</tspan>
</text>
</g>
<g transform="translate(51.6550, 39.4225)">
<rect x="-0.0460" y="-3.0000" width="0.0920" height="3.3033" ry="0.0222" fill="currentColor"/>
</g>
<g color="rgb(100.0000%, 100.0000%, 100.0000%)">
<g transform="translate(50.3952, 49.5528)">
<rect x="0.1100" y="-0.6446" width="1.1002" height="1.2892" ry="0.0000" fill="currentColor"/>
</g>
</g>
<g transform="scale(1.0000, 1.0000)">
<g transform="translate(50.5052, 50.1973)">
<text font-family="IPAexGothic" font-weight="bold" font-size="1.7462" text-anchor="start" fill="currentColor">
<tspan>2</tspan>
</text>
</g>
</g>
<g transform="translate(50.3952, 47.2674)">
<text font-family="Libertinus Serif" font-size="1.5557" text-anchor="start" fill="currentColor">
<tspan> Ⅰ</tspan>
</text>
</g>
<g transform="translate(50.3952, 39.9225)">
<path transform="scale(0.0040, -0.0040)" d="M222 135c53 0 104 -27 104 -86c0 -71 -56 -120 -103 -148c-36 -22 -76 -36 -118 -36c-53 0 -105 27 -105 86c0 71 57 120 104 148c36 22 76 36 118 36z" fill="currentColor"/>
</g>
<g transform="translate(42.7384, 39.9225)">
<path transform="scale(0.0040, -0.0040)" d="M222 135c53 0 104 -27 104 -86c0 -71 -56 -120 -103 -148c-36 -22 -76 -36 -118 -36c-53 0 -105 27 -105 86c0 71 57 120 104 148c36 22 76 36 118 36z" fill="currentColor"/>
</g>
<g transform="translate(36.2351, 39.9225)">
<path transform="scale(0.0040, -0.0040)" d="M222 135c53 0 104 -27 104 -86c0 -71 -56 -120 -103 -148c-36 -22 -76 -36 -118 -36c-53 0 -105 27 -105 86c0 71 57 120 104 148c36 22 76 36 118 36z" fill="currentColor"/>
</g>
<g transform="translate(36.2351, 47.2674)">
<text font-family="Libertinus Serif" font-size="1.5557" text-anchor="start" fill="currentColor">
<tspan> Ⅰ</tspan>
</text>
</g>
<g color="rgb(100.0000%, 100.0000%, 100.0000%)">
<g transform="translate(36.2351, 49.5528)">
<rect x="0.1100" y="-0.6446" width="1.1002" height="1.2892" ry="0.0000" fill="currentColor"/>
</g>
</g>
<g transform="scale(1.0000, 1.0000)">
<g transform="translate(36.3451, 50.1973)">
<text font-family="IPAexGothic" font-weight="bold" font-size="1.7462" text-anchor="start" fill="currentColor">
<tspan>2</tspan>
</text>
</g>
</g>
<g transform="translate(37.4949, 39.4225)">
<rect x="-0.0460" y="-3.0000" width="0.0920" height="3.3033" ry="0.0222" fill="currentColor"/>
</g>
<g color="rgb(100.0000%, 100.0000%, 100.0000%)">
<g transform="translate(39.4868, 49.5528)">
<rect x="0.1100" y="-0.6446" width="1.1002" height="1.2892" ry="0.0000" fill="currentColor"/>
</g>
</g>
<g transform="scale(1.0000, 1.0000)">
<g transform="translate(39.5968, 50.1973)">
<text font-family="IPAexGothic" font-weight="bold" font-size="1.7462" text-anchor="start" fill="currentColor">
<tspan>2</tspan>
</text>
</g>
</g>
<g transform="translate(40.7466, 39.4225)">
<rect x="-0.0460" y="-3.0000" width="0.0920" height="3.3033" ry="0.0222" fill="currentColor"/>
</g>
<g transform="translate(38.9067, 44.7700)">
<text font-family="IPAexGothic" font-size="2.4695" text-anchor="start" fill="currentColor">
<tspan>あ</tspan>
</text>
</g>
<g transform="translate(39.4868, 39.9225)">
<path transform="scale(0.0040, -0.0040)" d="M222 135c53 0 104 -27 104 -86c0 -71 -56 -120 -103 -148c-36 -22 -76 -36 -118 -36c-53 0 -105 27 -105 86c0 71 57 120 104 148c36 22 76 36 118 36z" fill="currentColor"/>
</g>
<g transform="translate(35.6551, 44.7700)">
<text font-family="IPAexGothic" font-size="2.4695" text-anchor="start" fill="currentColor">
<tspan>よ</tspan>
</text>
</g>
<g transform="translate(60.6002, 49.5528)">
<circle stroke-linejoin="round" stroke-linecap="round" fill="currentColor" stroke="currentColor" stroke-width="0" r="0.4500"/>
</g>
<g transform="translate(60.1502, 39.4225)">
<path transform="scale(0.0040, -0.0040)" d="M-23 -113c0 26 10 40 36 40c34 0 85 -15 130 -37l-137 164c-7 8 -10 17 -10 25c0 33 49 64 86 96c26 22 39 54 39 85c0 24 -8 47 -24 67l-39 46c-2 3 -3 6 -3 9c0 7 7 14 14 14c3 0 7 -1 10 -5l152 -182c7 -8 10 -17 10 -25c0 -33 -49 -64 -86 -96
c-26 -22 -39 -54 -39 -85c0 -24 8 -47 24 -67l87 -104c2 -3 3 -5 3 -8c0 -7 -7 -14 -14 -14c-3 0 -7 1 -10 5c-19 22 -66 43 -102 43c-40 0 -52 -29 -52 -70c0 -35 11 -75 28 -96c6 -7 -4 -16 -10 -9c-46 55 -93 150 -93 204z" fill="currentColor"/>
</g>
<g transform="translate(25.6457, 37.2179)">
<polygon stroke-linejoin="round" stroke-linecap="round" stroke-width="0.0444" fill="currentColor" stroke="currentColor" points="2.3246 -0.0132 2.3246 0.4224 0.0222 0.2178 0.0222 -0.2178"/>
</g>
<g transform="translate(53.6469, 39.9225)">
<path transform="scale(0.0040, -0.0040)" d="M222 135c53 0 104 -27 104 -86c0 -71 -56 -120 -103 -148c-36 -22 -76 -36 -118 -36c-53 0 -105 27 -105 86c0 71 57 120 104 148c36 22 76 36 118 36z" fill="currentColor"/>
</g>
<g transform="translate(53.0668, 44.7700)">
<text font-family="IPAexGothic" font-size="2.4695" text-anchor="start" fill="currentColor">
<tspan>ん</tspan>
</text>
</g>
<g transform="translate(58.1583, 39.4225)">
<rect x="-0.0460" y="-3.0000" width="0.0920" height="3.3033" ry="0.0222" fill="currentColor"/>
</g>
<g color="rgb(100.0000%, 100.0000%, 100.0000%)">
<g transform="translate(56.8985, 49.5528)">
<rect x="0.1100" y="-0.6446" width="1.1002" height="1.2892" ry="0.0000" fill="currentColor"/>
</g>
</g>
<g transform="scale(1.0000, 1.0000)">
<g transform="translate(57.0085, 50.1973)">
<text font-family="IPAexGothic" font-weight="bold" font-size="1.7462" text-anchor="start" fill="currentColor">
<tspan>2</tspan>
</text>
</g>
</g>
<g transform="translate(56.3185, 44.7700)">
<text font-family="IPAexGothic" font-size="2.4695" text-anchor="start" fill="currentColor">
<tspan>に</tspan>
</text>
</g>
<g transform="translate(56.8985, 39.9225)">
<path transform="scale(0.0040, -0.0040)" d="M222 135c53 0 104 -27 104 -86c0 -71 -56 -120 -103 -148c-36 -22 -76 -36 -118 -36c-53 0 -105 27 -105 86c0 71 57 120 104 148c36 22 76 36 118 36z" fill="currentColor"/>
</g>
<g transform="translate(54.9067, 39.4225)">
<rect x="-0.0460" y="-3.0000" width="0.0920" height="3.3033" ry="0.0222" fill="currentColor"/>
</g>
<g color="rgb(100.0000%, 100.0000%, 100.0000%)">
<g transform="translate(53.6469, 49.5528)">
<rect x="0.1100" y="-0.6446" width="1.1002" height="1.2892" ry="0.0000" fill="currentColor"/>
</g>
</g>
<g transform="scale(1.0000, 1.0000)">
<g transform="translate(53.7569, 50.1973)">
<text font-family="IPAexGothic" font-weight="bold" font-size="1.7462" text-anchor="start" fill="currentColor">
<tspan>2</tspan>
</text>
</g>
</g>
<g transform="translate(14.7895, 39.4225)">
<rect x="-0.0460" y="-3.0000" width="0.0920" height="3.3033" ry="0.0222" fill="currentColor"/>
</g>
<g color="rgb(100.0000%, 100.0000%, 100.0000%)">
<g transform="translate(13.5298, 49.5528)">
<rect x="0.1100" y="-0.6446" width="1.1002" height="1.2892" ry="0.0000" fill="currentColor"/>
</g>
</g>
<g transform="scale(1.0000, 1.0000)">
<g transform="translate(13.6398, 50.1973)">
<text font-family="IPAexGothic" font-weight="bold" font-size="1.7462" text-anchor="start" fill="currentColor">
<tspan>2</tspan>
</text>
</g>
</g>
<g transform="translate(12.9497, 44.7700)">
<text font-family="IPAexGothic" font-size="2.4695" text-anchor="start" fill="currentColor">
<tspan>い</tspan>
</text>
</g>
<g transform="translate(13.5298, 39.9225)">
<path transform="scale(0.0040, -0.0040)" d="M222 135c53 0 104 -27 104 -86c0 -71 -56 -120 -103 -148c-36 -22 -76 -36 -118 -36c-53 0 -105 27 -105 86c0 71 57 120 104 148c36 22 76 36 118 36z" fill="currentColor"/>
</g>
<g transform="translate(11.5379, 39.4225)">
<rect x="-0.0460" y="-2.5000" width="0.0920" height="3.3033" ry="0.0222" fill="currentColor"/>
</g>
<g color="rgb(100.0000%, 100.0000%, 100.0000%)">
<g transform="translate(10.2781, 49.5528)">
<rect x="0.1100" y="-0.6489" width="1.1002" height="1.2977" ry="0.0000" fill="currentColor"/>
</g>
</g>
<g transform="scale(1.0000, 1.0000)">
<g transform="translate(10.3881, 50.1931)">
<text font-family="IPAexGothic" font-weight="bold" font-size="1.7462" text-anchor="start" fill="currentColor">
<tspan>0</tspan>
</text>
</g>
</g>
<g transform="translate(9.6980, 44.7700)">
<text font-family="IPAexGothic" font-size="2.4695" text-anchor="start" fill="currentColor">
<tspan>つ</tspan>
</text>
</g>
<g transform="translate(10.2781, 40.4225)">
<path transform="scale(0.0040, -0.0040)" d="M222 135c53 0 104 -27 104 -86c0 -71 -56 -120 -103 -148c-36 -22 -76 -36 -118 -36c-53 0 -105 27 -105 86c0 71 57 120 104 148c36 22 76 36 118 36z" fill="currentColor"/>
</g>
<g transform="translate(22.4401, 39.4225)">
<rect x="-0.0460" y="-3.0000" width="0.0920" height="3.3033" ry="0.0222" fill="currentColor"/>
</g>
<g color="rgb(100.0000%, 100.0000%, 100.0000%)">
<g transform="translate(21.1803, 49.5528)">
<rect x="0.1100" y="-0.6446" width="1.1002" height="1.2892" ry="0.0000" fill="currentColor"/>
</g>
</g>
<g transform="scale(1.0000, 1.0000)">
<g transform="translate(21.2903, 50.1973)">
<text font-family="IPAexGothic" font-weight="bold" font-size="1.7462" text-anchor="start" fill="currentColor">
<tspan>2</tspan>
</text>
</g>
</g>
<g transform="translate(21.1803, 47.2674)">
<text font-family="Libertinus Serif" font-size="1.5557" text-anchor="start" fill="currentColor">
<tspan> Ⅰ</tspan>
</text>
</g>
<g transform="translate(20.6002, 44.7700)">
<text font-family="IPAexGothic" font-size="2.4695" text-anchor="start" fill="currentColor">
<tspan>で</tspan>
</text>
</g>
<g transform="translate(18.0412, 39.4225)">
<rect x="-0.0460" y="-2.5000" width="0.0920" height="3.3033" ry="0.0222" fill="currentColor"/>
</g>
<g color="rgb(100.0000%, 100.0000%, 100.0000%)">
<g transform="translate(16.7814, 49.5528)">
<rect x="0.1100" y="-0.6489" width="1.1002" height="1.2977" ry="0.0000" fill="currentColor"/>
</g>
</g>
<g transform="scale(1.0000, 1.0000)">
<g transform="translate(16.8914, 50.1931)">
<text font-family="IPAexGothic" font-weight="bold" font-size="1.7462" text-anchor="start" fill="currentColor">
<tspan>0</tspan>
</text>
</g>
</g>
<g transform="translate(16.2014, 44.7700)">
<text font-family="IPAexGothic" font-size="2.4695" text-anchor="start" fill="currentColor">
<tspan>つ</tspan>
</text>
</g>
<g transform="translate(16.7814, 40.4225)">
<path transform="scale(0.0040, -0.0040)" d="M222 135c53 0 104 -27 104 -86c0 -71 -56 -120 -103 -148c-36 -22 -76 -36 -118 -36c-53 0 -105 27 -105 86c0 71 57 120 104 148c36 22 76 36 118 36z" fill="currentColor"/>
</g>
<g transform="translate(4.5511, 43.9560)">
<text font-family="IPAexGothic" font-style="italic" font-size="1.3859" text-anchor="start" fill="currentColor">
<tspan>8</tspan>
</text>
</g>
<g transform="translate(3.9614, 40.4225)">
<path transform="scale(0.0040, -0.0040)" d="M374 260c5 0 10 1 15 1c154 0 254 -127 254 -259c0 -76 -33 -153 -107 -208c-22 -17 -47 -29 -73 -37c3 -36 5 -72 5 -108c0 -19 0 -37 -1 -56c-7 -120 -88 -226 -206 -226c-108 0 -195 87 -195 195c0 58 53 104 112 104c54 0 95 -48 95 -104c0 -52 -43 -95 -95 -95
c-12 0 -24 4 -35 9c26 -41 70 -70 121 -70c1 0 2 1 3 1c93 2 154 93 160 192c1 18 2 35 2 53c0 32 -2 64 -5 96c-29 -5 -58 -8 -89 -8c-188 0 -333 171 -333 372c0 178 133 306 251 440c-18 63 -35 126 -42 191c-6 51 -7 102 -7 154c0 116 55 226 150 295c5 4 11 4 16 0
c70 -84 132 -246 132 -359c0 -144 -87 -256 -183 -365c20 -69 39 -138 55 -208zM459 -205c69 24 117 96 117 166c0 92 -69 184 -179 193c25 -117 48 -235 62 -359zM71 31c0 -136 131 -251 267 -251c28 0 55 2 82 6c-15 128 -38 247 -64 367c-79 -9 -125 -62 -125 -121
c0 -44 26 -92 82 -124c4 -4 7 -9 7 -14c0 -11 -9 -21 -20 -21c-3 0 -6 1 -9 2c-80 43 -116 114 -116 184c0 88 57 173 158 196c-14 60 -30 119 -46 178c-108 -121 -216 -242 -216 -402zM411 1050c-99 -50 -161 -151 -161 -262c0 -76 15 -137 33 -200c82 97 149 198 149 325
c0 58 -4 84 -21 137z" fill="currentColor"/>
</g>
<g transform="translate(3.1481, 44.2376)">
<rect x="0.0000" y="-6.8505" width="0.1133" height="13.7010" ry="0.0354" fill="currentColor"/>
</g>
<g transform="translate(1.8981, 37.1621)">
<path transform="scale(0.0040, -0.0040)" d="M0 -56v91c0 12 10 21 22 21h43c164 0 281 136 377 272c10 14 32 -1 22 -15c-103 -145 -222 -369 -399 -369h-65z" fill="currentColor"/>
</g>
<g transform="translate(1.8981, 51.3131)">
<path transform="scale(0.0040, -0.0040)" d="M0 56h65c177 0 296 -224 399 -369c10 -14 -12 -29 -22 -15c-96 136 -213 272 -377 272h-43c-12 0 -22 9 -22 21v91z" fill="currentColor"/>
</g>
<g transform="translate(1.8981, 44.2376)">
<rect x="0.0000" y="-6.8955" width="0.4500" height="13.7910" ry="0.0000" fill="currentColor"/>
</g>
<g transform="translate(6.4464, 44.7700)">
<text font-family="IPAexGothic" font-size="2.4695" text-anchor="start" fill="currentColor">
<tspan>い</tspan>
</text>
</g>
<g transform="translate(8.2862, 39.4225)">
<rect x="-0.0460" y="-3.0000" width="0.0920" height="3.3033" ry="0.0222" fill="currentColor"/>
</g>
<g color="rgb(100.0000%, 100.0000%, 100.0000%)">
<g transform="translate(7.0264, 49.5528)">
<rect x="0.1100" y="-0.6446" width="1.1002" height="1.2892" ry="0.0000" fill="currentColor"/>
</g>
</g>
<g transform="scale(1.0000, 1.0000)">
<g transform="translate(7.1365, 50.1973)">
<text font-family="IPAexGothic" font-weight="bold" font-size="1.7462" text-anchor="start" fill="currentColor">
<tspan>2</tspan>
</text>
</g>
</g>
<g transform="translate(7.0264, 47.2674)">
<text font-family="Libertinus Serif" font-size="1.5557" text-anchor="start" fill="currentColor">
<tspan> Ⅰ</tspan>
</text>
</g>
<g transform="translate(21.1803, 39.9225)">
<path transform="scale(0.0040, -0.0040)" d="M222 135c53 0 104 -27 104 -86c0 -71 -56 -120 -103 -148c-36 -22 -76 -36 -118 -36c-53 0 -105 27 -105 86c0 71 57 120 104 148c36 22 76 36 118 36z" fill="currentColor"/>
</g>
<g transform="translate(7.0264, 39.9225)">
<path transform="scale(0.0040, -0.0040)" d="M222 135c53 0 104 -27 104 -86c0 -71 -56 -120 -103 -148c-36 -22 -76 -36 -118 -36c-53 0 -105 27 -105 86c0 71 57 120 104 148c36 22 76 36 118 36z" fill="currentColor"/>
</g>
<g transform="translate(28.8166, 41.4225)">
<path transform="scale(0.0040, -0.0040)" d="M222 135c53 0 104 -27 104 -86c0 -71 -56 -120 -103 -148c-36 -22 -76 -36 -118 -36c-53 0 -105 27 -105 86c0 71 57 120 104 148c36 22 76 36 118 36z" fill="currentColor"/>
</g>
<g transform="translate(27.3469, 49.5528)">
<path stroke-width="0.1200" stroke-linejoin="round" stroke-linecap="square" stroke="currentColor" fill="none" d="M-0.5500 0.8760L0.5500 0.8760"/>
</g>
<g transform="translate(28.2366, 44.7700)">
<text font-family="IPAexGothic" font-size="2.4695" text-anchor="start" fill="currentColor">
<tspan>る</tspan>
</text>
</g>
<g transform="translate(27.9466, 39.4225)">
<rect x="-0.0460" y="-2.0040" width="0.0920" height="2.8073" ry="0.0222" fill="currentColor"/>
</g>
<g color="rgb(100.0000%, 100.0000%, 100.0000%)">
<g transform="translate(26.6868, 49.5528)">
<rect x="0.1100" y="-0.6489" width="1.1002" height="1.2977" ry="0.0000" fill="currentColor"/>
</g>
</g>
<g transform="scale(1.0000, 1.0000)">
<g transform="translate(26.7968, 50.1931)">
<text font-family="IPAexGothic" font-weight="bold" font-size="1.7462" text-anchor="start" fill="currentColor">
<tspan>0</tspan>
</text>
</g>
</g>
<g transform="translate(27.3434, 51.8028)">
<path stroke-width="0.1200" stroke-linejoin="miter" stroke-linecap="square" stroke="currentColor" fill="none" d="M-0.4120 -0.4220L0.2280 -0.4270L0.2680 -0.3860C0.1100 0.0460 -0.1310 0.2760 -0.4870 0.4570M0.4940 0.4340C0.3790 0.3130 0.2470 0.1870 0.0440 0.0360"/>
</g>
<g transform="translate(26.6868, 40.4225)">
<path transform="scale(0.0040, -0.0040)" d="M222 135c53 0 104 -27 104 -86c0 -71 -56 -120 -103 -148c-36 -22 -76 -36 -118 -36c-53 0 -105 27 -105 86c0 71 57 120 104 148c36 22 76 36 118 36z" fill="currentColor"/>
</g>
<g transform="translate(25.0921, 49.5528)">
<path stroke-width="0.1200" stroke-linejoin="round" stroke-linecap="square" stroke="currentColor" fill="none" d="M-0.5500 0.8702L0.5500 0.8702"/>
</g>
<g transform="translate(32.6795, 49.5528)">
<circle stroke-linejoin="round" stroke-linecap="round" fill="currentColor" stroke="currentColor" stroke-width="0" r="0.4500"/>
</g>
<g transform="translate(32.2295, 39.4225)">
<path transform="scale(0.0040, -0.0040)" d="M-23 -113c0 26 10 40 36 40c34 0 85 -15 130 -37l-137 164c-7 8 -10 17 -10 25c0 33 49 64 86 96c26 22 39 54 39 85c0 24 -8 47 -24 67l-39 46c-2 3 -3 6 -3 9c0 7 7 14 14 14c3 0 7 -1 10 -5l152 -182c7 -8 10 -17 10 -25c0 -33 -49 -64 -86 -96
c-26 -22 -39 -54 -39 -85c0 -24 8 -47 24 -67l87 -104c2 -3 3 -5 3 -8c0 -7 -7 -14 -14 -14c-3 0 -7 1 -10 5c-19 22 -66 43 -102 43c-40 0 -52 -29 -52 -70c0 -35 11 -75 28 -96c6 -7 -4 -16 -10 -9c-46 55 -93 150 -93 204z" fill="currentColor"/>
</g>
<g transform="translate(30.0764, 39.4225)">
<rect x="-0.0460" y="-1.5000" width="0.0920" height="3.3033" ry="0.0222" fill="currentColor"/>
</g>
<g color="rgb(100.0000%, 100.0000%, 100.0000%)">
<g transform="translate(28.8166, 51.0528)">
<rect x="-0.2124" y="-0.7473" width="1.7451" height="1.4947" ry="0.0000" fill="currentColor"/>
</g>
</g>
<g transform="scale(1.0000, 1.0000)">
<g transform="translate(28.6042, 51.7165)">
<text font-family="IPAexGothic" font-weight="bold" font-size="1.7462" text-anchor="start" fill="currentColor">
<tspan>♯</tspan>
</text>
</g>
</g>
<g transform="translate(28.8166, 47.2674)">
<text font-family="Libertinus Serif" font-size="1.5557" text-anchor="start" fill="currentColor">
<tspan> Ⅲ</tspan>
</text>
</g>
<g transform="translate(24.4320, 39.9225)">
<path transform="scale(0.0040, -0.0040)" d="M222 135c53 0 104 -27 104 -86c0 -71 -56 -120 -103 -148c-36 -22 -76 -36 -118 -36c-53 0 -105 27 -105 86c0 71 57 120 104 148c36 22 76 36 118 36z" fill="currentColor"/>
</g>
<g transform="translate(24.4320, 44.7700)">
<text font-family="IPAexGothic" font-size="2.4695" text-anchor="start" fill="currentColor">
<tspan>や</tspan>
</text>
</g>
<g color="rgb(100.0000%, 100.0000%, 100.0000%)">
<g transform="translate(24.4320, 49.5528)">
<rect x="0.1100" y="-0.6446" width="1.1002" height="1.2892" ry="0.0000" fill="currentColor"/>
</g>
</g>
<g transform="scale(1.0000, 1.0000)">
<g transform="translate(24.5420, 50.1973)">
<text font-family="IPAexGothic" font-weight="bold" font-size="1.7462" text-anchor="start" fill="currentColor">
<tspan>2</tspan>
</text>
</g>
</g>
<g transform="translate(25.6917, 39.4225)">
<rect x="-0.0460" y="-2.2006" width="0.0920" height="2.5039" ry="0.0222" fill="currentColor"/>
</g>
<g transform="translate(3.1614, 61.1617)">
<line stroke-linejoin="round" stroke-linecap="round" stroke-width="0.0708" stroke="currentColor" x1="0.0354" y1="0" x2="60.0315" y2="0"/>
</g>
<g transform="translate(3.1614, 60.1617)">
<line stroke-linejoin="round" stroke-linecap="round" stroke-width="0.0708" stroke="currentColor" x1="0.0354" y1="0" x2="60.0315" y2="0"/>
</g>
<g transform="translate(3.1614, 59.1617)">
<line stroke-linejoin="round" stroke-linecap="round" stroke-width="0.0708" stroke="currentColor" x1="0.0354" y1="0" x2="60.0315" y2="0"/>
</g>
<g transform="translate(3.1614, 58.1617)">
<line stroke-linejoin="round" stroke-linecap="round" stroke-width="0.0708" stroke="currentColor" x1="0.0354" y1="0" x2="60.0315" y2="0"/>
</g>
<g transform="translate(3.1614, 57.1617)">
<line stroke-linejoin="round" stroke-linecap="round" stroke-width="0.0708" stroke="currentColor" x1="0.0354" y1="0" x2="60.0315" y2="0"/>
</g>
<g transform="translate(36.0648, 55.3817)">
<rect x="0.0000" y="5.8154" width="0.1345" height="5.8858" ry="0.0000" fill="currentColor"/>
</g>
<g transform="translate(63.0938, 55.3817)">
<rect x="0.0000" y="5.8154" width="0.1345" height="5.8858" ry="0.0000" fill="currentColor"/>
</g>
<g transform="translate(63.0938, 68.5829)">
<rect x="0.0000" y="-1.5354" width="0.1345" height="3.0354" ry="0.0000" fill="currentColor"/>
</g>
<g transform="translate(36.0648, 59.1617)">
<rect x="0.0000" y="-2.0000" width="0.1345" height="4.0354" ry="0.0000" fill="currentColor"/>
</g>
<g transform="translate(36.0648, 68.5829)">
<rect x="0.0000" y="-1.5354" width="0.1345" height="3.0354" ry="0.0000" fill="currentColor"/>
</g>
<g transform="translate(63.0938, 59.1617)">
<rect x="0.0000" y="-2.0000" width="0.1345" height="4.0354" ry="0.0000" fill="currentColor"/>
</g>
<g transform="translate(3.1614, 70.0829)">
<line stroke-linejoin="round" stroke-linecap="round" stroke-width="0.0708" stroke="currentColor" x1="0.0354" y1="0" x2="60.0315" y2="0"/>
</g>
<g transform="translate(3.1614, 68.5829)">
<line stroke-linejoin="round" stroke-linecap="round" stroke-width="0.0708" stroke="currentColor" x1="0.0354" y1="0" x2="60.0315" y2="0"/>
</g>
<g transform="translate(3.1614, 67.0829)">
<line stroke-linejoin="round" stroke-linecap="round" stroke-width="0.0708" stroke="currentColor" x1="0.0354" y1="0" x2="60.0315" y2="0"/>
</g>
<g transform="translate(44.1117, 59.6617)">
<path transform="scale(0.0040, -0.0040)" d="M222 135c53 0 104 -27 104 -86c0 -71 -56 -120 -103 -148c-36 -22 -76 -36 -118 -36c-53 0 -105 27 -105 86c0 71 57 120 104 148c36 22 76 36 118 36z" fill="currentColor"/>
</g>
<g transform="translate(43.5316, 63.7416)">
<text font-family="IPAexGothic" font-size="2.4695" text-anchor="start" fill="currentColor">
<tspan>べ</tspan>
</text>
</g>
<g color="rgb(100.0000%, 100.0000%, 100.0000%)">
<g transform="translate(44.1117, 68.5829)">
<rect x="0.1100" y="-0.6446" width="1.1002" height="1.2892" ry="0.0000" fill="currentColor"/>
</g>
</g>
<g transform="scale(1.0000, 1.0000)">
<g transform="translate(44.2217, 69.2275)">
<text font-family="IPAexGothic" font-weight="bold" font-size="1.7462" text-anchor="start" fill="currentColor">
<tspan>2</tspan>
</text>
</g>
</g>
<g transform="translate(45.3715, 59.1617)">
<rect x="-0.0460" y="-3.0000" width="0.0920" height="3.3033" ry="0.0222" fill="currentColor"/>
</g>
<g color="rgb(100.0000%, 100.0000%, 100.0000%)">
<g transform="translate(32.1058, 68.5829)">
<rect x="0.1100" y="-0.6489" width="1.1002" height="1.2977" ry="0.0000" fill="currentColor"/>
</g>
</g>
<g transform="scale(1.0000, 1.0000)">
<g transform="translate(32.2159, 69.2232)">
<text font-family="IPAexGothic" font-weight="bold" font-size="1.7462" text-anchor="start" fill="currentColor">
<tspan>0</tspan>
</text>
</g>
</g>
<g transform="translate(37.6521, 59.6617)">
<path transform="scale(0.0040, -0.0040)" d="M222 135c53 0 104 -27 104 -86c0 -71 -56 -120 -103 -148c-36 -22 -76 -36 -118 -36c-53 0 -105 27 -105 86c0 71 57 120 104 148c36 22 76 36 118 36z" fill="currentColor"/>
</g>
<g transform="translate(33.3656, 59.1617)">
<rect x="-0.0460" y="-2.0000" width="0.0920" height="2.8033" ry="0.0222" fill="currentColor"/>
</g>
<g transform="translate(32.7659, 68.5829)">
<path stroke-width="0.1200" stroke-linejoin="round" stroke-linecap="square" stroke="currentColor" fill="none" d="M-0.5500 0.8760L0.5500 0.8760"/>
</g>
<g transform="translate(37.0720, 63.7416)">
<text font-family="IPAexGothic" font-size="2.4695" text-anchor="start" fill="currentColor">
<tspan>す</tspan>
</text>
</g>
<g transform="translate(37.6521, 66.2975)">
<text font-family="Libertinus Serif" font-size="1.5557" text-anchor="start" fill="currentColor">
<tspan> Ⅰ</tspan>
</text>
</g>
<g color="rgb(100.0000%, 100.0000%, 100.0000%)">
<g transform="translate(37.6521, 68.5829)">
<rect x="0.1100" y="-0.6446" width="1.1002" height="1.2892" ry="0.0000" fill="currentColor"/>
</g>
</g>
<g transform="scale(1.0000, 1.0000)">
<g transform="translate(37.7621, 69.2275)">
<text font-family="IPAexGothic" font-weight="bold" font-size="1.7462" text-anchor="start" fill="currentColor">
<tspan>2</tspan>
</text>
</g>
</g>
<g transform="translate(38.9118, 59.1617)">
<rect x="-0.0460" y="-3.0000" width="0.0920" height="3.3033" ry="0.0222" fill="currentColor"/>
</g>
<g transform="translate(29.4608, 57.1617)">
<polygon stroke-linejoin="round" stroke-linecap="round" stroke-width="0.0444" fill="currentColor" stroke="currentColor" points="3.9286 -0.2178 3.9286 0.2178 0.0222 0.2178 0.0222 -0.2178"/>
</g>
<g transform="translate(15.2835, 57.1617)">
<polygon stroke-linejoin="round" stroke-linecap="round" stroke-width="0.0444" fill="currentColor" stroke="currentColor" points="3.9286 -0.2178 3.9286 0.2178 0.0222 0.2178 0.0222 -0.2178"/>
</g>
<g transform="translate(50.3213, 61.1617)">
<path transform="scale(0.0040, -0.0040)" d="M222 135c53 0 104 -27 104 -86c0 -71 -56 -120 -103 -148c-36 -22 -76 -36 -118 -36c-53 0 -105 27 -105 86c0 71 57 120 104 148c36 22 76 36 118 36z" fill="currentColor"/>
</g>
<g transform="translate(48.5083, 63.7416)">
<text font-family="IPAexGothic" font-size="2.4695" text-anchor="start" fill="currentColor">
<tspan>った</tspan>
</text>
</g>
<g transform="translate(50.3213, 66.2975)">
<text font-family="Libertinus Serif" font-size="1.5557" text-anchor="start" fill="currentColor">
<tspan> Ⅲ</tspan>
</text>
</g>
<g color="rgb(100.0000%, 100.0000%, 100.0000%)">
<g transform="translate(50.3213, 70.0829)">
<rect x="-0.2124" y="-0.7473" width="1.7451" height="1.4947" ry="0.0000" fill="currentColor"/>
</g>
</g>
<g transform="scale(1.0000, 1.0000)">
<g transform="translate(50.1089, 70.7467)">
<text font-family="IPAexGothic" font-weight="bold" font-size="1.7462" text-anchor="start" fill="currentColor">
<tspan>♯</tspan>
</text>
</g>
</g>
<g transform="translate(51.5811, 59.1617)">
<rect x="-0.0460" y="-1.5000" width="0.0920" height="3.3033" ry="0.0222" fill="currentColor"/>
</g>
<g transform="translate(56.9422, 59.1617)">
<path transform="scale(0.0040, -0.0040)" d="M-23 -113c0 26 10 40 36 40c34 0 85 -15 130 -37l-137 164c-7 8 -10 17 -10 25c0 33 49 64 86 96c26 22 39 54 39 85c0 24 -8 47 -24 67l-39 46c-2 3 -3 6 -3 9c0 7 7 14 14 14c3 0 7 -1 10 -5l152 -182c7 -8 10 -17 10 -25c0 -33 -49 -64 -86 -96
c-26 -22 -39 -54 -39 -85c0 -24 8 -47 24 -67l87 -104c2 -3 3 -5 3 -8c0 -7 -7 -14 -14 -14c-3 0 -7 1 -10 5c-19 22 -66 43 -102 43c-40 0 -52 -29 -52 -70c0 -35 11 -75 28 -96c6 -7 -4 -16 -10 -9c-46 55 -93 150 -93 204z" fill="currentColor"/>
</g>
<g transform="translate(57.3922, 68.5829)">
<circle stroke-linejoin="round" stroke-linecap="round" fill="currentColor" stroke="currentColor" stroke-width="0" r="0.4500"/>
</g>
<g transform="translate(7.6101, 59.6617)">
<path transform="scale(0.0040, -0.0040)" d="M222 135c53 0 104 -27 104 -86c0 -71 -56 -120 -103 -148c-36 -22 -76 -36 -118 -36c-53 0 -105 27 -105 86c0 71 57 120 104 148c36 22 76 36 118 36z" fill="currentColor"/>
</g>
<g transform="translate(7.0301, 63.7416)">
<text font-family="IPAexGothic" font-size="2.4695" text-anchor="start" fill="currentColor">
<tspan>つ</tspan>
</text>
</g>
<g transform="translate(7.6101, 66.2975)">
<text font-family="Libertinus Serif" font-size="1.5557" text-anchor="start" fill="currentColor">
<tspan> Ⅰ</tspan>
</text>
</g>
<g color="rgb(100.0000%, 100.0000%, 100.0000%)">
<g transform="translate(7.6101, 68.5829)">
<rect x="0.1100" y="-0.6446" width="1.1002" height="1.2892" ry="0.0000" fill="currentColor"/>
</g>
</g>
<g transform="scale(1.0000, 1.0000)">
<g transform="translate(7.7201, 69.2275)">
<text font-family="IPAexGothic" font-weight="bold" font-size="1.7462" text-anchor="start" fill="currentColor">
<tspan>2</tspan>
</text>
</g>
</g>
<g transform="translate(8.8699, 59.1617)">
<rect x="-0.0460" y="-3.0000" width="0.0920" height="3.3033" ry="0.0222" fill="currentColor"/>
</g>
<g transform="translate(14.0698, 60.1617)">
<path transform="scale(0.0040, -0.0040)" d="M222 135c53 0 104 -27 104 -86c0 -71 -56 -120 -103 -148c-36 -22 -76 -36 -118 -36c-53 0 -105 27 -105 86c0 71 57 120 104 148c36 22 76 36 118 36z" fill="currentColor"/>
</g>
<g transform="translate(13.4897, 63.7416)">
<text font-family="IPAexGothic" font-size="2.4695" text-anchor="start" fill="currentColor">
<tspan>る</tspan>
</text>
</g>
<g color="rgb(100.0000%, 100.0000%, 100.0000%)">
<g transform="translate(14.0698, 68.5829)">
<rect x="0.1100" y="-0.6489" width="1.1002" height="1.2977" ry="0.0000" fill="currentColor"/>
</g>
</g>
<g transform="scale(1.0000, 1.0000)">
<g transform="translate(14.1798, 69.2232)">
<text font-family="IPAexGothic" font-weight="bold" font-size="1.7462" text-anchor="start" fill="currentColor">
<tspan>0</tspan>
</text>
</g>
</g>
<g transform="translate(15.3295, 59.1617)">
<rect x="-0.0460" y="-2.0000" width="0.0920" height="2.8033" ry="0.0222" fill="currentColor"/>
</g>
<g transform="translate(32.7624, 70.8329)">
<path stroke-width="0.1200" stroke-linejoin="miter" stroke-linecap="square" stroke="currentColor" fill="none" d="M-0.4120 -0.4220L0.2280 -0.4270L0.2680 -0.3860C0.1100 0.0460 -0.1310 0.2760 -0.4870 0.4570M0.4940 0.4340C0.3790 0.3130 0.2470 0.1870 0.0440 0.0360"/>
</g>
<g transform="translate(14.7299, 68.5829)">
<path stroke-width="0.1200" stroke-linejoin="round" stroke-linecap="square" stroke="currentColor" fill="none" d="M-0.5500 0.8760L0.5500 0.8760"/>
</g>
<g transform="translate(3.9614, 60.1617)">
<path transform="scale(0.0040, -0.0040)" d="M374 260c5 0 10 1 15 1c154 0 254 -127 254 -259c0 -76 -33 -153 -107 -208c-22 -17 -47 -29 -73 -37c3 -36 5 -72 5 -108c0 -19 0 -37 -1 -56c-7 -120 -88 -226 -206 -226c-108 0 -195 87 -195 195c0 58 53 104 112 104c54 0 95 -48 95 -104c0 -52 -43 -95 -95 -95
c-12 0 -24 4 -35 9c26 -41 70 -70 121 -70c1 0 2 1 3 1c93 2 154 93 160 192c1 18 2 35 2 53c0 32 -2 64 -5 96c-29 -5 -58 -8 -89 -8c-188 0 -333 171 -333 372c0 178 133 306 251 440c-18 63 -35 126 -42 191c-6 51 -7 102 -7 154c0 116 55 226 150 295c5 4 11 4 16 0
c70 -84 132 -246 132 -359c0 -144 -87 -256 -183 -365c20 -69 39 -138 55 -208zM459 -205c69 24 117 96 117 166c0 92 -69 184 -179 193c25 -117 48 -235 62 -359zM71 31c0 -136 131 -251 267 -251c28 0 55 2 82 6c-15 128 -38 247 -64 367c-79 -9 -125 -62 -125 -121
c0 -44 26 -92 82 -124c4 -4 7 -9 7 -14c0 -11 -9 -21 -20 -21c-3 0 -6 1 -9 2c-80 43 -116 114 -116 184c0 88 57 173 158 196c-14 60 -30 119 -46 178c-108 -121 -216 -242 -216 -402zM411 1050c-99 -50 -161 -151 -161 -262c0 -76 15 -137 33 -200c82 97 149 198 149 325
c0 58 -4 84 -21 137z" fill="currentColor"/>
</g>
<g transform="translate(1.8981, 56.9013)">
<path transform="scale(0.0040, -0.0040)" d="M0 -56v91c0 12 10 21 22 21h43c164 0 281 136 377 272c10 14 32 -1 22 -15c-103 -145 -222 -369 -399 -369h-65z" fill="currentColor"/>
</g>
<g transform="translate(1.8981, 70.3433)">
<path transform="scale(0.0040, -0.0040)" d="M0 56h65c177 0 296 -224 399 -369c10 -14 -12 -29 -22 -15c-96 136 -213 272 -377 272h-43c-12 0 -22 9 -22 21v91z" fill="currentColor"/>
</g>
<g transform="translate(1.8981, 63.6223)">
<rect x="0.0000" y="-6.5410" width="0.4500" height="13.0820" ry="0.0000" fill="currentColor"/>
</g>
<g transform="translate(3.1481, 63.6223)">
<rect x="0.0000" y="-6.4960" width="0.1133" height="12.9920" ry="0.0354" fill="currentColor"/>
</g>
<g transform="translate(4.5511, 63.6952)">
<text font-family="IPAexGothic" font-style="italic" font-size="1.3859" text-anchor="start" fill="currentColor">
<tspan>8</tspan>
</text>
</g>
<g transform="translate(29.5068, 59.1617)">
<rect x="-0.0460" y="-2.0000" width="0.0920" height="2.8033" ry="0.0222" fill="currentColor"/>
</g>
<g color="rgb(100.0000%, 100.0000%, 100.0000%)">
<g transform="translate(21.7874, 68.5829)">
<rect x="0.1100" y="-0.6446" width="1.1002" height="1.2892" ry="0.0000" fill="currentColor"/>
</g>
</g>
<g transform="scale(1.0000, 1.0000)">
<g transform="translate(21.8974, 69.2275)">
<text font-family="IPAexGothic" font-weight="bold" font-size="1.7462" text-anchor="start" fill="currentColor">
<tspan>2</tspan>
</text>
</g>
</g>
<g transform="translate(23.0472, 59.1617)">
<rect x="-0.0460" y="-3.0000" width="0.0920" height="3.3033" ry="0.0222" fill="currentColor"/>
</g>
<g transform="translate(28.2470, 60.1617)">
<path transform="scale(0.0040, -0.0040)" d="M222 135c53 0 104 -27 104 -86c0 -71 -56 -120 -103 -148c-36 -22 -76 -36 -118 -36c-53 0 -105 27 -105 86c0 71 57 120 104 148c36 22 76 36 118 36z" fill="currentColor"/>
</g>
<g transform="translate(27.6670, 63.7416)">
<text font-family="IPAexGothic" font-size="2.4695" text-anchor="start" fill="currentColor">
<tspan>め</tspan>
</text>
</g>
<g color="rgb(100.0000%, 100.0000%, 100.0000%)">
<g transform="translate(28.2470, 68.5829)">
<rect x="0.1100" y="-0.6489" width="1.1002" height="1.2977" ry="0.0000" fill="currentColor"/>
</g>
</g>
<g transform="scale(1.0000, 1.0000)">
<g transform="translate(28.3570, 69.2232)">
<text font-family="IPAexGothic" font-weight="bold" font-size="1.7462" text-anchor="start" fill="currentColor">
<tspan>0</tspan>
</text>
</g>
</g>
<g transform="translate(28.9071, 68.5829)">
<path stroke-width="0.1200" stroke-linejoin="round" stroke-linecap="square" stroke="currentColor" fill="none" d="M-0.5500 0.8760L0.5500 0.8760"/>
</g>
<g transform="translate(32.1058, 60.1617)">
<path transform="scale(0.0040, -0.0040)" d="M222 135c53 0 104 -27 104 -86c0 -71 -56 -120 -103 -148c-36 -22 -76 -36 -118 -36c-53 0 -105 27 -105 86c0 71 57 120 104 148c36 22 76 36 118 36z" fill="currentColor"/>
</g>
<g transform="translate(31.5258, 63.7416)">
<text font-family="IPAexGothic" font-size="2.4695" text-anchor="start" fill="currentColor">
<tspan>と</tspan>
</text>
</g>
<g color="rgb(100.0000%, 100.0000%, 100.0000%)">
<g transform="translate(17.9286, 68.5829)">
<rect x="0.1100" y="-0.6489" width="1.1002" height="1.2977" ry="0.0000" fill="currentColor"/>
</g>
</g>
<g transform="scale(1.0000, 1.0000)">
<g transform="translate(18.0386, 69.2232)">
<text font-family="IPAexGothic" font-weight="bold" font-size="1.7462" text-anchor="start" fill="currentColor">
<tspan>0</tspan>
</text>
</g>
</g>
<g transform="translate(18.5852, 70.8329)">
<path stroke-width="0.1200" stroke-linejoin="miter" stroke-linecap="square" stroke="currentColor" fill="none" d="M-0.4120 -0.4220L0.2280 -0.4270L0.2680 -0.3860C0.1100 0.0460 -0.1310 0.2760 -0.4870 0.4570M0.4940 0.4340C0.3790 0.3130 0.2470 0.1870 0.0440 0.0360"/>
</g>
<g transform="translate(17.3485, 63.7416)">
<text font-family="IPAexGothic" font-size="2.4695" text-anchor="start" fill="currentColor">
<tspan>と</tspan>
</text>
</g>
<g transform="translate(17.9286, 60.1617)">
<path transform="scale(0.0040, -0.0040)" d="M222 135c53 0 104 -27 104 -86c0 -71 -56 -120 -103 -148c-36 -22 -76 -36 -118 -36c-53 0 -105 27 -105 86c0 71 57 120 104 148c36 22 76 36 118 36z" fill="currentColor"/>
</g>
<g transform="translate(19.1884, 59.1617)">
<rect x="-0.0460" y="-2.0000" width="0.0920" height="2.8033" ry="0.0222" fill="currentColor"/>
</g>
<g transform="translate(21.2073, 63.7416)">
<text font-family="IPAexGothic" font-size="2.4695" text-anchor="start" fill="currentColor">
<tspan>か</tspan>
</text>
</g>
<g transform="translate(18.5887, 68.5829)">
<path stroke-width="0.1200" stroke-linejoin="round" stroke-linecap="square" stroke="currentColor" fill="none" d="M-0.5500 0.8760L0.5500 0.8760"/>
</g>
<g transform="translate(21.7874, 59.6617)">
<path transform="scale(0.0040, -0.0040)" d="M222 135c53 0 104 -27 104 -86c0 -71 -56 -120 -103 -148c-36 -22 -76 -36 -118 -36c-53 0 -105 27 -105 86c0 71 57 120 104 148c36 22 76 36 118 36z" fill="currentColor"/>
</g>
<g transform="translate(63.0938, 78.1918)">
<rect x="0.0000" y="-2.0000" width="0.1345" height="4.0354" ry="0.0000" fill="currentColor"/>
</g>
<g transform="translate(37.4044, 74.4118)">
<rect x="0.0000" y="5.8154" width="0.1345" height="6.5030" ry="0.0000" fill="currentColor"/>
</g>
<g transform="translate(63.0938, 74.4118)">
<rect x="0.0000" y="5.8154" width="0.1345" height="6.5030" ry="0.0000" fill="currentColor"/>
</g>
<g transform="translate(63.0938, 88.2302)">
<rect x="0.0000" y="-1.5354" width="0.1345" height="3.0354" ry="0.0000" fill="currentColor"/>
</g>
<g transform="translate(37.4044, 88.2302)">
<rect x="0.0000" y="-1.5354" width="0.1345" height="3.0354" ry="0.0000" fill="currentColor"/>
</g>
<g transform="translate(37.4044, 78.1918)">
<rect x="0.0000" y="-2.0000" width="0.1345" height="4.0354" ry="0.0000" fill="currentColor"/>
</g>
<g transform="translate(3.1614, 89.7302)">
<line stroke-linejoin="round" stroke-linecap="round" stroke-width="0.0708" stroke="currentColor" x1="0.0354" y1="0" x2="60.0315" y2="0"/>
</g>
<g transform="translate(3.1614, 88.2302)">
<line stroke-linejoin="round" stroke-linecap="round" stroke-width="0.0708" stroke="currentColor" x1="0.0354" y1="0" x2="60.0315" y2="0"/>
</g>
<g transform="translate(3.1614, 86.7302)">
<line stroke-linejoin="round" stroke-linecap="round" stroke-width="0.0708" stroke="currentColor" x1="0.0354" y1="0" x2="60.0315" y2="0"/>
</g>
<g transform="translate(3.1614, 80.1918)">
<line stroke-linejoin="round" stroke-linecap="round" stroke-width="0.0708" stroke="currentColor" x1="0.0354" y1="0" x2="60.0315" y2="0"/>
</g>
<g transform="translate(3.1614, 79.1918)">
<line stroke-linejoin="round" stroke-linecap="round" stroke-width="0.0708" stroke="currentColor" x1="0.0354" y1="0" x2="60.0315" y2="0"/>
</g>
<g transform="translate(3.1614, 78.1918)">
<line stroke-linejoin="round" stroke-linecap="round" stroke-width="0.0708" stroke="currentColor" x1="0.0354" y1="0" x2="60.0315" y2="0"/>
</g>
<g transform="translate(3.1614, 77.1918)">
<line stroke-linejoin="round" stroke-linecap="round" stroke-width="0.0708" stroke="currentColor" x1="0.0354" y1="0" x2="60.0315" y2="0"/>
</g>
<g transform="translate(3.1614, 76.1918)">
<line stroke-linejoin="round" stroke-linecap="round" stroke-width="0.0708" stroke="currentColor" x1="0.0354" y1="0" x2="60.0315" y2="0"/>
</g>
<g transform="translate(40.6319, 87.4802)">
<path transform="scale(0.0040, -0.0040)" d="M0 0c0 32 25 57 57 57s57 -25 57 -57s-25 -57 -57 -57s-57 25 -57 57z" fill="currentColor"/>
</g>
<g transform="translate(48.0980, 75.7141)">
<path transform="scale(0.0040, -0.0040)" d="M0 0v-250h-14v250h14zM0 0c0 -198 207 -336 207 -534c0 -71 -16 -142 -42 -208c-4 -7 -10 -11 -17 -11c-12 0 -24 10 -21 25c26 62 41 127 41 194c0 104 -96 209 -168 284v250z" fill="currentColor"/>
</g>
<g transform="translate(46.7922, 79.1918)">
<path transform="scale(0.0040, -0.0040)" d="M222 135c53 0 104 -27 104 -86c0 -71 -56 -120 -103 -148c-36 -22 -76 -36 -118 -36c-53 0 -105 27 -105 86c0 71 57 120 104 148c36 22 76 36 118 36z" fill="currentColor"/>
</g>
<g color="rgb(100.0000%, 100.0000%, 100.0000%)">
<g transform="translate(46.7922, 88.2302)">
<rect x="0.1100" y="-0.6489" width="1.1002" height="1.2977" ry="0.0000" fill="currentColor"/>
</g>
</g>
<g transform="scale(1.0000, 1.0000)">
<g transform="translate(46.9022, 88.8706)">
<text font-family="IPAexGothic" font-weight="bold" font-size="1.7462" text-anchor="start" fill="currentColor">
<tspan>0</tspan>
</text>
</g>
</g>
<g transform="translate(48.0520, 78.1918)">
<rect x="-0.0460" y="-2.5000" width="0.0920" height="3.3033" ry="0.0222" fill="currentColor"/>
</g>
<g transform="translate(30.9799, 85.9448)">
<text font-family="Libertinus Serif" font-size="1.5557" text-anchor="start" fill="currentColor">
<tspan> Ⅲ</tspan>
</text>
</g>
<g transform="translate(38.9649, 83.4022)">
<text font-family="IPAexGothic" font-size="2.4695" text-anchor="start" fill="currentColor">
<tspan>だ</tspan>
</text>
</g>
<g color="rgb(100.0000%, 100.0000%, 100.0000%)">
<g transform="translate(30.9799, 88.2302)">
<rect x="-0.2124" y="-0.7473" width="1.7451" height="1.4947" ry="0.0000" fill="currentColor"/>
</g>
</g>
<g transform="scale(1.0000, 1.0000)">
<g transform="translate(30.7674, 88.8940)">
<text font-family="IPAexGothic" font-weight="bold" font-size="1.7462" text-anchor="start" fill="currentColor">
<tspan>♯</tspan>
</text>
</g>
</g>
<g transform="translate(31.0259, 78.1918)">
<rect x="-0.0460" y="0.1967" width="0.0920" height="3.1366" ry="0.0222" fill="currentColor"/>
</g>
<g transform="translate(38.9649, 78.6918)">
<path transform="scale(0.0040, -0.0040)" d="M222 135c53 0 104 -27 104 -86c0 -71 -56 -120 -103 -148c-36 -22 -76 -36 -118 -36c-53 0 -105 27 -105 86c0 71 57 120 104 148c36 22 76 36 118 36z" fill="currentColor"/>
</g>
<g transform="translate(38.9649, 85.9448)">
<text font-family="Libertinus Serif" font-size="1.5557" text-anchor="start" fill="currentColor">
<tspan> Ⅰ</tspan>
</text>
</g>
<g color="rgb(100.0000%, 100.0000%, 100.0000%)">
<g transform="translate(38.9649, 88.2302)">
<rect x="0.1100" y="-0.6446" width="1.1002" height="1.2892" ry="0.0000" fill="currentColor"/>
</g>
</g>
<g transform="scale(1.0000, 1.0000)">
<g transform="translate(39.0749, 88.8748)">
<text font-family="IPAexGothic" font-weight="bold" font-size="1.7462" text-anchor="start" fill="currentColor">
<tspan>2</tspan>
</text>
</g>
</g>
<g transform="translate(40.7275, 78.6918)">
<path transform="scale(0.0040, -0.0040)" d="M0 0c0 32 25 57 57 57s57 -25 57 -57s-25 -57 -57 -57s-57 25 -57 57z" fill="currentColor"/>
</g>
<g transform="translate(40.2247, 78.1918)">
<rect x="-0.0460" y="-3.0000" width="0.0920" height="3.3033" ry="0.0222" fill="currentColor"/>
</g>
<g transform="translate(8.7991, 75.3964)">
<polygon stroke-linejoin="round" stroke-linecap="round" stroke-width="0.0444" fill="currentColor" stroke="currentColor" points="11.4678 -0.2178 11.4678 0.2178 0.0222 0.2178 0.0222 -0.2178"/>
</g>
<g transform="translate(47.4523, 88.2302)">
<path stroke-width="0.1200" stroke-linejoin="round" stroke-linecap="square" stroke="currentColor" fill="none" d="M-0.5500 0.8760L0.5500 0.8760"/>
</g>
<g transform="translate(50.7205, 78.6918)">
<path transform="scale(0.0040, -0.0040)" d="M222 135c53 0 104 -27 104 -86c0 -71 -56 -120 -103 -148c-36 -22 -76 -36 -118 -36c-53 0 -105 27 -105 86c0 71 57 120 104 148c36 22 76 36 118 36z" fill="currentColor"/>
</g>
<g transform="translate(50.1405, 83.4022)">
<text font-family="IPAexGothic" font-size="2.4695" text-anchor="start" fill="currentColor">
<tspan>れ</tspan>
</text>
</g>
<g color="rgb(100.0000%, 100.0000%, 100.0000%)">
<g transform="translate(50.7205, 88.2302)">
<rect x="0.1100" y="-0.6446" width="1.1002" height="1.2892" ry="0.0000" fill="currentColor"/>
</g>
</g>
<g transform="scale(1.0000, 1.0000)">
<g transform="translate(50.8305, 88.8748)">
<text font-family="IPAexGothic" font-weight="bold" font-size="1.7462" text-anchor="start" fill="currentColor">
<tspan>2</tspan>
</text>
</g>
</g>
<g transform="translate(51.9803, 78.1918)">
<rect x="-0.0460" y="-3.0000" width="0.0920" height="3.3033" ry="0.0222" fill="currentColor"/>
</g>
<g transform="translate(57.0612, 78.1918)">
<path transform="scale(0.0040, -0.0040)" d="M-23 -113c0 26 10 40 36 40c34 0 85 -15 130 -37l-137 164c-7 8 -10 17 -10 25c0 33 49 64 86 96c26 22 39 54 39 85c0 24 -8 47 -24 67l-39 46c-2 3 -3 6 -3 9c0 7 7 14 14 14c3 0 7 -1 10 -5l152 -182c7 -8 10 -17 10 -25c0 -33 -49 -64 -86 -96
c-26 -22 -39 -54 -39 -85c0 -24 8 -47 24 -67l87 -104c2 -3 3 -5 3 -8c0 -7 -7 -14 -14 -14c-3 0 -7 1 -10 5c-19 22 -66 43 -102 43c-40 0 -52 -29 -52 -70c0 -35 11 -75 28 -96c6 -7 -4 -16 -10 -9c-46 55 -93 150 -93 204z" fill="currentColor"/>
</g>
<g transform="translate(57.5112, 88.2302)">
<circle stroke-linejoin="round" stroke-linecap="round" fill="currentColor" stroke="currentColor" stroke-width="0" r="0.4500"/>
</g>
<g transform="translate(7.5853, 78.6918)">
<path transform="scale(0.0040, -0.0040)" d="M222 135c53 0 104 -27 104 -86c0 -71 -56 -120 -103 -148c-36 -22 -76 -36 -118 -36c-53 0 -105 27 -105 86c0 71 57 120 104 148c36 22 76 36 118 36z" fill="currentColor"/>
</g>
<g transform="translate(7.0053, 83.4022)">
<text font-family="IPAexGothic" font-size="2.4695" text-anchor="start" fill="currentColor">
<tspan>う</tspan>
</text>
</g>
<g transform="translate(7.5853, 85.9448)">
<text font-family="Libertinus Serif" font-size="1.5557" text-anchor="start" fill="currentColor">
<tspan> Ⅰ</tspan>
</text>
</g>
<g color="rgb(100.0000%, 100.0000%, 100.0000%)">
<g transform="translate(7.5853, 88.2302)">
<rect x="0.1100" y="-0.6446" width="1.1002" height="1.2892" ry="0.0000" fill="currentColor"/>
</g>
</g>
<g transform="scale(1.0000, 1.0000)">
<g transform="translate(7.6953, 88.8748)">
<text font-family="IPAexGothic" font-weight="bold" font-size="1.7462" text-anchor="start" fill="currentColor">
<tspan>2</tspan>
</text>
</g>
</g>
<g transform="translate(8.8451, 78.1918)">
<rect x="-0.0460" y="-2.7954" width="0.0920" height="3.0987" ry="0.0222" fill="currentColor"/>
</g>
<g transform="translate(8.2454, 88.2302)">
<path stroke-width="0.1200" stroke-linejoin="round" stroke-linecap="square" stroke="currentColor" fill="none" d="M-0.5500 0.8702L0.5500 0.8702"/>
</g>
<g transform="translate(11.3847, 78.6918)">
<path transform="scale(0.0040, -0.0040)" d="M222 135c53 0 104 -27 104 -86c0 -71 -56 -120 -103 -148c-36 -22 -76 -36 -118 -36c-53 0 -105 27 -105 86c0 71 57 120 104 148c36 22 76 36 118 36z" fill="currentColor"/>
</g>
<g transform="translate(10.8046, 83.4022)">
<text font-family="IPAexGothic" font-size="2.4695" text-anchor="start" fill="currentColor">
<tspan>し</tspan>
</text>
</g>
<g transform="translate(12.0413, 90.4802)">
<path stroke-width="0.1200" stroke-linejoin="miter" stroke-linecap="square" stroke="currentColor" fill="none" d="M-0.4120 -0.4220L0.2280 -0.4270L0.2680 -0.3860C0.1100 0.0460 -0.1310 0.2760 -0.4870 0.4570M0.4940 0.4340C0.3790 0.3130 0.2470 0.1870 0.0440 0.0360"/>
</g>
<g color="rgb(100.0000%, 100.0000%, 100.0000%)">
<g transform="translate(11.3847, 88.2302)">
<rect x="0.1100" y="-0.6446" width="1.1002" height="1.2892" ry="0.0000" fill="currentColor"/>
</g>
</g>
<g transform="scale(1.0000, 1.0000)">
<g transform="translate(11.4947, 88.8748)">
<text font-family="IPAexGothic" font-weight="bold" font-size="1.7462" text-anchor="start" fill="currentColor">
<tspan>2</tspan>
</text>
</g>
</g>
<g transform="translate(12.6444, 78.1918)">
<rect x="-0.0460" y="-2.7954" width="0.0920" height="3.0987" ry="0.0222" fill="currentColor"/>
</g>
<g transform="translate(29.1669, 83.4022)">
<text font-family="IPAexGothic" font-size="2.4695" text-anchor="start" fill="currentColor">
<tspan>めん</tspan>
</text>
</g>
<g transform="translate(12.0448, 88.2302)">
<path stroke-width="0.1200" stroke-linejoin="round" stroke-linecap="square" stroke="currentColor" fill="none" d="M-0.5500 0.8702L0.5500 0.8702"/>
</g>
<g transform="translate(4.5511, 82.7253)">
<text font-family="IPAexGothic" font-style="italic" font-size="1.3859" text-anchor="start" fill="currentColor">
<tspan>8</tspan>
</text>
</g>
<g transform="translate(1.8981, 75.9314)">
<path transform="scale(0.0040, -0.0040)" d="M0 -56v91c0 12 10 21 22 21h43c164 0 281 136 377 272c10 14 32 -1 22 -15c-103 -145 -222 -369 -399 -369h-65z" fill="currentColor"/>
</g>
<g transform="translate(1.8981, 89.9906)">
<path transform="scale(0.0040, -0.0040)" d="M0 56h65c177 0 296 -224 399 -369c10 -14 -12 -29 -22 -15c-96 136 -213 272 -377 272h-43c-12 0 -22 9 -22 21v91z" fill="currentColor"/>
</g>
<g transform="translate(1.8981, 82.9610)">
<rect x="0.0000" y="-6.8496" width="0.4500" height="13.6992" ry="0.0000" fill="currentColor"/>
</g>
<g transform="translate(3.1481, 82.9610)">
<rect x="0.0000" y="-6.8046" width="0.1133" height="13.6092" ry="0.0354" fill="currentColor"/>
</g>
<g transform="translate(3.9614, 79.1918)">
<path transform="scale(0.0040, -0.0040)" d="M374 260c5 0 10 1 15 1c154 0 254 -127 254 -259c0 -76 -33 -153 -107 -208c-22 -17 -47 -29 -73 -37c3 -36 5 -72 5 -108c0 -19 0 -37 -1 -56c-7 -120 -88 -226 -206 -226c-108 0 -195 87 -195 195c0 58 53 104 112 104c54 0 95 -48 95 -104c0 -52 -43 -95 -95 -95
c-12 0 -24 4 -35 9c26 -41 70 -70 121 -70c1 0 2 1 3 1c93 2 154 93 160 192c1 18 2 35 2 53c0 32 -2 64 -5 96c-29 -5 -58 -8 -89 -8c-188 0 -333 171 -333 372c0 178 133 306 251 440c-18 63 -35 126 -42 191c-6 51 -7 102 -7 154c0 116 55 226 150 295c5 4 11 4 16 0
c70 -84 132 -246 132 -359c0 -144 -87 -256 -183 -365c20 -69 39 -138 55 -208zM459 -205c69 24 117 96 117 166c0 92 -69 184 -179 193c25 -117 48 -235 62 -359zM71 31c0 -136 131 -251 267 -251c28 0 55 2 82 6c-15 128 -38 247 -64 367c-79 -9 -125 -62 -125 -121
c0 -44 26 -92 82 -124c4 -4 7 -9 7 -14c0 -11 -9 -21 -20 -21c-3 0 -6 1 -9 2c-80 43 -116 114 -116 184c0 88 57 173 158 196c-14 60 -30 119 -46 178c-108 -121 -216 -242 -216 -402zM411 1050c-99 -50 -161 -151 -161 -262c0 -76 15 -137 33 -200c82 97 149 198 149 325
c0 58 -4 84 -21 137z" fill="currentColor"/>
</g>
<g transform="translate(24.3651, 78.6918)">
<path transform="scale(0.0040, -0.0040)" d="M222 135c53 0 104 -27 104 -86c0 -71 -56 -120 -103 -148c-36 -22 -76 -36 -118 -36c-53 0 -105 27 -105 86c0 71 57 120 104 148c36 22 76 36 118 36z" fill="currentColor"/>
</g>
<g transform="translate(19.6399, 90.4802)">
<path stroke-width="0.1200" stroke-linejoin="miter" stroke-linecap="square" stroke="currentColor" fill="none" d="M-0.4120 -0.4220L0.2280 -0.4270L0.2680 -0.3860C0.1100 0.0460 -0.1310 0.2760 -0.4870 0.4570M0.4940 0.4340C0.3790 0.3130 0.2470 0.1870 0.0440 0.0360"/>
</g>
<g color="rgb(100.0000%, 100.0000%, 100.0000%)">
<g transform="translate(18.9833, 88.2302)">
<rect x="0.1100" y="-0.6446" width="1.1002" height="1.2892" ry="0.0000" fill="currentColor"/>
</g>
</g>
<g transform="scale(1.0000, 1.0000)">
<g transform="translate(19.0933, 88.8748)">
<text font-family="IPAexGothic" font-weight="bold" font-size="1.7462" text-anchor="start" fill="currentColor">
<tspan>2</tspan>
</text>
</g>
</g>
<g transform="translate(19.6434, 88.2302)">
<path stroke-width="0.1200" stroke-linejoin="round" stroke-linecap="square" stroke="currentColor" fill="none" d="M-0.5500 0.8702L0.5500 0.8702"/>
</g>
<g transform="translate(20.2431, 78.1918)">
<rect x="-0.0460" y="-2.7954" width="0.0920" height="3.0987" ry="0.0222" fill="currentColor"/>
</g>
<g transform="translate(21.3192, 83.4022)">
<text font-family="IPAexGothic" font-size="2.4695" text-anchor="start" fill="currentColor">
<tspan>しょう</tspan>
</text>
</g>
<g color="rgb(100.0000%, 100.0000%, 100.0000%)">
<g transform="translate(24.3651, 88.2302)">
<rect x="0.1100" y="-0.6446" width="1.1002" height="1.2892" ry="0.0000" fill="currentColor"/>
</g>
</g>
<g transform="scale(1.0000, 1.0000)">
<g transform="translate(24.4751, 88.8748)">
<text font-family="IPAexGothic" font-weight="bold" font-size="1.7462" text-anchor="start" fill="currentColor">
<tspan>2</tspan>
</text>
</g>
</g>
<g transform="translate(25.6249, 78.1918)">
<rect x="-0.0460" y="-3.0000" width="0.0920" height="3.3033" ry="0.0222" fill="currentColor"/>
</g>
<g transform="translate(30.9799, 78.1918)">
<path transform="scale(0.0040, -0.0040)" d="M222 135c53 0 104 -27 104 -86c0 -71 -56 -120 -103 -148c-36 -22 -76 -36 -118 -36c-53 0 -105 27 -105 86c0 71 57 120 104 148c36 22 76 36 118 36z" fill="currentColor"/>
</g>
<g transform="translate(15.1840, 78.6918)">
<path transform="scale(0.0040, -0.0040)" d="M222 135c53 0 104 -27 104 -86c0 -71 -56 -120 -103 -148c-36 -22 -76 -36 -118 -36c-53 0 -105 27 -105 86c0 71 57 120 104 148c36 22 76 36 118 36z" fill="currentColor"/>
</g>
<g transform="translate(14.6039, 83.4022)">
<text font-family="IPAexGothic" font-size="2.4695" text-anchor="start" fill="currentColor">
<tspan>ろ</tspan>
</text>
</g>
<g color="rgb(100.0000%, 100.0000%, 100.0000%)">
<g transform="translate(15.1840, 88.2302)">
<rect x="0.1100" y="-0.6446" width="1.1002" height="1.2892" ry="0.0000" fill="currentColor"/>
</g>
</g>
<g transform="scale(1.0000, 1.0000)">
<g transform="translate(15.2940, 88.8748)">
<text font-family="IPAexGothic" font-weight="bold" font-size="1.7462" text-anchor="start" fill="currentColor">
<tspan>2</tspan>
</text>
</g>
</g>
<g transform="translate(16.4438, 78.1918)">
<rect x="-0.0460" y="-2.7954" width="0.0920" height="3.0987" ry="0.0222" fill="currentColor"/>
</g>
<g transform="translate(18.4033, 83.4022)">
<text font-family="IPAexGothic" font-size="2.4695" text-anchor="start" fill="currentColor">
<tspan>の</tspan>
</text>
</g>
<g transform="translate(15.8441, 88.2302)">
<path stroke-width="0.1200" stroke-linejoin="round" stroke-linecap="square" stroke="currentColor" fill="none" d="M-0.5500 0.8702L0.5500 0.8702"/>
</g>
<g transform="translate(18.9833, 78.6918)">
<path transform="scale(0.0040, -0.0040)" d="M222 135c53 0 104 -27 104 -86c0 -71 -56 -120 -103 -148c-36 -22 -76 -36 -118 -36c-53 0 -105 27 -105 86c0 71 57 120 104 148c36 22 76 36 118 36z" fill="currentColor"/>
</g>
</svg>
