<svg xmlns="http://www.w3.org/2000/svg" xmlns:xlink="http://www.w3.org/1999/xlink" version="1.2" width="210.00mm" height="297.00mm" viewBox="0 0 74.6885 105.6309">
<style type="text/css">
<![CDATA[
tspan { white-space: pre; }
]]>
</style>
<!-- Page: 1/1 -->
<g transform="translate(26.8452, 5.6977)">
<text font-family="IPAexGothic" font-weight="bold" font-size="3.4923" text-anchor="start" fill="currentColor">
<tspan>かごめかごめ</tspan>
</text>
</g>
<g transform="translate(3.5566, 9.1977)">
<text font-family="IPAexGothic" font-size="2.2003" text-anchor="start" fill="currentColor">
<tspan>4本（神仙）</tspan>
</text>
</g>
<g transform="translate(3.5566, 12.6977)">
<text font-family="IPAexGothic" font-size="2.2003" text-anchor="start" fill="currentColor">
<tspan>二上り（調弦 C G C）</tspan>
</text>
</g>
<g transform="translate(3.5566, 22.6539)">
<line stroke-linejoin="round" stroke-linecap="round" stroke-width="0.0754" stroke="currentColor" x1="0.0377" y1="0" x2="67.5376" y2="0"/>
</g>
<g transform="translate(3.5566, 21.6539)">
<line stroke-linejoin="round" stroke-linecap="round" stroke-width="0.0754" stroke="currentColor" x1="0.0377" y1="0" x2="67.5376" y2="0"/>
</g>
<g transform="translate(3.5566, 20.6539)">
<line stroke-linejoin="round" stroke-linecap="round" stroke-width="0.0754" stroke="currentColor" x1="0.0377" y1="0" x2="67.5376" y2="0"/>
</g>
<g transform="translate(3.5566, 19.6539)">
<line stroke-linejoin="round" stroke-linecap="round" stroke-width="0.0754" stroke="currentColor" x1="0.0377" y1="0" x2="67.5376" y2="0"/>
</g>
<g transform="translate(3.5566, 18.6539)">
<line stroke-linejoin="round" stroke-linecap="round" stroke-width="0.0754" stroke="currentColor" x1="0.0377" y1="0" x2="67.5376" y2="0"/>
</g>
<g transform="translate(36.6299, 16.8739)">
<rect x="0.0000" y="5.8177" width="0.1432" height="6.8218" ry="0.0000" fill="currentColor"/>
</g>
<g transform="translate(36.6299, 31.0134)">
<rect x="0.0000" y="-1.5377" width="0.1432" height="3.0377" ry="0.0000" fill="currentColor"/>
</g>
<g transform="translate(36.6299, 20.6539)">
<rect x="0.0000" y="-2.0000" width="0.1432" height="4.0377" ry="0.0000" fill="currentColor"/>
</g>
<g transform="translate(55.5641, 20.6539)">
<rect x="0.0000" y="-2.0000" width="0.1432" height="4.0377" ry="0.0000" fill="currentColor"/>
</g>
<g transform="translate(55.5641, 31.0134)">
<rect x="0.0000" y="-1.5377" width="0.1432" height="3.0377" ry="0.0000" fill="currentColor"/>
</g>
<g transform="translate(55.5641, 16.8739)">
<rect x="0.0000" y="5.8177" width="0.1432" height="6.8218" ry="0.0000" fill="currentColor"/>
</g>
<g transform="translate(22.5036, 16.8739)">
<rect x="0.0000" y="5.8177" width="0.1432" height="6.8218" ry="0.0000" fill="currentColor"/>
</g>
<g transform="translate(22.5036, 31.0134)">
<rect x="0.0000" y="-1.5377" width="0.1432" height="3.0377" ry="0.0000" fill="currentColor"/>
</g>
<g transform="translate(22.5036, 20.6539)">
<rect x="0.0000" y="-2.0000" width="0.1432" height="4.0377" ry="0.0000" fill="currentColor"/>
</g>
<g transform="translate(70.9887, 20.6539)">
<rect x="0.0000" y="-2.0000" width="0.1432" height="4.0377" ry="0.0000" fill="currentColor"/>
</g>
<g transform="translate(70.9887, 31.0134)">
<rect x="0.0000" y="-1.5377" width="0.1432" height="3.0377" ry="0.0000" fill="currentColor"/>
</g>
<g transform="translate(70.9887, 16.8739)">
<rect x="0.0000" y="5.8177" width="0.1432" height="6.8218" ry="0.0000" fill="currentColor"/>
</g>
<g transform="translate(3.5566, 32.5134)">
<line stroke-linejoin="round" stroke-linecap="round" stroke-width="0.0754" stroke="currentColor" x1="0.0377" y1="0" x2="67.5376" y2="0"/>
</g>
<g transform="translate(3.5566, 31.0134)">
<line stroke-linejoin="round" stroke-linecap="round" stroke-width="0.0754" stroke="currentColor" x1="0.0377" y1="0" x2="67.5376" y2="0"/>
</g>
<g transform="translate(3.5566, 29.5134)">
<line stroke-linejoin="round" stroke-linecap="round" stroke-width="0.0754" stroke="currentColor" x1="0.0377" y1="0" x2="67.5376" y2="0"/>
</g>
<g transform="translate(56.6351, 28.7257)">
<text font-family="Libertinus Serif" font-size="1.5557" text-anchor="start" fill="currentColor">
<tspan> Ⅰ</tspan>
</text>
</g>
<g transform="translate(56.0503, 26.2428)">
<text font-family="IPAexGothic" font-size="2.4695" text-anchor="start" fill="currentColor">
<tspan>と</tspan>
</text>
</g>
<g transform="translate(56.6351, 21.1539)">
<path transform="scale(0.0040, -0.0040)" d="M222 135c53 0 104 -27 104 -86c0 -71 -56 -120 -103 -148c-36 -22 -76 -36 -118 -36c-53 0 -105 27 -105 86c0 71 57 120 104 148c36 22 76 36 118 36z" fill="currentColor"/>
</g>
<g transform="translate(53.8271, 31.0134)">
<path stroke-width="0.1200" stroke-linejoin="round" stroke-linecap="square" stroke="currentColor" fill="none" d="M-0.5500 0.8760L0.5500 0.8760"/>
</g>
<g transform="translate(57.8919, 20.6539)">
<rect x="-0.0490" y="-3.0000" width="0.0980" height="3.3033" ry="0.0250" fill="currentColor"/>
</g>
<g transform="translate(54.4182, 20.6539)">
<rect x="-0.0490" y="-2.0000" width="0.0980" height="2.8033" ry="0.0250" fill="currentColor"/>
</g>
<g color="rgb(100.0000%, 100.0000%, 100.0000%)">
<g transform="translate(53.1613, 31.0134)">
<rect x="0.1110" y="-0.6489" width="1.1097" height="1.2978" ry="0.0000" fill="currentColor"/>
</g>
</g>
<g transform="scale(1.0000, 1.0000)">
<g transform="translate(53.2723, 31.6537)">
<text font-family="IPAexGothic" font-weight="bold" font-size="1.7463" text-anchor="start" fill="currentColor">
<tspan>0</tspan>
</text>
</g>
</g>
<g transform="translate(52.5765, 26.2428)">
<text font-family="IPAexGothic" font-size="2.4695" text-anchor="start" fill="currentColor">
<tspan>の</tspan>
</text>
</g>
<g transform="translate(53.1613, 21.6539)">
<path transform="scale(0.0040, -0.0040)" d="M222 135c53 0 104 -27 104 -86c0 -71 -56 -120 -103 -148c-36 -22 -76 -36 -118 -36c-53 0 -105 27 -105 86c0 71 57 120 104 148c36 22 76 36 118 36z" fill="currentColor"/>
</g>
<g color="rgb(100.0000%, 100.0000%, 100.0000%)">
<g transform="translate(56.6351, 31.0134)">
<rect x="0.1110" y="-0.6446" width="1.1097" height="1.2893" ry="0.0000" fill="currentColor"/>
</g>
</g>
<g transform="scale(1.0000, 1.0000)">
<g transform="translate(56.7461, 31.6580)">
<text font-family="IPAexGothic" font-weight="bold" font-size="1.7463" text-anchor="start" fill="currentColor">
<tspan>2</tspan>
</text>
</g>
</g>
<g transform="translate(48.1506, 20.6539)">
<rect x="-0.0490" y="-3.0000" width="0.0980" height="3.3033" ry="0.0250" fill="currentColor"/>
</g>
<g color="rgb(100.0000%, 100.0000%, 100.0000%)">
<g transform="translate(46.8938, 31.0134)">
<rect x="0.1110" y="-0.6446" width="1.1097" height="1.2893" ry="0.0000" fill="currentColor"/>
</g>
</g>
<g transform="scale(1.0000, 1.0000)">
<g transform="translate(47.0048, 31.6580)">
<text font-family="IPAexGothic" font-weight="bold" font-size="1.7463" text-anchor="start" fill="currentColor">
<tspan>2</tspan>
</text>
</g>
</g>
<g transform="translate(46.3090, 26.2428)">
<text font-family="IPAexGothic" font-size="2.4695" text-anchor="start" fill="currentColor">
<tspan>な</tspan>
</text>
</g>
<g transform="translate(46.8938, 21.1539)">
<path transform="scale(0.0040, -0.0040)" d="M222 135c53 0 104 -27 104 -86c0 -71 -56 -120 -103 -148c-36 -22 -76 -36 -118 -36c-53 0 -105 27 -105 86c0 71 57 120 104 148c36 22 76 36 118 36z" fill="currentColor"/>
</g>
<g transform="translate(44.6342, 31.0134)">
<path stroke-width="0.1200" stroke-linejoin="round" stroke-linecap="square" stroke="currentColor" fill="none" d="M-0.5500 0.8703L0.5500 0.8703"/>
</g>
<g transform="translate(45.2252, 20.6539)">
<rect x="-0.0490" y="-2.7977" width="0.0980" height="3.1009" ry="0.0250" fill="currentColor"/>
</g>
<g color="rgb(100.0000%, 100.0000%, 100.0000%)">
<g transform="translate(43.9684, 31.0134)">
<rect x="0.1110" y="-0.6446" width="1.1097" height="1.2893" ry="0.0000" fill="currentColor"/>
</g>
</g>
<g transform="scale(1.0000, 1.0000)">
<g transform="translate(44.0794, 31.6580)">
<text font-family="IPAexGothic" font-weight="bold" font-size="1.7463" text-anchor="start" fill="currentColor">
<tspan>2</tspan>
</text>
</g>
</g>
<g transform="translate(43.3836, 26.2428)">
<text font-family="IPAexGothic" font-size="2.4695" text-anchor="start" fill="currentColor">
<tspan>の</tspan>
</text>
</g>
<g transform="translate(43.9684, 21.1539)">
<path transform="scale(0.0040, -0.0040)" d="M222 135c53 0 104 -27 104 -86c0 -71 -56 -120 -103 -148c-36 -22 -76 -36 -118 -36c-53 0 -105 27 -105 86c0 71 57 120 104 148c36 22 76 36 118 36z" fill="currentColor"/>
</g>
<g transform="translate(49.6512, 26.2428)">
<text font-family="IPAexGothic" font-size="2.4695" text-anchor="start" fill="currentColor">
<tspan>か</tspan>
</text>
</g>
<g transform="translate(50.9017, 31.0134)">
<path stroke-width="0.1200" stroke-linejoin="round" stroke-linecap="square" stroke="currentColor" fill="none" d="M-0.5500 0.8760L0.5500 0.8760"/>
</g>
<g transform="translate(51.4928, 20.6539)">
<rect x="-0.0490" y="-2.0000" width="0.0980" height="2.8033" ry="0.0250" fill="currentColor"/>
</g>
<g color="rgb(100.0000%, 100.0000%, 100.0000%)">
<g transform="translate(50.2359, 31.0134)">
<rect x="0.1110" y="-0.6489" width="1.1097" height="1.2978" ry="0.0000" fill="currentColor"/>
</g>
</g>
<g transform="scale(1.0000, 1.0000)">
<g transform="translate(50.3469, 31.6537)">
<text font-family="IPAexGothic" font-weight="bold" font-size="1.7463" text-anchor="start" fill="currentColor">
<tspan>0</tspan>
</text>
</g>
</g>
<g transform="translate(50.2359, 21.6539)">
<path transform="scale(0.0040, -0.0040)" d="M222 135c53 0 104 -27 104 -86c0 -71 -56 -120 -103 -148c-36 -22 -76 -36 -118 -36c-53 0 -105 27 -105 86c0 71 57 120 104 148c36 22 76 36 118 36z" fill="currentColor"/>
</g>
<g transform="translate(68.4098, 31.0134)">
<circle stroke-linejoin="round" stroke-linecap="round" fill="currentColor" stroke="currentColor" stroke-width="0" r="0.4500"/>
</g>
<g transform="translate(67.9598, 20.6539)">
<path transform="scale(0.0040, -0.0040)" d="M-23 -113c0 26 10 40 36 40c34 0 85 -15 130 -37l-137 164c-7 8 -10 17 -10 25c0 33 49 64 86 96c26 22 39 54 39 85c0 24 -8 47 -24 67l-39 46c-2 3 -3 6 -3 9c0 7 7 14 14 14c3 0 7 -1 10 -5l152 -182c7 -8 10 -17 10 -25c0 -33 -49 -64 -86 -96
c-26 -22 -39 -54 -39 -85c0 -24 8 -47 24 -67l87 -104c2 -3 3 -5 3 -8c0 -7 -7 -14 -14 -14c-3 0 -7 1 -10 5c-19 22 -66 43 -102 43c-40 0 -52 -29 -52 -70c0 -35 11 -75 28 -96c6 -7 -4 -16 -10 -9c-46 55 -93 150 -93 204z" fill="currentColor"/>
</g>
<g transform="translate(51.4438, 18.6539)">
<polygon stroke-linejoin="round" stroke-linecap="round" stroke-width="0.0500" fill="currentColor" stroke="currentColor" points="2.9984 -0.2150 2.9984 0.2150 0.0250 0.2150 0.0250 -0.2150"/>
</g>
<g transform="translate(61.1851, 18.4515)">
<polygon stroke-linejoin="round" stroke-linecap="round" stroke-width="0.0500" fill="currentColor" stroke="currentColor" points="2.3756 -0.0127 2.3756 0.4173 0.0250 0.2150 0.0250 -0.2150"/>
</g>
<g transform="translate(61.2341, 20.6539)">
<rect x="-0.0490" y="-2.1982" width="0.0980" height="2.5015" ry="0.0250" fill="currentColor"/>
</g>
<g transform="translate(60.6430, 31.0134)">
<path stroke-width="0.1200" stroke-linejoin="round" stroke-linecap="square" stroke="currentColor" fill="none" d="M-0.5500 0.8703L0.5500 0.8703"/>
</g>
<g color="rgb(100.0000%, 100.0000%, 100.0000%)">
<g transform="translate(59.9772, 31.0134)">
<rect x="0.1110" y="-0.6446" width="1.1097" height="1.2893" ry="0.0000" fill="currentColor"/>
</g>
</g>
<g transform="scale(1.0000, 1.0000)">
<g transform="translate(60.0882, 31.6580)">
<text font-family="IPAexGothic" font-weight="bold" font-size="1.7463" text-anchor="start" fill="currentColor">
<tspan>2</tspan>
</text>
</g>
</g>
<g transform="translate(59.9772, 26.2428)">
<text font-family="IPAexGothic" font-size="2.4695" text-anchor="start" fill="currentColor">
<tspan>り</tspan>
</text>
</g>
<g transform="translate(59.9772, 21.1539)">
<path transform="scale(0.0040, -0.0040)" d="M222 135c53 0 104 -27 104 -86c0 -71 -56 -120 -103 -148c-36 -22 -76 -36 -118 -36c-53 0 -105 27 -105 86c0 71 57 120 104 148c36 22 76 36 118 36z" fill="currentColor"/>
</g>
<g transform="translate(65.7144, 20.6539)">
<rect x="-0.0490" y="-1.5000" width="0.0980" height="3.3033" ry="0.0250" fill="currentColor"/>
</g>
<g color="rgb(100.0000%, 100.0000%, 100.0000%)">
<g transform="translate(64.4576, 32.5134)">
<rect x="-0.2091" y="-0.7474" width="1.7498" height="1.4948" ry="0.0000" fill="currentColor"/>
</g>
</g>
<g transform="scale(1.0000, 1.0000)">
<g transform="translate(64.2485, 33.1772)">
<text font-family="IPAexGothic" font-weight="bold" font-size="1.7463" text-anchor="start" fill="currentColor">
<tspan>♯</tspan>
</text>
</g>
</g>
<g transform="translate(64.4576, 28.7257)">
<text font-family="Libertinus Serif" font-size="1.5557" text-anchor="start" fill="currentColor">
<tspan> Ⅲ</tspan>
</text>
</g>
<g transform="translate(63.8728, 26.2428)">
<text font-family="IPAexGothic" font-size="2.4695" text-anchor="start" fill="currentColor">
<tspan>は</tspan>
</text>
</g>
<g transform="translate(64.4576, 22.6539)">
<path transform="scale(0.0040, -0.0040)" d="M222 135c53 0 104 -27 104 -86c0 -71 -56 -120 -103 -148c-36 -22 -76 -36 -118 -36c-53 0 -105 27 -105 86c0 71 57 120 104 148c36 22 76 36 118 36z" fill="currentColor"/>
</g>
<g transform="translate(42.2509, 17.8562)">
<polygon stroke-linejoin="round" stroke-linecap="round" stroke-width="0.0500" fill="currentColor" stroke="currentColor" points="2.9984 -0.2150 2.9984 0.2150 0.0250 0.2150 0.0250 -0.2150"/>
</g>
<g transform="translate(62.9457, 31.0134)">
<path stroke-width="0.1200" stroke-linejoin="round" stroke-linecap="square" stroke="currentColor" fill="none" d="M-0.5500 0.8760L0.5500 0.8760"/>
</g>
<g transform="translate(63.5367, 20.6539)">
<rect x="-0.0490" y="-2.0041" width="0.0980" height="2.8074" ry="0.0250" fill="currentColor"/>
</g>
<g color="rgb(100.0000%, 100.0000%, 100.0000%)">
<g transform="translate(62.2799, 31.0134)">
<rect x="0.1110" y="-0.6489" width="1.1097" height="1.2978" ry="0.0000" fill="currentColor"/>
</g>
</g>
<g transform="scale(1.0000, 1.0000)">
<g transform="translate(62.3909, 31.6537)">
<text font-family="IPAexGothic" font-weight="bold" font-size="1.7463" text-anchor="start" fill="currentColor">
<tspan>0</tspan>
</text>
</g>
</g>
<g transform="translate(62.2799, 21.6539)">
<path transform="scale(0.0040, -0.0040)" d="M222 135c53 0 104 -27 104 -86c0 -71 -56 -120 -103 -148c-36 -22 -76 -36 -118 -36c-53 0 -105 27 -105 86c0 71 57 120 104 148c36 22 76 36 118 36z" fill="currentColor"/>
</g>
<g transform="translate(24.8314, 20.6539)">
<rect x="-0.0490" y="-3.0000" width="0.0980" height="3.3033" ry="0.0250" fill="currentColor"/>
</g>
<g color="rgb(100.0000%, 100.0000%, 100.0000%)">
<g transform="translate(23.5746, 31.0134)">
<rect x="0.1110" y="-0.6446" width="1.1097" height="1.2893" ry="0.0000" fill="currentColor"/>
</g>
</g>
<g transform="scale(1.0000, 1.0000)">
<g transform="translate(23.6855, 31.6580)">
<text font-family="IPAexGothic" font-weight="bold" font-size="1.7463" text-anchor="start" fill="currentColor">
<tspan>2</tspan>
</text>
</g>
</g>
<g transform="translate(23.5746, 28.7257)">
<text font-family="Libertinus Serif" font-size="1.5557" text-anchor="start" fill="currentColor">
<tspan> Ⅰ</tspan>
</text>
</g>
<g transform="translate(22.9898, 26.2428)">
<text font-family="IPAexGothic" font-size="2.4695" text-anchor="start" fill="currentColor">
<tspan>か</tspan>
</text>
</g>
<g transform="translate(23.5746, 21.1539)">
<path transform="scale(0.0040, -0.0040)" d="M222 135c53 0 104 -27 104 -86c0 -71 -56 -120 -103 -148c-36 -22 -76 -36 -118 -36c-53 0 -105 27 -105 86c0 71 57 120 104 148c36 22 76 36 118 36z" fill="currentColor"/>
</g>
<g transform="translate(19.1278, 20.6539)">
<rect x="-0.0490" y="0.1967" width="0.0980" height="3.1366" ry="0.0250" fill="currentColor"/>
</g>
<g color="rgb(100.0000%, 100.0000%, 100.0000%)">
<g transform="translate(19.0789, 31.0134)">
<rect x="-0.2091" y="-0.7474" width="1.7498" height="1.4948" ry="0.0000" fill="currentColor"/>
</g>
</g>
<g transform="scale(1.0000, 1.0000)">
<g transform="translate(18.8697, 31.6772)">
<text font-family="IPAexGothic" font-weight="bold" font-size="1.7463" text-anchor="start" fill="currentColor">
<tspan>♯</tspan>
</text>
</g>
</g>
<g transform="translate(19.0789, 28.7257)">
<text font-family="Libertinus Serif" font-size="1.5557" text-anchor="start" fill="currentColor">
<tspan> Ⅲ</tspan>
</text>
</g>
<g transform="translate(18.4941, 26.2428)">
<text font-family="IPAexGothic" font-size="2.4695" text-anchor="start" fill="currentColor">
<tspan>め</tspan>
</text>
</g>
<g transform="translate(19.0789, 20.6539)">
<path transform="scale(0.0040, -0.0040)" d="M222 135c53 0 104 -27 104 -86c0 -71 -56 -120 -103 -148c-36 -22 -76 -36 -118 -36c-53 0 -105 27 -105 86c0 71 57 120 104 148c36 22 76 36 118 36z" fill="currentColor"/>
</g>
<g transform="translate(11.3144, 21.1539)">
<path transform="scale(0.0040, -0.0040)" d="M316 67c0 25 -20 42 -42 42c-4 0 -9 -1 -13 -2c-31 -9 -79 -41 -117 -65s-86 -55 -107 -80c-7 -8 -10 -19 -10 -29c0 -25 20 -42 42 -42c4 0 9 1 13 2c31 9 79 41 117 65s86 55 107 80c7 8 10 19 10 29zM265 135c44 0 78 -21 78 -68c0 -19 -5 -39 -11 -57
c-12 -37 -33 -71 -65 -93c-53 -36 -114 -52 -189 -52c-44 0 -78 21 -78 68c0 19 5 39 11 57c12 37 33 71 65 93c53 36 114 52 189 52z" fill="currentColor"/>
</g>
<g transform="translate(12.6374, 20.6539)">
<rect x="-0.0490" y="-3.0000" width="0.0980" height="3.2316" ry="0.0250" fill="currentColor"/>
</g>
<g color="rgb(100.0000%, 100.0000%, 100.0000%)">
<g transform="translate(11.3144, 31.0134)">
<rect x="0.1110" y="-0.6446" width="1.1097" height="1.2893" ry="0.0000" fill="currentColor"/>
</g>
</g>
<g transform="scale(1.0000, 1.0000)">
<g transform="translate(11.4253, 31.6580)">
<text font-family="IPAexGothic" font-weight="bold" font-size="1.7463" text-anchor="start" fill="currentColor">
<tspan>2</tspan>
</text>
</g>
</g>
<g transform="translate(11.3144, 28.7257)">
<text font-family="Libertinus Serif" font-size="1.5557" text-anchor="start" fill="currentColor">
<tspan> Ⅰ</tspan>
</text>
</g>
<g transform="translate(10.7627, 26.2428)">
<text font-family="IPAexGothic" font-size="2.4695" text-anchor="start" fill="currentColor">
<tspan>か</tspan>
</text>
</g>
<g transform="translate(8.5566, 20.6539)">
<path transform="scale(0.0040, -0.0040)" d="M208 319c21 13 42 27 57 47c11 15 18 32 25 49c4 9 20 7 20 -7v-256h68c9 0 13 -7 13 -14s-4 -13 -13 -13h-68v-16c0 -45 26 -88 68 -88c7 0 10 -5 10 -10s-3 -11 -10 -11c-41 0 -82 13 -123 13s-82 -13 -123 -13c-7 0 -10 6 -10 11s3 10 10 10c42 0 68 43 68 88v16h-173
c-21 0 -29 13 -29 21c0 2 1 5 2 6c81 96 146 208 146 333c0 10 7 18 15 15c22 -7 44 -13 67 -13s45 6 67 13c12 4 21 -8 15 -15l-283 -333h173v147c0 8 2 16 8 20z" fill="currentColor"/>
</g>
<g transform="translate(8.5566, 22.6697)">
<path transform="scale(0.0040, -0.0040)" d="M208 319c21 13 42 27 57 47c11 15 18 32 25 49c4 9 20 7 20 -7v-256h68c9 0 13 -7 13 -14s-4 -13 -13 -13h-68v-16c0 -45 26 -88 68 -88c7 0 10 -5 10 -10s-3 -11 -10 -11c-41 0 -82 13 -123 13s-82 -13 -123 -13c-7 0 -10 6 -10 11s3 10 10 10c42 0 68 43 68 88v16h-173
c-21 0 -29 13 -29 21c0 2 1 5 2 6c81 96 146 208 146 333c0 10 7 18 15 15c22 -7 44 -13 67 -13s45 6 67 13c12 4 21 -8 15 -15l-283 -333h173v147c0 8 2 16 8 20z" fill="currentColor"/>
</g>
<g transform="translate(4.9451, 25.1877)">
<text font-family="IPAexGothic" font-style="italic" font-size="1.3862" text-anchor="start" fill="currentColor">
<tspan>8</tspan>
</text>
</g>
<g transform="translate(4.3566, 21.6539)">
<path transform="scale(0.0040, -0.0040)" d="M374 260c5 0 10 1 15 1c154 0 254 -127 254 -259c0 -76 -33 -153 -107 -208c-22 -17 -47 -29 -73 -37c3 -36 5 -72 5 -108c0 -19 0 -37 -1 -56c-7 -120 -88 -226 -206 -226c-108 0 -195 87 -195 195c0 58 53 104 112 104c54 0 95 -48 95 -104c0 -52 -43 -95 -95 -95
c-12 0 -24 4 -35 9c26 -41 70 -70 121 -70c1 0 2 1 3 1c93 2 154 93 160 192c1 18 2 35 2 53c0 32 -2 64 -5 96c-29 -5 -58 -8 -89 -8c-188 0 -333 171 -333 372c0 178 133 306 251 440c-18 63 -35 126 -42 191c-6 51 -7 102 -7 154c0 116 55 226 150 295c5 4 11 4 16 0
c70 -84 132 -246 132 -359c0 -144 -87 -256 -183 -365c20 -69 39 -138 55 -208zM459 -205c69 24 117 96 117 166c0 92 -69 184 -179 193c25 -117 48 -235 62 -359zM71 31c0 -136 131 -251 267 -251c28 0 55 2 82 6c-15 128 -38 247 -64 367c-79 -9 -125 -62 -125 -121
c0 -44 26 -92 82 -124c4 -4 7 -9 7 -14c0 -11 -9 -21 -20 -21c-3 0 -6 1 -9 2c-80 43 -116 114 -116 184c0 88 57 173 158 196c-14 60 -30 119 -46 178c-108 -121 -216 -242 -216 -402zM411 1050c-99 -50 -161 -151 -161 -262c0 -76 15 -137 33 -200c82 97 149 198 149 325
c0 58 -4 84 -21 137z" fill="currentColor"/>
</g>
<g transform="translate(3.5360, 25.5836)">
<rect x="0.0000" y="-6.9674" width="0.1206" height="13.9348" ry="0.0377" fill="currentColor"/>
</g>
<g transform="translate(2.2860, 18.3912)">
<path transform="scale(0.0040, -0.0040)" d="M0 -56v91c0 12 10 21 22 21h43c164 0 281 136 377 272c10 14 32 -1 22 -15c-103 -145 -222 -369 -399 -369h-65z" fill="currentColor"/>
</g>
<g transform="translate(2.2860, 32.7760)">
<path transform="scale(0.0040, -0.0040)" d="M0 56h65c177 0 296 -224 399 -369c10 -14 -12 -29 -22 -15c-96 136 -213 272 -377 272h-43c-12 0 -22 9 -22 21v91z" fill="currentColor"/>
</g>
<g transform="translate(2.2860, 25.5836)">
<rect x="0.0000" y="-7.0124" width="0.4500" height="14.0248" ry="0.0000" fill="currentColor"/>
</g>
<g transform="translate(16.9859, 20.6539)">
<rect x="-0.0490" y="-3.0000" width="0.0980" height="3.3033" ry="0.0250" fill="currentColor"/>
</g>
<g color="rgb(100.0000%, 100.0000%, 100.0000%)">
<g transform="translate(15.7291, 31.0134)">
<rect x="0.1110" y="-0.6446" width="1.1097" height="1.2893" ry="0.0000" fill="currentColor"/>
</g>
</g>
<g transform="scale(1.0000, 1.0000)">
<g transform="translate(15.8401, 31.6580)">
<text font-family="IPAexGothic" font-weight="bold" font-size="1.7463" text-anchor="start" fill="currentColor">
<tspan>2</tspan>
</text>
</g>
</g>
<g transform="translate(15.1443, 26.2428)">
<text font-family="IPAexGothic" font-size="2.4695" text-anchor="start" fill="currentColor">
<tspan>ご</tspan>
</text>
</g>
<g transform="translate(15.7291, 21.1539)">
<path transform="scale(0.0040, -0.0040)" d="M222 135c53 0 104 -27 104 -86c0 -71 -56 -120 -103 -148c-36 -22 -76 -36 -118 -36c-53 0 -105 27 -105 86c0 71 57 120 104 148c36 22 76 36 118 36z" fill="currentColor"/>
</g>
<g transform="translate(11.9802, 31.0134)">
<path stroke-width="0.1200" stroke-linejoin="round" stroke-linecap="square" stroke="currentColor" fill="none" d="M2 -0.6700l1 0"/>
</g>
<g transform="translate(38.9577, 20.6539)">
<rect x="-0.0490" y="-3.0000" width="0.0980" height="3.3033" ry="0.0250" fill="currentColor"/>
</g>
<g color="rgb(100.0000%, 100.0000%, 100.0000%)">
<g transform="translate(37.7009, 31.0134)">
<rect x="0.1110" y="-0.6446" width="1.1097" height="1.2893" ry="0.0000" fill="currentColor"/>
</g>
</g>
<g transform="scale(1.0000, 1.0000)">
<g transform="translate(37.8118, 31.6580)">
<text font-family="IPAexGothic" font-weight="bold" font-size="1.7463" text-anchor="start" fill="currentColor">
<tspan>2</tspan>
</text>
</g>
</g>
<g transform="translate(37.7009, 28.7257)">
<text font-family="Libertinus Serif" font-size="1.5557" text-anchor="start" fill="currentColor">
<tspan> Ⅰ</tspan>
</text>
</g>
<g transform="translate(37.1161, 26.2428)">
<text font-family="IPAexGothic" font-size="2.4695" text-anchor="start" fill="currentColor">
<tspan>か</tspan>
</text>
</g>
<g transform="translate(37.7009, 21.1539)">
<path transform="scale(0.0040, -0.0040)" d="M222 135c53 0 104 -27 104 -86c0 -71 -56 -120 -103 -148c-36 -22 -76 -36 -118 -36c-53 0 -105 27 -105 86c0 71 57 120 104 148c36 22 76 36 118 36z" fill="currentColor"/>
</g>
<g transform="translate(41.0430, 21.1539)">
<path transform="scale(0.0040, -0.0040)" d="M222 135c53 0 104 -27 104 -86c0 -71 -56 -120 -103 -148c-36 -22 -76 -36 -118 -36c-53 0 -105 27 -105 86c0 71 57 120 104 148c36 22 76 36 118 36z" fill="currentColor"/>
</g>
<g transform="translate(40.4582, 26.2428)">
<text font-family="IPAexGothic" font-size="2.4695" text-anchor="start" fill="currentColor">
<tspan>ご</tspan>
</text>
</g>
<g transform="translate(31.5157, 20.6539)">
<rect x="-0.0490" y="-3.0000" width="0.0980" height="3.3033" ry="0.0250" fill="currentColor"/>
</g>
<g color="rgb(100.0000%, 100.0000%, 100.0000%)">
<g transform="translate(30.2589, 31.0134)">
<rect x="0.1110" y="-0.6446" width="1.1097" height="1.2893" ry="0.0000" fill="currentColor"/>
</g>
</g>
<g transform="scale(1.0000, 1.0000)">
<g transform="translate(30.3698, 31.6580)">
<text font-family="IPAexGothic" font-weight="bold" font-size="1.7463" text-anchor="start" fill="currentColor">
<tspan>2</tspan>
</text>
</g>
</g>
<g transform="translate(29.6741, 26.2428)">
<text font-family="IPAexGothic" font-size="2.4695" text-anchor="start" fill="currentColor">
<tspan>め</tspan>
</text>
</g>
<g transform="translate(30.2589, 21.1539)">
<path transform="scale(0.0040, -0.0040)" d="M222 135c53 0 104 -27 104 -86c0 -71 -56 -120 -103 -148c-36 -22 -76 -36 -118 -36c-53 0 -105 27 -105 86c0 71 57 120 104 148c36 22 76 36 118 36z" fill="currentColor"/>
</g>
<g transform="translate(41.7088, 31.0134)">
<path stroke-width="0.1200" stroke-linejoin="round" stroke-linecap="square" stroke="currentColor" fill="none" d="M-0.5500 0.8703L0.5500 0.8703"/>
</g>
<g transform="translate(28.1735, 20.6539)">
<rect x="-0.0490" y="-3.0000" width="0.0980" height="3.3033" ry="0.0250" fill="currentColor"/>
</g>
<g color="rgb(100.0000%, 100.0000%, 100.0000%)">
<g transform="translate(26.9167, 31.0134)">
<rect x="0.1110" y="-0.6446" width="1.1097" height="1.2893" ry="0.0000" fill="currentColor"/>
</g>
</g>
<g transform="scale(1.0000, 1.0000)">
<g transform="translate(27.0277, 31.6580)">
<text font-family="IPAexGothic" font-weight="bold" font-size="1.7463" text-anchor="start" fill="currentColor">
<tspan>2</tspan>
</text>
</g>
</g>
<g transform="translate(26.3319, 26.2428)">
<text font-family="IPAexGothic" font-size="2.4695" text-anchor="start" fill="currentColor">
<tspan>ご</tspan>
</text>
</g>
<g transform="translate(26.9167, 21.1539)">
<path transform="scale(0.0040, -0.0040)" d="M222 135c53 0 104 -27 104 -86c0 -71 -56 -120 -103 -148c-36 -22 -76 -36 -118 -36c-53 0 -105 27 -105 86c0 71 57 120 104 148c36 22 76 36 118 36z" fill="currentColor"/>
</g>
<g transform="translate(34.0510, 31.0134)">
<circle stroke-linejoin="round" stroke-linecap="round" fill="currentColor" stroke="currentColor" stroke-width="0" r="0.4500"/>
</g>
<g transform="translate(33.6010, 20.6539)">
<path transform="scale(0.0040, -0.0040)" d="M-23 -113c0 26 10 40 36 40c34 0 85 -15 130 -37l-137 164c-7 8 -10 17 -10 25c0 33 49 64 86 96c26 22 39 54 39 85c0 24 -8 47 -24 67l-39 46c-2 3 -3 6 -3 9c0 7 7 14 14 14c3 0 7 -1 10 -5l152 -182c7 -8 10 -17 10 -25c0 -33 -49 -64 -86 -96
c-26 -22 -39 -54 -39 -85c0 -24 8 -47 24 -67l87 -104c2 -3 3 -5 3 -8c0 -7 -7 -14 -14 -14c-3 0 -7 1 -10 5c-19 22 -66 43 -102 43c-40 0 -52 -29 -52 -70c0 -35 11 -75 28 -96c6 -7 -4 -16 -10 -9c-46 55 -93 150 -93 204z" fill="currentColor"/>
</g>
<g color="rgb(100.0000%, 100.0000%, 100.0000%)">
<g transform="translate(41.0430, 31.0134)">
<rect x="0.1110" y="-0.6446" width="1.1097" height="1.2893" ry="0.0000" fill="currentColor"/>
</g>
</g>
<g transform="scale(1.0000, 1.0000)">
<g transform="translate(41.1540, 31.6580)">
<text font-family="IPAexGothic" font-weight="bold" font-size="1.7463" text-anchor="start" fill="currentColor">
<tspan>2</tspan>
</text>
</g>
</g>
<g transform="translate(42.2998, 20.6539)">
<rect x="-0.0490" y="-2.7977" width="0.0980" height="3.1009" ry="0.0250" fill="currentColor"/>
</g>
<g transform="translate(3.5566, 45.0134)">
<line stroke-linejoin="round" stroke-linecap="round" stroke-width="0.0754" stroke="currentColor" x1="0.0377" y1="0" x2="67.5376" y2="0"/>
</g>
<g transform="translate(3.5566, 44.0134)">
<line stroke-linejoin="round" stroke-linecap="round" stroke-width="0.0754" stroke="currentColor" x1="0.0377" y1="0" x2="67.5376" y2="0"/>
</g>
<g transform="translate(3.5566, 43.0134)">
<line stroke-linejoin="round" stroke-linecap="round" stroke-width="0.0754" stroke="currentColor" x1="0.0377" y1="0" x2="67.5376" y2="0"/>
</g>
<g transform="translate(3.5566, 42.0134)">
<line stroke-linejoin="round" stroke-linecap="round" stroke-width="0.0754" stroke="currentColor" x1="0.0377" y1="0" x2="67.5376" y2="0"/>
</g>
<g transform="translate(3.5566, 41.0134)">
<line stroke-linejoin="round" stroke-linecap="round" stroke-width="0.0754" stroke="currentColor" x1="0.0377" y1="0" x2="67.5376" y2="0"/>
</g>
<g transform="translate(55.3545, 43.0134)">
<rect x="0.0000" y="-2.0000" width="0.1432" height="4.0377" ry="0.0000" fill="currentColor"/>
</g>
<g transform="translate(22.3844, 43.0134)">
<rect x="0.0000" y="-2.0000" width="0.1432" height="4.0377" ry="0.0000" fill="currentColor"/>
</g>
<g transform="translate(55.3545, 53.1499)">
<rect x="0.0000" y="-1.5377" width="0.1432" height="3.0377" ry="0.0000" fill="currentColor"/>
</g>
<g transform="translate(55.3545, 39.2334)">
<rect x="0.0000" y="5.8177" width="0.1432" height="6.5988" ry="0.0000" fill="currentColor"/>
</g>
<g transform="translate(22.3844, 53.1499)">
<rect x="0.0000" y="-1.5377" width="0.1432" height="3.0377" ry="0.0000" fill="currentColor"/>
</g>
<g transform="translate(22.3844, 39.2334)">
<rect x="0.0000" y="5.8177" width="0.1432" height="6.5988" ry="0.0000" fill="currentColor"/>
</g>
<g transform="translate(70.9887, 43.0134)">
<rect x="0.0000" y="-2.0000" width="0.1432" height="4.0377" ry="0.0000" fill="currentColor"/>
</g>
<g transform="translate(70.9887, 53.1499)">
<rect x="0.0000" y="-1.5377" width="0.1432" height="3.0377" ry="0.0000" fill="currentColor"/>
</g>
<g transform="translate(39.3169, 39.2334)">
<rect x="0.0000" y="5.8177" width="0.1432" height="6.5988" ry="0.0000" fill="currentColor"/>
</g>
<g transform="translate(70.9887, 39.2334)">
<rect x="0.0000" y="5.8177" width="0.1432" height="6.5988" ry="0.0000" fill="currentColor"/>
</g>
<g transform="translate(39.3169, 53.1499)">
<rect x="0.0000" y="-1.5377" width="0.1432" height="3.0377" ry="0.0000" fill="currentColor"/>
</g>
<g transform="translate(39.3169, 43.0134)">
<rect x="0.0000" y="-2.0000" width="0.1432" height="4.0377" ry="0.0000" fill="currentColor"/>
</g>
<g transform="translate(3.5566, 54.6499)">
<line stroke-linejoin="round" stroke-linecap="round" stroke-width="0.0754" stroke="currentColor" x1="0.0377" y1="0" x2="67.5376" y2="0"/>
</g>
<g transform="translate(3.5566, 53.1499)">
<line stroke-linejoin="round" stroke-linecap="round" stroke-width="0.0754" stroke="currentColor" x1="0.0377" y1="0" x2="67.5376" y2="0"/>
</g>
<g transform="translate(3.5566, 51.6499)">
<line stroke-linejoin="round" stroke-linecap="round" stroke-width="0.0754" stroke="currentColor" x1="0.0377" y1="0" x2="67.5376" y2="0"/>
</g>
<g transform="translate(51.6043, 43.0134)">
<rect x="-0.0490" y="0.1967" width="0.0980" height="3.1366" ry="0.0250" fill="currentColor"/>
</g>
<g color="rgb(100.0000%, 100.0000%, 100.0000%)">
<g transform="translate(51.5553, 53.1499)">
<rect x="-0.2091" y="-0.7474" width="1.7498" height="1.4948" ry="0.0000" fill="currentColor"/>
</g>
</g>
<g transform="scale(1.0000, 1.0000)">
<g transform="translate(51.3462, 53.8137)">
<text font-family="IPAexGothic" font-weight="bold" font-size="1.7463" text-anchor="start" fill="currentColor">
<tspan>♯</tspan>
</text>
</g>
</g>
<g transform="translate(51.5553, 50.8622)">
<text font-family="Libertinus Serif" font-size="1.5557" text-anchor="start" fill="currentColor">
<tspan> Ⅲ</tspan>
</text>
</g>
<g transform="translate(50.9705, 48.3648)">
<text font-family="IPAexGothic" font-size="2.4695" text-anchor="start" fill="currentColor">
<tspan>の</tspan>
</text>
</g>
<g transform="translate(51.5553, 43.0134)">
<path transform="scale(0.0040, -0.0040)" d="M222 135c53 0 104 -27 104 -86c0 -71 -56 -120 -103 -148c-36 -22 -76 -36 -118 -36c-53 0 -105 27 -105 86c0 71 57 120 104 148c36 22 76 36 118 36z" fill="currentColor"/>
</g>
<g transform="translate(49.0879, 43.0134)">
<rect x="-0.0490" y="-3.0000" width="0.0980" height="3.3033" ry="0.0250" fill="currentColor"/>
</g>
<g color="rgb(100.0000%, 100.0000%, 100.0000%)">
<g transform="translate(47.8311, 53.1499)">
<rect x="0.1110" y="-0.6446" width="1.1097" height="1.2893" ry="0.0000" fill="currentColor"/>
</g>
</g>
<g transform="scale(1.0000, 1.0000)">
<g transform="translate(47.9420, 53.7945)">
<text font-family="IPAexGothic" font-weight="bold" font-size="1.7463" text-anchor="start" fill="currentColor">
<tspan>2</tspan>
</text>
</g>
</g>
<g transform="translate(47.2463, 48.3648)">
<text font-family="IPAexGothic" font-size="2.4695" text-anchor="start" fill="currentColor">
<tspan>け</tspan>
</text>
</g>
<g transform="translate(55.8507, 48.3648)">
<text font-family="IPAexGothic" font-size="2.4695" text-anchor="start" fill="currentColor">
<tspan>ば</tspan>
</text>
</g>
<g transform="translate(57.6923, 43.0134)">
<rect x="-0.0490" y="-3.0000" width="0.0980" height="3.3033" ry="0.0250" fill="currentColor"/>
</g>
<g color="rgb(100.0000%, 100.0000%, 100.0000%)">
<g transform="translate(56.4355, 53.1499)">
<rect x="0.1110" y="-0.6446" width="1.1097" height="1.2893" ry="0.0000" fill="currentColor"/>
</g>
</g>
<g transform="scale(1.0000, 1.0000)">
<g transform="translate(56.5464, 53.7945)">
<text font-family="IPAexGothic" font-weight="bold" font-size="1.7463" text-anchor="start" fill="currentColor">
<tspan>2</tspan>
</text>
</g>
</g>
<g transform="translate(56.4355, 50.8622)">
<text font-family="Libertinus Serif" font-size="1.5557" text-anchor="start" fill="currentColor">
<tspan> Ⅰ</tspan>
</text>
</g>
<g transform="translate(56.4355, 43.5134)">
<path transform="scale(0.0040, -0.0040)" d="M222 135c53 0 104 -27 104 -86c0 -71 -56 -120 -103 -148c-36 -22 -76 -36 -118 -36c-53 0 -105 27 -105 86c0 71 57 120 104 148c36 22 76 36 118 36z" fill="currentColor"/>
</g>
<g transform="translate(47.8311, 43.5134)">
<path transform="scale(0.0040, -0.0040)" d="M222 135c53 0 104 -27 104 -86c0 -71 -56 -120 -103 -148c-36 -22 -76 -36 -118 -36c-53 0 -105 27 -105 86c0 71 57 120 104 148c36 22 76 36 118 36z" fill="currentColor"/>
</g>
<g transform="translate(40.3979, 43.5134)">
<path transform="scale(0.0040, -0.0040)" d="M222 135c53 0 104 -27 104 -86c0 -71 -56 -120 -103 -148c-36 -22 -76 -36 -118 -36c-53 0 -105 27 -105 86c0 71 57 120 104 148c36 22 76 36 118 36z" fill="currentColor"/>
</g>
<g transform="translate(40.3979, 50.8622)">
<text font-family="Libertinus Serif" font-size="1.5557" text-anchor="start" fill="currentColor">
<tspan> Ⅰ</tspan>
</text>
</g>
<g color="rgb(100.0000%, 100.0000%, 100.0000%)">
<g transform="translate(40.3979, 53.1499)">
<rect x="0.1110" y="-0.6446" width="1.1097" height="1.2893" ry="0.0000" fill="currentColor"/>
</g>
</g>
<g transform="scale(1.0000, 1.0000)">
<g transform="translate(40.5088, 53.7945)">
<text font-family="IPAexGothic" font-weight="bold" font-size="1.7463" text-anchor="start" fill="currentColor">
<tspan>2</tspan>
</text>
</g>
</g>
<g transform="translate(41.6547, 43.0134)">
<rect x="-0.0490" y="-3.0000" width="0.0980" height="3.3033" ry="0.0250" fill="currentColor"/>
</g>
<g color="rgb(100.0000%, 100.0000%, 100.0000%)">
<g transform="translate(44.1145, 53.1499)">
<rect x="0.1110" y="-0.6446" width="1.1097" height="1.2893" ry="0.0000" fill="currentColor"/>
</g>
</g>
<g transform="scale(1.0000, 1.0000)">
<g transform="translate(44.2254, 53.7945)">
<text font-family="IPAexGothic" font-weight="bold" font-size="1.7463" text-anchor="start" fill="currentColor">
<tspan>2</tspan>
</text>
</g>
</g>
<g transform="translate(45.3713, 43.0134)">
<rect x="-0.0490" y="-3.0000" width="0.0980" height="3.3033" ry="0.0250" fill="currentColor"/>
</g>
<g transform="translate(43.5297, 48.3648)">
<text font-family="IPAexGothic" font-size="2.4695" text-anchor="start" fill="currentColor">
<tspan>あ</tspan>
</text>
</g>
<g transform="translate(44.1145, 43.5134)">
<path transform="scale(0.0040, -0.0040)" d="M222 135c53 0 104 -27 104 -86c0 -71 -56 -120 -103 -148c-36 -22 -76 -36 -118 -36c-53 0 -105 27 -105 86c0 71 57 120 104 148c36 22 76 36 118 36z" fill="currentColor"/>
</g>
<g transform="translate(39.8131, 48.3648)">
<text font-family="IPAexGothic" font-size="2.4695" text-anchor="start" fill="currentColor">
<tspan>よ</tspan>
</text>
</g>
<g transform="translate(68.0353, 53.1499)">
<circle stroke-linejoin="round" stroke-linecap="round" fill="currentColor" stroke="currentColor" stroke-width="0" r="0.4500"/>
</g>
<g transform="translate(67.5853, 43.0134)">
<path transform="scale(0.0040, -0.0040)" d="M-23 -113c0 26 10 40 36 40c34 0 85 -15 130 -37l-137 164c-7 8 -10 17 -10 25c0 33 49 64 86 96c26 22 39 54 39 85c0 24 -8 47 -24 67l-39 46c-2 3 -3 6 -3 9c0 7 7 14 14 14c3 0 7 -1 10 -5l152 -182c7 -8 10 -17 10 -25c0 -33 -49 -64 -86 -96
c-26 -22 -39 -54 -39 -85c0 -24 8 -47 24 -67l87 -104c2 -3 3 -5 3 -8c0 -7 -7 -14 -14 -14c-3 0 -7 1 -10 5c-19 22 -66 43 -102 43c-40 0 -52 -29 -52 -70c0 -35 11 -75 28 -96c6 -7 -4 -16 -10 -9c-46 55 -93 150 -93 204z" fill="currentColor"/>
</g>
<g transform="translate(28.3899, 40.8110)">
<polygon stroke-linejoin="round" stroke-linecap="round" stroke-width="0.0500" fill="currentColor" stroke="currentColor" points="2.5629 -0.0127 2.5629 0.4173 0.0250 0.2150 0.0250 -0.2150"/>
</g>
<g transform="translate(60.1521, 43.5134)">
<path transform="scale(0.0040, -0.0040)" d="M222 135c53 0 104 -27 104 -86c0 -71 -56 -120 -103 -148c-36 -22 -76 -36 -118 -36c-53 0 -105 27 -105 86c0 71 57 120 104 148c36 22 76 36 118 36z" fill="currentColor"/>
</g>
<g transform="translate(59.5673, 48.3648)">
<text font-family="IPAexGothic" font-size="2.4695" text-anchor="start" fill="currentColor">
<tspan>ん</tspan>
</text>
</g>
<g transform="translate(65.1255, 43.0134)">
<rect x="-0.0490" y="-3.0000" width="0.0980" height="3.3033" ry="0.0250" fill="currentColor"/>
</g>
<g color="rgb(100.0000%, 100.0000%, 100.0000%)">
<g transform="translate(63.8687, 53.1499)">
<rect x="0.1110" y="-0.6446" width="1.1097" height="1.2893" ry="0.0000" fill="currentColor"/>
</g>
</g>
<g transform="scale(1.0000, 1.0000)">
<g transform="translate(63.9797, 53.7945)">
<text font-family="IPAexGothic" font-weight="bold" font-size="1.7463" text-anchor="start" fill="currentColor">
<tspan>2</tspan>
</text>
</g>
</g>
<g transform="translate(63.2839, 48.3648)">
<text font-family="IPAexGothic" font-size="2.4695" text-anchor="start" fill="currentColor">
<tspan>に</tspan>
</text>
</g>
<g transform="translate(63.8687, 43.5134)">
<path transform="scale(0.0040, -0.0040)" d="M222 135c53 0 104 -27 104 -86c0 -71 -56 -120 -103 -148c-36 -22 -76 -36 -118 -36c-53 0 -105 27 -105 86c0 71 57 120 104 148c36 22 76 36 118 36z" fill="currentColor"/>
</g>
<g transform="translate(61.4089, 43.0134)">
<rect x="-0.0490" y="-3.0000" width="0.0980" height="3.3033" ry="0.0250" fill="currentColor"/>
</g>
<g color="rgb(100.0000%, 100.0000%, 100.0000%)">
<g transform="translate(60.1521, 53.1499)">
<rect x="0.1110" y="-0.6446" width="1.1097" height="1.2893" ry="0.0000" fill="currentColor"/>
</g>
</g>
<g transform="scale(1.0000, 1.0000)">
<g transform="translate(60.2631, 53.7945)">
<text font-family="IPAexGothic" font-weight="bold" font-size="1.7463" text-anchor="start" fill="currentColor">
<tspan>2</tspan>
</text>
</g>
</g>
<g transform="translate(16.1228, 43.0134)">
<rect x="-0.0490" y="-3.0000" width="0.0980" height="3.3033" ry="0.0250" fill="currentColor"/>
</g>
<g color="rgb(100.0000%, 100.0000%, 100.0000%)">
<g transform="translate(14.8660, 53.1499)">
<rect x="0.1110" y="-0.6446" width="1.1097" height="1.2893" ry="0.0000" fill="currentColor"/>
</g>
</g>
<g transform="scale(1.0000, 1.0000)">
<g transform="translate(14.9769, 53.7945)">
<text font-family="IPAexGothic" font-weight="bold" font-size="1.7463" text-anchor="start" fill="currentColor">
<tspan>2</tspan>
</text>
</g>
</g>
<g transform="translate(14.2812, 48.3648)">
<text font-family="IPAexGothic" font-size="2.4695" text-anchor="start" fill="currentColor">
<tspan>い</tspan>
</text>
</g>
<g transform="translate(14.8660, 43.5134)">
<path transform="scale(0.0040, -0.0040)" d="M222 135c53 0 104 -27 104 -86c0 -71 -56 -120 -103 -148c-36 -22 -76 -36 -118 -36c-53 0 -105 27 -105 86c0 71 57 120 104 148c36 22 76 36 118 36z" fill="currentColor"/>
</g>
<g transform="translate(12.4062, 43.0134)">
<rect x="-0.0490" y="-2.5000" width="0.0980" height="3.3033" ry="0.0250" fill="currentColor"/>
</g>
<g color="rgb(100.0000%, 100.0000%, 100.0000%)">
<g transform="translate(11.1493, 53.1499)">
<rect x="0.1110" y="-0.6489" width="1.1097" height="1.2978" ry="0.0000" fill="currentColor"/>
</g>
</g>
<g transform="scale(1.0000, 1.0000)">
<g transform="translate(11.2603, 53.7902)">
<text font-family="IPAexGothic" font-weight="bold" font-size="1.7463" text-anchor="start" fill="currentColor">
<tspan>0</tspan>
</text>
</g>
</g>
<g transform="translate(10.5646, 48.3648)">
<text font-family="IPAexGothic" font-size="2.4695" text-anchor="start" fill="currentColor">
<tspan>つ</tspan>
</text>
</g>
<g transform="translate(11.1493, 44.0134)">
<path transform="scale(0.0040, -0.0040)" d="M222 135c53 0 104 -27 104 -86c0 -71 -56 -120 -103 -148c-36 -22 -76 -36 -118 -36c-53 0 -105 27 -105 86c0 71 57 120 104 148c36 22 76 36 118 36z" fill="currentColor"/>
</g>
<g transform="translate(24.7222, 43.0134)">
<rect x="-0.0490" y="-3.0000" width="0.0980" height="3.3033" ry="0.0250" fill="currentColor"/>
</g>
<g color="rgb(100.0000%, 100.0000%, 100.0000%)">
<g transform="translate(23.4654, 53.1499)">
<rect x="0.1110" y="-0.6446" width="1.1097" height="1.2893" ry="0.0000" fill="currentColor"/>
</g>
</g>
<g transform="scale(1.0000, 1.0000)">
<g transform="translate(23.5764, 53.7945)">
<text font-family="IPAexGothic" font-weight="bold" font-size="1.7463" text-anchor="start" fill="currentColor">
<tspan>2</tspan>
</text>
</g>
</g>
<g transform="translate(23.4654, 50.8622)">
<text font-family="Libertinus Serif" font-size="1.5557" text-anchor="start" fill="currentColor">
<tspan> Ⅰ</tspan>
</text>
</g>
<g transform="translate(22.8806, 48.3648)">
<text font-family="IPAexGothic" font-size="2.4695" text-anchor="start" fill="currentColor">
<tspan>で</tspan>
</text>
</g>
<g transform="translate(19.8394, 43.0134)">
<rect x="-0.0490" y="-2.5000" width="0.0980" height="3.3033" ry="0.0250" fill="currentColor"/>
</g>
<g color="rgb(100.0000%, 100.0000%, 100.0000%)">
<g transform="translate(18.5826, 53.1499)">
<rect x="0.1110" y="-0.6489" width="1.1097" height="1.2978" ry="0.0000" fill="currentColor"/>
</g>
</g>
<g transform="scale(1.0000, 1.0000)">
<g transform="translate(18.6935, 53.7902)">
<text font-family="IPAexGothic" font-weight="bold" font-size="1.7463" text-anchor="start" fill="currentColor">
<tspan>0</tspan>
</text>
</g>
</g>
<g transform="translate(17.9978, 48.3648)">
<text font-family="IPAexGothic" font-size="2.4695" text-anchor="start" fill="currentColor">
<tspan>つ</tspan>
</text>
</g>
<g transform="translate(18.5826, 44.0134)">
<path transform="scale(0.0040, -0.0040)" d="M222 135c53 0 104 -27 104 -86c0 -71 -56 -120 -103 -148c-36 -22 -76 -36 -118 -36c-53 0 -105 27 -105 86c0 71 57 120 104 148c36 22 76 36 118 36z" fill="currentColor"/>
</g>
<g transform="translate(4.9451, 47.5472)">
<text font-family="IPAexGothic" font-style="italic" font-size="1.3862" text-anchor="start" fill="currentColor">
<tspan>8</tspan>
</text>
</g>
<g transform="translate(4.3566, 44.0134)">
<path transform="scale(0.0040, -0.0040)" d="M374 260c5 0 10 1 15 1c154 0 254 -127 254 -259c0 -76 -33 -153 -107 -208c-22 -17 -47 -29 -73 -37c3 -36 5 -72 5 -108c0 -19 0 -37 -1 -56c-7 -120 -88 -226 -206 -226c-108 0 -195 87 -195 195c0 58 53 104 112 104c54 0 95 -48 95 -104c0 -52 -43 -95 -95 -95
c-12 0 -24 4 -35 9c26 -41 70 -70 121 -70c1 0 2 1 3 1c93 2 154 93 160 192c1 18 2 35 2 53c0 32 -2 64 -5 96c-29 -5 -58 -8 -89 -8c-188 0 -333 171 -333 372c0 178 133 306 251 440c-18 63 -35 126 -42 191c-6 51 -7 102 -7 154c0 116 55 226 150 295c5 4 11 4 16 0
c70 -84 132 -246 132 -359c0 -144 -87 -256 -183 -365c20 -69 39 -138 55 -208zM459 -205c69 24 117 96 117 166c0 92 -69 184 -179 193c25 -117 48 -235 62 -359zM71 31c0 -136 131 -251 267 -251c28 0 55 2 82 6c-15 128 -38 247 -64 367c-79 -9 -125 -62 -125 -121
c0 -44 26 -92 82 -124c4 -4 7 -9 7 -14c0 -11 -9 -21 -20 -21c-3 0 -6 1 -9 2c-80 43 -116 114 -116 184c0 88 57 173 158 196c-14 60 -30 119 -46 178c-108 -121 -216 -242 -216 -402zM411 1050c-99 -50 -161 -151 -161 -262c0 -76 15 -137 33 -200c82 97 149 198 149 325
c0 58 -4 84 -21 137z" fill="currentColor"/>
</g>
<g transform="translate(3.5360, 47.8316)">
<rect x="0.0000" y="-6.8559" width="0.1206" height="13.7119" ry="0.0377" fill="currentColor"/>
</g>
<g transform="translate(2.2860, 40.7507)">
<path transform="scale(0.0040, -0.0040)" d="M0 -56v91c0 12 10 21 22 21h43c164 0 281 136 377 272c10 14 32 -1 22 -15c-103 -145 -222 -369 -399 -369h-65z" fill="currentColor"/>
</g>
<g transform="translate(2.2860, 54.9125)">
<path transform="scale(0.0040, -0.0040)" d="M0 56h65c177 0 296 -224 399 -369c10 -14 -12 -29 -22 -15c-96 136 -213 272 -377 272h-43c-12 0 -22 9 -22 21v91z" fill="currentColor"/>
</g>
<g transform="translate(2.2860, 47.8316)">
<rect x="0.0000" y="-6.9009" width="0.4500" height="13.8019" ry="0.0000" fill="currentColor"/>
</g>
<g transform="translate(6.8479, 48.3648)">
<text font-family="IPAexGothic" font-size="2.4695" text-anchor="start" fill="currentColor">
<tspan>い</tspan>
</text>
</g>
<g transform="translate(8.6896, 43.0134)">
<rect x="-0.0490" y="-3.0000" width="0.0980" height="3.3033" ry="0.0250" fill="currentColor"/>
</g>
<g color="rgb(100.0000%, 100.0000%, 100.0000%)">
<g transform="translate(7.4327, 53.1499)">
<rect x="0.1110" y="-0.6446" width="1.1097" height="1.2893" ry="0.0000" fill="currentColor"/>
</g>
</g>
<g transform="scale(1.0000, 1.0000)">
<g transform="translate(7.5437, 53.7945)">
<text font-family="IPAexGothic" font-weight="bold" font-size="1.7463" text-anchor="start" fill="currentColor">
<tspan>2</tspan>
</text>
</g>
</g>
<g transform="translate(7.4327, 50.8622)">
<text font-family="Libertinus Serif" font-size="1.5557" text-anchor="start" fill="currentColor">
<tspan> Ⅰ</tspan>
</text>
</g>
<g transform="translate(23.4654, 43.5134)">
<path transform="scale(0.0040, -0.0040)" d="M222 135c53 0 104 -27 104 -86c0 -71 -56 -120 -103 -148c-36 -22 -76 -36 -118 -36c-53 0 -105 27 -105 86c0 71 57 120 104 148c36 22 76 36 118 36z" fill="currentColor"/>
</g>
<g transform="translate(7.4327, 43.5134)">
<path transform="scale(0.0040, -0.0040)" d="M222 135c53 0 104 -27 104 -86c0 -71 -56 -120 -103 -148c-36 -22 -76 -36 -118 -36c-53 0 -105 27 -105 86c0 71 57 120 104 148c36 22 76 36 118 36z" fill="currentColor"/>
</g>
<g transform="translate(32.0368, 45.0134)">
<path transform="scale(0.0040, -0.0040)" d="M222 135c53 0 104 -27 104 -86c0 -71 -56 -120 -103 -148c-36 -22 -76 -36 -118 -36c-53 0 -105 27 -105 86c0 71 57 120 104 148c36 22 76 36 118 36z" fill="currentColor"/>
</g>
<g transform="translate(30.3377, 53.1499)">
<path stroke-width="0.1200" stroke-linejoin="round" stroke-linecap="square" stroke="currentColor" fill="none" d="M-0.5500 0.8760L0.5500 0.8760"/>
</g>
<g transform="translate(31.4521, 48.3648)">
<text font-family="IPAexGothic" font-size="2.4695" text-anchor="start" fill="currentColor">
<tspan>る</tspan>
</text>
</g>
<g transform="translate(30.9288, 43.0134)">
<rect x="-0.0490" y="-2.0038" width="0.0980" height="2.8071" ry="0.0250" fill="currentColor"/>
</g>
<g color="rgb(100.0000%, 100.0000%, 100.0000%)">
<g transform="translate(29.6719, 53.1499)">
<rect x="0.1110" y="-0.6489" width="1.1097" height="1.2978" ry="0.0000" fill="currentColor"/>
</g>
</g>
<g transform="scale(1.0000, 1.0000)">
<g transform="translate(29.7829, 53.7902)">
<text font-family="IPAexGothic" font-weight="bold" font-size="1.7463" text-anchor="start" fill="currentColor">
<tspan>0</tspan>
</text>
</g>
</g>
<g transform="translate(30.3342, 55.3999)">
<path stroke-width="0.1200" stroke-linejoin="miter" stroke-linecap="square" stroke="currentColor" fill="none" d="M-0.4120 -0.4220L0.2280 -0.4270L0.2680 -0.3860C0.1100 0.0460 -0.1310 0.2760 -0.4870 0.4570M0.4940 0.4340C0.3790 0.3130 0.2470 0.1870 0.0440 0.0360"/>
</g>
<g transform="translate(29.6719, 44.0134)">
<path transform="scale(0.0040, -0.0040)" d="M222 135c53 0 104 -27 104 -86c0 -71 -56 -120 -103 -148c-36 -22 -76 -36 -118 -36c-53 0 -105 27 -105 86c0 71 57 120 104 148c36 22 76 36 118 36z" fill="currentColor"/>
</g>
<g transform="translate(27.8478, 53.1499)">
<path stroke-width="0.1200" stroke-linejoin="round" stroke-linecap="square" stroke="currentColor" fill="none" d="M-0.5500 0.8703L0.5500 0.8703"/>
</g>
<g transform="translate(36.3635, 53.1499)">
<circle stroke-linejoin="round" stroke-linecap="round" fill="currentColor" stroke="currentColor" stroke-width="0" r="0.4500"/>
</g>
<g transform="translate(35.9135, 43.0134)">
<path transform="scale(0.0040, -0.0040)" d="M-23 -113c0 26 10 40 36 40c34 0 85 -15 130 -37l-137 164c-7 8 -10 17 -10 25c0 33 49 64 86 96c26 22 39 54 39 85c0 24 -8 47 -24 67l-39 46c-2 3 -3 6 -3 9c0 7 7 14 14 14c3 0 7 -1 10 -5l152 -182c7 -8 10 -17 10 -25c0 -33 -49 -64 -86 -96
c-26 -22 -39 -54 -39 -85c0 -24 8 -47 24 -67l87 -104c2 -3 3 -5 3 -8c0 -7 -7 -14 -14 -14c-3 0 -7 1 -10 5c-19 22 -66 43 -102 43c-40 0 -52 -29 -52 -70c0 -35 11 -75 28 -96c6 -7 -4 -16 -10 -9c-46 55 -93 150 -93 204z" fill="currentColor"/>
</g>
<g transform="translate(33.2937, 43.0134)">
<rect x="-0.0490" y="-1.5000" width="0.0980" height="3.3033" ry="0.0250" fill="currentColor"/>
</g>
<g color="rgb(100.0000%, 100.0000%, 100.0000%)">
<g transform="translate(32.0368, 54.6499)">
<rect x="-0.2091" y="-0.7474" width="1.7498" height="1.4948" ry="0.0000" fill="currentColor"/>
</g>
</g>
<g transform="scale(1.0000, 1.0000)">
<g transform="translate(31.8277, 55.3137)">
<text font-family="IPAexGothic" font-weight="bold" font-size="1.7463" text-anchor="start" fill="currentColor">
<tspan>♯</tspan>
</text>
</g>
</g>
<g transform="translate(32.0368, 50.8622)">
<text font-family="Libertinus Serif" font-size="1.5557" text-anchor="start" fill="currentColor">
<tspan> Ⅲ</tspan>
</text>
</g>
<g transform="translate(27.1820, 43.5134)">
<path transform="scale(0.0040, -0.0040)" d="M222 135c53 0 104 -27 104 -86c0 -71 -56 -120 -103 -148c-36 -22 -76 -36 -118 -36c-53 0 -105 27 -105 86c0 71 57 120 104 148c36 22 76 36 118 36z" fill="currentColor"/>
</g>
<g transform="translate(27.1820, 48.3648)">
<text font-family="IPAexGothic" font-size="2.4695" text-anchor="start" fill="currentColor">
<tspan>や</tspan>
</text>
</g>
<g color="rgb(100.0000%, 100.0000%, 100.0000%)">
<g transform="translate(27.1820, 53.1499)">
<rect x="0.1110" y="-0.6446" width="1.1097" height="1.2893" ry="0.0000" fill="currentColor"/>
</g>
</g>
<g transform="scale(1.0000, 1.0000)">
<g transform="translate(27.2930, 53.7945)">
<text font-family="IPAexGothic" font-weight="bold" font-size="1.7463" text-anchor="start" fill="currentColor">
<tspan>2</tspan>
</text>
</g>
</g>
<g transform="translate(28.4388, 43.0134)">
<rect x="-0.0490" y="-2.1985" width="0.0980" height="2.5018" ry="0.0250" fill="currentColor"/>
</g>
<g transform="translate(3.5566, 67.1499)">
<line stroke-linejoin="round" stroke-linecap="round" stroke-width="0.0754" stroke="currentColor" x1="0.0377" y1="0" x2="67.5376" y2="0"/>
</g>
<g transform="translate(3.5566, 66.1499)">
<line stroke-linejoin="round" stroke-linecap="round" stroke-width="0.0754" stroke="currentColor" x1="0.0377" y1="0" x2="67.5376" y2="0"/>
</g>
<g transform="translate(3.5566, 65.1499)">
<line stroke-linejoin="round" stroke-linecap="round" stroke-width="0.0754" stroke="currentColor" x1="0.0377" y1="0" x2="67.5376" y2="0"/>
</g>
<g transform="translate(3.5566, 64.1499)">
<line stroke-linejoin="round" stroke-linecap="round" stroke-width="0.0754" stroke="currentColor" x1="0.0377" y1="0" x2="67.5376" y2="0"/>
</g>
<g transform="translate(3.5566, 63.1499)">
<line stroke-linejoin="round" stroke-linecap="round" stroke-width="0.0754" stroke="currentColor" x1="0.0377" y1="0" x2="67.5376" y2="0"/>
</g>
<g transform="translate(35.8348, 65.1499)">
<rect x="0.0000" y="-2.0000" width="0.1432" height="4.0377" ry="0.0000" fill="currentColor"/>
</g>
<g transform="translate(35.8348, 75.2097)">
<rect x="0.0000" y="-1.5377" width="0.1432" height="3.0377" ry="0.0000" fill="currentColor"/>
</g>
<g transform="translate(35.8348, 61.3699)">
<rect x="0.0000" y="5.8177" width="0.1432" height="6.5221" ry="0.0000" fill="currentColor"/>
</g>
<g transform="translate(24.1392, 61.3699)">
<rect x="0.0000" y="5.8177" width="0.1432" height="6.5221" ry="0.0000" fill="currentColor"/>
</g>
<g transform="translate(24.1392, 75.2097)">
<rect x="0.0000" y="-1.5377" width="0.1432" height="3.0377" ry="0.0000" fill="currentColor"/>
</g>
<g transform="translate(24.1392, 65.1499)">
<rect x="0.0000" y="-2.0000" width="0.1432" height="4.0377" ry="0.0000" fill="currentColor"/>
</g>
<g transform="translate(61.0494, 65.1499)">
<rect x="0.0000" y="-2.0000" width="0.1432" height="4.0377" ry="0.0000" fill="currentColor"/>
</g>
<g transform="translate(61.0494, 75.2097)">
<rect x="0.0000" y="-1.5377" width="0.1432" height="3.0377" ry="0.0000" fill="currentColor"/>
</g>
<g transform="translate(61.0494, 61.3699)">
<rect x="0.0000" y="5.8177" width="0.1432" height="6.5221" ry="0.0000" fill="currentColor"/>
</g>
<g transform="translate(70.6797, 65.1499)">
<rect x="0.0000" y="-2.0000" width="0.4521" height="4.0377" ry="0.0000" fill="currentColor"/>
</g>
<g transform="translate(70.3105, 65.1499)">
<rect x="0.0000" y="-2.0000" width="0.1432" height="4.0377" ry="0.0000" fill="currentColor"/>
</g>
<g transform="translate(70.6797, 75.2097)">
<rect x="0.0000" y="-1.5377" width="0.4521" height="3.0377" ry="0.0000" fill="currentColor"/>
</g>
<g transform="translate(70.3105, 75.2097)">
<rect x="0.0000" y="-1.5377" width="0.1432" height="3.0377" ry="0.0000" fill="currentColor"/>
</g>
<g transform="translate(70.6797, 61.3699)">
<rect x="0.0000" y="5.8177" width="0.4521" height="6.5221" ry="0.0000" fill="currentColor"/>
</g>
<g transform="translate(70.3105, 61.3699)">
<rect x="0.0000" y="5.8177" width="0.1432" height="6.5221" ry="0.0000" fill="currentColor"/>
</g>
<g transform="translate(3.5566, 76.7097)">
<line stroke-linejoin="round" stroke-linecap="round" stroke-width="0.0754" stroke="currentColor" x1="0.0377" y1="0" x2="67.5376" y2="0"/>
</g>
<g transform="translate(3.5566, 75.2097)">
<line stroke-linejoin="round" stroke-linecap="round" stroke-width="0.0754" stroke="currentColor" x1="0.0377" y1="0" x2="67.5376" y2="0"/>
</g>
<g transform="translate(3.5566, 73.7097)">
<line stroke-linejoin="round" stroke-linecap="round" stroke-width="0.0754" stroke="currentColor" x1="0.0377" y1="0" x2="67.5376" y2="0"/>
</g>
<g color="rgb(100.0000%, 100.0000%, 100.0000%)">
<g transform="translate(51.0827, 75.2097)">
<rect x="0.1110" y="-0.6446" width="1.1097" height="1.2893" ry="0.0000" fill="currentColor"/>
</g>
</g>
<g transform="scale(1.0000, 1.0000)">
<g transform="translate(51.1936, 75.8543)">
<text font-family="IPAexGothic" font-weight="bold" font-size="1.7463" text-anchor="start" fill="currentColor">
<tspan>2</tspan>
</text>
</g>
</g>
<g transform="translate(48.0225, 70.3567)">
<text font-family="IPAexGothic" font-size="2.4695" text-anchor="start" fill="currentColor">
<tspan>しょう</tspan>
</text>
</g>
<g transform="translate(51.0827, 65.6499)">
<path transform="scale(0.0040, -0.0040)" d="M222 135c53 0 104 -27 104 -86c0 -71 -56 -120 -103 -148c-36 -22 -76 -36 -118 -36c-53 0 -105 27 -105 86c0 71 57 120 104 148c36 22 76 36 118 36z" fill="currentColor"/>
</g>
<g transform="translate(46.3477, 75.2097)">
<path stroke-width="0.1200" stroke-linejoin="round" stroke-linecap="square" stroke="currentColor" fill="none" d="M-0.5500 0.8703L0.5500 0.8703"/>
</g>
<g transform="translate(52.3395, 65.1499)">
<rect x="-0.0490" y="-3.0000" width="0.0980" height="3.3033" ry="0.0250" fill="currentColor"/>
</g>
<g transform="translate(46.9387, 65.1499)">
<rect x="-0.0490" y="-2.7977" width="0.0980" height="3.1009" ry="0.0250" fill="currentColor"/>
</g>
<g color="rgb(100.0000%, 100.0000%, 100.0000%)">
<g transform="translate(45.6819, 75.2097)">
<rect x="0.1110" y="-0.6446" width="1.1097" height="1.2893" ry="0.0000" fill="currentColor"/>
</g>
</g>
<g transform="scale(1.0000, 1.0000)">
<g transform="translate(45.7928, 75.8543)">
<text font-family="IPAexGothic" font-weight="bold" font-size="1.7463" text-anchor="start" fill="currentColor">
<tspan>2</tspan>
</text>
</g>
</g>
<g transform="translate(46.3442, 77.4597)">
<path stroke-width="0.1200" stroke-linejoin="miter" stroke-linecap="square" stroke="currentColor" fill="none" d="M-0.4120 -0.4220L0.2280 -0.4270L0.2680 -0.3860C0.1100 0.0460 -0.1310 0.2760 -0.4870 0.4570M0.4940 0.4340C0.3790 0.3130 0.2470 0.1870 0.0440 0.0360"/>
</g>
<g transform="translate(45.0971, 70.3567)">
<text font-family="IPAexGothic" font-size="2.4695" text-anchor="start" fill="currentColor">
<tspan>の</tspan>
</text>
</g>
<g transform="translate(45.6819, 65.6499)">
<path transform="scale(0.0040, -0.0040)" d="M222 135c53 0 104 -27 104 -86c0 -71 -56 -120 -103 -148c-36 -22 -76 -36 -118 -36c-53 0 -105 27 -105 86c0 71 57 120 104 148c36 22 76 36 118 36z" fill="currentColor"/>
</g>
<g transform="translate(57.7211, 72.9220)">
<text font-family="Libertinus Serif" font-size="1.5557" text-anchor="start" fill="currentColor">
<tspan> Ⅲ</tspan>
</text>
</g>
<g transform="translate(61.9310, 65.6499)">
<path transform="scale(0.0040, -0.0040)" d="M222 135c53 0 104 -27 104 -86c0 -71 -56 -120 -103 -148c-36 -22 -76 -36 -118 -36c-53 0 -105 27 -105 86c0 71 57 120 104 148c36 22 76 36 118 36z" fill="currentColor"/>
</g>
<g transform="translate(57.7701, 65.1499)">
<rect x="-0.0490" y="0.1967" width="0.0980" height="3.1366" ry="0.0250" fill="currentColor"/>
</g>
<g color="rgb(100.0000%, 100.0000%, 100.0000%)">
<g transform="translate(57.7211, 75.2097)">
<rect x="-0.2091" y="-0.7474" width="1.7498" height="1.4948" ry="0.0000" fill="currentColor"/>
</g>
</g>
<g transform="scale(1.0000, 1.0000)">
<g transform="translate(57.5120, 75.8735)">
<text font-family="IPAexGothic" font-weight="bold" font-size="1.7463" text-anchor="start" fill="currentColor">
<tspan>♯</tspan>
</text>
</g>
</g>
<g transform="translate(55.8986, 70.3567)">
<text font-family="IPAexGothic" font-size="2.4695" text-anchor="start" fill="currentColor">
<tspan>めん</tspan>
</text>
</g>
<g transform="translate(57.7211, 65.1499)">
<path transform="scale(0.0040, -0.0040)" d="M222 135c53 0 104 -27 104 -86c0 -71 -56 -120 -103 -148c-36 -22 -76 -36 -118 -36c-53 0 -105 27 -105 86c0 71 57 120 104 148c36 22 76 36 118 36z" fill="currentColor"/>
</g>
<g transform="translate(39.8311, 65.6499)">
<path transform="scale(0.0040, -0.0040)" d="M222 135c53 0 104 -27 104 -86c0 -71 -56 -120 -103 -148c-36 -22 -76 -36 -118 -36c-53 0 -105 27 -105 86c0 71 57 120 104 148c36 22 76 36 118 36z" fill="currentColor"/>
</g>
<g transform="translate(39.2463, 70.3567)">
<text font-family="IPAexGothic" font-size="2.4695" text-anchor="start" fill="currentColor">
<tspan>し</tspan>
</text>
</g>
<g transform="translate(37.5715, 75.2097)">
<path stroke-width="0.1200" stroke-linejoin="round" stroke-linecap="square" stroke="currentColor" fill="none" d="M-0.5500 0.8703L0.5500 0.8703"/>
</g>
<g transform="translate(43.4223, 75.2097)">
<path stroke-width="0.1200" stroke-linejoin="round" stroke-linecap="square" stroke="currentColor" fill="none" d="M-0.5500 0.8703L0.5500 0.8703"/>
</g>
<g transform="translate(44.0133, 65.1499)">
<rect x="-0.0490" y="-2.7977" width="0.0980" height="3.1009" ry="0.0250" fill="currentColor"/>
</g>
<g color="rgb(100.0000%, 100.0000%, 100.0000%)">
<g transform="translate(42.7565, 75.2097)">
<rect x="0.1110" y="-0.6446" width="1.1097" height="1.2893" ry="0.0000" fill="currentColor"/>
</g>
</g>
<g transform="scale(1.0000, 1.0000)">
<g transform="translate(42.8675, 75.8543)">
<text font-family="IPAexGothic" font-weight="bold" font-size="1.7463" text-anchor="start" fill="currentColor">
<tspan>2</tspan>
</text>
</g>
</g>
<g transform="translate(42.1717, 70.3567)">
<text font-family="IPAexGothic" font-size="2.4695" text-anchor="start" fill="currentColor">
<tspan>ろ</tspan>
</text>
</g>
<g transform="translate(42.7565, 65.6499)">
<path transform="scale(0.0040, -0.0040)" d="M222 135c53 0 104 -27 104 -86c0 -71 -56 -120 -103 -148c-36 -22 -76 -36 -118 -36c-53 0 -105 27 -105 86c0 71 57 120 104 148c36 22 76 36 118 36z" fill="currentColor"/>
</g>
<g transform="translate(61.9310, 70.3567)">
<text font-family="IPAexGothic" font-size="2.4695" text-anchor="start" fill="currentColor">
<tspan>だ</tspan>
</text>
</g>
<g transform="translate(40.4969, 75.2097)">
<path stroke-width="0.1200" stroke-linejoin="round" stroke-linecap="square" stroke="currentColor" fill="none" d="M-0.5500 0.8703L0.5500 0.8703"/>
</g>
<g transform="translate(41.0879, 65.1499)">
<rect x="-0.0490" y="-2.7977" width="0.0980" height="3.1009" ry="0.0250" fill="currentColor"/>
</g>
<g color="rgb(100.0000%, 100.0000%, 100.0000%)">
<g transform="translate(39.8311, 75.2097)">
<rect x="0.1110" y="-0.6446" width="1.1097" height="1.2893" ry="0.0000" fill="currentColor"/>
</g>
</g>
<g transform="scale(1.0000, 1.0000)">
<g transform="translate(39.9421, 75.8543)">
<text font-family="IPAexGothic" font-weight="bold" font-size="1.7463" text-anchor="start" fill="currentColor">
<tspan>2</tspan>
</text>
</g>
</g>
<g transform="translate(40.4934, 77.4597)">
<path stroke-width="0.1200" stroke-linejoin="miter" stroke-linecap="square" stroke="currentColor" fill="none" d="M-0.4120 -0.4220L0.2280 -0.4270L0.2680 -0.3860C0.1100 0.0460 -0.1310 0.2760 -0.4870 0.4570M0.4940 0.4340C0.3790 0.3130 0.2470 0.1870 0.0440 0.0360"/>
</g>
<g transform="translate(69.2290, 75.2097)">
<circle stroke-linejoin="round" stroke-linecap="round" fill="currentColor" stroke="currentColor" stroke-width="0" r="0.4500"/>
</g>
<g transform="translate(68.7790, 65.1499)">
<path transform="scale(0.0040, -0.0040)" d="M-23 -113c0 26 10 40 36 40c34 0 85 -15 130 -37l-137 164c-7 8 -10 17 -10 25c0 33 49 64 86 96c26 22 39 54 39 85c0 24 -8 47 -24 67l-39 46c-2 3 -3 6 -3 9c0 7 7 14 14 14c3 0 7 -1 10 -5l152 -182c7 -8 10 -17 10 -25c0 -33 -49 -64 -86 -96
c-26 -22 -39 -54 -39 -85c0 -24 8 -47 24 -67l87 -104c2 -3 3 -5 3 -8c0 -7 -7 -14 -14 -14c-3 0 -7 1 -10 5c-19 22 -66 43 -102 43c-40 0 -52 -29 -52 -70c0 -35 11 -75 28 -96c6 -7 -4 -16 -10 -9c-46 55 -93 150 -93 204z" fill="currentColor"/>
</g>
<g transform="translate(68.1912, 65.1499)">
<rect x="-0.0490" y="-3.0000" width="0.0980" height="3.3033" ry="0.0250" fill="currentColor"/>
</g>
<g color="rgb(100.0000%, 100.0000%, 100.0000%)">
<g transform="translate(66.9344, 75.2097)">
<rect x="0.1110" y="-0.6446" width="1.1097" height="1.2893" ry="0.0000" fill="currentColor"/>
</g>
</g>
<g transform="scale(1.0000, 1.0000)">
<g transform="translate(67.0453, 75.8543)">
<text font-family="IPAexGothic" font-weight="bold" font-size="1.7463" text-anchor="start" fill="currentColor">
<tspan>2</tspan>
</text>
</g>
</g>
<g transform="translate(38.1136, 62.3522)">
<polygon stroke-linejoin="round" stroke-linecap="round" stroke-width="0.0500" fill="currentColor" stroke="currentColor" points="8.8491 -0.2150 8.8491 0.2150 0.0250 0.2150 0.0250 -0.2150"/>
</g>
<g transform="translate(66.3496, 70.3567)">
<text font-family="IPAexGothic" font-size="2.4695" text-anchor="start" fill="currentColor">
<tspan>れ</tspan>
</text>
</g>
<g transform="translate(20.3310, 63.1499)">
<polygon stroke-linejoin="round" stroke-linecap="round" stroke-width="0.0500" fill="currentColor" stroke="currentColor" points="2.9984 -0.2150 2.9984 0.2150 0.0250 0.2150 0.0250 -0.2150"/>
</g>
<g transform="translate(63.6084, 74.4597)">
<path transform="scale(0.0040, -0.0040)" d="M0 0c0 32 25 57 57 57s57 -25 57 -57s-25 -57 -57 -57s-57 25 -57 57z" fill="currentColor"/>
</g>
<g transform="translate(11.5548, 63.1499)">
<polygon stroke-linejoin="round" stroke-linecap="round" stroke-width="0.0500" fill="currentColor" stroke="currentColor" points="2.9984 -0.2150 2.9984 0.2150 0.0250 0.2150 0.0250 -0.2150"/>
</g>
<g transform="translate(63.1878, 65.1499)">
<rect x="-0.0490" y="-3.0000" width="0.0980" height="3.3033" ry="0.0250" fill="currentColor"/>
</g>
<g transform="translate(63.6935, 65.6499)">
<path transform="scale(0.0040, -0.0040)" d="M0 0c0 32 25 57 57 57s57 -25 57 -57s-25 -57 -57 -57s-57 25 -57 57z" fill="currentColor"/>
</g>
<g color="rgb(100.0000%, 100.0000%, 100.0000%)">
<g transform="translate(61.9310, 75.2097)">
<rect x="0.1110" y="-0.6446" width="1.1097" height="1.2893" ry="0.0000" fill="currentColor"/>
</g>
</g>
<g transform="scale(1.0000, 1.0000)">
<g transform="translate(62.0419, 75.8543)">
<text font-family="IPAexGothic" font-weight="bold" font-size="1.7463" text-anchor="start" fill="currentColor">
<tspan>2</tspan>
</text>
</g>
</g>
<g transform="translate(61.9310, 72.9220)">
<text font-family="Libertinus Serif" font-size="1.5557" text-anchor="start" fill="currentColor">
<tspan> Ⅰ</tspan>
</text>
</g>
<g transform="translate(65.8071, 65.1499)">
<rect x="-0.0490" y="-2.5000" width="0.0980" height="3.3033" ry="0.0250" fill="currentColor"/>
</g>
<g transform="translate(66.9344, 65.6499)">
<path transform="scale(0.0040, -0.0040)" d="M222 135c53 0 104 -27 104 -86c0 -71 -56 -120 -103 -148c-36 -22 -76 -36 -118 -36c-53 0 -105 27 -105 86c0 71 57 120 104 148c36 22 76 36 118 36z" fill="currentColor"/>
</g>
<g transform="translate(65.2161, 75.2097)">
<path stroke-width="0.1200" stroke-linejoin="round" stroke-linecap="square" stroke="currentColor" fill="none" d="M-0.5500 0.8760L0.5500 0.8760"/>
</g>
<g transform="translate(65.8561, 62.6749)">
<path transform="scale(0.0040, -0.0040)" d="M0 0v-250h-14v250h14zM0 0c0 -198 207 -336 207 -534c0 -71 -16 -142 -42 -208c-4 -7 -10 -11 -17 -11c-12 0 -24 10 -21 25c26 62 41 127 41 194c0 104 -96 209 -168 284v250z" fill="currentColor"/>
</g>
<g color="rgb(100.0000%, 100.0000%, 100.0000%)">
<g transform="translate(64.5503, 75.2097)">
<rect x="0.1110" y="-0.6489" width="1.1097" height="1.2978" ry="0.0000" fill="currentColor"/>
</g>
</g>
<g transform="scale(1.0000, 1.0000)">
<g transform="translate(64.6613, 75.8500)">
<text font-family="IPAexGothic" font-weight="bold" font-size="1.7463" text-anchor="start" fill="currentColor">
<tspan>0</tspan>
</text>
</g>
</g>
<g transform="translate(64.5503, 66.1499)">
<path transform="scale(0.0040, -0.0040)" d="M222 135c53 0 104 -27 104 -86c0 -71 -56 -120 -103 -148c-36 -22 -76 -36 -118 -36c-53 0 -105 27 -105 86c0 71 57 120 104 148c36 22 76 36 118 36z" fill="currentColor"/>
</g>
<g transform="translate(17.4546, 65.1499)">
<rect x="-0.0490" y="-3.0000" width="0.0980" height="3.3033" ry="0.0250" fill="currentColor"/>
</g>
<g color="rgb(100.0000%, 100.0000%, 100.0000%)">
<g transform="translate(16.1978, 75.2097)">
<rect x="0.1110" y="-0.6446" width="1.1097" height="1.2893" ry="0.0000" fill="currentColor"/>
</g>
</g>
<g transform="scale(1.0000, 1.0000)">
<g transform="translate(16.3087, 75.8543)">
<text font-family="IPAexGothic" font-weight="bold" font-size="1.7463" text-anchor="start" fill="currentColor">
<tspan>2</tspan>
</text>
</g>
</g>
<g transform="translate(15.6130, 70.3567)">
<text font-family="IPAexGothic" font-size="2.4695" text-anchor="start" fill="currentColor">
<tspan>か</tspan>
</text>
</g>
<g transform="translate(16.1978, 65.6499)">
<path transform="scale(0.0040, -0.0040)" d="M222 135c53 0 104 -27 104 -86c0 -71 -56 -120 -103 -148c-36 -22 -76 -36 -118 -36c-53 0 -105 27 -105 86c0 71 57 120 104 148c36 22 76 36 118 36z" fill="currentColor"/>
</g>
<g transform="translate(13.9382, 75.2097)">
<path stroke-width="0.1200" stroke-linejoin="round" stroke-linecap="square" stroke="currentColor" fill="none" d="M-0.5500 0.8760L0.5500 0.8760"/>
</g>
<g transform="translate(14.5292, 65.1499)">
<rect x="-0.0490" y="-2.0000" width="0.0980" height="2.8033" ry="0.0250" fill="currentColor"/>
</g>
<g color="rgb(100.0000%, 100.0000%, 100.0000%)">
<g transform="translate(13.2724, 75.2097)">
<rect x="0.1110" y="-0.6489" width="1.1097" height="1.2978" ry="0.0000" fill="currentColor"/>
</g>
</g>
<g transform="scale(1.0000, 1.0000)">
<g transform="translate(13.3834, 75.8500)">
<text font-family="IPAexGothic" font-weight="bold" font-size="1.7463" text-anchor="start" fill="currentColor">
<tspan>0</tspan>
</text>
</g>
</g>
<g transform="translate(13.9347, 77.4597)">
<path stroke-width="0.1200" stroke-linejoin="miter" stroke-linecap="square" stroke="currentColor" fill="none" d="M-0.4120 -0.4220L0.2280 -0.4270L0.2680 -0.3860C0.1100 0.0460 -0.1310 0.2760 -0.4870 0.4570M0.4940 0.4340C0.3790 0.3130 0.2470 0.1870 0.0440 0.0360"/>
</g>
<g transform="translate(12.6876, 70.3567)">
<text font-family="IPAexGothic" font-size="2.4695" text-anchor="start" fill="currentColor">
<tspan>と</tspan>
</text>
</g>
<g transform="translate(13.2724, 66.1499)">
<path transform="scale(0.0040, -0.0040)" d="M222 135c53 0 104 -27 104 -86c0 -71 -56 -120 -103 -148c-36 -22 -76 -36 -118 -36c-53 0 -105 27 -105 86c0 71 57 120 104 148c36 22 76 36 118 36z" fill="currentColor"/>
</g>
<g transform="translate(11.0128, 75.2097)">
<path stroke-width="0.1200" stroke-linejoin="round" stroke-linecap="square" stroke="currentColor" fill="none" d="M-0.5500 0.8760L0.5500 0.8760"/>
</g>
<g transform="translate(22.7109, 77.4597)">
<path stroke-width="0.1200" stroke-linejoin="miter" stroke-linecap="square" stroke="currentColor" fill="none" d="M-0.4120 -0.4220L0.2280 -0.4270L0.2680 -0.3860C0.1100 0.0460 -0.1310 0.2760 -0.4870 0.4570M0.4940 0.4340C0.3790 0.3130 0.2470 0.1870 0.0440 0.0360"/>
</g>
<g transform="translate(21.4638, 70.3567)">
<text font-family="IPAexGothic" font-size="2.4695" text-anchor="start" fill="currentColor">
<tspan>と</tspan>
</text>
</g>
<g transform="translate(22.0486, 66.1499)">
<path transform="scale(0.0040, -0.0040)" d="M222 135c53 0 104 -27 104 -86c0 -71 -56 -120 -103 -148c-36 -22 -76 -36 -118 -36c-53 0 -105 27 -105 86c0 71 57 120 104 148c36 22 76 36 118 36z" fill="currentColor"/>
</g>
<g transform="translate(19.7890, 75.2097)">
<path stroke-width="0.1200" stroke-linejoin="round" stroke-linecap="square" stroke="currentColor" fill="none" d="M-0.5500 0.8760L0.5500 0.8760"/>
</g>
<g transform="translate(20.3800, 65.1499)">
<rect x="-0.0490" y="-2.0000" width="0.0980" height="2.8033" ry="0.0250" fill="currentColor"/>
</g>
<g color="rgb(100.0000%, 100.0000%, 100.0000%)">
<g transform="translate(19.1232, 75.2097)">
<rect x="0.1110" y="-0.6489" width="1.1097" height="1.2978" ry="0.0000" fill="currentColor"/>
</g>
</g>
<g transform="scale(1.0000, 1.0000)">
<g transform="translate(19.2341, 75.8500)">
<text font-family="IPAexGothic" font-weight="bold" font-size="1.7463" text-anchor="start" fill="currentColor">
<tspan>0</tspan>
</text>
</g>
</g>
<g transform="translate(18.5384, 70.3567)">
<text font-family="IPAexGothic" font-size="2.4695" text-anchor="start" fill="currentColor">
<tspan>め</tspan>
</text>
</g>
<g transform="translate(19.1232, 66.1499)">
<path transform="scale(0.0040, -0.0040)" d="M222 135c53 0 104 -27 104 -86c0 -71 -56 -120 -103 -148c-36 -22 -76 -36 -118 -36c-53 0 -105 27 -105 86c0 71 57 120 104 148c36 22 76 36 118 36z" fill="currentColor"/>
</g>
<g transform="translate(4.9451, 69.6837)">
<text font-family="IPAexGothic" font-style="italic" font-size="1.3862" text-anchor="start" fill="currentColor">
<tspan>8</tspan>
</text>
</g>
<g transform="translate(4.3566, 66.1499)">
<path transform="scale(0.0040, -0.0040)" d="M374 260c5 0 10 1 15 1c154 0 254 -127 254 -259c0 -76 -33 -153 -107 -208c-22 -17 -47 -29 -73 -37c3 -36 5 -72 5 -108c0 -19 0 -37 -1 -56c-7 -120 -88 -226 -206 -226c-108 0 -195 87 -195 195c0 58 53 104 112 104c54 0 95 -48 95 -104c0 -52 -43 -95 -95 -95
c-12 0 -24 4 -35 9c26 -41 70 -70 121 -70c1 0 2 1 3 1c93 2 154 93 160 192c1 18 2 35 2 53c0 32 -2 64 -5 96c-29 -5 -58 -8 -89 -8c-188 0 -333 171 -333 372c0 178 133 306 251 440c-18 63 -35 126 -42 191c-6 51 -7 102 -7 154c0 116 55 226 150 295c5 4 11 4 16 0
c70 -84 132 -246 132 -359c0 -144 -87 -256 -183 -365c20 -69 39 -138 55 -208zM459 -205c69 24 117 96 117 166c0 92 -69 184 -179 193c25 -117 48 -235 62 -359zM71 31c0 -136 131 -251 267 -251c28 0 55 2 82 6c-15 128 -38 247 -64 367c-79 -9 -125 -62 -125 -121
c0 -44 26 -92 82 -124c4 -4 7 -9 7 -14c0 -11 -9 -21 -20 -21c-3 0 -6 1 -9 2c-80 43 -116 114 -116 184c0 88 57 173 158 196c-14 60 -30 119 -46 178c-108 -121 -216 -242 -216 -402zM411 1050c-99 -50 -161 -151 -161 -262c0 -76 15 -137 33 -200c82 97 149 198 149 325
c0 58 -4 84 -21 137z" fill="currentColor"/>
</g>
<g transform="translate(3.5360, 69.9298)">
<rect x="0.0000" y="-6.8176" width="0.1206" height="13.6352" ry="0.0377" fill="currentColor"/>
</g>
<g transform="translate(2.2860, 62.8872)">
<path transform="scale(0.0040, -0.0040)" d="M0 -56v91c0 12 10 21 22 21h43c164 0 281 136 377 272c10 14 32 -1 22 -15c-103 -145 -222 -369 -399 -369h-65z" fill="currentColor"/>
</g>
<g transform="translate(2.2860, 76.9723)">
<path transform="scale(0.0040, -0.0040)" d="M0 56h65c177 0 296 -224 399 -369c10 -14 -12 -29 -22 -15c-96 136 -213 272 -377 272h-43c-12 0 -22 9 -22 21v91z" fill="currentColor"/>
</g>
<g transform="translate(2.2860, 69.9298)">
<rect x="0.0000" y="-6.8626" width="0.4500" height="13.7252" ry="0.0000" fill="currentColor"/>
</g>
<g transform="translate(11.6038, 65.1499)">
<rect x="-0.0490" y="-2.0000" width="0.0980" height="2.8033" ry="0.0250" fill="currentColor"/>
</g>
<g color="rgb(100.0000%, 100.0000%, 100.0000%)">
<g transform="translate(10.3470, 75.2097)">
<rect x="0.1110" y="-0.6489" width="1.1097" height="1.2978" ry="0.0000" fill="currentColor"/>
</g>
</g>
<g transform="scale(1.0000, 1.0000)">
<g transform="translate(10.4580, 75.8500)">
<text font-family="IPAexGothic" font-weight="bold" font-size="1.7463" text-anchor="start" fill="currentColor">
<tspan>0</tspan>
</text>
</g>
</g>
<g transform="translate(9.7622, 70.3567)">
<text font-family="IPAexGothic" font-size="2.4695" text-anchor="start" fill="currentColor">
<tspan>る</tspan>
</text>
</g>
<g transform="translate(10.3470, 66.1499)">
<path transform="scale(0.0040, -0.0040)" d="M222 135c53 0 104 -27 104 -86c0 -71 -56 -120 -103 -148c-36 -22 -76 -36 -118 -36c-53 0 -105 27 -105 86c0 71 57 120 104 148c36 22 76 36 118 36z" fill="currentColor"/>
</g>
<g transform="translate(8.6784, 65.1499)">
<rect x="-0.0490" y="-3.0000" width="0.0980" height="3.3033" ry="0.0250" fill="currentColor"/>
</g>
<g color="rgb(100.0000%, 100.0000%, 100.0000%)">
<g transform="translate(7.4216, 75.2097)">
<rect x="0.1110" y="-0.6446" width="1.1097" height="1.2893" ry="0.0000" fill="currentColor"/>
</g>
</g>
<g transform="scale(1.0000, 1.0000)">
<g transform="translate(7.5326, 75.8543)">
<text font-family="IPAexGothic" font-weight="bold" font-size="1.7463" text-anchor="start" fill="currentColor">
<tspan>2</tspan>
</text>
</g>
</g>
<g transform="translate(7.4216, 72.9220)">
<text font-family="Libertinus Serif" font-size="1.5557" text-anchor="start" fill="currentColor">
<tspan> Ⅰ</tspan>
</text>
</g>
<g transform="translate(6.8368, 70.3567)">
<text font-family="IPAexGothic" font-size="2.4695" text-anchor="start" fill="currentColor">
<tspan>つ</tspan>
</text>
</g>
<g transform="translate(7.4216, 65.6499)">
<path transform="scale(0.0040, -0.0040)" d="M222 135c53 0 104 -27 104 -86c0 -71 -56 -120 -103 -148c-36 -22 -76 -36 -118 -36c-53 0 -105 27 -105 86c0 71 57 120 104 148c36 22 76 36 118 36z" fill="currentColor"/>
</g>
<g transform="translate(33.5554, 65.1499)">
<rect x="-0.0490" y="-1.5000" width="0.0980" height="3.3033" ry="0.0250" fill="currentColor"/>
</g>
<g color="rgb(100.0000%, 100.0000%, 100.0000%)">
<g transform="translate(32.2986, 76.7097)">
<rect x="-0.2091" y="-0.7474" width="1.7498" height="1.4948" ry="0.0000" fill="currentColor"/>
</g>
</g>
<g transform="scale(1.0000, 1.0000)">
<g transform="translate(32.0895, 77.3735)">
<text font-family="IPAexGothic" font-weight="bold" font-size="1.7463" text-anchor="start" fill="currentColor">
<tspan>♯</tspan>
</text>
</g>
</g>
<g transform="translate(32.2986, 72.9220)">
<text font-family="Libertinus Serif" font-size="1.5557" text-anchor="start" fill="currentColor">
<tspan> Ⅲ</tspan>
</text>
</g>
<g transform="translate(30.4761, 70.3567)">
<text font-family="IPAexGothic" font-size="2.4695" text-anchor="start" fill="currentColor">
<tspan>った</tspan>
</text>
</g>
<g transform="translate(32.2986, 67.1499)">
<path transform="scale(0.0040, -0.0040)" d="M222 135c53 0 104 -27 104 -86c0 -71 -56 -120 -103 -148c-36 -22 -76 -36 -118 -36c-53 0 -105 27 -105 86c0 71 57 120 104 148c36 22 76 36 118 36z" fill="currentColor"/>
</g>
<g transform="translate(29.3923, 65.1499)">
<rect x="-0.0490" y="-3.0000" width="0.0980" height="3.3033" ry="0.0250" fill="currentColor"/>
</g>
<g color="rgb(100.0000%, 100.0000%, 100.0000%)">
<g transform="translate(28.1355, 75.2097)">
<rect x="0.1110" y="-0.6446" width="1.1097" height="1.2893" ry="0.0000" fill="currentColor"/>
</g>
</g>
<g transform="scale(1.0000, 1.0000)">
<g transform="translate(28.2465, 75.8543)">
<text font-family="IPAexGothic" font-weight="bold" font-size="1.7463" text-anchor="start" fill="currentColor">
<tspan>2</tspan>
</text>
</g>
</g>
<g color="rgb(100.0000%, 100.0000%, 100.0000%)">
<g transform="translate(22.0486, 75.2097)">
<rect x="0.1110" y="-0.6489" width="1.1097" height="1.2978" ry="0.0000" fill="currentColor"/>
</g>
</g>
<g transform="scale(1.0000, 1.0000)">
<g transform="translate(22.1595, 75.8500)">
<text font-family="IPAexGothic" font-weight="bold" font-size="1.7463" text-anchor="start" fill="currentColor">
<tspan>0</tspan>
</text>
</g>
</g>
<g transform="translate(28.1355, 65.6499)">
<path transform="scale(0.0040, -0.0040)" d="M222 135c53 0 104 -27 104 -86c0 -71 -56 -120 -103 -148c-36 -22 -76 -36 -118 -36c-53 0 -105 27 -105 86c0 71 57 120 104 148c36 22 76 36 118 36z" fill="currentColor"/>
</g>
<g transform="translate(38.1625, 65.1499)">
<rect x="-0.0490" y="-2.7977" width="0.0980" height="3.1009" ry="0.0250" fill="currentColor"/>
</g>
<g color="rgb(100.0000%, 100.0000%, 100.0000%)">
<g transform="translate(36.9057, 75.2097)">
<rect x="0.1110" y="-0.6446" width="1.1097" height="1.2893" ry="0.0000" fill="currentColor"/>
</g>
</g>
<g transform="scale(1.0000, 1.0000)">
<g transform="translate(37.0167, 75.8543)">
<text font-family="IPAexGothic" font-weight="bold" font-size="1.7463" text-anchor="start" fill="currentColor">
<tspan>2</tspan>
</text>
</g>
</g>
<g transform="translate(36.9057, 72.9220)">
<text font-family="Libertinus Serif" font-size="1.5557" text-anchor="start" fill="currentColor">
<tspan> Ⅰ</tspan>
</text>
</g>
<g transform="translate(36.3209, 70.3567)">
<text font-family="IPAexGothic" font-size="2.4695" text-anchor="start" fill="currentColor">
<tspan>う</tspan>
</text>
</g>
<g transform="translate(36.9057, 65.6499)">
<path transform="scale(0.0040, -0.0040)" d="M222 135c53 0 104 -27 104 -86c0 -71 -56 -120 -103 -148c-36 -22 -76 -36 -118 -36c-53 0 -105 27 -105 86c0 71 57 120 104 148c36 22 76 36 118 36z" fill="currentColor"/>
</g>
<g transform="translate(27.5507, 70.3567)">
<text font-family="IPAexGothic" font-size="2.4695" text-anchor="start" fill="currentColor">
<tspan>べ</tspan>
</text>
</g>
<g transform="translate(34.7533, 75.2097)">
<circle stroke-linejoin="round" stroke-linecap="round" fill="currentColor" stroke="currentColor" stroke-width="0" r="0.4500"/>
</g>
<g transform="translate(34.3033, 65.1499)">
<path transform="scale(0.0040, -0.0040)" d="M-23 -113c0 26 10 40 36 40c34 0 85 -15 130 -37l-137 164c-7 8 -10 17 -10 25c0 33 49 64 86 96c26 22 39 54 39 85c0 24 -8 47 -24 67l-39 46c-2 3 -3 6 -3 9c0 7 7 14 14 14c3 0 7 -1 10 -5l152 -182c7 -8 10 -17 10 -25c0 -33 -49 -64 -86 -96
c-26 -22 -39 -54 -39 -85c0 -24 8 -47 24 -67l87 -104c2 -3 3 -5 3 -8c0 -7 -7 -14 -14 -14c-3 0 -7 1 -10 5c-19 22 -66 43 -102 43c-40 0 -52 -29 -52 -70c0 -35 11 -75 28 -96c6 -7 -4 -16 -10 -9c-46 55 -93 150 -93 204z" fill="currentColor"/>
</g>
<g transform="translate(25.2101, 65.6499)">
<path transform="scale(0.0040, -0.0040)" d="M222 135c53 0 104 -27 104 -86c0 -71 -56 -120 -103 -148c-36 -22 -76 -36 -118 -36c-53 0 -105 27 -105 86c0 71 57 120 104 148c36 22 76 36 118 36z" fill="currentColor"/>
</g>
<g transform="translate(26.4669, 65.1499)">
<rect x="-0.0490" y="-3.0000" width="0.0980" height="3.3033" ry="0.0250" fill="currentColor"/>
</g>
<g color="rgb(100.0000%, 100.0000%, 100.0000%)">
<g transform="translate(25.2101, 75.2097)">
<rect x="0.1110" y="-0.6446" width="1.1097" height="1.2893" ry="0.0000" fill="currentColor"/>
</g>
</g>
<g transform="scale(1.0000, 1.0000)">
<g transform="translate(25.3211, 75.8543)">
<text font-family="IPAexGothic" font-weight="bold" font-size="1.7463" text-anchor="start" fill="currentColor">
<tspan>2</tspan>
</text>
</g>
</g>
<g transform="translate(25.2101, 72.9220)">
<text font-family="Libertinus Serif" font-size="1.5557" text-anchor="start" fill="currentColor">
<tspan> Ⅰ</tspan>
</text>
</g>
<g transform="translate(24.6253, 70.3567)">
<text font-family="IPAexGothic" font-size="2.4695" text-anchor="start" fill="currentColor">
<tspan>す</tspan>
</text>
</g>
<g transform="translate(22.7144, 75.2097)">
<path stroke-width="0.1200" stroke-linejoin="round" stroke-linecap="square" stroke="currentColor" fill="none" d="M-0.5500 0.8760L0.5500 0.8760"/>
</g>
<g transform="translate(23.3054, 65.1499)">
<rect x="-0.0490" y="-2.0000" width="0.0980" height="2.8033" ry="0.0250" fill="currentColor"/>
</g>
</svg>
