<svg xmlns="http://www.w3.org/2000/svg" xmlns:xlink="http://www.w3.org/1999/xlink" version="1.2" width="210.00mm" height="297.00mm" viewBox="0 0 56.9055 80.4807">
<style type="text/css">
<![CDATA[
tspan { white-space: pre; }
]]>
</style>
<!-- Page: 1/1 -->
<g transform="translate(20.1608, 4.6721)">
<text font-family="IPAexGothic" font-weight="bold" font-size="2.7720" text-anchor="start" fill="currentColor">
<tspan>かごめかごめ</tspan>
</text>
</g>
<g transform="translate(2.7098, 8.1721)">
<text font-family="IPAexGothic" font-size="1.7463" text-anchor="start" fill="currentColor">
<tspan>4/4 二上り</tspan>
</text>
</g>
<g transform="translate(2.7098, 17.1328)">
<line stroke-linejoin="round" stroke-linecap="round" stroke-width="0.0656" stroke="currentColor" x1="0.0328" y1="0" x2="51.4532" y2="0"/>
</g>
<g transform="translate(2.7098, 15.6328)">
<line stroke-linejoin="round" stroke-linecap="round" stroke-width="0.0656" stroke="currentColor" x1="0.0328" y1="0" x2="51.4532" y2="0"/>
</g>
<g transform="translate(2.7098, 14.1328)">
<line stroke-linejoin="round" stroke-linecap="round" stroke-width="0.0656" stroke="currentColor" x1="0.0328" y1="0" x2="51.4532" y2="0"/>
</g>
<g transform="translate(13.9497, 15.6328)">
<rect x="0.0000" y="-1.5000" width="0.1246" height="3.0000" ry="0.0000" fill="currentColor"/>
</g>
<g transform="translate(41.0190, 15.6328)">
<rect x="0.0000" y="-1.5000" width="0.1246" height="3.0000" ry="0.0000" fill="currentColor"/>
</g>
<g transform="translate(54.0711, 15.6328)">
<rect x="0.0000" y="-1.5000" width="0.1246" height="3.0000" ry="0.0000" fill="currentColor"/>
</g>
<g transform="translate(25.4686, 15.6328)">
<rect x="0.0000" y="-1.5000" width="0.1246" height="3.0000" ry="0.0000" fill="currentColor"/>
</g>
<g color="rgb(100.0000%, 100.0000%, 100.0000%)">
<g transform="translate(39.0460, 15.6328)">
<rect x="0.1106" y="-0.6489" width="1.1056" height="1.2978" ry="0.0000" fill="currentColor"/>
</g>
</g>
<g transform="scale(1.0000, 1.0000)">
<g transform="translate(39.1566, 16.2731)">
<text font-family="IPAexGothic" font-weight="bold" font-size="1.7463" text-anchor="start" fill="currentColor">
<tspan>0</tspan>
</text>
</g>
</g>
<g transform="translate(38.7257, 19.8760)">
<text font-family="IPAexGothic" font-size="1.9601" text-anchor="start" fill="currentColor">
<tspan>の</tspan>
</text>
</g>
<g transform="translate(39.7094, 15.6328)">
<path stroke-width="0.1200" stroke-linejoin="round" stroke-linecap="square" stroke="currentColor" fill="none" d="M-0.5500 0.8760L0.5500 0.8760"/>
</g>
<g transform="translate(41.8848, 13.3500)">
<text font-family="Libertinus Serif" font-size="1.5557" text-anchor="start" fill="currentColor">
<tspan> Ⅰ</tspan>
</text>
</g>
<g color="rgb(100.0000%, 100.0000%, 100.0000%)">
<g transform="translate(41.8848, 15.6328)">
<rect x="0.1106" y="-0.6446" width="1.1056" height="1.2892" ry="0.0000" fill="currentColor"/>
</g>
</g>
<g transform="scale(1.0000, 1.0000)">
<g transform="translate(41.9954, 16.2774)">
<text font-family="IPAexGothic" font-weight="bold" font-size="1.7463" text-anchor="start" fill="currentColor">
<tspan>2</tspan>
</text>
</g>
</g>
<g transform="translate(41.5645, 19.8760)">
<text font-family="IPAexGothic" font-size="1.9601" text-anchor="start" fill="currentColor">
<tspan>と</tspan>
</text>
</g>
<g transform="translate(29.7276, 15.6328)">
<path stroke-width="0.1200" stroke-linejoin="round" stroke-linecap="square" stroke="currentColor" fill="none" d="M-0.5500 0.8702L0.5500 0.8702"/>
</g>
<g transform="translate(33.5786, 19.8760)">
<text font-family="IPAexGothic" font-size="1.9601" text-anchor="start" fill="currentColor">
<tspan>な</tspan>
</text>
</g>
<g color="rgb(100.0000%, 100.0000%, 100.0000%)">
<g transform="translate(31.4816, 15.6328)">
<rect x="0.1106" y="-0.6446" width="1.1056" height="1.2892" ry="0.0000" fill="currentColor"/>
</g>
</g>
<g transform="scale(1.0000, 1.0000)">
<g transform="translate(31.5922, 16.2774)">
<text font-family="IPAexGothic" font-weight="bold" font-size="1.7463" text-anchor="start" fill="currentColor">
<tspan>2</tspan>
</text>
</g>
</g>
<g transform="translate(31.1613, 19.8760)">
<text font-family="IPAexGothic" font-size="1.9601" text-anchor="start" fill="currentColor">
<tspan>の</tspan>
</text>
</g>
<g transform="translate(32.1450, 15.6328)">
<path stroke-width="0.1200" stroke-linejoin="round" stroke-linecap="square" stroke="currentColor" fill="none" d="M-0.5500 0.8702L0.5500 0.8702"/>
</g>
<g color="rgb(100.0000%, 100.0000%, 100.0000%)">
<g transform="translate(33.8989, 15.6328)">
<rect x="0.1106" y="-0.6446" width="1.1056" height="1.2892" ry="0.0000" fill="currentColor"/>
</g>
</g>
<g transform="scale(1.0000, 1.0000)">
<g transform="translate(34.0095, 16.2774)">
<text font-family="IPAexGothic" font-weight="bold" font-size="1.7463" text-anchor="start" fill="currentColor">
<tspan>2</tspan>
</text>
</g>
</g>
<g color="rgb(100.0000%, 100.0000%, 100.0000%)">
<g transform="translate(36.6287, 15.6328)">
<rect x="0.1106" y="-0.6489" width="1.1056" height="1.2978" ry="0.0000" fill="currentColor"/>
</g>
</g>
<g transform="scale(1.0000, 1.0000)">
<g transform="translate(36.7393, 16.2731)">
<text font-family="IPAexGothic" font-weight="bold" font-size="1.7463" text-anchor="start" fill="currentColor">
<tspan>0</tspan>
</text>
</g>
</g>
<g transform="translate(36.3084, 19.8760)">
<text font-family="IPAexGothic" font-size="1.9601" text-anchor="start" fill="currentColor">
<tspan>か</tspan>
</text>
</g>
<g transform="translate(37.2921, 15.6328)">
<path stroke-width="0.1200" stroke-linejoin="round" stroke-linecap="square" stroke="currentColor" fill="none" d="M-0.5500 0.8760L0.5500 0.8760"/>
</g>
<g color="rgb(100.0000%, 100.0000%, 100.0000%)">
<g transform="translate(44.6146, 15.6328)">
<rect x="0.1106" y="-0.6446" width="1.1056" height="1.2892" ry="0.0000" fill="currentColor"/>
</g>
</g>
<g transform="scale(1.0000, 1.0000)">
<g transform="translate(44.7252, 16.2774)">
<text font-family="IPAexGothic" font-weight="bold" font-size="1.7463" text-anchor="start" fill="currentColor">
<tspan>2</tspan>
</text>
</g>
</g>
<g transform="translate(44.7252, 19.8760)">
<text font-family="IPAexGothic" font-size="1.9601" text-anchor="start" fill="currentColor">
<tspan>り</tspan>
</text>
</g>
<g transform="translate(45.2780, 15.6328)">
<path stroke-width="0.1200" stroke-linejoin="round" stroke-linecap="square" stroke="currentColor" fill="none" d="M-0.5500 0.8702L0.5500 0.8702"/>
</g>
<g color="rgb(100.0000%, 100.0000%, 100.0000%)">
<g transform="translate(46.5876, 15.6328)">
<rect x="0.1106" y="-0.6489" width="1.1056" height="1.2978" ry="0.0000" fill="currentColor"/>
</g>
</g>
<g transform="scale(1.0000, 1.0000)">
<g transform="translate(46.6982, 16.2731)">
<text font-family="IPAexGothic" font-weight="bold" font-size="1.7463" text-anchor="start" fill="currentColor">
<tspan>0</tspan>
</text>
</g>
</g>
<g transform="translate(47.2510, 15.6328)">
<path stroke-width="0.1200" stroke-linejoin="round" stroke-linecap="square" stroke="currentColor" fill="none" d="M-0.5500 0.8760L0.5500 0.8760"/>
</g>
<g transform="translate(48.5606, 13.3500)">
<text font-family="Libertinus Serif" font-size="1.5557" text-anchor="start" fill="currentColor">
<tspan> Ⅲ</tspan>
</text>
</g>
<g color="rgb(100.0000%, 100.0000%, 100.0000%)">
<g transform="translate(48.5606, 17.1328)">
<rect x="-0.2065" y="-0.7474" width="1.7397" height="1.4947" ry="0.0000" fill="currentColor"/>
</g>
</g>
<g transform="scale(1.0000, 1.0000)">
<g transform="translate(48.3541, 17.7965)">
<text font-family="IPAexGothic" font-weight="bold" font-size="1.7463" text-anchor="start" fill="currentColor">
<tspan>♯</tspan>
</text>
</g>
</g>
<g transform="translate(48.2403, 19.8760)">
<text font-family="IPAexGothic" font-size="1.9601" text-anchor="start" fill="currentColor">
<tspan>は</tspan>
</text>
</g>
<g transform="translate(52.0575, 15.6328)">
<circle stroke-linejoin="round" stroke-linecap="round" fill="currentColor" stroke="currentColor" stroke-width="0" r="0.4500"/>
</g>
<g transform="translate(14.8155, 13.3500)">
<text font-family="Libertinus Serif" font-size="1.5557" text-anchor="start" fill="currentColor">
<tspan> Ⅰ</tspan>
</text>
</g>
<g transform="translate(7.8761, 19.8760)">
<text font-family="IPAexGothic" font-size="1.9601" text-anchor="start" fill="currentColor">
<tspan>ご</tspan>
</text>
</g>
<g transform="translate(10.9262, 13.3500)">
<text font-family="Libertinus Serif" font-size="1.5557" text-anchor="start" fill="currentColor">
<tspan> Ⅲ</tspan>
</text>
</g>
<g color="rgb(100.0000%, 100.0000%, 100.0000%)">
<g transform="translate(10.9262, 15.6328)">
<rect x="-0.2065" y="-0.7474" width="1.7397" height="1.4947" ry="0.0000" fill="currentColor"/>
</g>
</g>
<g transform="scale(1.0000, 1.0000)">
<g transform="translate(10.7198, 16.2965)">
<text font-family="IPAexGothic" font-weight="bold" font-size="1.7463" text-anchor="start" fill="currentColor">
<tspan>♯</tspan>
</text>
</g>
</g>
<g transform="translate(10.6059, 19.8760)">
<text font-family="IPAexGothic" font-size="1.9601" text-anchor="start" fill="currentColor">
<tspan>め</tspan>
</text>
</g>
<g color="rgb(100.0000%, 100.0000%, 100.0000%)">
<g transform="translate(8.1964, 15.6328)">
<rect x="0.1106" y="-0.6446" width="1.1056" height="1.2892" ry="0.0000" fill="currentColor"/>
</g>
</g>
<g transform="scale(1.0000, 1.0000)">
<g transform="translate(8.3070, 16.2774)">
<text font-family="IPAexGothic" font-weight="bold" font-size="1.7463" text-anchor="start" fill="currentColor">
<tspan>2</tspan>
</text>
</g>
</g>
<g color="rgb(100.0000%, 100.0000%, 100.0000%)">
<g transform="translate(14.8155, 15.6328)">
<rect x="0.1106" y="-0.6446" width="1.1056" height="1.2892" ry="0.0000" fill="currentColor"/>
</g>
</g>
<g transform="scale(1.0000, 1.0000)">
<g transform="translate(14.9261, 16.2774)">
<text font-family="IPAexGothic" font-weight="bold" font-size="1.7463" text-anchor="start" fill="currentColor">
<tspan>2</tspan>
</text>
</g>
</g>
<g transform="translate(14.4953, 19.8760)">
<text font-family="IPAexGothic" font-size="1.9601" text-anchor="start" fill="currentColor">
<tspan>か</tspan>
</text>
</g>
<g transform="translate(28.7440, 19.8760)">
<text font-family="IPAexGothic" font-size="1.9601" text-anchor="start" fill="currentColor">
<tspan>ご</tspan>
</text>
</g>
<g transform="translate(2.7049, 15.6328)">
<rect x="0.0000" y="-1.5328" width="0.1049" height="3.0656" ry="0.0328" fill="currentColor"/>
</g>
<g transform="translate(4.7098, 13.3500)">
<text font-family="Libertinus Serif" font-size="1.5557" text-anchor="start" fill="currentColor">
<tspan> Ⅰ</tspan>
</text>
</g>
<g color="rgb(100.0000%, 100.0000%, 100.0000%)">
<g transform="translate(4.7098, 15.6328)">
<rect x="0.1106" y="-0.6446" width="1.1056" height="1.2892" ry="0.0000" fill="currentColor"/>
</g>
</g>
<g transform="scale(1.0000, 1.0000)">
<g transform="translate(4.8203, 16.2774)">
<text font-family="IPAexGothic" font-weight="bold" font-size="1.7463" text-anchor="start" fill="currentColor">
<tspan>2</tspan>
</text>
</g>
</g>
<g transform="translate(4.3895, 19.8760)">
<text font-family="IPAexGothic" font-size="1.9601" text-anchor="start" fill="currentColor">
<tspan>か</tspan>
</text>
</g>
<g transform="translate(5.3731, 15.6328)">
<path stroke-width="0.1200" stroke-linejoin="round" stroke-linecap="square" stroke="currentColor" fill="none" d="M2 -0.6700l1 0"/>
</g>
<g transform="translate(23.4550, 15.6328)">
<circle stroke-linejoin="round" stroke-linecap="round" fill="currentColor" stroke="currentColor" stroke-width="0" r="0.4500"/>
</g>
<g transform="translate(26.3345, 13.3500)">
<text font-family="Libertinus Serif" font-size="1.5557" text-anchor="start" fill="currentColor">
<tspan> Ⅰ</tspan>
</text>
</g>
<g color="rgb(100.0000%, 100.0000%, 100.0000%)">
<g transform="translate(26.3345, 15.6328)">
<rect x="0.1106" y="-0.6446" width="1.1056" height="1.2892" ry="0.0000" fill="currentColor"/>
</g>
</g>
<g transform="scale(1.0000, 1.0000)">
<g transform="translate(26.4450, 16.2774)">
<text font-family="IPAexGothic" font-weight="bold" font-size="1.7463" text-anchor="start" fill="currentColor">
<tspan>2</tspan>
</text>
</g>
</g>
<g transform="translate(26.0142, 19.8760)">
<text font-family="IPAexGothic" font-size="1.9601" text-anchor="start" fill="currentColor">
<tspan>か</tspan>
</text>
</g>
<g color="rgb(100.0000%, 100.0000%, 100.0000%)">
<g transform="translate(29.0643, 15.6328)">
<rect x="0.1106" y="-0.6446" width="1.1056" height="1.2892" ry="0.0000" fill="currentColor"/>
</g>
</g>
<g transform="scale(1.0000, 1.0000)">
<g transform="translate(29.1748, 16.2774)">
<text font-family="IPAexGothic" font-weight="bold" font-size="1.7463" text-anchor="start" fill="currentColor">
<tspan>2</tspan>
</text>
</g>
</g>
<g transform="translate(17.2251, 19.8760)">
<text font-family="IPAexGothic" font-size="1.9601" text-anchor="start" fill="currentColor">
<tspan>ご</tspan>
</text>
</g>
<g color="rgb(100.0000%, 100.0000%, 100.0000%)">
<g transform="translate(20.2752, 15.6328)">
<rect x="0.1106" y="-0.6446" width="1.1056" height="1.2892" ry="0.0000" fill="currentColor"/>
</g>
</g>
<g transform="scale(1.0000, 1.0000)">
<g transform="translate(20.3857, 16.2774)">
<text font-family="IPAexGothic" font-weight="bold" font-size="1.7463" text-anchor="start" fill="currentColor">
<tspan>2</tspan>
</text>
</g>
</g>
<g transform="translate(19.9549, 19.8760)">
<text font-family="IPAexGothic" font-size="1.9601" text-anchor="start" fill="currentColor">
<tspan>め</tspan>
</text>
</g>
<g color="rgb(100.0000%, 100.0000%, 100.0000%)">
<g transform="translate(17.5454, 15.6328)">
<rect x="0.1106" y="-0.6446" width="1.1056" height="1.2892" ry="0.0000" fill="currentColor"/>
</g>
</g>
<g transform="scale(1.0000, 1.0000)">
<g transform="translate(17.6559, 16.2774)">
<text font-family="IPAexGothic" font-weight="bold" font-size="1.7463" text-anchor="start" fill="currentColor">
<tspan>2</tspan>
</text>
</g>
</g>
<g transform="translate(2.7098, 26.6174)">
<line stroke-linejoin="round" stroke-linecap="round" stroke-width="0.0656" stroke="currentColor" x1="0.0328" y1="0" x2="51.4532" y2="0"/>
</g>
<g transform="translate(2.7098, 25.1174)">
<line stroke-linejoin="round" stroke-linecap="round" stroke-width="0.0656" stroke="currentColor" x1="0.0328" y1="0" x2="51.4532" y2="0"/>
</g>
<g transform="translate(2.7098, 23.6174)">
<line stroke-linejoin="round" stroke-linecap="round" stroke-width="0.0656" stroke="currentColor" x1="0.0328" y1="0" x2="51.4532" y2="0"/>
</g>
<g transform="translate(42.0915, 25.1174)">
<rect x="0.0000" y="-1.5000" width="0.1246" height="3.0000" ry="0.0000" fill="currentColor"/>
</g>
<g transform="translate(16.0394, 25.1174)">
<rect x="0.0000" y="-1.5000" width="0.1246" height="3.0000" ry="0.0000" fill="currentColor"/>
</g>
<g transform="translate(54.0711, 25.1174)">
<rect x="0.0000" y="-1.5000" width="0.1246" height="3.0000" ry="0.0000" fill="currentColor"/>
</g>
<g transform="translate(29.5521, 25.1174)">
<rect x="0.0000" y="-1.5000" width="0.1246" height="3.0000" ry="0.0000" fill="currentColor"/>
</g>
<g color="rgb(100.0000%, 100.0000%, 100.0000%)">
<g transform="translate(36.1182, 25.1174)">
<rect x="0.1106" y="-0.6446" width="1.1056" height="1.2892" ry="0.0000" fill="currentColor"/>
</g>
</g>
<g transform="scale(1.0000, 1.0000)">
<g transform="translate(36.2288, 25.7620)">
<text font-family="IPAexGothic" font-weight="bold" font-size="1.7463" text-anchor="start" fill="currentColor">
<tspan>2</tspan>
</text>
</g>
</g>
<g transform="translate(35.7979, 29.3234)">
<text font-family="IPAexGothic" font-size="1.9601" text-anchor="start" fill="currentColor">
<tspan>け</tspan>
</text>
</g>
<g transform="translate(38.9581, 22.8346)">
<text font-family="Libertinus Serif" font-size="1.5557" text-anchor="start" fill="currentColor">
<tspan> Ⅲ</tspan>
</text>
</g>
<g color="rgb(100.0000%, 100.0000%, 100.0000%)">
<g transform="translate(38.9581, 25.1174)">
<rect x="-0.2065" y="-0.7474" width="1.7397" height="1.4947" ry="0.0000" fill="currentColor"/>
</g>
</g>
<g transform="scale(1.0000, 1.0000)">
<g transform="translate(38.7516, 25.7812)">
<text font-family="IPAexGothic" font-weight="bold" font-size="1.7463" text-anchor="start" fill="currentColor">
<tspan>♯</tspan>
</text>
</g>
</g>
<g transform="translate(38.6378, 29.3234)">
<text font-family="IPAexGothic" font-size="1.9601" text-anchor="start" fill="currentColor">
<tspan>の</tspan>
</text>
</g>
<g transform="translate(42.9780, 22.8346)">
<text font-family="Libertinus Serif" font-size="1.5557" text-anchor="start" fill="currentColor">
<tspan> Ⅰ</tspan>
</text>
</g>
<g color="rgb(100.0000%, 100.0000%, 100.0000%)">
<g transform="translate(42.9780, 25.1174)">
<rect x="0.1106" y="-0.6446" width="1.1056" height="1.2892" ry="0.0000" fill="currentColor"/>
</g>
</g>
<g transform="scale(1.0000, 1.0000)">
<g transform="translate(43.0886, 25.7620)">
<text font-family="IPAexGothic" font-weight="bold" font-size="1.7463" text-anchor="start" fill="currentColor">
<tspan>2</tspan>
</text>
</g>
</g>
<g transform="translate(42.6577, 29.3234)">
<text font-family="IPAexGothic" font-size="1.9601" text-anchor="start" fill="currentColor">
<tspan>ば</tspan>
</text>
</g>
<g color="rgb(100.0000%, 100.0000%, 100.0000%)">
<g transform="translate(30.4386, 25.1174)">
<rect x="0.1106" y="-0.6446" width="1.1056" height="1.2892" ry="0.0000" fill="currentColor"/>
</g>
</g>
<g transform="scale(1.0000, 1.0000)">
<g transform="translate(30.5492, 25.7620)">
<text font-family="IPAexGothic" font-weight="bold" font-size="1.7463" text-anchor="start" fill="currentColor">
<tspan>2</tspan>
</text>
</g>
</g>
<g transform="translate(30.1183, 29.3234)">
<text font-family="IPAexGothic" font-size="1.9601" text-anchor="start" fill="currentColor">
<tspan>よ</tspan>
</text>
</g>
<g transform="translate(30.4386, 22.8346)">
<text font-family="Libertinus Serif" font-size="1.5557" text-anchor="start" fill="currentColor">
<tspan> Ⅰ</tspan>
</text>
</g>
<g color="rgb(100.0000%, 100.0000%, 100.0000%)">
<g transform="translate(33.2784, 25.1174)">
<rect x="0.1106" y="-0.6446" width="1.1056" height="1.2892" ry="0.0000" fill="currentColor"/>
</g>
</g>
<g transform="scale(1.0000, 1.0000)">
<g transform="translate(33.3890, 25.7620)">
<text font-family="IPAexGothic" font-weight="bold" font-size="1.7463" text-anchor="start" fill="currentColor">
<tspan>2</tspan>
</text>
</g>
</g>
<g transform="translate(32.9581, 29.3234)">
<text font-family="IPAexGothic" font-size="1.9601" text-anchor="start" fill="currentColor">
<tspan>あ</tspan>
</text>
</g>
<g color="rgb(100.0000%, 100.0000%, 100.0000%)">
<g transform="translate(45.8178, 25.1174)">
<rect x="0.1106" y="-0.6446" width="1.1056" height="1.2892" ry="0.0000" fill="currentColor"/>
</g>
</g>
<g transform="scale(1.0000, 1.0000)">
<g transform="translate(45.9284, 25.7620)">
<text font-family="IPAexGothic" font-weight="bold" font-size="1.7463" text-anchor="start" fill="currentColor">
<tspan>2</tspan>
</text>
</g>
</g>
<g transform="translate(45.4975, 29.3234)">
<text font-family="IPAexGothic" font-size="1.9601" text-anchor="start" fill="currentColor">
<tspan>ん</tspan>
</text>
</g>
<g color="rgb(100.0000%, 100.0000%, 100.0000%)">
<g transform="translate(48.6576, 25.1174)">
<rect x="0.1106" y="-0.6446" width="1.1056" height="1.2892" ry="0.0000" fill="currentColor"/>
</g>
</g>
<g transform="scale(1.0000, 1.0000)">
<g transform="translate(48.7682, 25.7620)">
<text font-family="IPAexGothic" font-weight="bold" font-size="1.7463" text-anchor="start" fill="currentColor">
<tspan>2</tspan>
</text>
</g>
</g>
<g transform="translate(48.3373, 29.3234)">
<text font-family="IPAexGothic" font-size="1.9601" text-anchor="start" fill="currentColor">
<tspan>に</tspan>
</text>
</g>
<g transform="translate(51.9475, 25.1174)">
<circle stroke-linejoin="round" stroke-linecap="round" fill="currentColor" stroke="currentColor" stroke-width="0" r="0.4500"/>
</g>
<g color="rgb(100.0000%, 100.0000%, 100.0000%)">
<g transform="translate(7.5496, 25.1174)">
<rect x="0.1106" y="-0.6489" width="1.1056" height="1.2978" ry="0.0000" fill="currentColor"/>
</g>
</g>
<g transform="scale(1.0000, 1.0000)">
<g transform="translate(7.6602, 25.7577)">
<text font-family="IPAexGothic" font-weight="bold" font-size="1.7463" text-anchor="start" fill="currentColor">
<tspan>0</tspan>
</text>
</g>
</g>
<g transform="translate(7.2293, 29.3234)">
<text font-family="IPAexGothic" font-size="1.9601" text-anchor="start" fill="currentColor">
<tspan>つ</tspan>
</text>
</g>
<g color="rgb(100.0000%, 100.0000%, 100.0000%)">
<g transform="translate(10.3894, 25.1174)">
<rect x="0.1106" y="-0.6446" width="1.1056" height="1.2892" ry="0.0000" fill="currentColor"/>
</g>
</g>
<g transform="scale(1.0000, 1.0000)">
<g transform="translate(10.5000, 25.7620)">
<text font-family="IPAexGothic" font-weight="bold" font-size="1.7463" text-anchor="start" fill="currentColor">
<tspan>2</tspan>
</text>
</g>
</g>
<g transform="translate(10.0691, 29.3234)">
<text font-family="IPAexGothic" font-size="1.9601" text-anchor="start" fill="currentColor">
<tspan>い</tspan>
</text>
</g>
<g color="rgb(100.0000%, 100.0000%, 100.0000%)">
<g transform="translate(13.2293, 25.1174)">
<rect x="0.1106" y="-0.6489" width="1.1056" height="1.2978" ry="0.0000" fill="currentColor"/>
</g>
</g>
<g transform="scale(1.0000, 1.0000)">
<g transform="translate(13.3398, 25.7577)">
<text font-family="IPAexGothic" font-weight="bold" font-size="1.7463" text-anchor="start" fill="currentColor">
<tspan>0</tspan>
</text>
</g>
</g>
<g transform="translate(12.9090, 29.3234)">
<text font-family="IPAexGothic" font-size="1.9601" text-anchor="start" fill="currentColor">
<tspan>つ</tspan>
</text>
</g>
<g transform="translate(16.9258, 22.8346)">
<text font-family="Libertinus Serif" font-size="1.5557" text-anchor="start" fill="currentColor">
<tspan> Ⅰ</tspan>
</text>
</g>
<g color="rgb(100.0000%, 100.0000%, 100.0000%)">
<g transform="translate(16.9258, 25.1174)">
<rect x="0.1106" y="-0.6446" width="1.1056" height="1.2892" ry="0.0000" fill="currentColor"/>
</g>
</g>
<g transform="scale(1.0000, 1.0000)">
<g transform="translate(17.0364, 25.7620)">
<text font-family="IPAexGothic" font-weight="bold" font-size="1.7463" text-anchor="start" fill="currentColor">
<tspan>2</tspan>
</text>
</g>
</g>
<g transform="translate(16.6055, 29.3234)">
<text font-family="IPAexGothic" font-size="1.9601" text-anchor="start" fill="currentColor">
<tspan>で</tspan>
</text>
</g>
<g transform="translate(2.7049, 25.1174)">
<rect x="0.0000" y="-1.5328" width="0.1049" height="3.0656" ry="0.0328" fill="currentColor"/>
</g>
<g transform="translate(4.7098, 22.8346)">
<text font-family="Libertinus Serif" font-size="1.5557" text-anchor="start" fill="currentColor">
<tspan> Ⅰ</tspan>
</text>
</g>
<g color="rgb(100.0000%, 100.0000%, 100.0000%)">
<g transform="translate(4.7098, 25.1174)">
<rect x="0.1106" y="-0.6446" width="1.1056" height="1.2892" ry="0.0000" fill="currentColor"/>
</g>
</g>
<g transform="scale(1.0000, 1.0000)">
<g transform="translate(4.8203, 25.7620)">
<text font-family="IPAexGothic" font-weight="bold" font-size="1.7463" text-anchor="start" fill="currentColor">
<tspan>2</tspan>
</text>
</g>
</g>
<g transform="translate(4.3895, 29.3234)">
<text font-family="IPAexGothic" font-size="1.9601" text-anchor="start" fill="currentColor">
<tspan>い</tspan>
</text>
</g>
<g transform="translate(19.8762, 29.3234)">
<text font-family="IPAexGothic" font-size="1.9601" text-anchor="start" fill="currentColor">
<tspan>や</tspan>
</text>
</g>
<g transform="translate(20.4290, 25.1174)">
<path stroke-width="0.1200" stroke-linejoin="round" stroke-linecap="square" stroke="currentColor" fill="none" d="M-0.5500 0.8702L0.5500 0.8702"/>
</g>
<g transform="translate(22.4535, 27.3674)">
<path stroke-width="0.1200" stroke-linejoin="miter" stroke-linecap="square" stroke="currentColor" fill="none" d="M-0.4120 -0.4220L0.2280 -0.4270L0.2680 -0.3860C0.1100 0.0460 -0.1310 0.2760 -0.4870 0.4570M0.4940 0.4340C0.3790 0.3130 0.2470 0.1870 0.0440 0.0360"/>
</g>
<g color="rgb(100.0000%, 100.0000%, 100.0000%)">
<g transform="translate(21.7936, 25.1174)">
<rect x="0.1106" y="-0.6489" width="1.1056" height="1.2978" ry="0.0000" fill="currentColor"/>
</g>
</g>
<g transform="scale(1.0000, 1.0000)">
<g transform="translate(21.9042, 25.7577)">
<text font-family="IPAexGothic" font-weight="bold" font-size="1.7463" text-anchor="start" fill="currentColor">
<tspan>0</tspan>
</text>
</g>
</g>
<g transform="translate(22.4570, 25.1174)">
<path stroke-width="0.1200" stroke-linejoin="round" stroke-linecap="square" stroke="currentColor" fill="none" d="M-0.5500 0.8760L0.5500 0.8760"/>
</g>
<g transform="translate(23.8216, 22.8346)">
<text font-family="Libertinus Serif" font-size="1.5557" text-anchor="start" fill="currentColor">
<tspan> Ⅲ</tspan>
</text>
</g>
<g color="rgb(100.0000%, 100.0000%, 100.0000%)">
<g transform="translate(23.8216, 26.6174)">
<rect x="-0.2065" y="-0.7474" width="1.7397" height="1.4947" ry="0.0000" fill="currentColor"/>
</g>
</g>
<g transform="scale(1.0000, 1.0000)">
<g transform="translate(23.6151, 27.2812)">
<text font-family="IPAexGothic" font-weight="bold" font-size="1.7463" text-anchor="start" fill="currentColor">
<tspan>♯</tspan>
</text>
</g>
</g>
<g transform="translate(23.5013, 29.3234)">
<text font-family="IPAexGothic" font-size="1.9601" text-anchor="start" fill="currentColor">
<tspan>る</tspan>
</text>
</g>
<g transform="translate(27.4285, 25.1174)">
<circle stroke-linejoin="round" stroke-linecap="round" fill="currentColor" stroke="currentColor" stroke-width="0" r="0.4500"/>
</g>
<g color="rgb(100.0000%, 100.0000%, 100.0000%)">
<g transform="translate(19.7656, 25.1174)">
<rect x="0.1106" y="-0.6446" width="1.1056" height="1.2892" ry="0.0000" fill="currentColor"/>
</g>
</g>
<g transform="scale(1.0000, 1.0000)">
<g transform="translate(19.8762, 25.7620)">
<text font-family="IPAexGothic" font-weight="bold" font-size="1.7463" text-anchor="start" fill="currentColor">
<tspan>2</tspan>
</text>
</g>
</g>
<g transform="translate(2.7098, 36.0858)">
<line stroke-linejoin="round" stroke-linecap="round" stroke-width="0.0656" stroke="currentColor" x1="0.0328" y1="0" x2="51.4532" y2="0"/>
</g>
<g transform="translate(2.7098, 34.5858)">
<line stroke-linejoin="round" stroke-linecap="round" stroke-width="0.0656" stroke="currentColor" x1="0.0328" y1="0" x2="51.4532" y2="0"/>
</g>
<g transform="translate(2.7098, 33.0858)">
<line stroke-linejoin="round" stroke-linecap="round" stroke-width="0.0656" stroke="currentColor" x1="0.0328" y1="0" x2="51.4532" y2="0"/>
</g>
<g transform="translate(54.0711, 34.5858)">
<rect x="0.0000" y="-1.5000" width="0.1246" height="3.0000" ry="0.0000" fill="currentColor"/>
</g>
<g transform="translate(29.9936, 34.5858)">
<rect x="0.0000" y="-1.5000" width="0.1246" height="3.0000" ry="0.0000" fill="currentColor"/>
</g>
<g transform="translate(27.1889, 36.8358)">
<path stroke-width="0.1200" stroke-linejoin="miter" stroke-linecap="square" stroke="currentColor" fill="none" d="M-0.4120 -0.4220L0.2280 -0.4270L0.2680 -0.3860C0.1100 0.0460 -0.1310 0.2760 -0.4870 0.4570M0.4940 0.4340C0.3790 0.3130 0.2470 0.1870 0.0440 0.0360"/>
</g>
<g transform="translate(36.8113, 39.3212)">
<text font-family="IPAexGothic" font-size="1.9601" text-anchor="start" fill="currentColor">
<tspan>べ</tspan>
</text>
</g>
<g color="rgb(100.0000%, 100.0000%, 100.0000%)">
<g transform="translate(37.1316, 34.5858)">
<rect x="0.1106" y="-0.6446" width="1.1056" height="1.2892" ry="0.0000" fill="currentColor"/>
</g>
</g>
<g transform="scale(1.0000, 1.0000)">
<g transform="translate(37.2422, 35.2304)">
<text font-family="IPAexGothic" font-weight="bold" font-size="1.7463" text-anchor="start" fill="currentColor">
<tspan>2</tspan>
</text>
</g>
</g>
<g transform="translate(31.0984, 39.3212)">
<text font-family="IPAexGothic" font-size="1.9601" text-anchor="start" fill="currentColor">
<tspan>す</tspan>
</text>
</g>
<g color="rgb(100.0000%, 100.0000%, 100.0000%)">
<g transform="translate(31.4187, 34.5858)">
<rect x="0.1106" y="-0.6446" width="1.1056" height="1.2892" ry="0.0000" fill="currentColor"/>
</g>
</g>
<g transform="scale(1.0000, 1.0000)">
<g transform="translate(31.5293, 35.2304)">
<text font-family="IPAexGothic" font-weight="bold" font-size="1.7463" text-anchor="start" fill="currentColor">
<tspan>2</tspan>
</text>
</g>
</g>
<g transform="translate(31.4187, 32.3030)">
<text font-family="Libertinus Serif" font-size="1.5557" text-anchor="start" fill="currentColor">
<tspan> Ⅰ</tspan>
</text>
</g>
<g transform="translate(27.1924, 34.5858)">
<path stroke-width="0.1200" stroke-linejoin="round" stroke-linecap="square" stroke="currentColor" fill="none" d="M-0.5500 0.8760L0.5500 0.8760"/>
</g>
<g transform="translate(26.2088, 39.3212)">
<text font-family="IPAexGothic" font-size="1.9601" text-anchor="start" fill="currentColor">
<tspan>と</tspan>
</text>
</g>
<g color="rgb(100.0000%, 100.0000%, 100.0000%)">
<g transform="translate(26.5291, 34.5858)">
<rect x="0.1106" y="-0.6489" width="1.1056" height="1.2978" ry="0.0000" fill="currentColor"/>
</g>
</g>
<g transform="scale(1.0000, 1.0000)">
<g transform="translate(26.6396, 35.2261)">
<text font-family="IPAexGothic" font-weight="bold" font-size="1.7463" text-anchor="start" fill="currentColor">
<tspan>0</tspan>
</text>
</g>
</g>
<g transform="translate(49.0744, 34.5858)">
<circle stroke-linejoin="round" stroke-linecap="round" fill="currentColor" stroke="currentColor" stroke-width="0" r="0.4500"/>
</g>
<g transform="translate(41.2905, 39.3212)">
<text font-family="IPAexGothic" font-size="1.9601" text-anchor="start" fill="currentColor">
<tspan>った</tspan>
</text>
</g>
<g color="rgb(100.0000%, 100.0000%, 100.0000%)">
<g transform="translate(42.5945, 36.0858)">
<rect x="-0.2065" y="-0.7474" width="1.7397" height="1.4947" ry="0.0000" fill="currentColor"/>
</g>
</g>
<g transform="scale(1.0000, 1.0000)">
<g transform="translate(42.3880, 36.7496)">
<text font-family="IPAexGothic" font-weight="bold" font-size="1.7463" text-anchor="start" fill="currentColor">
<tspan>♯</tspan>
</text>
</g>
</g>
<g transform="translate(42.5945, 32.3030)">
<text font-family="Libertinus Serif" font-size="1.5557" text-anchor="start" fill="currentColor">
<tspan> Ⅲ</tspan>
</text>
</g>
<g transform="translate(11.0860, 34.5858)">
<path stroke-width="0.1200" stroke-linejoin="round" stroke-linecap="square" stroke="currentColor" fill="none" d="M-0.5500 0.8760L0.5500 0.8760"/>
</g>
<g color="rgb(100.0000%, 100.0000%, 100.0000%)">
<g transform="translate(10.4227, 34.5858)">
<rect x="0.1106" y="-0.6489" width="1.1056" height="1.2978" ry="0.0000" fill="currentColor"/>
</g>
</g>
<g transform="scale(1.0000, 1.0000)">
<g transform="translate(10.5332, 35.2261)">
<text font-family="IPAexGothic" font-weight="bold" font-size="1.7463" text-anchor="start" fill="currentColor">
<tspan>0</tspan>
</text>
</g>
</g>
<g transform="translate(4.3895, 39.3212)">
<text font-family="IPAexGothic" font-size="1.9601" text-anchor="start" fill="currentColor">
<tspan>つ</tspan>
</text>
</g>
<g color="rgb(100.0000%, 100.0000%, 100.0000%)">
<g transform="translate(4.7098, 34.5858)">
<rect x="0.1106" y="-0.6446" width="1.1056" height="1.2892" ry="0.0000" fill="currentColor"/>
</g>
</g>
<g transform="scale(1.0000, 1.0000)">
<g transform="translate(4.8203, 35.2304)">
<text font-family="IPAexGothic" font-weight="bold" font-size="1.7463" text-anchor="start" fill="currentColor">
<tspan>2</tspan>
</text>
</g>
</g>
<g transform="translate(4.7098, 32.3030)">
<text font-family="Libertinus Serif" font-size="1.5557" text-anchor="start" fill="currentColor">
<tspan> Ⅰ</tspan>
</text>
</g>
<g transform="translate(10.1024, 39.3212)">
<text font-family="IPAexGothic" font-size="1.9601" text-anchor="start" fill="currentColor">
<tspan>る</tspan>
</text>
</g>
<g transform="translate(2.7049, 34.5858)">
<rect x="0.0000" y="-1.5328" width="0.1049" height="3.0656" ry="0.0328" fill="currentColor"/>
</g>
<g transform="translate(23.7279, 34.5858)">
<path stroke-width="0.1200" stroke-linejoin="round" stroke-linecap="square" stroke="currentColor" fill="none" d="M-0.5500 0.8760L0.5500 0.8760"/>
</g>
<g transform="translate(22.7443, 39.3212)">
<text font-family="IPAexGothic" font-size="1.9601" text-anchor="start" fill="currentColor">
<tspan>め</tspan>
</text>
</g>
<g color="rgb(100.0000%, 100.0000%, 100.0000%)">
<g transform="translate(23.0646, 34.5858)">
<rect x="0.1106" y="-0.6489" width="1.1056" height="1.2978" ry="0.0000" fill="currentColor"/>
</g>
</g>
<g transform="scale(1.0000, 1.0000)">
<g transform="translate(23.1751, 35.2261)">
<text font-family="IPAexGothic" font-weight="bold" font-size="1.7463" text-anchor="start" fill="currentColor">
<tspan>0</tspan>
</text>
</g>
</g>
<g transform="translate(17.0314, 39.3212)">
<text font-family="IPAexGothic" font-size="1.9601" text-anchor="start" fill="currentColor">
<tspan>か</tspan>
</text>
</g>
<g color="rgb(100.0000%, 100.0000%, 100.0000%)">
<g transform="translate(17.3517, 34.5858)">
<rect x="0.1106" y="-0.6446" width="1.1056" height="1.2892" ry="0.0000" fill="currentColor"/>
</g>
</g>
<g transform="scale(1.0000, 1.0000)">
<g transform="translate(17.4622, 35.2304)">
<text font-family="IPAexGothic" font-weight="bold" font-size="1.7463" text-anchor="start" fill="currentColor">
<tspan>2</tspan>
</text>
</g>
</g>
<g transform="translate(14.5470, 36.8358)">
<path stroke-width="0.1200" stroke-linejoin="miter" stroke-linecap="square" stroke="currentColor" fill="none" d="M-0.4120 -0.4220L0.2280 -0.4270L0.2680 -0.3860C0.1100 0.0460 -0.1310 0.2760 -0.4870 0.4570M0.4940 0.4340C0.3790 0.3130 0.2470 0.1870 0.0440 0.0360"/>
</g>
<g color="rgb(100.0000%, 100.0000%, 100.0000%)">
<g transform="translate(13.8872, 34.5858)">
<rect x="0.1106" y="-0.6489" width="1.1056" height="1.2978" ry="0.0000" fill="currentColor"/>
</g>
</g>
<g transform="scale(1.0000, 1.0000)">
<g transform="translate(13.9977, 35.2261)">
<text font-family="IPAexGothic" font-weight="bold" font-size="1.7463" text-anchor="start" fill="currentColor">
<tspan>0</tspan>
</text>
</g>
</g>
<g transform="translate(13.5669, 39.3212)">
<text font-family="IPAexGothic" font-size="1.9601" text-anchor="start" fill="currentColor">
<tspan>と</tspan>
</text>
</g>
<g transform="translate(14.5505, 34.5858)">
<path stroke-width="0.1200" stroke-linejoin="round" stroke-linecap="square" stroke="currentColor" fill="none" d="M-0.5500 0.8760L0.5500 0.8760"/>
</g>
<g transform="translate(2.7098, 46.1029)">
<line stroke-linejoin="round" stroke-linecap="round" stroke-width="0.0656" stroke="currentColor" x1="0.0328" y1="0" x2="51.4532" y2="0"/>
</g>
<g transform="translate(2.7098, 44.6029)">
<line stroke-linejoin="round" stroke-linecap="round" stroke-width="0.0656" stroke="currentColor" x1="0.0328" y1="0" x2="51.4532" y2="0"/>
</g>
<g transform="translate(2.7098, 43.1029)">
<line stroke-linejoin="round" stroke-linecap="round" stroke-width="0.0656" stroke="currentColor" x1="0.0328" y1="0" x2="51.4532" y2="0"/>
</g>
<g transform="translate(54.0711, 44.6029)">
<rect x="0.0000" y="-1.5000" width="0.1246" height="3.0000" ry="0.0000" fill="currentColor"/>
</g>
<g transform="translate(31.1074, 44.6029)">
<rect x="0.0000" y="-1.5000" width="0.1246" height="3.0000" ry="0.0000" fill="currentColor"/>
</g>
<g color="rgb(100.0000%, 100.0000%, 100.0000%)">
<g transform="translate(39.5184, 44.6029)">
<rect x="0.1106" y="-0.6489" width="1.1056" height="1.2978" ry="0.0000" fill="currentColor"/>
</g>
</g>
<g transform="scale(1.0000, 1.0000)">
<g transform="translate(39.6290, 45.2433)">
<text font-family="IPAexGothic" font-weight="bold" font-size="1.7463" text-anchor="start" fill="currentColor">
<tspan>0</tspan>
</text>
</g>
</g>
<g transform="translate(40.1818, 44.6029)">
<path stroke-width="0.1200" stroke-linejoin="round" stroke-linecap="square" stroke="currentColor" fill="none" d="M-0.5500 0.8760L0.5500 0.8760"/>
</g>
<g transform="translate(34.2001, 43.8529)">
<path transform="scale(0.0040, -0.0040)" d="M0 0c0 32 25 57 57 57s57 -25 57 -57s-25 -57 -57 -57s-57 25 -57 57z" fill="currentColor"/>
</g>
<g transform="translate(32.6378, 50.1029)">
<text font-family="IPAexGothic" font-size="1.9601" text-anchor="start" fill="currentColor">
<tspan>だ</tspan>
</text>
</g>
<g color="rgb(100.0000%, 100.0000%, 100.0000%)">
<g transform="translate(32.5272, 44.6029)">
<rect x="0.1106" y="-0.6446" width="1.1056" height="1.2892" ry="0.0000" fill="currentColor"/>
</g>
</g>
<g transform="scale(1.0000, 1.0000)">
<g transform="translate(32.6378, 45.2475)">
<text font-family="IPAexGothic" font-weight="bold" font-size="1.7463" text-anchor="start" fill="currentColor">
<tspan>2</tspan>
</text>
</g>
</g>
<g transform="translate(32.5272, 42.3201)">
<text font-family="Libertinus Serif" font-size="1.5557" text-anchor="start" fill="currentColor">
<tspan> Ⅰ</tspan>
</text>
</g>
<g transform="translate(23.8255, 50.1029)">
<text font-family="IPAexGothic" font-size="1.9601" text-anchor="start" fill="currentColor">
<tspan>めん</tspan>
</text>
</g>
<g color="rgb(100.0000%, 100.0000%, 100.0000%)">
<g transform="translate(25.1294, 44.6029)">
<rect x="-0.2065" y="-0.7474" width="1.7397" height="1.4947" ry="0.0000" fill="currentColor"/>
</g>
</g>
<g transform="scale(1.0000, 1.0000)">
<g transform="translate(24.9229, 45.2667)">
<text font-family="IPAexGothic" font-weight="bold" font-size="1.7463" text-anchor="start" fill="currentColor">
<tspan>♯</tspan>
</text>
</g>
</g>
<g transform="translate(25.1294, 42.3201)">
<text font-family="Libertinus Serif" font-size="1.5557" text-anchor="start" fill="currentColor">
<tspan> Ⅲ</tspan>
</text>
</g>
<g transform="translate(49.1030, 44.6029)">
<circle stroke-linejoin="round" stroke-linecap="round" fill="currentColor" stroke="currentColor" stroke-width="0" r="0.4500"/>
</g>
<g transform="translate(42.6483, 50.1029)">
<text font-family="IPAexGothic" font-size="1.9601" text-anchor="start" fill="currentColor">
<tspan>れ</tspan>
</text>
</g>
<g color="rgb(100.0000%, 100.0000%, 100.0000%)">
<g transform="translate(42.9686, 44.6029)">
<rect x="0.1106" y="-0.6446" width="1.1056" height="1.2892" ry="0.0000" fill="currentColor"/>
</g>
</g>
<g transform="scale(1.0000, 1.0000)">
<g transform="translate(43.0792, 45.2475)">
<text font-family="IPAexGothic" font-weight="bold" font-size="1.7463" text-anchor="start" fill="currentColor">
<tspan>2</tspan>
</text>
</g>
</g>
<g transform="translate(8.8234, 44.6029)">
<path stroke-width="0.1200" stroke-linejoin="round" stroke-linecap="square" stroke="currentColor" fill="none" d="M-0.5500 0.8702L0.5500 0.8702"/>
</g>
<g transform="translate(7.8397, 50.1029)">
<text font-family="IPAexGothic" font-size="1.9601" text-anchor="start" fill="currentColor">
<tspan>し</tspan>
</text>
</g>
<g transform="translate(8.8199, 46.8529)">
<path stroke-width="0.1200" stroke-linejoin="miter" stroke-linecap="square" stroke="currentColor" fill="none" d="M-0.4120 -0.4220L0.2280 -0.4270L0.2680 -0.3860C0.1100 0.0460 -0.1310 0.2760 -0.4870 0.4570M0.4940 0.4340C0.3790 0.3130 0.2470 0.1870 0.0440 0.0360"/>
</g>
<g transform="translate(5.3731, 44.6029)">
<path stroke-width="0.1200" stroke-linejoin="round" stroke-linecap="square" stroke="currentColor" fill="none" d="M-0.5500 0.8702L0.5500 0.8702"/>
</g>
<g transform="translate(4.3895, 50.1029)">
<text font-family="IPAexGothic" font-size="1.9601" text-anchor="start" fill="currentColor">
<tspan>う</tspan>
</text>
</g>
<g color="rgb(100.0000%, 100.0000%, 100.0000%)">
<g transform="translate(4.7098, 44.6029)">
<rect x="0.1106" y="-0.6446" width="1.1056" height="1.2892" ry="0.0000" fill="currentColor"/>
</g>
</g>
<g transform="scale(1.0000, 1.0000)">
<g transform="translate(4.8203, 45.2475)">
<text font-family="IPAexGothic" font-weight="bold" font-size="1.7463" text-anchor="start" fill="currentColor">
<tspan>2</tspan>
</text>
</g>
</g>
<g transform="translate(4.7098, 42.3201)">
<text font-family="Libertinus Serif" font-size="1.5557" text-anchor="start" fill="currentColor">
<tspan> Ⅰ</tspan>
</text>
</g>
<g color="rgb(100.0000%, 100.0000%, 100.0000%)">
<g transform="translate(8.1600, 44.6029)">
<rect x="0.1106" y="-0.6446" width="1.1056" height="1.2892" ry="0.0000" fill="currentColor"/>
</g>
</g>
<g transform="scale(1.0000, 1.0000)">
<g transform="translate(8.2706, 45.2475)">
<text font-family="IPAexGothic" font-weight="bold" font-size="1.7463" text-anchor="start" fill="currentColor">
<tspan>2</tspan>
</text>
</g>
</g>
<g transform="translate(2.7049, 44.6029)">
<rect x="0.0000" y="-1.5328" width="0.1049" height="3.0656" ry="0.0328" fill="currentColor"/>
</g>
<g transform="translate(15.7239, 44.6029)">
<path stroke-width="0.1200" stroke-linejoin="round" stroke-linecap="square" stroke="currentColor" fill="none" d="M-0.5500 0.8702L0.5500 0.8702"/>
</g>
<g transform="translate(14.7402, 50.1029)">
<text font-family="IPAexGothic" font-size="1.9601" text-anchor="start" fill="currentColor">
<tspan>の</tspan>
</text>
</g>
<g color="rgb(100.0000%, 100.0000%, 100.0000%)">
<g transform="translate(15.0605, 44.6029)">
<rect x="0.1106" y="-0.6446" width="1.1056" height="1.2892" ry="0.0000" fill="currentColor"/>
</g>
</g>
<g transform="scale(1.0000, 1.0000)">
<g transform="translate(15.1711, 45.2475)">
<text font-family="IPAexGothic" font-weight="bold" font-size="1.7463" text-anchor="start" fill="currentColor">
<tspan>2</tspan>
</text>
</g>
</g>
<g transform="translate(15.7204, 46.8529)">
<path stroke-width="0.1200" stroke-linejoin="miter" stroke-linecap="square" stroke="currentColor" fill="none" d="M-0.4120 -0.4220L0.2280 -0.4270L0.2680 -0.3860C0.1100 0.0460 -0.1310 0.2760 -0.4870 0.4570M0.4940 0.4340C0.3790 0.3130 0.2470 0.1870 0.0440 0.0360"/>
</g>
<g color="rgb(100.0000%, 100.0000%, 100.0000%)">
<g transform="translate(19.4451, 44.6029)">
<rect x="0.1106" y="-0.6446" width="1.1056" height="1.2892" ry="0.0000" fill="currentColor"/>
</g>
</g>
<g transform="scale(1.0000, 1.0000)">
<g transform="translate(19.5557, 45.2475)">
<text font-family="IPAexGothic" font-weight="bold" font-size="1.7463" text-anchor="start" fill="currentColor">
<tspan>2</tspan>
</text>
</g>
</g>
<g transform="translate(12.2736, 44.6029)">
<path stroke-width="0.1200" stroke-linejoin="round" stroke-linecap="square" stroke="currentColor" fill="none" d="M-0.5500 0.8702L0.5500 0.8702"/>
</g>
<g transform="translate(11.2900, 50.1029)">
<text font-family="IPAexGothic" font-size="1.9601" text-anchor="start" fill="currentColor">
<tspan>ろ</tspan>
</text>
</g>
<g color="rgb(100.0000%, 100.0000%, 100.0000%)">
<g transform="translate(11.6103, 44.6029)">
<rect x="0.1106" y="-0.6446" width="1.1056" height="1.2892" ry="0.0000" fill="currentColor"/>
</g>
</g>
<g transform="scale(1.0000, 1.0000)">
<g transform="translate(11.7208, 45.2475)">
<text font-family="IPAexGothic" font-weight="bold" font-size="1.7463" text-anchor="start" fill="currentColor">
<tspan>2</tspan>
</text>
</g>
</g>
<g transform="translate(17.1575, 50.1029)">
<text font-family="IPAexGothic" font-size="1.9601" text-anchor="start" fill="currentColor">
<tspan>しょう</tspan>
</text>
</g>
</svg>
