<svg xmlns="http://www.w3.org/2000/svg" xmlns:xlink="http://www.w3.org/1999/xlink" version="1.2" width="210.00mm" height="297.00mm" viewBox="0 0 66.3898 93.8941">
<style type="text/css">
<![CDATA[
tspan { white-space: pre; }
]]>
</style>
<!-- Page: 1/1 -->
<g transform="translate(11.1535, 5.5138)">
<text font-family="IPAexGothic" font-weight="bold" font-size="3.4924" text-anchor="start" fill="currentColor">
<tspan>津軽じょんがら節六段ー1段</tspan>
</text>
</g>
<g transform="translate(19.6324, 9.0138)">
<text font-family="IPAexGothic" font-weight="bold" font-size="2.4695" text-anchor="start" fill="currentColor">
<tspan>オリンピックバージョン</tspan>
</text>
</g>
<g transform="translate(3.1614, 12.5138)">
<text font-family="IPAexGothic" font-size="2.2000" text-anchor="start" fill="currentColor">
<tspan>二上り</tspan>
</text>
</g>
<g transform="translate(3.1614, 22.1339)">
<line stroke-linejoin="round" stroke-linecap="round" stroke-width="0.0708" stroke="currentColor" x1="0.0354" y1="0" x2="60.0315" y2="0"/>
</g>
<g transform="translate(3.1614, 20.6339)">
<line stroke-linejoin="round" stroke-linecap="round" stroke-width="0.0708" stroke="currentColor" x1="0.0354" y1="0" x2="60.0315" y2="0"/>
</g>
<g transform="translate(3.1614, 19.1339)">
<line stroke-linejoin="round" stroke-linecap="round" stroke-width="0.0708" stroke="currentColor" x1="0.0354" y1="0" x2="60.0315" y2="0"/>
</g>
<g transform="translate(10.0910, 20.6339)">
<rect x="0.0000" y="-1.5000" width="0.1345" height="3.0000" ry="0.0000" fill="currentColor"/>
</g>
<g transform="translate(50.9714, 20.6339)">
<rect x="0.0000" y="-1.5000" width="0.1345" height="3.0000" ry="0.0000" fill="currentColor"/>
</g>
<g transform="translate(56.9280, 20.6339)">
<rect x="0.0000" y="-1.5000" width="0.1345" height="3.0000" ry="0.0000" fill="currentColor"/>
</g>
<g transform="translate(39.2782, 20.6339)">
<rect x="0.0000" y="-1.5000" width="0.1345" height="3.0000" ry="0.0000" fill="currentColor"/>
</g>
<g transform="translate(26.2303, 20.6339)">
<rect x="0.0000" y="-1.5000" width="0.1345" height="3.0000" ry="0.0000" fill="currentColor"/>
</g>
<g transform="translate(63.0938, 20.6339)">
<rect x="0.0000" y="-1.5000" width="0.1345" height="3.0000" ry="0.0000" fill="currentColor"/>
</g>
<g transform="translate(16.1579, 20.6339)">
<rect x="0.0000" y="-1.5000" width="0.1345" height="3.0000" ry="0.0000" fill="currentColor"/>
</g>
<g transform="translate(45.1248, 20.6339)">
<rect x="0.0000" y="-1.5000" width="0.1345" height="3.0000" ry="0.0000" fill="currentColor"/>
</g>
<g transform="translate(40.1952, 18.3485)">
<text font-family="IPAexGothic" font-size="0.9799" text-anchor="start" fill="currentColor">
<tspan>Ⅲ</tspan>
</text>
</g>
<g color="rgb(100.0000%, 100.0000%, 100.0000%)">
<g transform="translate(40.1952, 22.1339)">
<rect x="0.1100" y="-0.6489" width="1.1002" height="1.2977" ry="0.0000" fill="currentColor"/>
</g>
</g>
<g transform="scale(1.0000, 1.0000)">
<g transform="translate(40.3052, 22.7742)">
<text font-family="IPAexGothic" font-weight="bold" font-size="1.7462" text-anchor="start" fill="currentColor">
<tspan>6</tspan>
</text>
</g>
</g>
<g color="rgb(100.0000%, 100.0000%, 100.0000%)">
<g transform="translate(46.0418, 22.1339)">
<rect x="0.1100" y="-0.6489" width="1.1002" height="1.2977" ry="0.0000" fill="currentColor"/>
</g>
</g>
<g transform="scale(1.0000, 1.0000)">
<g transform="translate(46.1518, 22.7742)">
<text font-family="IPAexGothic" font-weight="bold" font-size="1.7462" text-anchor="start" fill="currentColor">
<tspan>6</tspan>
</text>
</g>
</g>
<g transform="translate(46.0418, 25.2315)">
<text font-family="IPAexGothic" font-size="0.9799" text-anchor="start" fill="currentColor">
<tspan>スリ</tspan>
</text>
</g>
<g color="rgb(100.0000%, 100.0000%, 100.0000%)">
<g transform="translate(42.6600, 22.1339)">
<rect x="0.1100" y="-0.6489" width="1.1002" height="1.2977" ry="0.0000" fill="currentColor"/>
</g>
</g>
<g transform="scale(1.0000, 1.0000)">
<g transform="translate(42.7700, 22.7742)">
<text font-family="IPAexGothic" font-weight="bold" font-size="1.7462" text-anchor="start" fill="currentColor">
<tspan>6</tspan>
</text>
</g>
</g>
<g color="rgb(100.0000%, 100.0000%, 100.0000%)">
<g transform="translate(31.6344, 22.1339)">
<rect x="0.1100" y="-0.6489" width="1.1002" height="1.2977" ry="0.0000" fill="currentColor"/>
</g>
</g>
<g transform="scale(1.0000, 1.0000)">
<g transform="translate(31.7444, 22.7742)">
<text font-family="IPAexGothic" font-weight="bold" font-size="1.7462" text-anchor="start" fill="currentColor">
<tspan>0</tspan>
</text>
</g>
</g>
<g transform="translate(46.0418, 20.6339)">
<path stroke-width="0.0566" stroke-linejoin="round" stroke-linecap="round" stroke="currentColor" fill="currentColor" d="M0.6601 2.8989C1.3622 3.5374 2.4228 3.5374 3.1249 2.8989L3.1249 2.8989C2.4228 3.4524 1.3622 3.4524 0.6601 2.8989z"/>
</g>
<g transform="translate(30.7953, 24.1718)">
<path stroke-width="0.1200" stroke-linejoin="miter" stroke-linecap="square" stroke="currentColor" fill="none" d="M-0.4120 -0.4220L0.2280 -0.4270L0.2680 -0.3860C0.1100 0.0460 -0.1310 0.2760 -0.4870 0.4570M0.4940 0.4340C0.3790 0.3130 0.2470 0.1870 0.0440 0.0360"/>
</g>
<g color="rgb(100.0000%, 100.0000%, 100.0000%)">
<g transform="translate(30.1387, 22.1339)">
<rect x="0.1100" y="-0.6489" width="1.1002" height="1.2977" ry="0.0000" fill="currentColor"/>
</g>
</g>
<g transform="scale(1.0000, 1.0000)">
<g transform="translate(30.2487, 22.7742)">
<text font-family="IPAexGothic" font-weight="bold" font-size="1.7462" text-anchor="start" fill="currentColor">
<tspan>0</tspan>
</text>
</g>
</g>
<g transform="translate(30.7988, 20.6339)">
<path stroke-width="0.1200" stroke-linejoin="round" stroke-linecap="square" stroke="currentColor" fill="none" d="M-0.5500 2.6760L0.5500 2.6760M-0.5500 2.3760L0.5500 2.3760"/>
</g>
<g transform="translate(31.6344, 18.3485)">
<text font-family="IPAexGothic" font-size="0.9799" text-anchor="start" fill="currentColor">
<tspan>Ⅰ</tspan>
</text>
</g>
<g transform="translate(32.2985, 24.0968)">
<path stroke-width="0.1200" stroke-linejoin="miter" stroke-linecap="square" stroke="currentColor" fill="none" d="M-0.2120 -0.3340C-0.2890 -0.0530 -0.4090 0.1570 -0.5530 0.3380M0.1550 -0.3520C0.3280 -0.1060 0.4580 0.1140 0.5450 0.3070"/>
</g>
<g color="rgb(100.0000%, 100.0000%, 100.0000%)">
<g transform="translate(36.8134, 22.1339)">
<rect x="0.1100" y="-0.6382" width="1.1002" height="1.2764" ry="0.0000" fill="currentColor"/>
</g>
</g>
<g transform="scale(1.0000, 1.0000)">
<g transform="translate(36.9234, 22.7721)">
<text font-family="IPAexGothic" font-weight="bold" font-size="1.7462" text-anchor="start" fill="currentColor">
<tspan>4</tspan>
</text>
</g>
</g>
<g transform="translate(32.2945, 20.6339)">
<path stroke-width="0.1200" stroke-linejoin="round" stroke-linecap="square" stroke="currentColor" fill="none" d="M-0.5500 2.6760L0.5500 2.6760M-0.5500 2.3760L0.5500 2.3760"/>
</g>
<g color="rgb(100.0000%, 100.0000%, 100.0000%)">
<g transform="translate(33.8299, 22.1339)">
<rect x="0.1100" y="-0.6489" width="1.1002" height="1.2977" ry="0.0000" fill="currentColor"/>
</g>
</g>
<g transform="scale(1.0000, 1.0000)">
<g transform="translate(33.9400, 22.7742)">
<text font-family="IPAexGothic" font-weight="bold" font-size="1.7462" text-anchor="start" fill="currentColor">
<tspan>0</tspan>
</text>
</g>
</g>
<g transform="translate(35.4969, 21.3839)">
<path transform="scale(0.0040, -0.0040)" d="M0 0c0 32 25 57 57 57s57 -25 57 -57s-25 -57 -57 -57s-57 25 -57 57z" fill="currentColor"/>
</g>
<g transform="translate(36.8134, 18.3485)">
<text font-family="IPAexGothic" font-size="0.9799" text-anchor="start" fill="currentColor">
<tspan>Ⅰ</tspan>
</text>
</g>
<g color="rgb(100.0000%, 100.0000%, 100.0000%)">
<g transform="translate(60.5190, 22.1339)">
<rect x="-0.3301" y="-0.6454" width="1.6503" height="1.2909" ry="0.0000" fill="currentColor"/>
</g>
</g>
<g transform="scale(0.7500, 1.0000)">
<g transform="translate(80.2520, 22.7793)">
<text font-family="IPAexGothic" font-weight="bold" font-size="1.7462" text-anchor="start" fill="currentColor">
<tspan>12</tspan>
</text>
</g>
</g>
<g color="rgb(100.0000%, 100.0000%, 100.0000%)">
<g transform="translate(57.9442, 22.1339)">
<rect x="-0.3301" y="-0.6497" width="1.6503" height="1.2994" ry="0.0000" fill="currentColor"/>
</g>
</g>
<g transform="scale(0.7500, 1.0000)">
<g transform="translate(76.8189, 22.7751)">
<text font-family="IPAexGothic" font-weight="bold" font-size="1.7462" text-anchor="start" fill="currentColor">
<tspan>10</tspan>
</text>
</g>
</g>
<g transform="translate(57.9442, 20.6339)">
<path stroke-width="0.0566" stroke-linejoin="round" stroke-linecap="round" stroke="currentColor" fill="currentColor" d="M0.4960 2.8997C1.2267 3.5618 2.3423 3.5600 3.0708 2.8954L3.0708 2.8954C2.3422 3.4750 1.2265 3.4769 0.4960 2.8997z"/>
</g>
<g transform="translate(51.8884, 20.6339)">
<path stroke-width="0.0566" stroke-linejoin="round" stroke-linecap="round" stroke="currentColor" fill="currentColor" d="M0.6600 2.8989C1.3200 3.5000 2.2992 3.5004 2.9597 2.8997L2.9597 2.8997C2.2993 3.4154 1.3200 3.4151 0.6600 2.8989z"/>
</g>
<g color="rgb(100.0000%, 100.0000%, 100.0000%)">
<g transform="translate(51.8884, 22.1339)">
<rect x="0.1100" y="-0.6489" width="1.1002" height="1.2977" ry="0.0000" fill="currentColor"/>
</g>
</g>
<g transform="scale(1.0000, 1.0000)">
<g transform="translate(51.9984, 22.7742)">
<text font-family="IPAexGothic" font-weight="bold" font-size="1.7462" text-anchor="start" fill="currentColor">
<tspan>9</tspan>
</text>
</g>
</g>
<g color="rgb(100.0000%, 100.0000%, 100.0000%)">
<g transform="translate(48.5066, 22.1339)">
<rect x="0.1100" y="-0.6489" width="1.1002" height="1.2977" ry="0.0000" fill="currentColor"/>
</g>
</g>
<g transform="scale(1.0000, 1.0000)">
<g transform="translate(48.6166, 22.7742)">
<text font-family="IPAexGothic" font-weight="bold" font-size="1.7462" text-anchor="start" fill="currentColor">
<tspan>9</tspan>
</text>
</g>
</g>
<g color="rgb(100.0000%, 100.0000%, 100.0000%)">
<g transform="translate(54.3532, 22.1339)">
<rect x="-0.3301" y="-0.6497" width="1.6503" height="1.2994" ry="0.0000" fill="currentColor"/>
</g>
</g>
<g transform="scale(0.7500, 1.0000)">
<g transform="translate(72.0308, 22.7751)">
<text font-family="IPAexGothic" font-weight="bold" font-size="1.7462" text-anchor="start" fill="currentColor">
<tspan>10</tspan>
</text>
</g>
</g>
<g transform="translate(17.7429, 20.6339)">
<path stroke-width="0.1200" stroke-linejoin="round" stroke-linecap="square" stroke="currentColor" fill="none" d="M-0.5500 1.1616L0.5500 1.1616M-0.5500 0.8616L0.5500 0.8616"/>
</g>
<g transform="translate(13.7228, 18.3485)">
<text font-family="IPAexGothic" font-size="0.9799" text-anchor="start" fill="currentColor">
<tspan>Ⅰ</tspan>
</text>
</g>
<g color="rgb(100.0000%, 100.0000%, 100.0000%)">
<g transform="translate(13.7228, 20.6339)">
<rect x="0.1100" y="-0.6489" width="1.1002" height="1.2977" ry="0.0000" fill="currentColor"/>
</g>
</g>
<g transform="scale(1.0000, 1.0000)">
<g transform="translate(13.8328, 21.2742)">
<text font-family="IPAexGothic" font-weight="bold" font-size="1.7462" text-anchor="start" fill="currentColor">
<tspan>3</tspan>
</text>
</g>
</g>
<g transform="translate(17.0828, 18.3485)">
<text font-family="IPAexGothic" font-size="0.9799" text-anchor="start" fill="currentColor">
<tspan>Ⅲ</tspan>
</text>
</g>
<g color="rgb(100.0000%, 100.0000%, 100.0000%)">
<g transform="translate(17.0828, 20.6339)">
<rect x="0.1100" y="-0.6382" width="1.1002" height="1.2764" ry="0.0000" fill="currentColor"/>
</g>
</g>
<g transform="scale(1.0000, 1.0000)">
<g transform="translate(17.1928, 21.2721)">
<text font-family="IPAexGothic" font-weight="bold" font-size="1.7462" text-anchor="start" fill="currentColor">
<tspan>4</tspan>
</text>
</g>
</g>
<g transform="translate(29.3031, 20.6339)">
<path stroke-width="0.1200" stroke-linejoin="round" stroke-linecap="square" stroke="currentColor" fill="none" d="M-0.5500 2.6760L0.5500 2.6760M-0.5500 2.3760L0.5500 2.3760"/>
</g>
<g transform="translate(18.5785, 18.3485)">
<text font-family="IPAexGothic" font-size="0.9799" text-anchor="start" fill="currentColor">
<tspan>Ⅲ</tspan>
</text>
</g>
<g transform="translate(19.2426, 22.8839)">
<path stroke-width="0.1200" stroke-linejoin="miter" stroke-linecap="square" stroke="currentColor" fill="none" d="M-0.2120 -0.3340C-0.2890 -0.0530 -0.4090 0.1570 -0.5530 0.3380M0.1550 -0.3520C0.3280 -0.1060 0.4580 0.1140 0.5450 0.3070"/>
</g>
<g color="rgb(100.0000%, 100.0000%, 100.0000%)">
<g transform="translate(18.5785, 20.6339)">
<rect x="0.1100" y="-0.6489" width="1.1002" height="1.2977" ry="0.0000" fill="currentColor"/>
</g>
</g>
<g transform="scale(1.0000, 1.0000)">
<g transform="translate(18.6885, 21.2742)">
<text font-family="IPAexGothic" font-weight="bold" font-size="1.7462" text-anchor="start" fill="currentColor">
<tspan>3</tspan>
</text>
</g>
</g>
<g transform="translate(3.1481, 20.6339)">
<rect x="0.0000" y="-1.5354" width="0.1133" height="3.0708" ry="0.0354" fill="currentColor"/>
</g>
<g color="rgb(100.0000%, 100.0000%, 100.0000%)">
<g transform="translate(5.1614, 22.1339)">
<rect x="0.1100" y="-0.6489" width="1.1002" height="1.2977" ry="0.0000" fill="currentColor"/>
</g>
</g>
<g transform="scale(1.0000, 1.0000)">
<g transform="translate(5.2714, 22.7742)">
<text font-family="IPAexGothic" font-weight="bold" font-size="1.7462" text-anchor="start" fill="currentColor">
<tspan>0</tspan>
</text>
</g>
</g>
<g transform="translate(7.6262, 18.3485)">
<text font-family="IPAexGothic" font-size="0.9799" text-anchor="start" fill="currentColor">
<tspan>Ⅰ</tspan>
</text>
</g>
<g color="rgb(100.0000%, 100.0000%, 100.0000%)">
<g transform="translate(7.6262, 22.1339)">
<rect x="0.1100" y="-0.6489" width="1.1002" height="1.2977" ry="0.0000" fill="currentColor"/>
</g>
</g>
<g transform="scale(1.0000, 1.0000)">
<g transform="translate(7.7362, 22.7742)">
<text font-family="IPAexGothic" font-weight="bold" font-size="1.7462" text-anchor="start" fill="currentColor">
<tspan>3</tspan>
</text>
</g>
</g>
<g transform="translate(11.0080, 18.3485)">
<text font-family="IPAexGothic" font-size="0.9799" text-anchor="start" fill="currentColor">
<tspan>Ⅲ</tspan>
</text>
</g>
<g color="rgb(100.0000%, 100.0000%, 100.0000%)">
<g transform="translate(11.0080, 22.1339)">
<rect x="0.1100" y="-0.6382" width="1.1002" height="1.2764" ry="0.0000" fill="currentColor"/>
</g>
</g>
<g transform="scale(1.0000, 1.0000)">
<g transform="translate(11.1180, 22.7721)">
<text font-family="IPAexGothic" font-weight="bold" font-size="1.7462" text-anchor="start" fill="currentColor">
<tspan>4</tspan>
</text>
</g>
</g>
<g transform="translate(23.7655, 18.3485)">
<text font-family="IPAexGothic" font-size="0.9799" text-anchor="start" fill="currentColor">
<tspan>Ⅲ</tspan>
</text>
</g>
<g color="rgb(100.0000%, 100.0000%, 100.0000%)">
<g transform="translate(23.7655, 22.1339)">
<rect x="0.1100" y="-0.6382" width="1.1002" height="1.2764" ry="0.0000" fill="currentColor"/>
</g>
</g>
<g transform="scale(1.0000, 1.0000)">
<g transform="translate(23.8755, 22.7721)">
<text font-family="IPAexGothic" font-weight="bold" font-size="1.7462" text-anchor="start" fill="currentColor">
<tspan>4</tspan>
</text>
</g>
</g>
<g transform="translate(27.1473, 18.3485)">
<text font-family="IPAexGothic" font-size="0.9799" text-anchor="start" fill="currentColor">
<tspan>Ⅲ</tspan>
</text>
</g>
<g color="rgb(100.0000%, 100.0000%, 100.0000%)">
<g transform="translate(27.1473, 22.1339)">
<rect x="0.1100" y="-0.6382" width="1.1002" height="1.2764" ry="0.0000" fill="currentColor"/>
</g>
</g>
<g transform="scale(1.0000, 1.0000)">
<g transform="translate(27.2573, 22.7721)">
<text font-family="IPAexGothic" font-weight="bold" font-size="1.7462" text-anchor="start" fill="currentColor">
<tspan>4</tspan>
</text>
</g>
</g>
<g transform="translate(27.8074, 20.6339)">
<path stroke-width="0.1200" stroke-linejoin="round" stroke-linecap="square" stroke="currentColor" fill="none" d="M-0.5500 2.6616L0.5500 2.6616M-0.5500 2.3616L0.5500 2.3616"/>
</g>
<g transform="translate(28.6430, 18.3485)">
<text font-family="IPAexGothic" font-size="0.9799" text-anchor="start" fill="currentColor">
<tspan>Ⅲ</tspan>
</text>
</g>
<g transform="translate(29.3071, 24.0968)">
<path stroke-width="0.1200" stroke-linejoin="miter" stroke-linecap="square" stroke="currentColor" fill="none" d="M-0.2120 -0.3340C-0.2890 -0.0530 -0.4090 0.1570 -0.5530 0.3380M0.1550 -0.3520C0.3280 -0.1060 0.4580 0.1140 0.5450 0.3070"/>
</g>
<g color="rgb(100.0000%, 100.0000%, 100.0000%)">
<g transform="translate(28.6430, 22.1339)">
<rect x="0.1100" y="-0.6489" width="1.1002" height="1.2977" ry="0.0000" fill="currentColor"/>
</g>
</g>
<g transform="scale(1.0000, 1.0000)">
<g transform="translate(28.7530, 22.7742)">
<text font-family="IPAexGothic" font-weight="bold" font-size="1.7462" text-anchor="start" fill="currentColor">
<tspan>3</tspan>
</text>
</g>
</g>
<g transform="translate(19.2386, 20.6339)">
<path stroke-width="0.1200" stroke-linejoin="round" stroke-linecap="square" stroke="currentColor" fill="none" d="M-0.5500 1.1760L0.5500 1.1760M-0.5500 0.8760L0.5500 0.8760"/>
</g>
<g transform="translate(20.7308, 22.8839)">
<path stroke-width="0.1200" stroke-linejoin="miter" stroke-linecap="square" stroke="currentColor" fill="none" d="M-0.4120 -0.4220L0.2280 -0.4270L0.2680 -0.3860C0.1100 0.0460 -0.1310 0.2760 -0.4870 0.4570M0.4940 0.4340C0.3790 0.3130 0.2470 0.1870 0.0440 0.0360"/>
</g>
<g color="rgb(100.0000%, 100.0000%, 100.0000%)">
<g transform="translate(20.0742, 20.6339)">
<rect x="0.1100" y="-0.6489" width="1.1002" height="1.2977" ry="0.0000" fill="currentColor"/>
</g>
</g>
<g transform="scale(1.0000, 1.0000)">
<g transform="translate(20.1842, 21.2742)">
<text font-family="IPAexGothic" font-weight="bold" font-size="1.7462" text-anchor="start" fill="currentColor">
<tspan>0</tspan>
</text>
</g>
</g>
<g transform="translate(20.7343, 20.6339)">
<path stroke-width="0.1200" stroke-linejoin="round" stroke-linecap="square" stroke="currentColor" fill="none" d="M-0.5500 1.1760L0.5500 1.1760M-0.5500 0.8760L0.5500 0.8760"/>
</g>
<g transform="translate(21.5699, 18.3485)">
<text font-family="IPAexGothic" font-size="0.9799" text-anchor="start" fill="currentColor">
<tspan>Ⅰ</tspan>
</text>
</g>
<g color="rgb(100.0000%, 100.0000%, 100.0000%)">
<g transform="translate(21.5699, 20.6339)">
<rect x="0.1100" y="-0.6489" width="1.1002" height="1.2977" ry="0.0000" fill="currentColor"/>
</g>
</g>
<g transform="scale(1.0000, 1.0000)">
<g transform="translate(21.6799, 21.2742)">
<text font-family="IPAexGothic" font-weight="bold" font-size="1.7462" text-anchor="start" fill="currentColor">
<tspan>0</tspan>
</text>
</g>
</g>
<g transform="translate(22.2340, 22.8839)">
<path stroke-width="0.1200" stroke-linejoin="miter" stroke-linecap="square" stroke="currentColor" fill="none" d="M-0.2120 -0.3340C-0.2890 -0.0530 -0.4090 0.1570 -0.5530 0.3380M0.1550 -0.3520C0.3280 -0.1060 0.4580 0.1140 0.5450 0.3070"/>
</g>
<g transform="translate(22.2300, 20.6339)">
<path stroke-width="0.1200" stroke-linejoin="round" stroke-linecap="square" stroke="currentColor" fill="none" d="M-0.5500 1.1760L0.5500 1.1760M-0.5500 0.8760L0.5500 0.8760"/>
</g>
<g transform="translate(3.1614, 31.8068)">
<line stroke-linejoin="round" stroke-linecap="round" stroke-width="0.0708" stroke="currentColor" x1="0.0354" y1="0" x2="60.0315" y2="0"/>
</g>
<g transform="translate(3.1614, 30.3068)">
<line stroke-linejoin="round" stroke-linecap="round" stroke-width="0.0708" stroke="currentColor" x1="0.0354" y1="0" x2="60.0315" y2="0"/>
</g>
<g transform="translate(3.1614, 28.8068)">
<line stroke-linejoin="round" stroke-linecap="round" stroke-width="0.0708" stroke="currentColor" x1="0.0354" y1="0" x2="60.0315" y2="0"/>
</g>
<g transform="translate(32.2518, 30.3068)">
<rect x="0.0000" y="-1.5000" width="0.1345" height="3.0000" ry="0.0000" fill="currentColor"/>
</g>
<g transform="translate(15.5848, 30.3068)">
<rect x="0.0000" y="-1.5000" width="0.1345" height="3.0000" ry="0.0000" fill="currentColor"/>
</g>
<g transform="translate(63.0938, 30.3068)">
<rect x="0.0000" y="-1.5000" width="0.1345" height="3.0000" ry="0.0000" fill="currentColor"/>
</g>
<g transform="translate(26.9053, 30.3068)">
<rect x="0.0000" y="-1.5000" width="0.1345" height="3.0000" ry="0.0000" fill="currentColor"/>
</g>
<g transform="translate(47.9352, 30.3068)">
<rect x="0.0000" y="-1.5000" width="0.1345" height="3.0000" ry="0.0000" fill="currentColor"/>
</g>
<g transform="translate(55.4392, 30.3068)">
<rect x="0.0000" y="-1.5000" width="0.1345" height="3.0000" ry="0.0000" fill="currentColor"/>
</g>
<g transform="translate(9.8695, 30.3068)">
<rect x="0.0000" y="-1.5000" width="0.1345" height="3.0000" ry="0.0000" fill="currentColor"/>
</g>
<g transform="translate(21.3000, 30.3068)">
<rect x="0.0000" y="-1.5000" width="0.1345" height="3.0000" ry="0.0000" fill="currentColor"/>
</g>
<g transform="translate(35.9632, 30.3068)">
<rect x="0.0000" y="-1.5000" width="0.1345" height="3.0000" ry="0.0000" fill="currentColor"/>
</g>
<g transform="translate(47.0416, 30.3068)">
<path stroke-width="0.1200" stroke-linejoin="round" stroke-linecap="square" stroke="currentColor" fill="none" d="M-0.5500 2.6760L0.5500 2.6760M-0.5500 2.3760L0.5500 2.3760"/>
</g>
<g color="rgb(100.0000%, 100.0000%, 100.0000%)">
<g transform="translate(46.3815, 31.8068)">
<rect x="0.1100" y="-0.6489" width="1.1002" height="1.2977" ry="0.0000" fill="currentColor"/>
</g>
</g>
<g transform="scale(1.0000, 1.0000)">
<g transform="translate(46.4915, 32.4471)">
<text font-family="IPAexGothic" font-weight="bold" font-size="1.7462" text-anchor="start" fill="currentColor">
<tspan>3</tspan>
</text>
</g>
</g>
<g transform="translate(46.3815, 28.0214)">
<text font-family="IPAexGothic" font-size="0.9799" text-anchor="start" fill="currentColor">
<tspan>Ⅰ</tspan>
</text>
</g>
<g transform="translate(49.4538, 30.3068)">
<path stroke-width="0.1200" stroke-linejoin="round" stroke-linecap="square" stroke="currentColor" fill="none" d="M-0.5500 2.3760L0.5500 2.3760"/>
</g>
<g color="rgb(100.0000%, 100.0000%, 100.0000%)">
<g transform="translate(48.7937, 31.8068)">
<rect x="0.1100" y="-0.6489" width="1.1002" height="1.2977" ry="0.0000" fill="currentColor"/>
</g>
</g>
<g transform="scale(1.0000, 1.0000)">
<g transform="translate(48.9037, 32.4471)">
<text font-family="IPAexGothic" font-weight="bold" font-size="1.7462" text-anchor="start" fill="currentColor">
<tspan>3</tspan>
</text>
</g>
</g>
<g transform="translate(48.7937, 28.0214)">
<text font-family="IPAexGothic" font-size="0.9799" text-anchor="start" fill="currentColor">
<tspan>Ⅰ</tspan>
</text>
</g>
<g transform="translate(39.1791, 30.3068)">
<path stroke-width="0.1200" stroke-linejoin="round" stroke-linecap="square" stroke="currentColor" fill="none" d="M-0.5500 2.3616L0.5500 2.3616"/>
</g>
<g transform="translate(40.8763, 30.3068)">
<path stroke-width="0.1200" stroke-linejoin="round" stroke-linecap="square" stroke="currentColor" fill="none" d="M-0.5500 2.6616L0.5500 2.6616M-0.5500 2.3616L0.5500 2.3616"/>
</g>
<g color="rgb(100.0000%, 100.0000%, 100.0000%)">
<g transform="translate(40.2162, 31.8068)">
<rect x="0.1100" y="-0.6382" width="1.1002" height="1.2764" ry="0.0000" fill="currentColor"/>
</g>
</g>
<g transform="scale(1.0000, 1.0000)">
<g transform="translate(40.3262, 32.4450)">
<text font-family="IPAexGothic" font-weight="bold" font-size="1.7462" text-anchor="start" fill="currentColor">
<tspan>4</tspan>
</text>
</g>
</g>
<g transform="translate(40.2162, 28.0214)">
<text font-family="IPAexGothic" font-size="0.9799" text-anchor="start" fill="currentColor">
<tspan>Ⅲ</tspan>
</text>
</g>
<g color="rgb(100.0000%, 100.0000%, 100.0000%)">
<g transform="translate(38.5189, 31.8068)">
<rect x="0.1100" y="-0.6382" width="1.1002" height="1.2764" ry="0.0000" fill="currentColor"/>
</g>
</g>
<g transform="scale(1.0000, 1.0000)">
<g transform="translate(38.6290, 32.4450)">
<text font-family="IPAexGothic" font-weight="bold" font-size="1.7462" text-anchor="start" fill="currentColor">
<tspan>4</tspan>
</text>
</g>
</g>
<g transform="translate(5.1614, 30.3068)">
<path stroke-width="0.0566" stroke-linejoin="round" stroke-linecap="round" stroke="currentColor" fill="currentColor" d="M0.4941 2.8954C1.1670 3.5100 2.1730 3.5118 2.8481 2.8997L2.8481 2.8997C2.1731 3.4269 1.1672 3.4251 0.4941 2.8954z"/>
</g>
<g transform="translate(45.6347, 31.0568)">
<path transform="scale(0.0040, -0.0040)" d="M0 0c0 32 25 57 57 57s57 -25 57 -57s-25 -57 -57 -57s-57 25 -57 57z" fill="currentColor"/>
</g>
<g color="rgb(100.0000%, 100.0000%, 100.0000%)">
<g transform="translate(43.1779, 31.8068)">
<rect x="0.1100" y="-0.6489" width="1.1002" height="1.2977" ry="0.0000" fill="currentColor"/>
</g>
</g>
<g transform="scale(1.0000, 1.0000)">
<g transform="translate(43.2879, 32.4471)">
<text font-family="IPAexGothic" font-weight="bold" font-size="1.7462" text-anchor="start" fill="currentColor">
<tspan>0</tspan>
</text>
</g>
</g>
<g transform="translate(43.8420, 33.7698)">
<path stroke-width="0.1200" stroke-linejoin="miter" stroke-linecap="square" stroke="currentColor" fill="none" d="M-0.2120 -0.3340C-0.2890 -0.0530 -0.4090 0.1570 -0.5530 0.3380M0.1550 -0.3520C0.3280 -0.1060 0.4580 0.1140 0.5450 0.3070"/>
</g>
<g transform="translate(43.1779, 28.0214)">
<text font-family="IPAexGothic" font-size="0.9799" text-anchor="start" fill="currentColor">
<tspan>Ⅰ</tspan>
</text>
</g>
<g transform="translate(43.8380, 30.3068)">
<path stroke-width="0.1200" stroke-linejoin="round" stroke-linecap="square" stroke="currentColor" fill="none" d="M-0.5500 2.6760L0.5500 2.6760M-0.5500 2.3760L0.5500 2.3760"/>
</g>
<g transform="translate(42.3200, 30.3068)">
<path stroke-width="0.1200" stroke-linejoin="round" stroke-linecap="square" stroke="currentColor" fill="none" d="M-0.5500 2.6760L0.5500 2.6760M-0.5500 2.3760L0.5500 2.3760"/>
</g>
<g color="rgb(100.0000%, 100.0000%, 100.0000%)">
<g transform="translate(41.6599, 31.8068)">
<rect x="0.1100" y="-0.6489" width="1.1002" height="1.2977" ry="0.0000" fill="currentColor"/>
</g>
</g>
<g transform="scale(1.0000, 1.0000)">
<g transform="translate(41.7699, 32.4471)">
<text font-family="IPAexGothic" font-weight="bold" font-size="1.7462" text-anchor="start" fill="currentColor">
<tspan>3</tspan>
</text>
</g>
</g>
<g transform="translate(42.3240, 33.7698)">
<path stroke-width="0.1200" stroke-linejoin="miter" stroke-linecap="square" stroke="currentColor" fill="none" d="M-0.2120 -0.3340C-0.2890 -0.0530 -0.4090 0.1570 -0.5530 0.3380M0.1550 -0.3520C0.3280 -0.1060 0.4580 0.1140 0.5450 0.3070"/>
</g>
<g transform="translate(41.6599, 28.0214)">
<text font-family="IPAexGothic" font-size="0.9799" text-anchor="start" fill="currentColor">
<tspan>Ⅲ</tspan>
</text>
</g>
<g color="rgb(100.0000%, 100.0000%, 100.0000%)">
<g transform="translate(61.3966, 30.3068)">
<rect x="0.1100" y="-0.6489" width="1.1002" height="1.2977" ry="0.0000" fill="currentColor"/>
</g>
</g>
<g transform="scale(1.0000, 1.0000)">
<g transform="translate(61.5066, 30.9471)">
<text font-family="IPAexGothic" font-weight="bold" font-size="1.7462" text-anchor="start" fill="currentColor">
<tspan>3</tspan>
</text>
</g>
</g>
<g transform="translate(61.3966, 28.0214)">
<text font-family="IPAexGothic" font-size="0.9799" text-anchor="start" fill="currentColor">
<tspan>Ⅰ</tspan>
</text>
</g>
<g transform="translate(60.3594, 30.3068)">
<path stroke-width="0.1200" stroke-linejoin="round" stroke-linecap="square" stroke="currentColor" fill="none" d="M-0.5500 0.8760L0.5500 0.8760"/>
</g>
<g color="rgb(100.0000%, 100.0000%, 100.0000%)">
<g transform="translate(59.6993, 30.3068)">
<rect x="0.1100" y="-0.6489" width="1.1002" height="1.2977" ry="0.0000" fill="currentColor"/>
</g>
</g>
<g transform="scale(1.0000, 1.0000)">
<g transform="translate(59.8093, 30.9471)">
<text font-family="IPAexGothic" font-weight="bold" font-size="1.7462" text-anchor="start" fill="currentColor">
<tspan>0</tspan>
</text>
</g>
</g>
<g transform="translate(62.0567, 30.3068)">
<path stroke-width="0.1200" stroke-linejoin="round" stroke-linecap="square" stroke="currentColor" fill="none" d="M-0.5500 0.8760L0.5500 0.8760"/>
</g>
<g transform="translate(58.6621, 30.3068)">
<path stroke-width="0.1200" stroke-linejoin="round" stroke-linecap="square" stroke="currentColor" fill="none" d="M-0.5500 2.3616L0.5500 2.3616"/>
</g>
<g color="rgb(100.0000%, 100.0000%, 100.0000%)">
<g transform="translate(58.0020, 31.8068)">
<rect x="0.1100" y="-0.6382" width="1.1002" height="1.2764" ry="0.0000" fill="currentColor"/>
</g>
</g>
<g transform="scale(1.0000, 1.0000)">
<g transform="translate(58.1121, 32.4450)">
<text font-family="IPAexGothic" font-weight="bold" font-size="1.7462" text-anchor="start" fill="currentColor">
<tspan>4</tspan>
</text>
</g>
</g>
<g transform="translate(58.0020, 28.0214)">
<text font-family="IPAexGothic" font-size="0.9799" text-anchor="start" fill="currentColor">
<tspan>Ⅲ</tspan>
</text>
</g>
<g transform="translate(10.8767, 30.3068)">
<path stroke-width="0.0566" stroke-linejoin="round" stroke-linecap="round" stroke="currentColor" fill="currentColor" d="M0.4961 2.8997C1.1712 3.5118 2.1772 3.5100 2.8501 2.8954L2.8501 2.8954C2.1770 3.4251 1.1711 3.4269 0.4961 2.8997z"/>
</g>
<g transform="translate(16.5919, 30.3068)">
<path stroke-width="0.0566" stroke-linejoin="round" stroke-linecap="round" stroke="currentColor" fill="currentColor" d="M0.4941 2.8954C1.1670 3.5100 2.1730 3.5118 2.8481 2.8997L2.8481 2.8997C2.1731 3.4269 1.1672 3.4251 0.4941 2.8954z"/>
</g>
<g transform="translate(22.3072, 30.3068)">
<path stroke-width="0.0566" stroke-linejoin="round" stroke-linecap="round" stroke="currentColor" fill="currentColor" d="M0.4953 2.8997C1.2111 3.5503 2.2988 3.5499 3.0143 2.8989L3.0143 2.8989C2.2988 3.4649 1.2111 3.4653 0.4953 2.8997z"/>
</g>
<g transform="translate(27.7638, 30.3068)">
<path stroke-width="0.0566" stroke-linejoin="round" stroke-linecap="round" stroke="currentColor" fill="currentColor" d="M0.6601 2.8989C1.3061 3.4870 2.2582 3.4870 2.9041 2.8989L2.9041 2.8989C2.2582 3.4020 1.3061 3.4020 0.6601 2.8989z"/>
</g>
<g transform="translate(33.7192, 30.3068)">
<path stroke-width="0.0566" stroke-linejoin="round" stroke-linecap="round" stroke="currentColor" fill="currentColor" d="M0.6615 2.8989C1.4383 3.5994 2.6453 3.5947 3.4166 2.8882L3.4166 2.8882C2.6449 3.5098 1.4380 3.5144 0.6615 2.8989z"/>
</g>
<g color="rgb(100.0000%, 100.0000%, 100.0000%)">
<g transform="translate(52.1882, 31.8068)">
<rect x="0.1100" y="-0.6382" width="1.1002" height="1.2764" ry="0.0000" fill="currentColor"/>
</g>
</g>
<g transform="scale(1.0000, 1.0000)">
<g transform="translate(52.2982, 32.4450)">
<text font-family="IPAexGothic" font-weight="bold" font-size="1.7462" text-anchor="start" fill="currentColor">
<tspan>4</tspan>
</text>
</g>
</g>
<g transform="translate(54.5456, 30.3068)">
<path stroke-width="0.1200" stroke-linejoin="round" stroke-linecap="square" stroke="currentColor" fill="none" d="M-0.5500 1.1760L0.5500 1.1760M-0.5500 0.8760L0.5500 0.8760"/>
</g>
<g color="rgb(100.0000%, 100.0000%, 100.0000%)">
<g transform="translate(53.8855, 30.3068)">
<rect x="0.1100" y="-0.6489" width="1.1002" height="1.2977" ry="0.0000" fill="currentColor"/>
</g>
</g>
<g transform="scale(1.0000, 1.0000)">
<g transform="translate(53.9955, 30.9471)">
<text font-family="IPAexGothic" font-weight="bold" font-size="1.7462" text-anchor="start" fill="currentColor">
<tspan>3</tspan>
</text>
</g>
</g>
<g transform="translate(53.8855, 28.0214)">
<text font-family="IPAexGothic" font-size="0.9799" text-anchor="start" fill="currentColor">
<tspan>Ⅰ</tspan>
</text>
</g>
<g transform="translate(52.8483, 30.3068)">
<path stroke-width="0.1200" stroke-linejoin="round" stroke-linecap="square" stroke="currentColor" fill="none" d="M-0.5500 2.3616L0.5500 2.3616"/>
</g>
<g transform="translate(52.1882, 28.0214)">
<text font-family="IPAexGothic" font-size="0.9799" text-anchor="start" fill="currentColor">
<tspan>Ⅲ</tspan>
</text>
</g>
<g transform="translate(51.1510, 30.3068)">
<path stroke-width="0.1200" stroke-linejoin="round" stroke-linecap="square" stroke="currentColor" fill="none" d="M-0.5500 2.3760L0.5500 2.3760"/>
</g>
<g color="rgb(100.0000%, 100.0000%, 100.0000%)">
<g transform="translate(50.4909, 31.8068)">
<rect x="0.1100" y="-0.6489" width="1.1002" height="1.2977" ry="0.0000" fill="currentColor"/>
</g>
</g>
<g transform="scale(1.0000, 1.0000)">
<g transform="translate(50.6010, 32.4471)">
<text font-family="IPAexGothic" font-weight="bold" font-size="1.7462" text-anchor="start" fill="currentColor">
<tspan>3</tspan>
</text>
</g>
</g>
<g transform="translate(50.4909, 28.0214)">
<text font-family="IPAexGothic" font-size="0.9799" text-anchor="start" fill="currentColor">
<tspan>Ⅰ</tspan>
</text>
</g>
<g transform="translate(56.9649, 30.3068)">
<path stroke-width="0.1200" stroke-linejoin="round" stroke-linecap="square" stroke="currentColor" fill="none" d="M-0.5500 0.8760L0.5500 0.8760"/>
</g>
<g color="rgb(100.0000%, 100.0000%, 100.0000%)">
<g transform="translate(56.3048, 30.3068)">
<rect x="0.1100" y="-0.6489" width="1.1002" height="1.2977" ry="0.0000" fill="currentColor"/>
</g>
</g>
<g transform="scale(1.0000, 1.0000)">
<g transform="translate(56.4148, 30.9471)">
<text font-family="IPAexGothic" font-weight="bold" font-size="1.7462" text-anchor="start" fill="currentColor">
<tspan>0</tspan>
</text>
</g>
</g>
<g color="rgb(100.0000%, 100.0000%, 100.0000%)">
<g transform="translate(16.5919, 31.8068)">
<rect x="-0.3301" y="-0.6454" width="1.6503" height="1.2909" ry="0.0000" fill="currentColor"/>
</g>
</g>
<g transform="scale(0.7500, 1.0000)">
<g transform="translate(21.6825, 32.4523)">
<text font-family="IPAexGothic" font-weight="bold" font-size="1.7462" text-anchor="start" fill="currentColor">
<tspan>12</tspan>
</text>
</g>
</g>
<g color="rgb(100.0000%, 100.0000%, 100.0000%)">
<g transform="translate(13.2307, 31.8068)">
<rect x="-0.3301" y="-0.6454" width="1.6503" height="1.2909" ry="0.0000" fill="currentColor"/>
</g>
</g>
<g transform="scale(0.7500, 1.0000)">
<g transform="translate(17.2009, 32.4523)">
<text font-family="IPAexGothic" font-weight="bold" font-size="1.7462" text-anchor="start" fill="currentColor">
<tspan>12</tspan>
</text>
</g>
</g>
<g color="rgb(100.0000%, 100.0000%, 100.0000%)">
<g transform="translate(22.3072, 31.8068)">
<rect x="-0.3301" y="-0.6497" width="1.6503" height="1.2994" ry="0.0000" fill="currentColor"/>
</g>
</g>
<g transform="scale(0.7500, 1.0000)">
<g transform="translate(29.3028, 32.4480)">
<text font-family="IPAexGothic" font-weight="bold" font-size="1.7462" text-anchor="start" fill="currentColor">
<tspan>10</tspan>
</text>
</g>
</g>
<g color="rgb(100.0000%, 100.0000%, 100.0000%)">
<g transform="translate(18.9460, 31.8068)">
<rect x="-0.3301" y="-0.6497" width="1.6503" height="1.2994" ry="0.0000" fill="currentColor"/>
</g>
</g>
<g transform="scale(0.7500, 1.0000)">
<g transform="translate(24.8212, 32.4480)">
<text font-family="IPAexGothic" font-weight="bold" font-size="1.7462" text-anchor="start" fill="currentColor">
<tspan>10</tspan>
</text>
</g>
</g>
<g color="rgb(100.0000%, 100.0000%, 100.0000%)">
<g transform="translate(5.1614, 31.8068)">
<rect x="-0.3301" y="-0.6454" width="1.6503" height="1.2909" ry="0.0000" fill="currentColor"/>
</g>
</g>
<g transform="scale(0.7500, 1.0000)">
<g transform="translate(6.4418, 32.4523)">
<text font-family="IPAexGothic" font-weight="bold" font-size="1.7462" text-anchor="start" fill="currentColor">
<tspan>12</tspan>
</text>
</g>
</g>
<g transform="translate(3.1481, 30.3068)">
<rect x="0.0000" y="-1.5354" width="0.1133" height="3.0708" ry="0.0354" fill="currentColor"/>
</g>
<g color="rgb(100.0000%, 100.0000%, 100.0000%)">
<g transform="translate(10.8767, 31.8068)">
<rect x="-0.3301" y="-0.6497" width="1.6503" height="1.2994" ry="0.0000" fill="currentColor"/>
</g>
</g>
<g transform="scale(0.7500, 1.0000)">
<g transform="translate(14.0622, 32.4480)">
<text font-family="IPAexGothic" font-weight="bold" font-size="1.7462" text-anchor="start" fill="currentColor">
<tspan>10</tspan>
</text>
</g>
</g>
<g color="rgb(100.0000%, 100.0000%, 100.0000%)">
<g transform="translate(7.5155, 31.8068)">
<rect x="-0.3301" y="-0.6497" width="1.6503" height="1.2994" ry="0.0000" fill="currentColor"/>
</g>
</g>
<g transform="scale(0.7500, 1.0000)">
<g transform="translate(9.5806, 32.4480)">
<text font-family="IPAexGothic" font-weight="bold" font-size="1.7462" text-anchor="start" fill="currentColor">
<tspan>10</tspan>
</text>
</g>
</g>
<g color="rgb(100.0000%, 100.0000%, 100.0000%)">
<g transform="translate(33.7192, 31.8068)">
<rect x="0.1100" y="-0.6489" width="1.1002" height="1.2977" ry="0.0000" fill="currentColor"/>
</g>
</g>
<g transform="scale(1.0000, 1.0000)">
<g transform="translate(33.8292, 32.4471)">
<text font-family="IPAexGothic" font-weight="bold" font-size="1.7462" text-anchor="start" fill="currentColor">
<tspan>6</tspan>
</text>
</g>
</g>
<g color="rgb(100.0000%, 100.0000%, 100.0000%)">
<g transform="translate(30.0078, 31.8068)">
<rect x="0.1100" y="-0.6489" width="1.1002" height="1.2977" ry="0.0000" fill="currentColor"/>
</g>
</g>
<g transform="scale(1.0000, 1.0000)">
<g transform="translate(30.1178, 32.4471)">
<text font-family="IPAexGothic" font-weight="bold" font-size="1.7462" text-anchor="start" fill="currentColor">
<tspan>6</tspan>
</text>
</g>
</g>
<g transform="translate(37.4818, 30.3068)">
<path stroke-width="0.1200" stroke-linejoin="round" stroke-linecap="square" stroke="currentColor" fill="none" d="M-0.5500 2.3616L0.5500 2.3616"/>
</g>
<g color="rgb(100.0000%, 100.0000%, 100.0000%)">
<g transform="translate(36.8217, 31.8068)">
<rect x="0.1100" y="-0.6382" width="1.1002" height="1.2764" ry="0.0000" fill="currentColor"/>
</g>
</g>
<g transform="scale(1.0000, 1.0000)">
<g transform="translate(36.9317, 32.4450)">
<text font-family="IPAexGothic" font-weight="bold" font-size="1.7462" text-anchor="start" fill="currentColor">
<tspan>4</tspan>
</text>
</g>
</g>
<g color="rgb(100.0000%, 100.0000%, 100.0000%)">
<g transform="translate(24.6612, 31.8068)">
<rect x="0.1100" y="-0.6489" width="1.1002" height="1.2977" ry="0.0000" fill="currentColor"/>
</g>
</g>
<g transform="scale(1.0000, 1.0000)">
<g transform="translate(24.7712, 32.4471)">
<text font-family="IPAexGothic" font-weight="bold" font-size="1.7462" text-anchor="start" fill="currentColor">
<tspan>9</tspan>
</text>
</g>
</g>
<g color="rgb(100.0000%, 100.0000%, 100.0000%)">
<g transform="translate(27.7638, 31.8068)">
<rect x="0.1100" y="-0.6489" width="1.1002" height="1.2977" ry="0.0000" fill="currentColor"/>
</g>
</g>
<g transform="scale(1.0000, 1.0000)">
<g transform="translate(27.8738, 32.4471)">
<text font-family="IPAexGothic" font-weight="bold" font-size="1.7462" text-anchor="start" fill="currentColor">
<tspan>9</tspan>
</text>
</g>
</g>
</svg>
