<svg xmlns="http://www.w3.org/2000/svg" xmlns:xlink="http://www.w3.org/1999/xlink" version="1.2" width="210.00mm" height="297.00mm" viewBox="0 0 66.3898 93.8941">
<style type="text/css">
<![CDATA[
tspan { white-space: pre; }
]]>
</style>
<!-- Page: 3/3 -->
<g transform="translate(61.8436, 3.2049)">
<text font-family="IPAexGothic" font-size="2.2000" text-anchor="start" fill="currentColor">
<tspan>3</tspan>
</text>
</g>
<g transform="translate(63.0938, 7.9957)">
<rect x="0.0000" y="-2.0000" width="0.1345" height="4.0354" ry="0.0000" fill="currentColor"/>
</g>
<g transform="translate(50.7724, 16.1093)">
<rect x="0.0000" y="-1.5354" width="0.1345" height="3.0354" ry="0.0000" fill="currentColor"/>
</g>
<g transform="translate(50.7724, 4.2157)">
<rect x="0.0000" y="5.8154" width="0.1345" height="4.5782" ry="0.0000" fill="currentColor"/>
</g>
<g transform="translate(21.7196, 7.9957)">
<rect x="0.0000" y="-2.0000" width="0.1345" height="4.0354" ry="0.0000" fill="currentColor"/>
</g>
<g transform="translate(50.7724, 7.9957)">
<rect x="0.0000" y="-2.0000" width="0.1345" height="4.0354" ry="0.0000" fill="currentColor"/>
</g>
<g transform="translate(21.7196, 16.1093)">
<rect x="0.0000" y="-1.5354" width="0.1345" height="3.0354" ry="0.0000" fill="currentColor"/>
</g>
<g transform="translate(56.9331, 7.9957)">
<rect x="0.0000" y="-2.0000" width="0.1345" height="4.0354" ry="0.0000" fill="currentColor"/>
</g>
<g transform="translate(21.7196, 4.2157)">
<rect x="0.0000" y="5.8154" width="0.1345" height="4.5782" ry="0.0000" fill="currentColor"/>
</g>
<g transform="translate(34.9858, 4.2157)">
<rect x="0.0000" y="5.8154" width="0.1345" height="4.5782" ry="0.0000" fill="currentColor"/>
</g>
<g transform="translate(56.9331, 16.1093)">
<rect x="0.0000" y="-1.5354" width="0.1345" height="3.0354" ry="0.0000" fill="currentColor"/>
</g>
<g transform="translate(34.9858, 16.1093)">
<rect x="0.0000" y="-1.5354" width="0.1345" height="3.0354" ry="0.0000" fill="currentColor"/>
</g>
<g transform="translate(56.9331, 4.2157)">
<rect x="0.0000" y="5.8154" width="0.1345" height="4.5782" ry="0.0000" fill="currentColor"/>
</g>
<g transform="translate(34.9858, 7.9957)">
<rect x="0.0000" y="-2.0000" width="0.1345" height="4.0354" ry="0.0000" fill="currentColor"/>
</g>
<g transform="translate(63.0938, 16.1093)">
<rect x="0.0000" y="-1.5354" width="0.1345" height="3.0354" ry="0.0000" fill="currentColor"/>
</g>
<g transform="translate(63.0938, 4.2157)">
<rect x="0.0000" y="5.8154" width="0.1345" height="4.5782" ry="0.0000" fill="currentColor"/>
</g>
<g transform="translate(3.1614, 9.9957)">
<line stroke-linejoin="round" stroke-linecap="round" stroke-width="0.0708" stroke="currentColor" x1="0.0354" y1="0" x2="60.0315" y2="0"/>
</g>
<g transform="translate(3.1614, 8.9957)">
<line stroke-linejoin="round" stroke-linecap="round" stroke-width="0.0708" stroke="currentColor" x1="0.0354" y1="0" x2="60.0315" y2="0"/>
</g>
<g transform="translate(3.1614, 7.9957)">
<line stroke-linejoin="round" stroke-linecap="round" stroke-width="0.0708" stroke="currentColor" x1="0.0354" y1="0" x2="60.0315" y2="0"/>
</g>
<g transform="translate(3.1614, 6.9957)">
<line stroke-linejoin="round" stroke-linecap="round" stroke-width="0.0708" stroke="currentColor" x1="0.0354" y1="0" x2="60.0315" y2="0"/>
</g>
<g transform="translate(3.1614, 5.9957)">
<line stroke-linejoin="round" stroke-linecap="round" stroke-width="0.0708" stroke="currentColor" x1="0.0354" y1="0" x2="60.0315" y2="0"/>
</g>
<g transform="translate(3.1614, 17.6093)">
<line stroke-linejoin="round" stroke-linecap="round" stroke-width="0.0708" stroke="currentColor" x1="0.0354" y1="0" x2="60.0315" y2="0"/>
</g>
<g transform="translate(3.1614, 16.1093)">
<line stroke-linejoin="round" stroke-linecap="round" stroke-width="0.0708" stroke="currentColor" x1="0.0354" y1="0" x2="60.0315" y2="0"/>
</g>
<g transform="translate(3.1614, 14.6093)">
<line stroke-linejoin="round" stroke-linecap="round" stroke-width="0.0708" stroke="currentColor" x1="0.0354" y1="0" x2="60.0315" y2="0"/>
</g>
<g transform="translate(37.7850, 6.9957)">
<path transform="scale(0.0040, -0.0040)" d="M215 -316c0 -9 -8 -17 -17 -17s-17 8 -17 17v151l-87 -31v-162c0 -9 -8 -17 -17 -17s-17 8 -17 17v150l-39 -13c-10 -4 -21 4 -21 15v64c0 7 5 13 11 15l49 18v164l-39 -14c-10 -4 -21 4 -21 15v65c0 7 5 13 11 15l49 17v163c0 9 8 17 17 17s17 -8 17 -17v-151l87 31v162
c0 9 8 17 17 17s17 -8 17 -17v-150l39 13c10 4 21 -4 21 -15v-64c0 -7 -5 -13 -11 -15l-49 -18v-164l39 14c10 4 21 -4 21 -15v-65c0 -7 -5 -13 -11 -15l-49 -17v-163zM94 67v-164l87 30v164z" fill="currentColor"/>
</g>
<g transform="translate(42.4466, 7.4957)">
<path transform="scale(0.0040, -0.0040)" d="M222 135c53 0 104 -27 104 -86c0 -71 -56 -120 -103 -148c-36 -22 -76 -36 -118 -36c-53 0 -105 27 -105 86c0 71 57 120 104 148c36 22 76 36 118 36z" fill="currentColor"/>
</g>
<g transform="translate(42.4466, 13.4980)">
<text font-family="Libertinus Serif" font-size="1.2346" text-anchor="start" fill="currentColor">
<tspan> Ⅰ</tspan>
</text>
</g>
<g transform="translate(43.1107, 16.8593)">
<path stroke-width="0.1200" stroke-linejoin="miter" stroke-linecap="square" stroke="currentColor" fill="none" d="M-0.2120 -0.3340C-0.2890 -0.0530 -0.4090 0.1570 -0.5530 0.3380M0.1550 -0.3520C0.3280 -0.1060 0.4580 0.1140 0.5450 0.3070"/>
</g>
<g color="rgb(100.0000%, 100.0000%, 100.0000%)">
<g transform="translate(42.4466, 14.6093)">
<rect x="0.1100" y="-0.6489" width="1.1002" height="1.2977" ry="0.0000" fill="currentColor"/>
</g>
</g>
<g transform="scale(1.0000, 1.0000)">
<g transform="translate(42.5566, 15.2496)">
<text font-family="IPAexGothic" font-weight="bold" font-size="1.7462" text-anchor="start" fill="currentColor">
<tspan>0</tspan>
</text>
</g>
</g>
<g transform="translate(42.4926, 7.9957)">
<rect x="-0.0460" y="-0.3033" width="0.0920" height="3.0930" ry="0.0222" fill="currentColor"/>
</g>
<g transform="translate(39.2810, 7.9957)">
<rect x="-0.0460" y="-0.8033" width="0.0920" height="3.1975" ry="0.0222" fill="currentColor"/>
</g>
<g transform="translate(32.0251, 5.9957)">
<path transform="scale(0.0040, -0.0040)" d="M222 135c53 0 104 -27 104 -86c0 -71 -56 -120 -103 -148c-36 -22 -76 -36 -118 -36c-53 0 -105 27 -105 86c0 71 57 120 104 148c36 22 76 36 118 36z" fill="currentColor"/>
</g>
<g color="rgb(100.0000%, 100.0000%, 100.0000%)">
<g transform="translate(39.2350, 14.6093)">
<rect x="0.1100" y="-0.6489" width="1.1002" height="1.2977" ry="0.0000" fill="currentColor"/>
</g>
</g>
<g transform="scale(1.0000, 1.0000)">
<g transform="translate(39.3450, 15.2496)">
<text font-family="IPAexGothic" font-weight="bold" font-size="1.7462" text-anchor="start" fill="currentColor">
<tspan>3</tspan>
</text>
</g>
</g>
<g transform="translate(39.8991, 16.8593)">
<path stroke-width="0.1200" stroke-linejoin="miter" stroke-linecap="square" stroke="currentColor" fill="none" d="M-0.2120 -0.3340C-0.2890 -0.0530 -0.4090 0.1570 -0.5530 0.3380M0.1550 -0.3520C0.3280 -0.1060 0.4580 0.1140 0.5450 0.3070"/>
</g>
<g transform="translate(39.2350, 13.4980)">
<text font-family="Libertinus Serif" font-size="1.2346" text-anchor="start" fill="currentColor">
<tspan> Ⅲ</tspan>
</text>
</g>
<g transform="translate(40.8408, 7.4957)">
<path transform="scale(0.0040, -0.0040)" d="M222 135c53 0 104 -27 104 -86c0 -71 -56 -120 -103 -148c-36 -22 -76 -36 -118 -36c-53 0 -105 27 -105 86c0 71 57 120 104 148c36 22 76 36 118 36z" fill="currentColor"/>
</g>
<g transform="translate(41.5009, 16.1093)">
<path stroke-width="0.1200" stroke-linejoin="round" stroke-linecap="square" stroke="currentColor" fill="none" d="M-0.5500 -0.3240L0.5500 -0.3240M-0.5500 -0.6240L0.5500 -0.6240"/>
</g>
<g transform="translate(40.8868, 7.9957)">
<rect x="-0.0460" y="-0.3033" width="0.0920" height="2.8953" ry="0.0222" fill="currentColor"/>
</g>
<g color="rgb(100.0000%, 100.0000%, 100.0000%)">
<g transform="translate(40.8408, 14.6093)">
<rect x="0.1100" y="-0.6489" width="1.1002" height="1.2977" ry="0.0000" fill="currentColor"/>
</g>
</g>
<g transform="scale(1.0000, 1.0000)">
<g transform="translate(40.9508, 15.2496)">
<text font-family="IPAexGothic" font-weight="bold" font-size="1.7462" text-anchor="start" fill="currentColor">
<tspan>0</tspan>
</text>
</g>
</g>
<g transform="translate(41.4974, 16.8593)">
<path stroke-width="0.1200" stroke-linejoin="miter" stroke-linecap="square" stroke="currentColor" fill="none" d="M-0.4120 -0.4220L0.2280 -0.4270L0.2680 -0.3860C0.1100 0.0460 -0.1310 0.2760 -0.4870 0.4570M0.4940 0.4340C0.3790 0.3130 0.2470 0.1870 0.0440 0.0360"/>
</g>
<g transform="translate(39.8951, 16.1093)">
<path stroke-width="0.1200" stroke-linejoin="round" stroke-linecap="square" stroke="currentColor" fill="none" d="M-0.5500 -0.3240L0.5500 -0.3240M-0.5500 -0.6240L0.5500 -0.6240"/>
</g>
<g transform="translate(36.1252, 7.9957)">
<rect x="-0.0460" y="-1.8033" width="0.0920" height="3.8089" ry="0.0222" fill="currentColor"/>
</g>
<g color="rgb(100.0000%, 100.0000%, 100.0000%)">
<g transform="translate(36.0792, 14.6093)">
<rect x="0.1100" y="-0.6382" width="1.1002" height="1.2764" ry="0.0000" fill="currentColor"/>
</g>
</g>
<g transform="scale(1.0000, 1.0000)">
<g transform="translate(36.1892, 15.2475)">
<text font-family="IPAexGothic" font-weight="bold" font-size="1.7462" text-anchor="start" fill="currentColor">
<tspan>4</tspan>
</text>
</g>
</g>
<g transform="translate(36.0792, 13.5086)">
<text font-family="Libertinus Serif" font-size="1.2346" text-anchor="start" fill="currentColor">
<tspan> Ⅲ</tspan>
</text>
</g>
<g transform="translate(36.0792, 5.9957)">
<path transform="scale(0.0040, -0.0040)" d="M222 135c53 0 104 -27 104 -86c0 -71 -56 -120 -103 -148c-36 -22 -76 -36 -118 -36c-53 0 -105 27 -105 86c0 71 57 120 104 148c36 22 76 36 118 36z" fill="currentColor"/>
</g>
<g transform="translate(32.6852, 16.1093)">
<path stroke-width="0.1200" stroke-linejoin="round" stroke-linecap="square" stroke="currentColor" fill="none" d="M-0.5500 -0.6384L0.5500 -0.6384"/>
</g>
<g transform="translate(32.0711, 7.9957)">
<rect x="-0.0460" y="-1.8033" width="0.0920" height="2.8003" ry="0.0222" fill="currentColor"/>
</g>
<g color="rgb(100.0000%, 100.0000%, 100.0000%)">
<g transform="translate(32.0251, 14.6093)">
<rect x="0.1100" y="-0.6382" width="1.1002" height="1.2764" ry="0.0000" fill="currentColor"/>
</g>
</g>
<g transform="scale(1.0000, 1.0000)">
<g transform="translate(32.1351, 15.2475)">
<text font-family="IPAexGothic" font-weight="bold" font-size="1.7462" text-anchor="start" fill="currentColor">
<tspan>4</tspan>
</text>
</g>
</g>
<g transform="translate(32.0251, 13.5086)">
<text font-family="Libertinus Serif" font-size="1.2346" text-anchor="start" fill="currentColor">
<tspan> Ⅲ</tspan>
</text>
</g>
<g transform="translate(7.0264, 9.2003)">
<polygon stroke-linejoin="round" stroke-linecap="round" stroke-width="0.0444" fill="currentColor" stroke="currentColor" points="6.4372 0.5776 6.4372 1.0132 0.0222 0.2178 0.0222 -0.2178"/>
</g>
<g transform="translate(7.0264, 9.9957)">
<polygon stroke-linejoin="round" stroke-linecap="round" stroke-width="0.0444" fill="currentColor" stroke="currentColor" points="6.4372 0.5776 6.4372 1.0132 0.0222 0.2178 0.0222 -0.2178"/>
</g>
<g transform="translate(39.2350, 6.9957)">
<path transform="scale(0.0040, -0.0040)" d="M222 135c53 0 104 -27 104 -86c0 -71 -56 -120 -103 -148c-36 -22 -76 -36 -118 -36c-53 0 -105 27 -105 86c0 71 57 120 104 148c36 22 76 36 118 36z" fill="currentColor"/>
</g>
<g transform="translate(36.7393, 16.1093)">
<path stroke-width="0.1200" stroke-linejoin="round" stroke-linecap="square" stroke="currentColor" fill="none" d="M-0.5500 -0.3384L0.5500 -0.3384M-0.5500 -0.6384L0.5500 -0.6384"/>
</g>
<g transform="translate(15.5622, 9.7911)">
<polygon stroke-linejoin="round" stroke-linecap="round" stroke-width="0.0444" fill="currentColor" stroke="currentColor" points="3.2735 -0.8086 3.2735 -0.3730 0.0222 0.2178 0.0222 -0.2178"/>
</g>
<g transform="translate(22.7890, 8.7911)">
<polygon stroke-linejoin="round" stroke-linecap="round" stroke-width="0.0444" fill="currentColor" stroke="currentColor" points="3.1485 -0.2178 3.1485 0.2178 0.0222 0.2178 0.0222 -0.2178"/>
</g>
<g transform="translate(28.9464, 8.7911)">
<polygon stroke-linejoin="round" stroke-linecap="round" stroke-width="0.0444" fill="currentColor" stroke="currentColor" points="3.1485 -0.0132 3.1485 0.4224 0.0222 0.2178 0.0222 -0.2178"/>
</g>
<g transform="translate(36.0792, 9.2003)">
<polygon stroke-linejoin="round" stroke-linecap="round" stroke-width="0.0444" fill="currentColor" stroke="currentColor" points="6.4372 0.5776 6.4372 1.0132 0.0222 0.2178 0.0222 -0.2178"/>
</g>
<g transform="translate(36.0792, 9.9957)">
<polygon stroke-linejoin="round" stroke-linecap="round" stroke-width="0.0444" fill="currentColor" stroke="currentColor" points="6.4372 0.5776 6.4372 1.0132 0.0222 0.2178 0.0222 -0.2178"/>
</g>
<g transform="translate(54.5094, 8.4957)">
<path transform="scale(0.0040, -0.0040)" d="M0 0c0 32 25 57 57 57s57 -25 57 -57s-25 -57 -57 -57s-57 25 -57 57z" fill="currentColor"/>
</g>
<g transform="translate(52.8738, 7.4957)">
<path transform="scale(0.0040, -0.0040)" d="M0 0c0 32 25 57 57 57s57 -25 57 -57s-25 -57 -57 -57s-57 25 -57 57z" fill="currentColor"/>
</g>
<g transform="translate(52.5806, 8.9957)">
<path stroke-width="0" stroke-linejoin="round" stroke-linecap="round" stroke="currentColor" fill="currentColor" d="M0 0l0.6788 0l2.0000 -2.0000l-0.6788 0z"/>
</g>
<g transform="translate(54.5094, 16.6093)">
<path transform="scale(0.0040, -0.0040)" d="M0 0c0 32 25 57 57 57s57 -25 57 -57s-25 -57 -57 -57s-57 25 -57 57z" fill="currentColor"/>
</g>
<g transform="translate(52.8738, 15.6093)">
<path transform="scale(0.0040, -0.0040)" d="M0 0c0 32 25 57 57 57s57 -25 57 -57s-25 -57 -57 -57s-57 25 -57 57z" fill="currentColor"/>
</g>
<g transform="translate(52.5806, 17.1093)">
<path stroke-width="0" stroke-linejoin="round" stroke-linecap="round" stroke="currentColor" fill="currentColor" d="M0 0l0.6788 0l2.0000 -2.0000l-0.6788 0z"/>
</g>
<g transform="translate(44.6150, 9.7911)">
<polygon stroke-linejoin="round" stroke-linecap="round" stroke-width="0.0444" fill="currentColor" stroke="currentColor" points="3.2735 -0.8086 3.2735 -0.3730 0.0222 0.2178 0.0222 -0.2178"/>
</g>
<g transform="translate(44.6150, 13.4980)">
<text font-family="Libertinus Serif" font-size="1.2346" text-anchor="start" fill="currentColor">
<tspan> Ⅰ</tspan>
</text>
</g>
<g transform="translate(45.2751, 16.1093)">
<path stroke-width="0.1200" stroke-linejoin="round" stroke-linecap="square" stroke="currentColor" fill="none" d="M-0.5500 -0.6240L0.5500 -0.6240"/>
</g>
<g transform="translate(44.6610, 7.9957)">
<rect x="-0.0460" y="-0.8033" width="0.0920" height="2.5904" ry="0.0222" fill="currentColor"/>
</g>
<g color="rgb(100.0000%, 100.0000%, 100.0000%)">
<g transform="translate(44.6150, 14.6093)">
<rect x="0.1100" y="-0.6489" width="1.1002" height="1.2977" ry="0.0000" fill="currentColor"/>
</g>
</g>
<g transform="scale(1.0000, 1.0000)">
<g transform="translate(44.7250, 15.2496)">
<text font-family="IPAexGothic" font-weight="bold" font-size="1.7462" text-anchor="start" fill="currentColor">
<tspan>3</tspan>
</text>
</g>
</g>
<g transform="translate(44.6150, 6.9957)">
<path transform="scale(0.0040, -0.0040)" d="M222 135c53 0 104 -27 104 -86c0 -71 -56 -120 -103 -148c-36 -22 -76 -36 -118 -36c-53 0 -105 27 -105 86c0 71 57 120 104 148c36 22 76 36 118 36z" fill="currentColor"/>
</g>
<g transform="translate(43.1067, 16.1093)">
<path stroke-width="0.1200" stroke-linejoin="round" stroke-linecap="square" stroke="currentColor" fill="none" d="M-0.5500 -0.3240L0.5500 -0.3240M-0.5500 -0.6240L0.5500 -0.6240"/>
</g>
<g transform="translate(48.4788, 16.1093)">
<path stroke-width="0.1200" stroke-linejoin="round" stroke-linecap="square" stroke="currentColor" fill="none" d="M-0.5500 -0.6384L0.5500 -0.6384"/>
</g>
<g transform="translate(47.8647, 7.9957)">
<rect x="-0.0460" y="-1.8033" width="0.0920" height="3.0161" ry="0.0222" fill="currentColor"/>
</g>
<g color="rgb(100.0000%, 100.0000%, 100.0000%)">
<g transform="translate(47.8187, 14.6093)">
<rect x="0.1100" y="-0.6382" width="1.1002" height="1.2764" ry="0.0000" fill="currentColor"/>
</g>
</g>
<g transform="scale(1.0000, 1.0000)">
<g transform="translate(47.9287, 15.2475)">
<text font-family="IPAexGothic" font-weight="bold" font-size="1.7462" text-anchor="start" fill="currentColor">
<tspan>4</tspan>
</text>
</g>
</g>
<g transform="translate(47.8187, 13.5086)">
<text font-family="Libertinus Serif" font-size="1.2346" text-anchor="start" fill="currentColor">
<tspan> Ⅰ</tspan>
</text>
</g>
<g transform="translate(47.8187, 5.9957)">
<path transform="scale(0.0040, -0.0040)" d="M222 135c53 0 104 -27 104 -86c0 -71 -56 -120 -103 -148c-36 -22 -76 -36 -118 -36c-53 0 -105 27 -105 86c0 71 57 120 104 148c36 22 76 36 118 36z" fill="currentColor"/>
</g>
<g transform="translate(11.8341, 7.9957)">
<rect x="-0.0460" y="-0.3033" width="0.0920" height="2.8953" ry="0.0222" fill="currentColor"/>
</g>
<g color="rgb(100.0000%, 100.0000%, 100.0000%)">
<g transform="translate(11.7880, 14.6093)">
<rect x="0.1100" y="-0.6489" width="1.1002" height="1.2977" ry="0.0000" fill="currentColor"/>
</g>
</g>
<g transform="scale(1.0000, 1.0000)">
<g transform="translate(11.8981, 15.2496)">
<text font-family="IPAexGothic" font-weight="bold" font-size="1.7462" text-anchor="start" fill="currentColor">
<tspan>0</tspan>
</text>
</g>
</g>
<g transform="translate(12.4447, 16.8593)">
<path stroke-width="0.1200" stroke-linejoin="miter" stroke-linecap="square" stroke="currentColor" fill="none" d="M-0.4120 -0.4220L0.2280 -0.4270L0.2680 -0.3860C0.1100 0.0460 -0.1310 0.2760 -0.4870 0.4570M0.4940 0.4340C0.3790 0.3130 0.2470 0.1870 0.0440 0.0360"/>
</g>
<g transform="translate(11.7880, 7.4957)">
<path transform="scale(0.0040, -0.0040)" d="M222 135c53 0 104 -27 104 -86c0 -71 -56 -120 -103 -148c-36 -22 -76 -36 -118 -36c-53 0 -105 27 -105 86c0 71 57 120 104 148c36 22 76 36 118 36z" fill="currentColor"/>
</g>
<g transform="translate(12.4482, 16.1093)">
<path stroke-width="0.1200" stroke-linejoin="round" stroke-linecap="square" stroke="currentColor" fill="none" d="M-0.5500 -0.3240L0.5500 -0.3240M-0.5500 -0.6240L0.5500 -0.6240"/>
</g>
<g transform="translate(10.8423, 16.1093)">
<path stroke-width="0.1200" stroke-linejoin="round" stroke-linecap="square" stroke="currentColor" fill="none" d="M-0.5500 -0.3240L0.5500 -0.3240M-0.5500 -0.6240L0.5500 -0.6240"/>
</g>
<g transform="translate(8.7322, 6.9957)">
<path transform="scale(0.0040, -0.0040)" d="M215 -316c0 -9 -8 -17 -17 -17s-17 8 -17 17v151l-87 -31v-162c0 -9 -8 -17 -17 -17s-17 8 -17 17v150l-39 -13c-10 -4 -21 4 -21 15v64c0 7 5 13 11 15l49 18v164l-39 -14c-10 -4 -21 4 -21 15v65c0 7 5 13 11 15l49 17v163c0 9 8 17 17 17s17 -8 17 -17v-151l87 31v162
c0 9 8 17 17 17s17 -8 17 -17v-150l39 13c10 4 21 -4 21 -15v-64c0 -7 -5 -13 -11 -15l-49 -18v-164l39 14c10 4 21 -4 21 -15v-65c0 -7 -5 -13 -11 -15l-49 -17v-163zM94 67v-164l87 30v164z" fill="currentColor"/>
</g>
<g transform="translate(15.5622, 6.9957)">
<path transform="scale(0.0040, -0.0040)" d="M222 135c53 0 104 -27 104 -86c0 -71 -56 -120 -103 -148c-36 -22 -76 -36 -118 -36c-53 0 -105 27 -105 86c0 71 57 120 104 148c36 22 76 36 118 36z" fill="currentColor"/>
</g>
<g transform="translate(14.0540, 16.1093)">
<path stroke-width="0.1200" stroke-linejoin="round" stroke-linecap="square" stroke="currentColor" fill="none" d="M-0.5500 -0.3240L0.5500 -0.3240M-0.5500 -0.6240L0.5500 -0.6240"/>
</g>
<g transform="translate(10.2283, 7.9957)">
<rect x="-0.0460" y="-0.8033" width="0.0920" height="3.1975" ry="0.0222" fill="currentColor"/>
</g>
<g transform="translate(13.4399, 7.9957)">
<rect x="-0.0460" y="-0.3033" width="0.0920" height="3.0930" ry="0.0222" fill="currentColor"/>
</g>
<g color="rgb(100.0000%, 100.0000%, 100.0000%)">
<g transform="translate(13.3939, 14.6093)">
<rect x="0.1100" y="-0.6489" width="1.1002" height="1.2977" ry="0.0000" fill="currentColor"/>
</g>
</g>
<g transform="scale(1.0000, 1.0000)">
<g transform="translate(13.5039, 15.2496)">
<text font-family="IPAexGothic" font-weight="bold" font-size="1.7462" text-anchor="start" fill="currentColor">
<tspan>0</tspan>
</text>
</g>
</g>
<g transform="translate(14.0580, 16.8593)">
<path stroke-width="0.1200" stroke-linejoin="miter" stroke-linecap="square" stroke="currentColor" fill="none" d="M-0.2120 -0.3340C-0.2890 -0.0530 -0.4090 0.1570 -0.5530 0.3380M0.1550 -0.3520C0.3280 -0.1060 0.4580 0.1140 0.5450 0.3070"/>
</g>
<g transform="translate(13.3939, 13.4980)">
<text font-family="Libertinus Serif" font-size="1.2346" text-anchor="start" fill="currentColor">
<tspan> Ⅰ</tspan>
</text>
</g>
<g transform="translate(13.3939, 7.4957)">
<path transform="scale(0.0040, -0.0040)" d="M222 135c53 0 104 -27 104 -86c0 -71 -56 -120 -103 -148c-36 -22 -76 -36 -118 -36c-53 0 -105 27 -105 86c0 71 57 120 104 148c36 22 76 36 118 36z" fill="currentColor"/>
</g>
<g transform="translate(4.5511, 12.5292)">
<text font-family="IPAexGothic" font-style="italic" font-size="1.3859" text-anchor="start" fill="currentColor">
<tspan>8</tspan>
</text>
</g>
<g transform="translate(3.9614, 8.9957)">
<path transform="scale(0.0040, -0.0040)" d="M374 260c5 0 10 1 15 1c154 0 254 -127 254 -259c0 -76 -33 -153 -107 -208c-22 -17 -47 -29 -73 -37c3 -36 5 -72 5 -108c0 -19 0 -37 -1 -56c-7 -120 -88 -226 -206 -226c-108 0 -195 87 -195 195c0 58 53 104 112 104c54 0 95 -48 95 -104c0 -52 -43 -95 -95 -95
c-12 0 -24 4 -35 9c26 -41 70 -70 121 -70c1 0 2 1 3 1c93 2 154 93 160 192c1 18 2 35 2 53c0 32 -2 64 -5 96c-29 -5 -58 -8 -89 -8c-188 0 -333 171 -333 372c0 178 133 306 251 440c-18 63 -35 126 -42 191c-6 51 -7 102 -7 154c0 116 55 226 150 295c5 4 11 4 16 0
c70 -84 132 -246 132 -359c0 -144 -87 -256 -183 -365c20 -69 39 -138 55 -208zM459 -205c69 24 117 96 117 166c0 92 -69 184 -179 193c25 -117 48 -235 62 -359zM71 31c0 -136 131 -251 267 -251c28 0 55 2 82 6c-15 128 -38 247 -64 367c-79 -9 -125 -62 -125 -121
c0 -44 26 -92 82 -124c4 -4 7 -9 7 -14c0 -11 -9 -21 -20 -21c-3 0 -6 1 -9 2c-80 43 -116 114 -116 184c0 88 57 173 158 196c-14 60 -30 119 -46 178c-108 -121 -216 -242 -216 -402zM411 1050c-99 -50 -161 -151 -161 -262c0 -76 15 -137 33 -200c82 97 149 198 149 325
c0 58 -4 84 -21 137z" fill="currentColor"/>
</g>
<g transform="translate(60.6701, 16.6093)">
<path transform="scale(0.0040, -0.0040)" d="M0 0c0 32 25 57 57 57s57 -25 57 -57s-25 -57 -57 -57s-57 25 -57 57z" fill="currentColor"/>
</g>
<g transform="translate(59.0345, 15.6093)">
<path transform="scale(0.0040, -0.0040)" d="M0 0c0 32 25 57 57 57s57 -25 57 -57s-25 -57 -57 -57s-57 25 -57 57z" fill="currentColor"/>
</g>
<g transform="translate(58.7413, 17.1093)">
<path stroke-width="0" stroke-linejoin="round" stroke-linecap="round" stroke="currentColor" fill="currentColor" d="M0 0l0.6788 0l2.0000 -2.0000l-0.6788 0z"/>
</g>
<g transform="translate(60.6701, 8.4957)">
<path transform="scale(0.0040, -0.0040)" d="M0 0c0 32 25 57 57 57s57 -25 57 -57s-25 -57 -57 -57s-57 25 -57 57z" fill="currentColor"/>
</g>
<g transform="translate(59.0345, 7.4957)">
<path transform="scale(0.0040, -0.0040)" d="M0 0c0 32 25 57 57 57s57 -25 57 -57s-25 -57 -57 -57s-57 25 -57 57z" fill="currentColor"/>
</g>
<g transform="translate(58.7413, 8.9957)">
<path stroke-width="0" stroke-linejoin="round" stroke-linecap="round" stroke="currentColor" fill="currentColor" d="M0 0l0.6788 0l2.0000 -2.0000l-0.6788 0z"/>
</g>
<g transform="translate(3.1481, 11.8025)">
<rect x="0.0000" y="-5.8422" width="0.1133" height="11.6844" ry="0.0354" fill="currentColor"/>
</g>
<g transform="translate(1.8981, 5.7353)">
<path transform="scale(0.0040, -0.0040)" d="M0 -56v91c0 12 10 21 22 21h43c164 0 281 136 377 272c10 14 32 -1 22 -15c-103 -145 -222 -369 -399 -369h-65z" fill="currentColor"/>
</g>
<g transform="translate(1.8981, 17.8697)">
<path transform="scale(0.0040, -0.0040)" d="M0 56h65c177 0 296 -224 399 -369c10 -14 -12 -29 -22 -15c-96 136 -213 272 -377 272h-43c-12 0 -22 9 -22 21v91z" fill="currentColor"/>
</g>
<g transform="translate(1.8981, 11.8025)">
<rect x="0.0000" y="-5.8872" width="0.4500" height="11.7744" ry="0.0000" fill="currentColor"/>
</g>
<g color="rgb(100.0000%, 100.0000%, 100.0000%)">
<g transform="translate(10.1822, 14.6093)">
<rect x="0.1100" y="-0.6489" width="1.1002" height="1.2977" ry="0.0000" fill="currentColor"/>
</g>
</g>
<g transform="scale(1.0000, 1.0000)">
<g transform="translate(10.2923, 15.2496)">
<text font-family="IPAexGothic" font-weight="bold" font-size="1.7462" text-anchor="start" fill="currentColor">
<tspan>3</tspan>
</text>
</g>
</g>
<g transform="translate(10.8463, 16.8593)">
<path stroke-width="0.1200" stroke-linejoin="miter" stroke-linecap="square" stroke="currentColor" fill="none" d="M-0.2120 -0.3340C-0.2890 -0.0530 -0.4090 0.1570 -0.5530 0.3380M0.1550 -0.3520C0.3280 -0.1060 0.4580 0.1140 0.5450 0.3070"/>
</g>
<g transform="translate(10.1822, 13.4980)">
<text font-family="Libertinus Serif" font-size="1.2346" text-anchor="start" fill="currentColor">
<tspan> Ⅲ</tspan>
</text>
</g>
<g transform="translate(10.1822, 6.9957)">
<path transform="scale(0.0040, -0.0040)" d="M222 135c53 0 104 -27 104 -86c0 -71 -56 -120 -103 -148c-36 -22 -76 -36 -118 -36c-53 0 -105 27 -105 86c0 71 57 120 104 148c36 22 76 36 118 36z" fill="currentColor"/>
</g>
<g transform="translate(7.6865, 16.1093)">
<path stroke-width="0.1200" stroke-linejoin="round" stroke-linecap="square" stroke="currentColor" fill="none" d="M-0.5500 -0.3384L0.5500 -0.3384M-0.5500 -0.6384L0.5500 -0.6384"/>
</g>
<g transform="translate(7.0725, 7.9957)">
<rect x="-0.0460" y="-1.8033" width="0.0920" height="3.8089" ry="0.0222" fill="currentColor"/>
</g>
<g color="rgb(100.0000%, 100.0000%, 100.0000%)">
<g transform="translate(7.0264, 14.6093)">
<rect x="0.1100" y="-0.6382" width="1.1002" height="1.2764" ry="0.0000" fill="currentColor"/>
</g>
</g>
<g transform="scale(1.0000, 1.0000)">
<g transform="translate(7.1365, 15.2475)">
<text font-family="IPAexGothic" font-weight="bold" font-size="1.7462" text-anchor="start" fill="currentColor">
<tspan>4</tspan>
</text>
</g>
</g>
<g transform="translate(7.0264, 13.5086)">
<text font-family="Libertinus Serif" font-size="1.2346" text-anchor="start" fill="currentColor">
<tspan> Ⅲ</tspan>
</text>
</g>
<g transform="translate(7.0264, 5.9957)">
<path transform="scale(0.0040, -0.0040)" d="M222 135c53 0 104 -27 104 -86c0 -71 -56 -120 -103 -148c-36 -22 -76 -36 -118 -36c-53 0 -105 27 -105 86c0 71 57 120 104 148c36 22 76 36 118 36z" fill="currentColor"/>
</g>
<g color="rgb(100.0000%, 100.0000%, 100.0000%)">
<g transform="translate(25.8677, 14.6093)">
<rect x="0.1100" y="-0.6489" width="1.1002" height="1.2977" ry="0.0000" fill="currentColor"/>
</g>
</g>
<g transform="scale(1.0000, 1.0000)">
<g transform="translate(25.9777, 15.2496)">
<text font-family="IPAexGothic" font-weight="bold" font-size="1.7462" text-anchor="start" fill="currentColor">
<tspan>6</tspan>
</text>
</g>
</g>
<g transform="translate(26.5243, 16.8593)">
<path stroke-width="0.1200" stroke-linejoin="miter" stroke-linecap="square" stroke="currentColor" fill="none" d="M-0.4120 -0.4220L0.2280 -0.4270L0.2680 -0.3860C0.1100 0.0460 -0.1310 0.2760 -0.4870 0.4570M0.4940 0.4340C0.3790 0.3130 0.2470 0.1870 0.0440 0.0360"/>
</g>
<g transform="translate(25.8677, 5.4957)">
<path transform="scale(0.0040, -0.0040)" d="M222 135c53 0 104 -27 104 -86c0 -71 -56 -120 -103 -148c-36 -22 -76 -36 -118 -36c-53 0 -105 27 -105 86c0 71 57 120 104 148c36 22 76 36 118 36z" fill="currentColor"/>
</g>
<g transform="translate(25.9137, 7.9957)">
<rect x="-0.0460" y="-2.3033" width="0.0920" height="3.0987" ry="0.0222" fill="currentColor"/>
</g>
<g transform="translate(23.4491, 16.1093)">
<path stroke-width="0.1200" stroke-linejoin="round" stroke-linecap="square" stroke="currentColor" fill="none" d="M-0.5500 -0.6240L0.5500 -0.6240"/>
</g>
<g color="rgb(100.0000%, 100.0000%, 100.0000%)">
<g transform="translate(28.9464, 14.6093)">
<rect x="0.1100" y="-0.6489" width="1.1002" height="1.2977" ry="0.0000" fill="currentColor"/>
</g>
</g>
<g transform="scale(1.0000, 1.0000)">
<g transform="translate(29.0564, 15.2496)">
<text font-family="IPAexGothic" font-weight="bold" font-size="1.7462" text-anchor="start" fill="currentColor">
<tspan>6</tspan>
</text>
</g>
</g>
<g transform="translate(29.6065, 16.1093)">
<path stroke-width="0.1200" stroke-linejoin="round" stroke-linecap="square" stroke="currentColor" fill="none" d="M-0.5500 -0.6240L0.5500 -0.6240"/>
</g>
<g transform="translate(28.9924, 7.9957)">
<rect x="-0.0460" y="-2.3033" width="0.0920" height="3.1016" ry="0.0222" fill="currentColor"/>
</g>
<g color="rgb(100.0000%, 100.0000%, 100.0000%)">
<g transform="translate(15.5622, 14.6093)">
<rect x="0.1100" y="-0.6489" width="1.1002" height="1.2977" ry="0.0000" fill="currentColor"/>
</g>
</g>
<g transform="scale(1.0000, 1.0000)">
<g transform="translate(15.6722, 15.2496)">
<text font-family="IPAexGothic" font-weight="bold" font-size="1.7462" text-anchor="start" fill="currentColor">
<tspan>3</tspan>
</text>
</g>
</g>
<g transform="translate(28.9464, 5.4957)">
<path transform="scale(0.0040, -0.0040)" d="M222 135c53 0 104 -27 104 -86c0 -71 -56 -120 -103 -148c-36 -22 -76 -36 -118 -36c-53 0 -105 27 -105 86c0 71 57 120 104 148c36 22 76 36 118 36z" fill="currentColor"/>
</g>
<g transform="translate(26.5278, 16.1093)">
<path stroke-width="0.1200" stroke-linejoin="round" stroke-linecap="square" stroke="currentColor" fill="none" d="M-0.5500 -0.6240L0.5500 -0.6240"/>
</g>
<g transform="translate(18.8119, 7.9957)">
<rect x="-0.0460" y="-1.8033" width="0.0920" height="3.0161" ry="0.0222" fill="currentColor"/>
</g>
<g color="rgb(100.0000%, 100.0000%, 100.0000%)">
<g transform="translate(18.7659, 14.6093)">
<rect x="0.1100" y="-0.6382" width="1.1002" height="1.2764" ry="0.0000" fill="currentColor"/>
</g>
</g>
<g transform="scale(1.0000, 1.0000)">
<g transform="translate(18.8759, 15.2475)">
<text font-family="IPAexGothic" font-weight="bold" font-size="1.7462" text-anchor="start" fill="currentColor">
<tspan>4</tspan>
</text>
</g>
</g>
<g transform="translate(18.7659, 13.5086)">
<text font-family="Libertinus Serif" font-size="1.2346" text-anchor="start" fill="currentColor">
<tspan> Ⅰ</tspan>
</text>
</g>
<g transform="translate(18.7659, 5.9957)">
<path transform="scale(0.0040, -0.0040)" d="M222 135c53 0 104 -27 104 -86c0 -71 -56 -120 -103 -148c-36 -22 -76 -36 -118 -36c-53 0 -105 27 -105 86c0 71 57 120 104 148c36 22 76 36 118 36z" fill="currentColor"/>
</g>
<g transform="translate(16.2223, 16.1093)">
<path stroke-width="0.1200" stroke-linejoin="round" stroke-linecap="square" stroke="currentColor" fill="none" d="M-0.5500 -0.6240L0.5500 -0.6240"/>
</g>
<g transform="translate(15.6082, 7.9957)">
<rect x="-0.0460" y="-0.8033" width="0.0920" height="2.5904" ry="0.0222" fill="currentColor"/>
</g>
<g transform="translate(15.5622, 13.4980)">
<text font-family="Libertinus Serif" font-size="1.2346" text-anchor="start" fill="currentColor">
<tspan> Ⅰ</tspan>
</text>
</g>
<g transform="translate(22.8350, 7.9957)">
<rect x="-0.0460" y="-2.3033" width="0.0920" height="3.0987" ry="0.0222" fill="currentColor"/>
</g>
<g transform="translate(19.4260, 16.1093)">
<path stroke-width="0.1200" stroke-linejoin="round" stroke-linecap="square" stroke="currentColor" fill="none" d="M-0.5500 -0.6384L0.5500 -0.6384"/>
</g>
<g transform="translate(22.7890, 5.4957)">
<path transform="scale(0.0040, -0.0040)" d="M222 135c53 0 104 -27 104 -86c0 -71 -56 -120 -103 -148c-36 -22 -76 -36 -118 -36c-53 0 -105 27 -105 86c0 71 57 120 104 148c36 22 76 36 118 36z" fill="currentColor"/>
</g>
<g color="rgb(100.0000%, 100.0000%, 100.0000%)">
<g transform="translate(22.7890, 14.6093)">
<rect x="0.1100" y="-0.6489" width="1.1002" height="1.2977" ry="0.0000" fill="currentColor"/>
</g>
</g>
<g transform="scale(1.0000, 1.0000)">
<g transform="translate(22.8990, 15.2496)">
<text font-family="IPAexGothic" font-weight="bold" font-size="1.7462" text-anchor="start" fill="currentColor">
<tspan>6</tspan>
</text>
</g>
</g>
<g transform="translate(22.7890, 13.4980)">
<text font-family="Libertinus Serif" font-size="1.2346" text-anchor="start" fill="currentColor">
<tspan> Ⅲ</tspan>
</text>
</g>
<g transform="translate(22.6261, 26.3365)">
<rect x="0.0000" y="-2.0000" width="0.1345" height="4.0354" ry="0.0000" fill="currentColor"/>
</g>
<g transform="translate(62.8036, 22.5565)">
<rect x="0.0000" y="5.8154" width="0.4248" height="4.5782" ry="0.0000" fill="currentColor"/>
</g>
<g transform="translate(62.4567, 22.5565)">
<rect x="0.0000" y="5.8154" width="0.1345" height="4.5782" ry="0.0000" fill="currentColor"/>
</g>
<g transform="translate(62.8036, 34.4501)">
<rect x="0.0000" y="-1.5354" width="0.4248" height="3.0354" ry="0.0000" fill="currentColor"/>
</g>
<g transform="translate(62.4567, 34.4501)">
<rect x="0.0000" y="-1.5354" width="0.1345" height="3.0354" ry="0.0000" fill="currentColor"/>
</g>
<g transform="translate(62.8036, 26.3365)">
<rect x="0.0000" y="-2.0000" width="0.4248" height="4.0354" ry="0.0000" fill="currentColor"/>
</g>
<g transform="translate(62.4567, 26.3365)">
<rect x="0.0000" y="-2.0000" width="0.1345" height="4.0354" ry="0.0000" fill="currentColor"/>
</g>
<g transform="translate(36.7504, 26.3365)">
<rect x="0.0000" y="-2.0000" width="0.1345" height="4.0354" ry="0.0000" fill="currentColor"/>
</g>
<g transform="translate(22.6261, 22.5565)">
<rect x="0.0000" y="5.8154" width="0.1345" height="4.5782" ry="0.0000" fill="currentColor"/>
</g>
<g transform="translate(22.6261, 34.4501)">
<rect x="0.0000" y="-1.5354" width="0.1345" height="3.0354" ry="0.0000" fill="currentColor"/>
</g>
<g transform="translate(52.8575, 22.5565)">
<rect x="0.0000" y="5.8154" width="0.1345" height="4.5782" ry="0.0000" fill="currentColor"/>
</g>
<g transform="translate(36.7504, 34.4501)">
<rect x="0.0000" y="-1.5354" width="0.1345" height="3.0354" ry="0.0000" fill="currentColor"/>
</g>
<g transform="translate(52.8575, 34.4501)">
<rect x="0.0000" y="-1.5354" width="0.1345" height="3.0354" ry="0.0000" fill="currentColor"/>
</g>
<g transform="translate(3.1614, 28.3365)">
<line stroke-linejoin="round" stroke-linecap="round" stroke-width="0.0708" stroke="currentColor" x1="0.0354" y1="0" x2="60.0315" y2="0"/>
</g>
<g transform="translate(3.1614, 27.3365)">
<line stroke-linejoin="round" stroke-linecap="round" stroke-width="0.0708" stroke="currentColor" x1="0.0354" y1="0" x2="60.0315" y2="0"/>
</g>
<g transform="translate(3.1614, 26.3365)">
<line stroke-linejoin="round" stroke-linecap="round" stroke-width="0.0708" stroke="currentColor" x1="0.0354" y1="0" x2="60.0315" y2="0"/>
</g>
<g transform="translate(3.1614, 25.3365)">
<line stroke-linejoin="round" stroke-linecap="round" stroke-width="0.0708" stroke="currentColor" x1="0.0354" y1="0" x2="60.0315" y2="0"/>
</g>
<g transform="translate(3.1614, 24.3365)">
<line stroke-linejoin="round" stroke-linecap="round" stroke-width="0.0708" stroke="currentColor" x1="0.0354" y1="0" x2="60.0315" y2="0"/>
</g>
<g transform="translate(36.7504, 22.5565)">
<rect x="0.0000" y="5.8154" width="0.1345" height="4.5782" ry="0.0000" fill="currentColor"/>
</g>
<g transform="translate(52.8575, 26.3365)">
<rect x="0.0000" y="-2.0000" width="0.1345" height="4.0354" ry="0.0000" fill="currentColor"/>
</g>
<g transform="translate(19.0964, 22.5565)">
<rect x="0.0000" y="5.8154" width="0.1345" height="4.5782" ry="0.0000" fill="currentColor"/>
</g>
<g transform="translate(19.0964, 34.4501)">
<rect x="0.0000" y="-1.5354" width="0.1345" height="3.0354" ry="0.0000" fill="currentColor"/>
</g>
<g transform="translate(19.0964, 26.3365)">
<rect x="0.0000" y="-2.0000" width="0.1345" height="4.0354" ry="0.0000" fill="currentColor"/>
</g>
<g transform="translate(15.5668, 22.5565)">
<rect x="0.0000" y="5.8154" width="0.1345" height="4.5782" ry="0.0000" fill="currentColor"/>
</g>
<g transform="translate(15.5668, 34.4501)">
<rect x="0.0000" y="-1.5354" width="0.1345" height="3.0354" ry="0.0000" fill="currentColor"/>
</g>
<g transform="translate(15.5668, 26.3365)">
<rect x="0.0000" y="-2.0000" width="0.1345" height="4.0354" ry="0.0000" fill="currentColor"/>
</g>
<g transform="translate(3.1614, 29.3365)">
<rect x="54.5904" y="-0.0854" width="1.9587" height="0.1708" ry="0.0854" fill="currentColor"/>
</g>
<g transform="translate(3.1614, 29.3365)">
<rect x="50.3370" y="-0.0854" width="1.9587" height="0.1708" ry="0.0854" fill="currentColor"/>
</g>
<g transform="translate(3.1614, 35.9501)">
<line stroke-linejoin="round" stroke-linecap="round" stroke-width="0.0708" stroke="currentColor" x1="0.0354" y1="0" x2="60.0315" y2="0"/>
</g>
<g transform="translate(3.1614, 34.4501)">
<line stroke-linejoin="round" stroke-linecap="round" stroke-width="0.0708" stroke="currentColor" x1="0.0354" y1="0" x2="60.0315" y2="0"/>
</g>
<g transform="translate(3.1614, 32.9501)">
<line stroke-linejoin="round" stroke-linecap="round" stroke-width="0.0708" stroke="currentColor" x1="0.0354" y1="0" x2="60.0315" y2="0"/>
</g>
<g transform="translate(41.1143, 26.3365)">
<rect x="-0.0460" y="-0.3033" width="0.0920" height="3.8078" ry="0.0222" fill="currentColor"/>
</g>
<g transform="translate(30.9841, 34.4501)">
<path stroke-width="0.1200" stroke-linejoin="round" stroke-linecap="square" stroke="currentColor" fill="none" d="M-0.5500 0.8616L0.5500 0.8616"/>
</g>
<g transform="translate(41.7284, 34.4501)">
<path stroke-width="0.1200" stroke-linejoin="round" stroke-linecap="square" stroke="currentColor" fill="none" d="M-0.5500 1.1616L0.5500 1.1616M-0.5500 0.8616L0.5500 0.8616"/>
</g>
<g color="rgb(100.0000%, 100.0000%, 100.0000%)">
<g transform="translate(41.0683, 34.4501)">
<rect x="0.1100" y="-0.6382" width="1.1002" height="1.2764" ry="0.0000" fill="currentColor"/>
</g>
</g>
<g transform="scale(1.0000, 1.0000)">
<g transform="translate(41.1783, 35.0883)">
<text font-family="IPAexGothic" font-weight="bold" font-size="1.7462" text-anchor="start" fill="currentColor">
<tspan>4</tspan>
</text>
</g>
</g>
<g transform="translate(41.0683, 32.1647)">
<text font-family="Libertinus Serif" font-size="1.2346" text-anchor="start" fill="currentColor">
<tspan> Ⅲ</tspan>
</text>
</g>
<g transform="translate(41.0683, 25.8365)">
<path transform="scale(0.0040, -0.0040)" d="M222 135c53 0 104 -27 104 -86c0 -71 -56 -120 -103 -148c-36 -22 -76 -36 -118 -36c-53 0 -105 27 -105 86c0 71 57 120 104 148c36 22 76 36 118 36z" fill="currentColor"/>
</g>
<g transform="translate(44.8842, 34.4501)">
<path stroke-width="0.1200" stroke-linejoin="round" stroke-linecap="square" stroke="currentColor" fill="none" d="M-0.5500 1.1760L0.5500 1.1760M-0.5500 0.8760L0.5500 0.8760"/>
</g>
<g transform="translate(42.7741, 26.8365)">
<path transform="scale(0.0040, -0.0040)" d="M215 -316c0 -9 -8 -17 -17 -17s-17 8 -17 17v151l-87 -31v-162c0 -9 -8 -17 -17 -17s-17 8 -17 17v150l-39 -13c-10 -4 -21 4 -21 15v64c0 7 5 13 11 15l49 18v164l-39 -14c-10 -4 -21 4 -21 15v65c0 7 5 13 11 15l49 17v163c0 9 8 17 17 17s17 -8 17 -17v-151l87 31v162
c0 9 8 17 17 17s17 -8 17 -17v-150l39 13c10 4 21 -4 21 -15v-64c0 -7 -5 -13 -11 -15l-49 -18v-164l39 14c10 4 21 -4 21 -15v-65c0 -7 -5 -13 -11 -15l-49 -17v-163zM94 67v-164l87 30v164z" fill="currentColor"/>
</g>
<g transform="translate(17.9883, 26.8365)">
<path transform="scale(0.0040, -0.0040)" d="M0 0c0 32 25 57 57 57s57 -25 57 -57s-25 -57 -57 -57s-57 25 -57 57z" fill="currentColor"/>
</g>
<g transform="translate(16.3527, 25.8365)">
<path transform="scale(0.0040, -0.0040)" d="M0 0c0 32 25 57 57 57s57 -25 57 -57s-25 -57 -57 -57s-57 25 -57 57z" fill="currentColor"/>
</g>
<g transform="translate(16.0595, 27.3365)">
<path stroke-width="0" stroke-linejoin="round" stroke-linecap="round" stroke="currentColor" fill="currentColor" d="M0 0l0.6788 0l2.0000 -2.0000l-0.6788 0z"/>
</g>
<g transform="translate(44.2701, 26.3365)">
<rect x="-0.0460" y="0.6967" width="0.0920" height="3.0945" ry="0.0222" fill="currentColor"/>
</g>
<g color="rgb(100.0000%, 100.0000%, 100.0000%)">
<g transform="translate(44.2241, 34.4501)">
<rect x="0.1100" y="-0.6489" width="1.1002" height="1.2977" ry="0.0000" fill="currentColor"/>
</g>
</g>
<g transform="scale(1.0000, 1.0000)">
<g transform="translate(44.3341, 35.0905)">
<text font-family="IPAexGothic" font-weight="bold" font-size="1.7462" text-anchor="start" fill="currentColor">
<tspan>3</tspan>
</text>
</g>
</g>
<g transform="translate(44.8882, 36.7001)">
<path stroke-width="0.1200" stroke-linejoin="miter" stroke-linecap="square" stroke="currentColor" fill="none" d="M-0.2120 -0.3340C-0.2890 -0.0530 -0.4090 0.1570 -0.5530 0.3380M0.1550 -0.3520C0.3280 -0.1060 0.4580 0.1140 0.5450 0.3070"/>
</g>
<g transform="translate(44.2241, 32.1647)">
<text font-family="Libertinus Serif" font-size="1.2346" text-anchor="start" fill="currentColor">
<tspan> Ⅲ</tspan>
</text>
</g>
<g transform="translate(44.2241, 26.8365)">
<path transform="scale(0.0040, -0.0040)" d="M222 135c53 0 104 -27 104 -86c0 -71 -56 -120 -103 -148c-36 -22 -76 -36 -118 -36c-53 0 -105 27 -105 86c0 71 57 120 104 148c36 22 76 36 118 36z" fill="currentColor"/>
</g>
<g transform="translate(33.6249, 26.3365)">
<rect x="-0.0460" y="-0.3033" width="0.0920" height="3.0987" ry="0.0222" fill="currentColor"/>
</g>
<g transform="translate(37.8594, 26.3365)">
<rect x="-0.0460" y="-0.3033" width="0.0920" height="3.5121" ry="0.0222" fill="currentColor"/>
</g>
<g color="rgb(100.0000%, 100.0000%, 100.0000%)">
<g transform="translate(37.8134, 34.4501)">
<rect x="0.1100" y="-0.6382" width="1.1002" height="1.2764" ry="0.0000" fill="currentColor"/>
</g>
</g>
<g transform="scale(1.0000, 1.0000)">
<g transform="translate(37.9234, 35.0883)">
<text font-family="IPAexGothic" font-weight="bold" font-size="1.7462" text-anchor="start" fill="currentColor">
<tspan>4</tspan>
</text>
</g>
</g>
<g transform="translate(37.8134, 32.1647)">
<text font-family="Libertinus Serif" font-size="1.2346" text-anchor="start" fill="currentColor">
<tspan> Ⅲ</tspan>
</text>
</g>
<g transform="translate(37.8134, 25.8365)">
<path transform="scale(0.0040, -0.0040)" d="M222 135c53 0 104 -27 104 -86c0 -71 -56 -120 -103 -148c-36 -22 -76 -36 -118 -36c-53 0 -105 27 -105 86c0 71 57 120 104 148c36 22 76 36 118 36z" fill="currentColor"/>
</g>
<g transform="translate(34.2390, 34.4501)">
<path stroke-width="0.1200" stroke-linejoin="round" stroke-linecap="square" stroke="currentColor" fill="none" d="M-0.5500 0.8616L0.5500 0.8616"/>
</g>
<g transform="translate(33.5789, 32.1647)">
<text font-family="Libertinus Serif" font-size="1.2346" text-anchor="start" fill="currentColor">
<tspan> Ⅲ</tspan>
</text>
</g>
<g transform="translate(33.5789, 25.8365)">
<path transform="scale(0.0040, -0.0040)" d="M222 135c53 0 104 -27 104 -86c0 -71 -56 -120 -103 -148c-36 -22 -76 -36 -118 -36c-53 0 -105 27 -105 86c0 71 57 120 104 148c36 22 76 36 118 36z" fill="currentColor"/>
</g>
<g transform="translate(38.4735, 34.4501)">
<path stroke-width="0.1200" stroke-linejoin="round" stroke-linecap="square" stroke="currentColor" fill="none" d="M-0.5500 0.8616L0.5500 0.8616"/>
</g>
<g transform="translate(34.2355, 36.7001)">
<path stroke-width="0.1200" stroke-linejoin="miter" stroke-linecap="square" stroke="currentColor" fill="none" d="M-0.4120 -0.4220L0.2280 -0.4270L0.2680 -0.3860C0.1100 0.0460 -0.1310 0.2760 -0.4870 0.4570M0.4940 0.4340C0.3790 0.3130 0.2470 0.1870 0.0440 0.0360"/>
</g>
<g color="rgb(100.0000%, 100.0000%, 100.0000%)">
<g transform="translate(33.5789, 34.4501)">
<rect x="0.1100" y="-0.6382" width="1.1002" height="1.2764" ry="0.0000" fill="currentColor"/>
</g>
</g>
<g transform="scale(1.0000, 1.0000)">
<g transform="translate(33.6890, 35.0883)">
<text font-family="IPAexGothic" font-weight="bold" font-size="1.7462" text-anchor="start" fill="currentColor">
<tspan>4</tspan>
</text>
</g>
</g>
<g transform="translate(58.0783, 25.8365)">
<path transform="scale(0.0040, -0.0040)" d="M222 135c53 0 104 -27 104 -86c0 -71 -56 -120 -103 -148c-36 -22 -76 -36 -118 -36c-53 0 -105 27 -105 86c0 71 57 120 104 148c36 22 76 36 118 36z" fill="currentColor"/>
</g>
<g transform="translate(59.3381, 26.3365)">
<rect x="-0.0460" y="-3.6667" width="0.0920" height="6.4699" ry="0.0222" fill="currentColor"/>
</g>
<g color="rgb(100.0000%, 100.0000%, 100.0000%)">
<g transform="translate(58.0783, 34.4501)">
<rect x="0.1100" y="-0.6382" width="1.1002" height="1.2764" ry="0.0000" fill="currentColor"/>
</g>
</g>
<g transform="scale(1.0000, 1.0000)">
<g transform="translate(58.1883, 35.0883)">
<text font-family="IPAexGothic" font-weight="bold" font-size="1.7462" text-anchor="start" fill="currentColor">
<tspan>4</tspan>
</text>
</g>
</g>
<g color="rgb(100.0000%, 100.0000%, 100.0000%)">
<g transform="translate(58.0783, 32.9501)">
<rect x="0.1100" y="-0.6489" width="1.1002" height="1.2977" ry="0.0000" fill="currentColor"/>
</g>
</g>
<g transform="scale(1.0000, 1.0000)">
<g transform="translate(58.1883, 33.5905)">
<text font-family="IPAexGothic" font-weight="bold" font-size="1.7462" text-anchor="start" fill="currentColor">
<tspan>0</tspan>
</text>
</g>
</g>
<g color="rgb(100.0000%, 100.0000%, 100.0000%)">
<g transform="translate(58.0783, 35.9501)">
<rect x="0.1100" y="-0.6489" width="1.1002" height="1.2977" ry="0.0000" fill="currentColor"/>
</g>
</g>
<g transform="scale(1.0000, 1.0000)">
<g transform="translate(58.1883, 36.5905)">
<text font-family="IPAexGothic" font-weight="bold" font-size="1.7462" text-anchor="start" fill="currentColor">
<tspan>0</tspan>
</text>
</g>
</g>
<g transform="translate(59.3381, 25.8365)">
<path transform="scale(0.0040, -0.0040)" d="M222 135c53 0 104 -27 104 -86c0 -71 -56 -120 -103 -148c-36 -22 -76 -36 -118 -36c-53 0 -105 27 -105 86c0 71 57 120 104 148c36 22 76 36 118 36z" fill="currentColor"/>
</g>
<g transform="translate(58.0783, 29.3365)">
<path transform="scale(0.0040, -0.0040)" d="M222 135c53 0 104 -27 104 -86c0 -71 -56 -120 -103 -148c-36 -22 -76 -36 -118 -36c-53 0 -105 27 -105 86c0 71 57 120 104 148c36 22 76 36 118 36z" fill="currentColor"/>
</g>
<g transform="translate(17.9883, 34.9501)">
<path transform="scale(0.0040, -0.0040)" d="M0 0c0 32 25 57 57 57s57 -25 57 -57s-25 -57 -57 -57s-57 25 -57 57z" fill="currentColor"/>
</g>
<g transform="translate(16.3527, 33.9501)">
<path transform="scale(0.0040, -0.0040)" d="M0 0c0 32 25 57 57 57s57 -25 57 -57s-25 -57 -57 -57s-57 25 -57 57z" fill="currentColor"/>
</g>
<g transform="translate(16.0595, 35.4501)">
<path stroke-width="0" stroke-linejoin="round" stroke-linecap="round" stroke="currentColor" fill="currentColor" d="M0 0l0.6788 0l2.0000 -2.0000l-0.6788 0z"/>
</g>
<g transform="translate(7.0264, 27.5411)">
<polygon stroke-linejoin="round" stroke-linecap="round" stroke-width="0.0444" fill="currentColor" stroke="currentColor" points="6.4372 0.5776 6.4372 1.0132 0.0222 0.2178 0.0222 -0.2178"/>
</g>
<g transform="translate(7.0264, 28.3365)">
<polygon stroke-linejoin="round" stroke-linecap="round" stroke-width="0.0444" fill="currentColor" stroke="currentColor" points="6.4372 0.5776 6.4372 1.0132 0.0222 0.2178 0.0222 -0.2178"/>
</g>
<g transform="translate(21.5179, 26.8365)">
<path transform="scale(0.0040, -0.0040)" d="M0 0c0 32 25 57 57 57s57 -25 57 -57s-25 -57 -57 -57s-57 25 -57 57z" fill="currentColor"/>
</g>
<g transform="translate(19.8823, 25.8365)">
<path transform="scale(0.0040, -0.0040)" d="M0 0c0 32 25 57 57 57s57 -25 57 -57s-25 -57 -57 -57s-57 25 -57 57z" fill="currentColor"/>
</g>
<g transform="translate(19.5891, 27.3365)">
<path stroke-width="0" stroke-linejoin="round" stroke-linecap="round" stroke="currentColor" fill="currentColor" d="M0 0l0.6788 0l2.0000 -2.0000l-0.6788 0z"/>
</g>
<g transform="translate(21.5179, 34.9501)">
<path transform="scale(0.0040, -0.0040)" d="M0 0c0 32 25 57 57 57s57 -25 57 -57s-25 -57 -57 -57s-57 25 -57 57z" fill="currentColor"/>
</g>
<g transform="translate(19.8823, 33.9501)">
<path transform="scale(0.0040, -0.0040)" d="M0 0c0 32 25 57 57 57s57 -25 57 -57s-25 -57 -57 -57s-57 25 -57 57z" fill="currentColor"/>
</g>
<g transform="translate(19.5891, 35.4501)">
<path stroke-width="0" stroke-linejoin="round" stroke-linecap="round" stroke="currentColor" fill="currentColor" d="M0 0l0.6788 0l2.0000 -2.0000l-0.6788 0z"/>
</g>
<g transform="translate(23.6891, 28.5411)">
<polygon stroke-linejoin="round" stroke-linecap="round" stroke-width="0.0444" fill="currentColor" stroke="currentColor" points="3.3248 0.5776 3.3248 1.0132 0.0222 0.2178 0.0222 -0.2178"/>
</g>
<g transform="translate(30.3240, 29.1319)">
<polygon stroke-linejoin="round" stroke-linecap="round" stroke-width="0.0444" fill="currentColor" stroke="currentColor" points="3.3248 -0.2178 3.3248 0.2178 0.0222 0.2178 0.0222 -0.2178"/>
</g>
<g transform="translate(41.0683, 29.0415)">
<polygon stroke-linejoin="round" stroke-linecap="round" stroke-width="0.0444" fill="currentColor" stroke="currentColor" points="3.2256 0.0773 3.2256 0.5129 0.0222 0.2178 0.0222 -0.2178"/>
</g>
<g transform="translate(37.8134, 29.5411)">
<polygon stroke-linejoin="round" stroke-linecap="round" stroke-width="0.0444" fill="currentColor" stroke="currentColor" points="6.4806 0.3730 6.4806 0.8086 0.0222 0.2178 0.0222 -0.2178"/>
</g>
<g transform="translate(47.2657, 34.4501)">
<path stroke-width="0.1200" stroke-linejoin="round" stroke-linecap="square" stroke="currentColor" fill="none" d="M-0.5500 0.8616L0.5500 0.8616"/>
</g>
<g transform="translate(50.3105, 34.4501)">
<circle stroke-linejoin="round" stroke-linecap="round" fill="currentColor" stroke="currentColor" stroke-width="0" r="0.4500"/>
</g>
<g transform="translate(49.8605, 34.4501)">
<path stroke-width="0.1200" stroke-linejoin="round" stroke-linecap="square" stroke="currentColor" fill="none" d="M-0.1000 0.8000L1.0000 0.8000"/>
</g>
<g transform="translate(49.8605, 26.3365)">
<path transform="scale(0.0040, -0.0040)" d="M76 -250l116 327c-35 -12 -70 -23 -107 -23c-46 0 -87 34 -87 80c0 39 31 71 71 71c26 0 49 -16 57 -40c10 -28 6 -60 35 -60c17 0 58 54 65 70c5 11 20 10 24 0l-126 -425c-7 -6 -16 -9 -24 -9s-17 3 -24 9z" fill="currentColor"/>
</g>
<g transform="translate(46.6976, 29.3143)">
<path transform="scale(0.0040, -0.0040)" d="M0 0h-14v250h14v-250zM0 0v250c98 58 228 147 228 259c0 57 -15 112 -40 164c-3 15 9 25 21 25c7 0 14 -3 18 -10c25 -56 40 -117 40 -179c0 -203 -267 -306 -267 -509z" fill="currentColor"/>
</g>
<g transform="translate(46.6516, 26.3365)">
<rect x="-0.0460" y="-0.3033" width="0.0920" height="3.3033" ry="0.0222" fill="currentColor"/>
</g>
<g color="rgb(100.0000%, 100.0000%, 100.0000%)">
<g transform="translate(46.6056, 34.4501)">
<rect x="0.1100" y="-0.6382" width="1.1002" height="1.2764" ry="0.0000" fill="currentColor"/>
</g>
</g>
<g transform="scale(1.0000, 1.0000)">
<g transform="translate(46.7156, 35.0883)">
<text font-family="IPAexGothic" font-weight="bold" font-size="1.7462" text-anchor="start" fill="currentColor">
<tspan>4</tspan>
</text>
</g>
</g>
<g transform="translate(46.6056, 32.1647)">
<text font-family="Libertinus Serif" font-size="1.2346" text-anchor="start" fill="currentColor">
<tspan> Ⅲ</tspan>
</text>
</g>
<g transform="translate(46.6056, 25.8365)">
<path transform="scale(0.0040, -0.0040)" d="M222 135c53 0 104 -27 104 -86c0 -71 -56 -120 -103 -148c-36 -22 -76 -36 -118 -36c-53 0 -105 27 -105 86c0 71 57 120 104 148c36 22 76 36 118 36z" fill="currentColor"/>
</g>
<g transform="translate(55.0846, 26.3365)">
<rect x="-0.0460" y="-3.6667" width="0.0920" height="6.4699" ry="0.0222" fill="currentColor"/>
</g>
<g color="rgb(100.0000%, 100.0000%, 100.0000%)">
<g transform="translate(53.8248, 32.9501)">
<rect x="0.1100" y="-0.6489" width="1.1002" height="1.2977" ry="0.0000" fill="currentColor"/>
</g>
</g>
<g transform="scale(1.0000, 1.0000)">
<g transform="translate(53.9349, 33.5905)">
<text font-family="IPAexGothic" font-weight="bold" font-size="1.7462" text-anchor="start" fill="currentColor">
<tspan>0</tspan>
</text>
</g>
</g>
<g color="rgb(100.0000%, 100.0000%, 100.0000%)">
<g transform="translate(53.8248, 34.4501)">
<rect x="0.1100" y="-0.6382" width="1.1002" height="1.2764" ry="0.0000" fill="currentColor"/>
</g>
</g>
<g transform="scale(1.0000, 1.0000)">
<g transform="translate(53.9349, 35.0883)">
<text font-family="IPAexGothic" font-weight="bold" font-size="1.7462" text-anchor="start" fill="currentColor">
<tspan>4</tspan>
</text>
</g>
</g>
<g color="rgb(100.0000%, 100.0000%, 100.0000%)">
<g transform="translate(53.8248, 35.9501)">
<rect x="0.1100" y="-0.6489" width="1.1002" height="1.2977" ry="0.0000" fill="currentColor"/>
</g>
</g>
<g transform="scale(1.0000, 1.0000)">
<g transform="translate(53.9349, 36.5905)">
<text font-family="IPAexGothic" font-weight="bold" font-size="1.7462" text-anchor="start" fill="currentColor">
<tspan>0</tspan>
</text>
</g>
</g>
<g transform="translate(55.0846, 25.8365)">
<path transform="scale(0.0040, -0.0040)" d="M222 135c53 0 104 -27 104 -86c0 -71 -56 -120 -103 -148c-36 -22 -76 -36 -118 -36c-53 0 -105 27 -105 86c0 71 57 120 104 148c36 22 76 36 118 36z" fill="currentColor"/>
</g>
<g transform="translate(53.8248, 25.8365)">
<path transform="scale(0.0040, -0.0040)" d="M222 135c53 0 104 -27 104 -86c0 -71 -56 -120 -103 -148c-36 -22 -76 -36 -118 -36c-53 0 -105 27 -105 86c0 71 57 120 104 148c36 22 76 36 118 36z" fill="currentColor"/>
</g>
<g transform="translate(53.8248, 29.3365)">
<path transform="scale(0.0040, -0.0040)" d="M222 135c53 0 104 -27 104 -86c0 -71 -56 -120 -103 -148c-36 -22 -76 -36 -118 -36c-53 0 -105 27 -105 86c0 71 57 120 104 148c36 22 76 36 118 36z" fill="currentColor"/>
</g>
<g transform="translate(11.8341, 26.3365)">
<rect x="-0.0460" y="-0.3033" width="0.0920" height="2.8953" ry="0.0222" fill="currentColor"/>
</g>
<g color="rgb(100.0000%, 100.0000%, 100.0000%)">
<g transform="translate(11.7880, 32.9501)">
<rect x="0.1100" y="-0.6489" width="1.1002" height="1.2977" ry="0.0000" fill="currentColor"/>
</g>
</g>
<g transform="scale(1.0000, 1.0000)">
<g transform="translate(11.8981, 33.5905)">
<text font-family="IPAexGothic" font-weight="bold" font-size="1.7462" text-anchor="start" fill="currentColor">
<tspan>0</tspan>
</text>
</g>
</g>
<g transform="translate(12.4447, 35.2001)">
<path stroke-width="0.1200" stroke-linejoin="miter" stroke-linecap="square" stroke="currentColor" fill="none" d="M-0.4120 -0.4220L0.2280 -0.4270L0.2680 -0.3860C0.1100 0.0460 -0.1310 0.2760 -0.4870 0.4570M0.4940 0.4340C0.3790 0.3130 0.2470 0.1870 0.0440 0.0360"/>
</g>
<g transform="translate(11.7880, 25.8365)">
<path transform="scale(0.0040, -0.0040)" d="M222 135c53 0 104 -27 104 -86c0 -71 -56 -120 -103 -148c-36 -22 -76 -36 -118 -36c-53 0 -105 27 -105 86c0 71 57 120 104 148c36 22 76 36 118 36z" fill="currentColor"/>
</g>
<g transform="translate(10.8423, 34.4501)">
<path stroke-width="0.1200" stroke-linejoin="round" stroke-linecap="square" stroke="currentColor" fill="none" d="M-0.5500 -0.3240L0.5500 -0.3240M-0.5500 -0.6240L0.5500 -0.6240"/>
</g>
<g transform="translate(8.7322, 25.3365)">
<path transform="scale(0.0040, -0.0040)" d="M215 -316c0 -9 -8 -17 -17 -17s-17 8 -17 17v151l-87 -31v-162c0 -9 -8 -17 -17 -17s-17 8 -17 17v150l-39 -13c-10 -4 -21 4 -21 15v64c0 7 5 13 11 15l49 18v164l-39 -14c-10 -4 -21 4 -21 15v65c0 7 5 13 11 15l49 17v163c0 9 8 17 17 17s17 -8 17 -17v-151l87 31v162
c0 9 8 17 17 17s17 -8 17 -17v-150l39 13c10 4 21 -4 21 -15v-64c0 -7 -5 -13 -11 -15l-49 -18v-164l39 14c10 4 21 -4 21 -15v-65c0 -7 -5 -13 -11 -15l-49 -17v-163zM94 67v-164l87 30v164z" fill="currentColor"/>
</g>
<g transform="translate(10.2283, 26.3365)">
<rect x="-0.0460" y="-0.8033" width="0.0920" height="3.1975" ry="0.0222" fill="currentColor"/>
</g>
<g transform="translate(14.0540, 34.4501)">
<path stroke-width="0.1200" stroke-linejoin="round" stroke-linecap="square" stroke="currentColor" fill="none" d="M-0.5500 -0.3240L0.5500 -0.3240M-0.5500 -0.6240L0.5500 -0.6240"/>
</g>
<g color="rgb(100.0000%, 100.0000%, 100.0000%)">
<g transform="translate(10.1822, 32.9501)">
<rect x="0.1100" y="-0.6489" width="1.1002" height="1.2977" ry="0.0000" fill="currentColor"/>
</g>
</g>
<g transform="scale(1.0000, 1.0000)">
<g transform="translate(10.2923, 33.5905)">
<text font-family="IPAexGothic" font-weight="bold" font-size="1.7462" text-anchor="start" fill="currentColor">
<tspan>3</tspan>
</text>
</g>
</g>
<g transform="translate(13.4399, 26.3365)">
<rect x="-0.0460" y="-0.3033" width="0.0920" height="3.0930" ry="0.0222" fill="currentColor"/>
</g>
<g color="rgb(100.0000%, 100.0000%, 100.0000%)">
<g transform="translate(13.3939, 32.9501)">
<rect x="0.1100" y="-0.6489" width="1.1002" height="1.2977" ry="0.0000" fill="currentColor"/>
</g>
</g>
<g transform="scale(1.0000, 1.0000)">
<g transform="translate(13.5039, 33.5905)">
<text font-family="IPAexGothic" font-weight="bold" font-size="1.7462" text-anchor="start" fill="currentColor">
<tspan>0</tspan>
</text>
</g>
</g>
<g transform="translate(14.0580, 35.2001)">
<path stroke-width="0.1200" stroke-linejoin="miter" stroke-linecap="square" stroke="currentColor" fill="none" d="M-0.2120 -0.3340C-0.2890 -0.0530 -0.4090 0.1570 -0.5530 0.3380M0.1550 -0.3520C0.3280 -0.1060 0.4580 0.1140 0.5450 0.3070"/>
</g>
<g transform="translate(13.3939, 31.8388)">
<text font-family="Libertinus Serif" font-size="1.2346" text-anchor="start" fill="currentColor">
<tspan> Ⅰ</tspan>
</text>
</g>
<g transform="translate(13.3939, 25.8365)">
<path transform="scale(0.0040, -0.0040)" d="M222 135c53 0 104 -27 104 -86c0 -71 -56 -120 -103 -148c-36 -22 -76 -36 -118 -36c-53 0 -105 27 -105 86c0 71 57 120 104 148c36 22 76 36 118 36z" fill="currentColor"/>
</g>
<g transform="translate(12.4482, 34.4501)">
<path stroke-width="0.1200" stroke-linejoin="round" stroke-linecap="square" stroke="currentColor" fill="none" d="M-0.5500 -0.3240L0.5500 -0.3240M-0.5500 -0.6240L0.5500 -0.6240"/>
</g>
<g transform="translate(4.5511, 30.8700)">
<text font-family="IPAexGothic" font-style="italic" font-size="1.3859" text-anchor="start" fill="currentColor">
<tspan>8</tspan>
</text>
</g>
<g transform="translate(3.9614, 27.3365)">
<path transform="scale(0.0040, -0.0040)" d="M374 260c5 0 10 1 15 1c154 0 254 -127 254 -259c0 -76 -33 -153 -107 -208c-22 -17 -47 -29 -73 -37c3 -36 5 -72 5 -108c0 -19 0 -37 -1 -56c-7 -120 -88 -226 -206 -226c-108 0 -195 87 -195 195c0 58 53 104 112 104c54 0 95 -48 95 -104c0 -52 -43 -95 -95 -95
c-12 0 -24 4 -35 9c26 -41 70 -70 121 -70c1 0 2 1 3 1c93 2 154 93 160 192c1 18 2 35 2 53c0 32 -2 64 -5 96c-29 -5 -58 -8 -89 -8c-188 0 -333 171 -333 372c0 178 133 306 251 440c-18 63 -35 126 -42 191c-6 51 -7 102 -7 154c0 116 55 226 150 295c5 4 11 4 16 0
c70 -84 132 -246 132 -359c0 -144 -87 -256 -183 -365c20 -69 39 -138 55 -208zM459 -205c69 24 117 96 117 166c0 92 -69 184 -179 193c25 -117 48 -235 62 -359zM71 31c0 -136 131 -251 267 -251c28 0 55 2 82 6c-15 128 -38 247 -64 367c-79 -9 -125 -62 -125 -121
c0 -44 26 -92 82 -124c4 -4 7 -9 7 -14c0 -11 -9 -21 -20 -21c-3 0 -6 1 -9 2c-80 43 -116 114 -116 184c0 88 57 173 158 196c-14 60 -30 119 -46 178c-108 -121 -216 -242 -216 -402zM411 1050c-99 -50 -161 -151 -161 -262c0 -76 15 -137 33 -200c82 97 149 198 149 325
c0 58 -4 84 -21 137z" fill="currentColor"/>
</g>
<g transform="translate(3.1481, 30.1433)">
<rect x="0.0000" y="-5.8422" width="0.1133" height="11.6844" ry="0.0354" fill="currentColor"/>
</g>
<g transform="translate(1.8981, 24.0761)">
<path transform="scale(0.0040, -0.0040)" d="M0 -56v91c0 12 10 21 22 21h43c164 0 281 136 377 272c10 14 32 -1 22 -15c-103 -145 -222 -369 -399 -369h-65z" fill="currentColor"/>
</g>
<g transform="translate(1.8981, 36.2105)">
<path transform="scale(0.0040, -0.0040)" d="M0 56h65c177 0 296 -224 399 -369c10 -14 -12 -29 -22 -15c-96 136 -213 272 -377 272h-43c-12 0 -22 9 -22 21v91z" fill="currentColor"/>
</g>
<g transform="translate(1.8981, 30.1433)">
<rect x="0.0000" y="-5.8872" width="0.4500" height="11.7744" ry="0.0000" fill="currentColor"/>
</g>
<g transform="translate(10.8463, 35.2001)">
<path stroke-width="0.1200" stroke-linejoin="miter" stroke-linecap="square" stroke="currentColor" fill="none" d="M-0.2120 -0.3340C-0.2890 -0.0530 -0.4090 0.1570 -0.5530 0.3380M0.1550 -0.3520C0.3280 -0.1060 0.4580 0.1140 0.5450 0.3070"/>
</g>
<g transform="translate(10.1822, 31.8388)">
<text font-family="Libertinus Serif" font-size="1.2346" text-anchor="start" fill="currentColor">
<tspan> Ⅲ</tspan>
</text>
</g>
<g transform="translate(10.1822, 25.3365)">
<path transform="scale(0.0040, -0.0040)" d="M222 135c53 0 104 -27 104 -86c0 -71 -56 -120 -103 -148c-36 -22 -76 -36 -118 -36c-53 0 -105 27 -105 86c0 71 57 120 104 148c36 22 76 36 118 36z" fill="currentColor"/>
</g>
<g transform="translate(7.6865, 34.4501)">
<path stroke-width="0.1200" stroke-linejoin="round" stroke-linecap="square" stroke="currentColor" fill="none" d="M-0.5500 -0.3384L0.5500 -0.3384M-0.5500 -0.6384L0.5500 -0.6384"/>
</g>
<g transform="translate(7.0725, 26.3365)">
<rect x="-0.0460" y="-1.8033" width="0.0920" height="3.8089" ry="0.0222" fill="currentColor"/>
</g>
<g color="rgb(100.0000%, 100.0000%, 100.0000%)">
<g transform="translate(7.0264, 32.9501)">
<rect x="0.1100" y="-0.6382" width="1.1002" height="1.2764" ry="0.0000" fill="currentColor"/>
</g>
</g>
<g transform="scale(1.0000, 1.0000)">
<g transform="translate(7.1365, 33.5883)">
<text font-family="IPAexGothic" font-weight="bold" font-size="1.7462" text-anchor="start" fill="currentColor">
<tspan>4</tspan>
</text>
</g>
</g>
<g transform="translate(7.0264, 31.8495)">
<text font-family="Libertinus Serif" font-size="1.2346" text-anchor="start" fill="currentColor">
<tspan> Ⅲ</tspan>
</text>
</g>
<g transform="translate(7.0264, 24.3365)">
<path transform="scale(0.0040, -0.0040)" d="M222 135c53 0 104 -27 104 -86c0 -71 -56 -120 -103 -148c-36 -22 -76 -36 -118 -36c-53 0 -105 27 -105 86c0 71 57 120 104 148c36 22 76 36 118 36z" fill="currentColor"/>
</g>
<g transform="translate(26.9440, 26.8365)">
<path transform="scale(0.0040, -0.0040)" d="M222 135c53 0 104 -27 104 -86c0 -71 -56 -120 -103 -148c-36 -22 -76 -36 -118 -36c-53 0 -105 27 -105 86c0 71 57 120 104 148c36 22 76 36 118 36z" fill="currentColor"/>
</g>
<g transform="translate(24.3492, 34.4501)">
<path stroke-width="0.1200" stroke-linejoin="round" stroke-linecap="square" stroke="currentColor" fill="none" d="M-0.5500 -0.6240L0.5500 -0.6240"/>
</g>
<g transform="translate(27.6041, 34.4501)">
<path stroke-width="0.1200" stroke-linejoin="round" stroke-linecap="square" stroke="currentColor" fill="none" d="M-0.5500 0.8760L0.5500 0.8760"/>
</g>
<g transform="translate(30.3700, 26.3365)">
<rect x="-0.0460" y="-0.3033" width="0.0920" height="3.0987" ry="0.0222" fill="currentColor"/>
</g>
<g color="rgb(100.0000%, 100.0000%, 100.0000%)">
<g transform="translate(30.3240, 34.4501)">
<rect x="0.1100" y="-0.6382" width="1.1002" height="1.2764" ry="0.0000" fill="currentColor"/>
</g>
</g>
<g transform="scale(1.0000, 1.0000)">
<g transform="translate(30.4340, 35.0883)">
<text font-family="IPAexGothic" font-weight="bold" font-size="1.7462" text-anchor="start" fill="currentColor">
<tspan>4</tspan>
</text>
</g>
</g>
<g transform="translate(30.3240, 32.1647)">
<text font-family="Libertinus Serif" font-size="1.2346" text-anchor="start" fill="currentColor">
<tspan> Ⅲ</tspan>
</text>
</g>
<g transform="translate(30.3240, 25.8365)">
<path transform="scale(0.0040, -0.0040)" d="M222 135c53 0 104 -27 104 -86c0 -71 -56 -120 -103 -148c-36 -22 -76 -36 -118 -36c-53 0 -105 27 -105 86c0 71 57 120 104 148c36 22 76 36 118 36z" fill="currentColor"/>
</g>
<g transform="translate(25.4940, 26.8365)">
<path transform="scale(0.0040, -0.0040)" d="M215 -316c0 -9 -8 -17 -17 -17s-17 8 -17 17v151l-87 -31v-162c0 -9 -8 -17 -17 -17s-17 8 -17 17v150l-39 -13c-10 -4 -21 4 -21 15v64c0 7 5 13 11 15l49 18v164l-39 -14c-10 -4 -21 4 -21 15v65c0 7 5 13 11 15l49 17v163c0 9 8 17 17 17s17 -8 17 -17v-151l87 31v162
c0 9 8 17 17 17s17 -8 17 -17v-150l39 13c10 4 21 -4 21 -15v-64c0 -7 -5 -13 -11 -15l-49 -18v-164l39 14c10 4 21 -4 21 -15v-65c0 -7 -5 -13 -11 -15l-49 -17v-163zM94 67v-164l87 30v164z" fill="currentColor"/>
</g>
<g transform="translate(26.9900, 26.3365)">
<rect x="-0.0460" y="0.6967" width="0.0920" height="2.2923" ry="0.0222" fill="currentColor"/>
</g>
<g color="rgb(100.0000%, 100.0000%, 100.0000%)">
<g transform="translate(26.9440, 34.4501)">
<rect x="0.1100" y="-0.6489" width="1.1002" height="1.2977" ry="0.0000" fill="currentColor"/>
</g>
</g>
<g transform="scale(1.0000, 1.0000)">
<g transform="translate(27.0540, 35.0905)">
<text font-family="IPAexGothic" font-weight="bold" font-size="1.7462" text-anchor="start" fill="currentColor">
<tspan>3</tspan>
</text>
</g>
</g>
<g transform="translate(26.9440, 32.1647)">
<text font-family="Libertinus Serif" font-size="1.2346" text-anchor="start" fill="currentColor">
<tspan> Ⅰ</tspan>
</text>
</g>
<g transform="translate(23.7351, 26.3365)">
<rect x="-0.0460" y="-0.3033" width="0.0920" height="2.5188" ry="0.0222" fill="currentColor"/>
</g>
<g color="rgb(100.0000%, 100.0000%, 100.0000%)">
<g transform="translate(23.6891, 32.9501)">
<rect x="0.1100" y="-0.6489" width="1.1002" height="1.2977" ry="0.0000" fill="currentColor"/>
</g>
</g>
<g transform="scale(1.0000, 1.0000)">
<g transform="translate(23.7991, 33.5905)">
<text font-family="IPAexGothic" font-weight="bold" font-size="1.7462" text-anchor="start" fill="currentColor">
<tspan>0</tspan>
</text>
</g>
</g>
<g transform="translate(23.6891, 25.8365)">
<path transform="scale(0.0040, -0.0040)" d="M222 135c53 0 104 -27 104 -86c0 -71 -56 -120 -103 -148c-36 -22 -76 -36 -118 -36c-53 0 -105 27 -105 86c0 71 57 120 104 148c36 22 76 36 118 36z" fill="currentColor"/>
</g>
</svg>
