<svg xmlns="http://www.w3.org/2000/svg" xmlns:xlink="http://www.w3.org/1999/xlink" version="1.2" width="210.00mm" height="297.00mm" viewBox="0 0 66.3898 93.8941">
<style type="text/css">
<![CDATA[
tspan { white-space: pre; }
]]>
</style>
<!-- Page: 1/1 -->
<g transform="translate(11.1535, 5.5138)">
<text font-family="IPAexGothic" font-weight="bold" font-size="3.4924" text-anchor="start" fill="currentColor">
<tspan>津軽じょんがら節六段ー1段</tspan>
</text>
</g>
<g transform="translate(19.6324, 9.0138)">
<text font-family="IPAexGothic" font-weight="bold" font-size="2.4695" text-anchor="start" fill="currentColor">
<tspan>オリンピックバージョン</tspan>
</text>
</g>
<g transform="translate(3.1614, 12.5138)">
<text font-family="IPAexGothic" font-size="2.2000" text-anchor="start" fill="currentColor">
<tspan>二上り</tspan>
</text>
</g>
<g transform="translate(3.1614, 23.3926)">
<line stroke-linejoin="round" stroke-linecap="round" stroke-width="0.0708" stroke="currentColor" x1="0.0354" y1="0" x2="60.0315" y2="0"/>
</g>
<g transform="translate(3.1614, 22.3926)">
<line stroke-linejoin="round" stroke-linecap="round" stroke-width="0.0708" stroke="currentColor" x1="0.0354" y1="0" x2="60.0315" y2="0"/>
</g>
<g transform="translate(3.1614, 21.3926)">
<line stroke-linejoin="round" stroke-linecap="round" stroke-width="0.0708" stroke="currentColor" x1="0.0354" y1="0" x2="60.0315" y2="0"/>
</g>
<g transform="translate(3.1614, 20.3926)">
<line stroke-linejoin="round" stroke-linecap="round" stroke-width="0.0708" stroke="currentColor" x1="0.0354" y1="0" x2="60.0315" y2="0"/>
</g>
<g transform="translate(3.1614, 19.3926)">
<line stroke-linejoin="round" stroke-linecap="round" stroke-width="0.0708" stroke="currentColor" x1="0.0354" y1="0" x2="60.0315" y2="0"/>
</g>
<g transform="translate(55.2307, 21.3926)">
<rect x="0.0000" y="-2.0000" width="0.1345" height="4.0354" ry="0.0000" fill="currentColor"/>
</g>
<g transform="translate(14.2737, 21.3926)">
<rect x="0.0000" y="-2.0000" width="0.1345" height="4.0354" ry="0.0000" fill="currentColor"/>
</g>
<g transform="translate(55.2307, 30.3926)">
<rect x="0.0000" y="-1.5354" width="0.1345" height="3.0354" ry="0.0000" fill="currentColor"/>
</g>
<g transform="translate(55.2307, 17.6126)">
<rect x="0.0000" y="5.8154" width="0.1345" height="5.4646" ry="0.0000" fill="currentColor"/>
</g>
<g transform="translate(14.2737, 30.3926)">
<rect x="0.0000" y="-1.5354" width="0.1345" height="3.0354" ry="0.0000" fill="currentColor"/>
</g>
<g transform="translate(36.6987, 17.6126)">
<rect x="0.0000" y="5.8154" width="0.1345" height="5.4646" ry="0.0000" fill="currentColor"/>
</g>
<g transform="translate(14.2737, 17.6126)">
<rect x="0.0000" y="5.8154" width="0.1345" height="5.4646" ry="0.0000" fill="currentColor"/>
</g>
<g transform="translate(36.6987, 30.3926)">
<rect x="0.0000" y="-1.5354" width="0.1345" height="3.0354" ry="0.0000" fill="currentColor"/>
</g>
<g transform="translate(22.5039, 17.6126)">
<rect x="0.0000" y="5.8154" width="0.1345" height="5.4646" ry="0.0000" fill="currentColor"/>
</g>
<g transform="translate(36.6987, 21.3926)">
<rect x="0.0000" y="-2.0000" width="0.1345" height="4.0354" ry="0.0000" fill="currentColor"/>
</g>
<g transform="translate(22.5039, 30.3926)">
<rect x="0.0000" y="-1.5354" width="0.1345" height="3.0354" ry="0.0000" fill="currentColor"/>
</g>
<g transform="translate(63.0938, 21.3926)">
<rect x="0.0000" y="-2.0000" width="0.1345" height="4.0354" ry="0.0000" fill="currentColor"/>
</g>
<g transform="translate(63.0938, 30.3926)">
<rect x="0.0000" y="-1.5354" width="0.1345" height="3.0354" ry="0.0000" fill="currentColor"/>
</g>
<g transform="translate(63.0938, 17.6126)">
<rect x="0.0000" y="5.8154" width="0.1345" height="5.4646" ry="0.0000" fill="currentColor"/>
</g>
<g transform="translate(3.1614, 24.3926)">
<rect x="44.0159" y="-0.0854" width="1.9587" height="0.1708" ry="0.0854" fill="currentColor"/>
</g>
<g transform="translate(3.1614, 24.3926)">
<rect x="41.6810" y="-0.0854" width="1.9087" height="0.1708" ry="0.0854" fill="currentColor"/>
</g>
<g transform="translate(3.1614, 24.3926)">
<rect x="39.7063" y="-0.0854" width="1.8747" height="0.1708" ry="0.0854" fill="currentColor"/>
</g>
<g transform="translate(3.1614, 24.3926)">
<rect x="3.6447" y="-0.0854" width="1.9587" height="0.1708" ry="0.0854" fill="currentColor"/>
</g>
<g transform="translate(3.1614, 31.8926)">
<line stroke-linejoin="round" stroke-linecap="round" stroke-width="0.0708" stroke="currentColor" x1="0.0354" y1="0" x2="60.0315" y2="0"/>
</g>
<g transform="translate(3.1614, 30.3926)">
<line stroke-linejoin="round" stroke-linecap="round" stroke-width="0.0708" stroke="currentColor" x1="0.0354" y1="0" x2="60.0315" y2="0"/>
</g>
<g transform="translate(3.1614, 28.8926)">
<line stroke-linejoin="round" stroke-linecap="round" stroke-width="0.0708" stroke="currentColor" x1="0.0354" y1="0" x2="60.0315" y2="0"/>
</g>
<g transform="translate(22.5039, 21.3926)">
<rect x="0.0000" y="-2.0000" width="0.1345" height="4.0354" ry="0.0000" fill="currentColor"/>
</g>
<g transform="translate(43.1602, 24.3926)">
<path transform="scale(0.0040, -0.0040)" d="M222 135c53 0 104 -27 104 -86c0 -71 -56 -120 -103 -148c-36 -22 -76 -36 -118 -36c-53 0 -105 27 -105 86c0 71 57 120 104 148c36 22 76 36 118 36z" fill="currentColor"/>
</g>
<g transform="translate(41.9296, 30.3926)">
<path stroke-width="0.1200" stroke-linejoin="round" stroke-linecap="square" stroke="currentColor" fill="none" d="M-0.5500 2.6760L0.5500 2.6760M-0.5500 2.3760L0.5500 2.3760"/>
</g>
<g transform="translate(39.8195, 23.8926)">
<path transform="scale(0.0040, -0.0040)" d="M215 -316c0 -9 -8 -17 -17 -17s-17 8 -17 17v151l-87 -31v-162c0 -9 -8 -17 -17 -17s-17 8 -17 17v150l-39 -13c-10 -4 -21 4 -21 15v64c0 7 5 13 11 15l49 18v164l-39 -14c-10 -4 -21 4 -21 15v65c0 7 5 13 11 15l49 17v163c0 9 8 17 17 17s17 -8 17 -17v-151l87 31v162
c0 9 8 17 17 17s17 -8 17 -17v-150l39 13c10 4 21 -4 21 -15v-64c0 -7 -5 -13 -11 -15l-49 -18v-164l39 14c10 4 21 -4 21 -15v-65c0 -7 -5 -13 -11 -15l-49 -17v-163zM94 67v-164l87 30v164z" fill="currentColor"/>
</g>
<g transform="translate(45.7790, 30.3926)">
<path stroke-width="0.1200" stroke-linejoin="round" stroke-linecap="square" stroke="currentColor" fill="none" d="M-0.5500 2.6760L0.5500 2.6760M-0.5500 2.3760L0.5500 2.3760"/>
</g>
<g transform="translate(43.8203, 30.3926)">
<path stroke-width="0.1200" stroke-linejoin="round" stroke-linecap="square" stroke="currentColor" fill="none" d="M-0.5500 2.6760L0.5500 2.6760M-0.5500 2.3760L0.5500 2.3760"/>
</g>
<g transform="translate(45.1189, 28.1072)">
<text font-family="IPAexGothic" font-size="0.9799" text-anchor="start" fill="currentColor">
<tspan>Ⅰ</tspan>
</text>
</g>
<g transform="translate(45.1189, 24.3926)">
<path transform="scale(0.0040, -0.0040)" d="M222 135c53 0 104 -27 104 -86c0 -71 -56 -120 -103 -148c-36 -22 -76 -36 -118 -36c-53 0 -105 27 -105 86c0 71 57 120 104 148c36 22 76 36 118 36z" fill="currentColor"/>
</g>
<g transform="translate(45.7830, 33.8556)">
<path stroke-width="0.1200" stroke-linejoin="miter" stroke-linecap="square" stroke="currentColor" fill="none" d="M-0.2120 -0.3340C-0.2890 -0.0530 -0.4090 0.1570 -0.5530 0.3380M0.1550 -0.3520C0.3280 -0.1060 0.4580 0.1140 0.5450 0.3070"/>
</g>
<g color="rgb(100.0000%, 100.0000%, 100.0000%)">
<g transform="translate(45.1189, 31.8926)">
<rect x="0.1100" y="-0.6489" width="1.1002" height="1.2977" ry="0.0000" fill="currentColor"/>
</g>
</g>
<g transform="scale(1.0000, 1.0000)">
<g transform="translate(45.2289, 32.5329)">
<text font-family="IPAexGothic" font-weight="bold" font-size="1.7462" text-anchor="start" fill="currentColor">
<tspan>0</tspan>
</text>
</g>
</g>
<g transform="translate(46.3787, 21.3926)">
<rect x="-0.0460" y="0.0000" width="0.0920" height="2.8033" ry="0.0222" fill="currentColor"/>
</g>
<g transform="translate(44.4200, 21.3926)">
<rect x="-0.0460" y="0.0000" width="0.0920" height="2.8033" ry="0.0222" fill="currentColor"/>
</g>
<g color="rgb(100.0000%, 100.0000%, 100.0000%)">
<g transform="translate(43.1602, 31.8926)">
<rect x="0.1100" y="-0.6489" width="1.1002" height="1.2977" ry="0.0000" fill="currentColor"/>
</g>
</g>
<g transform="scale(1.0000, 1.0000)">
<g transform="translate(43.2702, 32.5329)">
<text font-family="IPAexGothic" font-weight="bold" font-size="1.7462" text-anchor="start" fill="currentColor">
<tspan>0</tspan>
</text>
</g>
</g>
<g transform="translate(43.8168, 33.9306)">
<path stroke-width="0.1200" stroke-linejoin="miter" stroke-linecap="square" stroke="currentColor" fill="none" d="M-0.4120 -0.4220L0.2280 -0.4270L0.2680 -0.3860C0.1100 0.0460 -0.1310 0.2760 -0.4870 0.4570M0.4940 0.4340C0.3790 0.3130 0.2470 0.1870 0.0440 0.0360"/>
</g>
<g color="rgb(100.0000%, 100.0000%, 100.0000%)">
<g transform="translate(37.8287, 31.8926)">
<rect x="0.1100" y="-0.6382" width="1.1002" height="1.2764" ry="0.0000" fill="currentColor"/>
</g>
</g>
<g transform="scale(1.0000, 1.0000)">
<g transform="translate(37.9388, 32.5308)">
<text font-family="IPAexGothic" font-weight="bold" font-size="1.7462" text-anchor="start" fill="currentColor">
<tspan>4</tspan>
</text>
</g>
</g>
<g transform="translate(39.0885, 21.3926)">
<rect x="-0.0460" y="-1.7850" width="0.0920" height="3.0883" ry="0.0222" fill="currentColor"/>
</g>
<g transform="translate(38.4888, 30.3926)">
<path stroke-width="0.1200" stroke-linejoin="round" stroke-linecap="square" stroke="currentColor" fill="none" d="M-0.5500 2.6616L0.5500 2.6616M-0.5500 2.3616L0.5500 2.3616"/>
</g>
<g transform="translate(37.8287, 28.1072)">
<text font-family="IPAexGothic" font-size="0.9799" text-anchor="start" fill="currentColor">
<tspan>Ⅲ</tspan>
</text>
</g>
<g transform="translate(37.8287, 22.8926)">
<path transform="scale(0.0040, -0.0040)" d="M222 135c53 0 104 -27 104 -86c0 -71 -56 -120 -103 -148c-36 -22 -76 -36 -118 -36c-53 0 -105 27 -105 86c0 71 57 120 104 148c36 22 76 36 118 36z" fill="currentColor"/>
</g>
<g transform="translate(24.8710, 18.3926)">
<polygon stroke-linejoin="round" stroke-linecap="round" stroke-width="0.0444" fill="currentColor" stroke="currentColor" points="7.2920 0.7822 7.2920 1.2178 0.0222 0.2178 0.0222 -0.2178"/>
</g>
<g transform="translate(24.8710, 19.1880)">
<polygon stroke-linejoin="round" stroke-linecap="round" stroke-width="0.0444" fill="currentColor" stroke="currentColor" points="7.2920 0.7822 7.2920 1.2178 0.0222 0.2178 0.0222 -0.2178"/>
</g>
<g transform="translate(42.5292, 21.3926)">
<rect x="-0.0460" y="-1.0104" width="0.0920" height="3.3136" ry="0.0222" fill="currentColor"/>
</g>
<g color="rgb(100.0000%, 100.0000%, 100.0000%)">
<g transform="translate(41.2695, 31.8926)">
<rect x="0.1100" y="-0.6489" width="1.1002" height="1.2977" ry="0.0000" fill="currentColor"/>
</g>
</g>
<g transform="scale(1.0000, 1.0000)">
<g transform="translate(41.3795, 32.5329)">
<text font-family="IPAexGothic" font-weight="bold" font-size="1.7462" text-anchor="start" fill="currentColor">
<tspan>3</tspan>
</text>
</g>
</g>
<g transform="translate(41.9336, 33.8556)">
<path stroke-width="0.1200" stroke-linejoin="miter" stroke-linecap="square" stroke="currentColor" fill="none" d="M-0.2120 -0.3340C-0.2890 -0.0530 -0.4090 0.1570 -0.5530 0.3380M0.1550 -0.3520C0.3280 -0.1060 0.4580 0.1140 0.5450 0.3070"/>
</g>
<g transform="translate(41.2695, 28.1072)">
<text font-family="IPAexGothic" font-size="0.9799" text-anchor="start" fill="currentColor">
<tspan>Ⅲ</tspan>
</text>
</g>
<g transform="translate(41.2695, 23.8926)">
<path transform="scale(0.0040, -0.0040)" d="M222 135c53 0 104 -27 104 -86c0 -71 -56 -120 -103 -148c-36 -22 -76 -36 -118 -36c-53 0 -105 27 -105 86c0 71 57 120 104 148c36 22 76 36 118 36z" fill="currentColor"/>
</g>
<g transform="translate(60.9370, 21.3926)">
<rect x="-0.0460" y="-2.5000" width="0.0920" height="3.3033" ry="0.0222" fill="currentColor"/>
</g>
<g color="rgb(100.0000%, 100.0000%, 100.0000%)">
<g transform="translate(59.6772, 31.8926)">
<rect x="0.1100" y="-0.6489" width="1.1002" height="1.2977" ry="0.0000" fill="currentColor"/>
</g>
</g>
<g transform="scale(1.0000, 1.0000)">
<g transform="translate(59.7872, 32.5329)">
<text font-family="IPAexGothic" font-weight="bold" font-size="1.7462" text-anchor="start" fill="currentColor">
<tspan>6</tspan>
</text>
</g>
</g>
<g transform="translate(59.6772, 22.3926)">
<path transform="scale(0.0040, -0.0040)" d="M222 135c53 0 104 -27 104 -86c0 -71 -56 -120 -103 -148c-36 -22 -76 -36 -118 -36c-53 0 -105 27 -105 86c0 71 57 120 104 148c36 22 76 36 118 36z" fill="currentColor"/>
</g>
<g transform="translate(39.0425, 19.5972)">
<polygon stroke-linejoin="round" stroke-linecap="round" stroke-width="0.0444" fill="currentColor" stroke="currentColor" points="3.5105 0.5776 3.5105 1.0132 0.0222 0.2178 0.0222 -0.2178"/>
</g>
<g transform="translate(39.0425, 20.3926)">
<polygon stroke-linejoin="round" stroke-linecap="round" stroke-width="0.0444" fill="currentColor" stroke="currentColor" points="3.5105 0.5776 3.5105 1.0132 0.0222 0.2178 0.0222 -0.2178"/>
</g>
<g transform="translate(44.3739, 21.3926)">
<polygon stroke-linejoin="round" stroke-linecap="round" stroke-width="0.0444" fill="currentColor" stroke="currentColor" points="2.0285 -0.2178 2.0285 0.2178 0.0222 0.2178 0.0222 -0.2178"/>
</g>
<g transform="translate(44.3739, 22.1880)">
<polygon stroke-linejoin="round" stroke-linecap="round" stroke-width="0.0444" fill="currentColor" stroke="currentColor" points="2.0285 -0.2178 2.0285 0.2178 0.0222 0.2178 0.0222 -0.2178"/>
</g>
<g transform="translate(51.7962, 22.8926)">
<path transform="scale(0.0040, -0.0040)" d="M222 135c53 0 104 -27 104 -86c0 -71 -56 -120 -103 -148c-36 -22 -76 -36 -118 -36c-53 0 -105 27 -105 86c0 71 57 120 104 148c36 22 76 36 118 36z" fill="currentColor"/>
</g>
<g transform="translate(49.1707, 31.1426)">
<path transform="scale(0.0040, -0.0040)" d="M0 0c0 32 25 57 57 57s57 -25 57 -57s-25 -57 -57 -57s-57 25 -57 57z" fill="currentColor"/>
</g>
<g transform="translate(51.7962, 28.1072)">
<text font-family="IPAexGothic" font-size="0.9799" text-anchor="start" fill="currentColor">
<tspan>Ⅰ</tspan>
</text>
</g>
<g transform="translate(48.7636, 21.3926)">
<rect x="-0.0460" y="-0.5000" width="0.0920" height="3.3033" ry="0.0222" fill="currentColor"/>
</g>
<g transform="translate(49.2664, 23.8926)">
<path transform="scale(0.0040, -0.0040)" d="M0 0c0 32 25 57 57 57s57 -25 57 -57s-25 -57 -57 -57s-57 25 -57 57z" fill="currentColor"/>
</g>
<g color="rgb(100.0000%, 100.0000%, 100.0000%)">
<g transform="translate(47.5038, 31.8926)">
<rect x="0.1100" y="-0.6489" width="1.1002" height="1.2977" ry="0.0000" fill="currentColor"/>
</g>
</g>
<g transform="scale(1.0000, 1.0000)">
<g transform="translate(47.6138, 32.5329)">
<text font-family="IPAexGothic" font-weight="bold" font-size="1.7462" text-anchor="start" fill="currentColor">
<tspan>0</tspan>
</text>
</g>
</g>
<g transform="translate(47.5038, 24.3926)">
<path transform="scale(0.0040, -0.0040)" d="M222 135c53 0 104 -27 104 -86c0 -71 -56 -120 -103 -148c-36 -22 -76 -36 -118 -36c-53 0 -105 27 -105 86c0 71 57 120 104 148c36 22 76 36 118 36z" fill="currentColor"/>
</g>
<g transform="translate(56.3607, 22.3926)">
<path transform="scale(0.0040, -0.0040)" d="M222 135c53 0 104 -27 104 -86c0 -71 -56 -120 -103 -148c-36 -22 -76 -36 -118 -36c-53 0 -105 27 -105 86c0 71 57 120 104 148c36 22 76 36 118 36z" fill="currentColor"/>
</g>
<g transform="translate(57.6205, 21.3926)">
<rect x="-0.0460" y="-2.5000" width="0.0920" height="3.3033" ry="0.0222" fill="currentColor"/>
</g>
<g color="rgb(100.0000%, 100.0000%, 100.0000%)">
<g transform="translate(56.3607, 31.8926)">
<rect x="0.1100" y="-0.6489" width="1.1002" height="1.2977" ry="0.0000" fill="currentColor"/>
</g>
</g>
<g transform="scale(1.0000, 1.0000)">
<g transform="translate(56.4708, 32.5329)">
<text font-family="IPAexGothic" font-weight="bold" font-size="1.7462" text-anchor="start" fill="currentColor">
<tspan>6</tspan>
</text>
</g>
</g>
<g transform="translate(56.3607, 28.1072)">
<text font-family="IPAexGothic" font-size="0.9799" text-anchor="start" fill="currentColor">
<tspan>Ⅲ</tspan>
</text>
</g>
<g transform="translate(53.0560, 21.3926)">
<rect x="-0.0460" y="-2.0000" width="0.0920" height="3.3033" ry="0.0222" fill="currentColor"/>
</g>
<g color="rgb(100.0000%, 100.0000%, 100.0000%)">
<g transform="translate(51.7962, 31.8926)">
<rect x="0.1100" y="-0.6382" width="1.1002" height="1.2764" ry="0.0000" fill="currentColor"/>
</g>
</g>
<g transform="scale(1.0000, 1.0000)">
<g transform="translate(51.9063, 32.5308)">
<text font-family="IPAexGothic" font-weight="bold" font-size="1.7462" text-anchor="start" fill="currentColor">
<tspan>4</tspan>
</text>
</g>
</g>
<g transform="translate(16.6635, 21.3926)">
<rect x="-0.0460" y="-2.0000" width="0.0920" height="3.3033" ry="0.0222" fill="currentColor"/>
</g>
<g color="rgb(100.0000%, 100.0000%, 100.0000%)">
<g transform="translate(15.4038, 31.8926)">
<rect x="0.1100" y="-0.6382" width="1.1002" height="1.2764" ry="0.0000" fill="currentColor"/>
</g>
</g>
<g transform="scale(1.0000, 1.0000)">
<g transform="translate(15.5138, 32.5308)">
<text font-family="IPAexGothic" font-weight="bold" font-size="1.7462" text-anchor="start" fill="currentColor">
<tspan>4</tspan>
</text>
</g>
</g>
<g transform="translate(15.4038, 28.1072)">
<text font-family="IPAexGothic" font-size="0.9799" text-anchor="start" fill="currentColor">
<tspan>Ⅲ</tspan>
</text>
</g>
<g transform="translate(15.4038, 22.8926)">
<path transform="scale(0.0040, -0.0040)" d="M222 135c53 0 104 -27 104 -86c0 -71 -56 -120 -103 -148c-36 -22 -76 -36 -118 -36c-53 0 -105 27 -105 86c0 71 57 120 104 148c36 22 76 36 118 36z" fill="currentColor"/>
</g>
<g color="rgb(100.0000%, 100.0000%, 100.0000%)">
<g transform="translate(23.6572, 30.3926)">
<rect x="0.1100" y="-0.6382" width="1.1002" height="1.2764" ry="0.0000" fill="currentColor"/>
</g>
</g>
<g transform="scale(1.0000, 1.0000)">
<g transform="translate(23.7672, 31.0308)">
<text font-family="IPAexGothic" font-weight="bold" font-size="1.7462" text-anchor="start" fill="currentColor">
<tspan>4</tspan>
</text>
</g>
</g>
<g transform="translate(23.6572, 28.1072)">
<text font-family="IPAexGothic" font-size="0.9799" text-anchor="start" fill="currentColor">
<tspan>Ⅲ</tspan>
</text>
</g>
<g transform="translate(23.6572, 20.8926)">
<path transform="scale(0.0040, -0.0040)" d="M222 135c53 0 104 -27 104 -86c0 -71 -56 -120 -103 -148c-36 -22 -76 -36 -118 -36c-53 0 -105 27 -105 86c0 71 57 120 104 148c36 22 76 36 118 36z" fill="currentColor"/>
</g>
<g transform="translate(17.6700, 21.8926)">
<path transform="scale(0.0040, -0.0040)" d="M215 -316c0 -9 -8 -17 -17 -17s-17 8 -17 17v151l-87 -31v-162c0 -9 -8 -17 -17 -17s-17 8 -17 17v150l-39 -13c-10 -4 -21 4 -21 15v64c0 7 5 13 11 15l49 18v164l-39 -14c-10 -4 -21 4 -21 15v65c0 7 5 13 11 15l49 17v163c0 9 8 17 17 17s17 -8 17 -17v-151l87 31v162
c0 9 8 17 17 17s17 -8 17 -17v-150l39 13c10 4 21 -4 21 -15v-64c0 -7 -5 -13 -11 -15l-49 -18v-164l39 14c10 4 21 -4 21 -15v-65c0 -7 -5 -13 -11 -15l-49 -17v-163zM94 67v-164l87 30v164z" fill="currentColor"/>
</g>
<g transform="translate(20.3798, 21.3926)">
<rect x="-0.0460" y="-3.0000" width="0.0920" height="3.3033" ry="0.0222" fill="currentColor"/>
</g>
<g color="rgb(100.0000%, 100.0000%, 100.0000%)">
<g transform="translate(19.1200, 30.3926)">
<rect x="0.1100" y="-0.6489" width="1.1002" height="1.2977" ry="0.0000" fill="currentColor"/>
</g>
</g>
<g transform="scale(1.0000, 1.0000)">
<g transform="translate(19.2300, 31.0329)">
<text font-family="IPAexGothic" font-weight="bold" font-size="1.7462" text-anchor="start" fill="currentColor">
<tspan>3</tspan>
</text>
</g>
</g>
<g transform="translate(19.1200, 28.1072)">
<text font-family="IPAexGothic" font-size="0.9799" text-anchor="start" fill="currentColor">
<tspan>Ⅰ</tspan>
</text>
</g>
<g transform="translate(19.1200, 21.8926)">
<path transform="scale(0.0040, -0.0040)" d="M222 135c53 0 104 -27 104 -86c0 -71 -56 -120 -103 -148c-36 -22 -76 -36 -118 -36c-53 0 -105 27 -105 86c0 71 57 120 104 148c36 22 76 36 118 36z" fill="currentColor"/>
</g>
<g transform="translate(4.5511, 25.9261)">
<text font-family="IPAexGothic" font-style="italic" font-size="1.3859" text-anchor="start" fill="currentColor">
<tspan>8</tspan>
</text>
</g>
<g transform="translate(8.3924, 21.3926)">
<rect x="-0.0460" y="-0.5000" width="0.0920" height="3.3033" ry="0.0222" fill="currentColor"/>
</g>
<g color="rgb(100.0000%, 100.0000%, 100.0000%)">
<g transform="translate(7.1326, 31.8926)">
<rect x="0.1100" y="-0.6489" width="1.1002" height="1.2977" ry="0.0000" fill="currentColor"/>
</g>
</g>
<g transform="scale(1.0000, 1.0000)">
<g transform="translate(7.2426, 32.5329)">
<text font-family="IPAexGothic" font-weight="bold" font-size="1.7462" text-anchor="start" fill="currentColor">
<tspan>0</tspan>
</text>
</g>
</g>
<g transform="translate(3.9614, 22.3926)">
<path transform="scale(0.0040, -0.0040)" d="M374 260c5 0 10 1 15 1c154 0 254 -127 254 -259c0 -76 -33 -153 -107 -208c-22 -17 -47 -29 -73 -37c3 -36 5 -72 5 -108c0 -19 0 -37 -1 -56c-7 -120 -88 -226 -206 -226c-108 0 -195 87 -195 195c0 58 53 104 112 104c54 0 95 -48 95 -104c0 -52 -43 -95 -95 -95
c-12 0 -24 4 -35 9c26 -41 70 -70 121 -70c1 0 2 1 3 1c93 2 154 93 160 192c1 18 2 35 2 53c0 32 -2 64 -5 96c-29 -5 -58 -8 -89 -8c-188 0 -333 171 -333 372c0 178 133 306 251 440c-18 63 -35 126 -42 191c-6 51 -7 102 -7 154c0 116 55 226 150 295c5 4 11 4 16 0
c70 -84 132 -246 132 -359c0 -144 -87 -256 -183 -365c20 -69 39 -138 55 -208zM459 -205c69 24 117 96 117 166c0 92 -69 184 -179 193c25 -117 48 -235 62 -359zM71 31c0 -136 131 -251 267 -251c28 0 55 2 82 6c-15 128 -38 247 -64 367c-79 -9 -125 -62 -125 -121
c0 -44 26 -92 82 -124c4 -4 7 -9 7 -14c0 -11 -9 -21 -20 -21c-3 0 -6 1 -9 2c-80 43 -116 114 -116 184c0 88 57 173 158 196c-14 60 -30 119 -46 178c-108 -121 -216 -242 -216 -402zM411 1050c-99 -50 -161 -151 -161 -262c0 -76 15 -137 33 -200c82 97 149 198 149 325
c0 58 -4 84 -21 137z" fill="currentColor"/>
</g>
<g transform="translate(7.1326, 24.3926)">
<path transform="scale(0.0040, -0.0040)" d="M222 135c53 0 104 -27 104 -86c0 -71 -56 -120 -103 -148c-36 -22 -76 -36 -118 -36c-53 0 -105 27 -105 86c0 71 57 120 104 148c36 22 76 36 118 36z" fill="currentColor"/>
</g>
<g transform="translate(3.1481, 25.6426)">
<rect x="0.0000" y="-6.2854" width="0.1133" height="12.5708" ry="0.0354" fill="currentColor"/>
</g>
<g transform="translate(1.8981, 19.1322)">
<path transform="scale(0.0040, -0.0040)" d="M0 -56v91c0 12 10 21 22 21h43c164 0 281 136 377 272c10 14 32 -1 22 -15c-103 -145 -222 -369 -399 -369h-65z" fill="currentColor"/>
</g>
<g transform="translate(1.8981, 32.1530)">
<path transform="scale(0.0040, -0.0040)" d="M0 56h65c177 0 296 -224 399 -369c10 -14 -12 -29 -22 -15c-96 136 -213 272 -377 272h-43c-12 0 -22 9 -22 21v91z" fill="currentColor"/>
</g>
<g transform="translate(1.8981, 25.6426)">
<rect x="0.0000" y="-6.3304" width="0.4500" height="12.6608" ry="0.0000" fill="currentColor"/>
</g>
<g transform="translate(10.8488, 28.1072)">
<text font-family="IPAexGothic" font-size="0.9799" text-anchor="start" fill="currentColor">
<tspan>Ⅰ</tspan>
</text>
</g>
<g transform="translate(9.3988, 23.8926)">
<path transform="scale(0.0040, -0.0040)" d="M215 -316c0 -9 -8 -17 -17 -17s-17 8 -17 17v151l-87 -31v-162c0 -9 -8 -17 -17 -17s-17 8 -17 17v150l-39 -13c-10 -4 -21 4 -21 15v64c0 7 5 13 11 15l49 18v164l-39 -14c-10 -4 -21 4 -21 15v65c0 7 5 13 11 15l49 17v163c0 9 8 17 17 17s17 -8 17 -17v-151l87 31v162
c0 9 8 17 17 17s17 -8 17 -17v-150l39 13c10 4 21 -4 21 -15v-64c0 -7 -5 -13 -11 -15l-49 -18v-164l39 14c10 4 21 -4 21 -15v-65c0 -7 -5 -13 -11 -15l-49 -17v-163zM94 67v-164l87 30v164z" fill="currentColor"/>
</g>
<g transform="translate(12.1086, 21.3926)">
<rect x="-0.0460" y="-1.0000" width="0.0920" height="3.3033" ry="0.0222" fill="currentColor"/>
</g>
<g color="rgb(100.0000%, 100.0000%, 100.0000%)">
<g transform="translate(10.8488, 31.8926)">
<rect x="0.1100" y="-0.6489" width="1.1002" height="1.2977" ry="0.0000" fill="currentColor"/>
</g>
</g>
<g transform="scale(1.0000, 1.0000)">
<g transform="translate(10.9588, 32.5329)">
<text font-family="IPAexGothic" font-weight="bold" font-size="1.7462" text-anchor="start" fill="currentColor">
<tspan>3</tspan>
</text>
</g>
</g>
<g transform="translate(34.5240, 21.3926)">
<rect x="-0.0460" y="-2.0000" width="0.0920" height="3.3033" ry="0.0222" fill="currentColor"/>
</g>
<g transform="translate(10.8488, 23.8926)">
<path transform="scale(0.0040, -0.0040)" d="M222 135c53 0 104 -27 104 -86c0 -71 -56 -120 -103 -148c-36 -22 -76 -36 -118 -36c-53 0 -105 27 -105 86c0 71 57 120 104 148c36 22 76 36 118 36z" fill="currentColor"/>
</g>
<g transform="translate(29.6452, 32.6426)">
<path stroke-width="0.1200" stroke-linejoin="miter" stroke-linecap="square" stroke="currentColor" fill="none" d="M-0.4120 -0.4220L0.2280 -0.4270L0.2680 -0.3860C0.1100 0.0460 -0.1310 0.2760 -0.4870 0.4570M0.4940 0.4340C0.3790 0.3130 0.2470 0.1870 0.0440 0.0360"/>
</g>
<g transform="translate(29.6487, 30.3926)">
<path stroke-width="0.1200" stroke-linejoin="round" stroke-linecap="square" stroke="currentColor" fill="none" d="M-0.5500 1.1760L0.5500 1.1760M-0.5500 0.8760L0.5500 0.8760"/>
</g>
<g transform="translate(30.2484, 21.3926)">
<rect x="-0.0460" y="-2.2648" width="0.0920" height="3.0681" ry="0.0222" fill="currentColor"/>
</g>
<g color="rgb(100.0000%, 100.0000%, 100.0000%)">
<g transform="translate(28.9886, 30.3926)">
<rect x="0.1100" y="-0.6489" width="1.1002" height="1.2977" ry="0.0000" fill="currentColor"/>
</g>
</g>
<g transform="scale(1.0000, 1.0000)">
<g transform="translate(29.0986, 31.0329)">
<text font-family="IPAexGothic" font-weight="bold" font-size="1.7462" text-anchor="start" fill="currentColor">
<tspan>0</tspan>
</text>
</g>
</g>
<g transform="translate(28.9886, 22.3926)">
<path transform="scale(0.0040, -0.0040)" d="M222 135c53 0 104 -27 104 -86c0 -71 -56 -120 -103 -148c-36 -22 -76 -36 -118 -36c-53 0 -105 27 -105 86c0 71 57 120 104 148c36 22 76 36 118 36z" fill="currentColor"/>
</g>
<g transform="translate(27.7580, 30.3926)">
<path stroke-width="0.1200" stroke-linejoin="round" stroke-linecap="square" stroke="currentColor" fill="none" d="M-0.5500 1.1760L0.5500 1.1760M-0.5500 0.8760L0.5500 0.8760"/>
</g>
<g transform="translate(31.5394, 30.3926)">
<path stroke-width="0.1200" stroke-linejoin="round" stroke-linecap="square" stroke="currentColor" fill="none" d="M-0.5500 1.1760L0.5500 1.1760M-0.5500 0.8760L0.5500 0.8760"/>
</g>
<g color="rgb(100.0000%, 100.0000%, 100.0000%)">
<g transform="translate(33.2642, 31.8926)">
<rect x="0.1100" y="-0.6382" width="1.1002" height="1.2764" ry="0.0000" fill="currentColor"/>
</g>
</g>
<g transform="scale(1.0000, 1.0000)">
<g transform="translate(33.3743, 32.5308)">
<text font-family="IPAexGothic" font-weight="bold" font-size="1.7462" text-anchor="start" fill="currentColor">
<tspan>4</tspan>
</text>
</g>
</g>
<g transform="translate(33.2642, 28.1072)">
<text font-family="IPAexGothic" font-size="0.9799" text-anchor="start" fill="currentColor">
<tspan>Ⅲ</tspan>
</text>
</g>
<g transform="translate(33.2642, 22.8926)">
<path transform="scale(0.0040, -0.0040)" d="M222 135c53 0 104 -27 104 -86c0 -71 -56 -120 -103 -148c-36 -22 -76 -36 -118 -36c-53 0 -105 27 -105 86c0 71 57 120 104 148c36 22 76 36 118 36z" fill="currentColor"/>
</g>
<g transform="translate(32.1391, 21.3926)">
<rect x="-0.0460" y="-2.0063" width="0.0920" height="2.8096" ry="0.0222" fill="currentColor"/>
</g>
<g color="rgb(100.0000%, 100.0000%, 100.0000%)">
<g transform="translate(30.8793, 30.3926)">
<rect x="0.1100" y="-0.6489" width="1.1002" height="1.2977" ry="0.0000" fill="currentColor"/>
</g>
</g>
<g transform="scale(1.0000, 1.0000)">
<g transform="translate(30.9893, 31.0329)">
<text font-family="IPAexGothic" font-weight="bold" font-size="1.7462" text-anchor="start" fill="currentColor">
<tspan>0</tspan>
</text>
</g>
</g>
<g transform="translate(31.5434, 32.6426)">
<path stroke-width="0.1200" stroke-linejoin="miter" stroke-linecap="square" stroke="currentColor" fill="none" d="M-0.2120 -0.3340C-0.2890 -0.0530 -0.4090 0.1570 -0.5530 0.3380M0.1550 -0.3520C0.3280 -0.1060 0.4580 0.1140 0.5450 0.3070"/>
</g>
<g transform="translate(30.8793, 28.1072)">
<text font-family="IPAexGothic" font-size="0.9799" text-anchor="start" fill="currentColor">
<tspan>Ⅰ</tspan>
</text>
</g>
<g transform="translate(30.8793, 22.3926)">
<path transform="scale(0.0040, -0.0040)" d="M222 135c53 0 104 -27 104 -86c0 -71 -56 -120 -103 -148c-36 -22 -76 -36 -118 -36c-53 0 -105 27 -105 86c0 71 57 120 104 148c36 22 76 36 118 36z" fill="currentColor"/>
</g>
<g transform="translate(25.6479, 21.8926)">
<path transform="scale(0.0040, -0.0040)" d="M215 -316c0 -9 -8 -17 -17 -17s-17 8 -17 17v151l-87 -31v-162c0 -9 -8 -17 -17 -17s-17 8 -17 17v150l-39 -13c-10 -4 -21 4 -21 15v64c0 7 5 13 11 15l49 18v164l-39 -14c-10 -4 -21 4 -21 15v65c0 7 5 13 11 15l49 17v163c0 9 8 17 17 17s17 -8 17 -17v-151l87 31v162
c0 9 8 17 17 17s17 -8 17 -17v-150l39 13c10 4 21 -4 21 -15v-64c0 -7 -5 -13 -11 -15l-49 -18v-164l39 14c10 4 21 -4 21 -15v-65c0 -7 -5 -13 -11 -15l-49 -17v-163zM94 67v-164l87 30v164z" fill="currentColor"/>
</g>
<g transform="translate(24.3173, 30.3926)">
<path stroke-width="0.1200" stroke-linejoin="round" stroke-linecap="square" stroke="currentColor" fill="none" d="M-0.5500 1.1616L0.5500 1.1616M-0.5500 0.8616L0.5500 0.8616"/>
</g>
<g transform="translate(24.9170, 21.3926)">
<rect x="-0.0460" y="-2.9937" width="0.0920" height="2.2970" ry="0.0222" fill="currentColor"/>
</g>
<g transform="translate(27.0979, 21.8926)">
<path transform="scale(0.0040, -0.0040)" d="M222 135c53 0 104 -27 104 -86c0 -71 -56 -120 -103 -148c-36 -22 -76 -36 -118 -36c-53 0 -105 27 -105 86c0 71 57 120 104 148c36 22 76 36 118 36z" fill="currentColor"/>
</g>
<g transform="translate(28.3577, 21.3926)">
<rect x="-0.0460" y="-2.5233" width="0.0920" height="2.8266" ry="0.0222" fill="currentColor"/>
</g>
<g color="rgb(100.0000%, 100.0000%, 100.0000%)">
<g transform="translate(27.0979, 30.3926)">
<rect x="0.1100" y="-0.6489" width="1.1002" height="1.2977" ry="0.0000" fill="currentColor"/>
</g>
</g>
<g transform="scale(1.0000, 1.0000)">
<g transform="translate(27.2079, 31.0329)">
<text font-family="IPAexGothic" font-weight="bold" font-size="1.7462" text-anchor="start" fill="currentColor">
<tspan>3</tspan>
</text>
</g>
</g>
<g transform="translate(27.7620, 32.6426)">
<path stroke-width="0.1200" stroke-linejoin="miter" stroke-linecap="square" stroke="currentColor" fill="none" d="M-0.2120 -0.3340C-0.2890 -0.0530 -0.4090 0.1570 -0.5530 0.3380M0.1550 -0.3520C0.3280 -0.1060 0.4580 0.1140 0.5450 0.3070"/>
</g>
<g transform="translate(27.0979, 28.1072)">
<text font-family="IPAexGothic" font-size="0.9799" text-anchor="start" fill="currentColor">
<tspan>Ⅲ</tspan>
</text>
</g>
<g transform="translate(54.7485, 42.3926)">
<rect x="0.0000" y="-2.0000" width="0.1345" height="4.0354" ry="0.0000" fill="currentColor"/>
</g>
<g transform="translate(14.2438, 38.6126)">
<rect x="0.0000" y="5.8154" width="0.1345" height="5.4646" ry="0.0000" fill="currentColor"/>
</g>
<g transform="translate(38.9582, 42.3926)">
<rect x="0.0000" y="-2.0000" width="0.1345" height="4.0354" ry="0.0000" fill="currentColor"/>
</g>
<g transform="translate(14.2438, 51.3926)">
<rect x="0.0000" y="-1.5354" width="0.1345" height="3.0354" ry="0.0000" fill="currentColor"/>
</g>
<g transform="translate(23.1678, 42.3926)">
<rect x="0.0000" y="-2.0000" width="0.1345" height="4.0354" ry="0.0000" fill="currentColor"/>
</g>
<g transform="translate(63.0938, 38.6126)">
<rect x="0.0000" y="5.8154" width="0.1345" height="5.4646" ry="0.0000" fill="currentColor"/>
</g>
<g transform="translate(31.0398, 42.3926)">
<rect x="0.0000" y="-2.0000" width="0.1345" height="4.0354" ry="0.0000" fill="currentColor"/>
</g>
<g transform="translate(63.0938, 51.3926)">
<rect x="0.0000" y="-1.5354" width="0.1345" height="3.0354" ry="0.0000" fill="currentColor"/>
</g>
<g transform="translate(46.8301, 42.3926)">
<rect x="0.0000" y="-2.0000" width="0.1345" height="4.0354" ry="0.0000" fill="currentColor"/>
</g>
<g transform="translate(3.1614, 44.3926)">
<line stroke-linejoin="round" stroke-linecap="round" stroke-width="0.0708" stroke="currentColor" x1="0.0354" y1="0" x2="60.0315" y2="0"/>
</g>
<g transform="translate(3.1614, 43.3926)">
<line stroke-linejoin="round" stroke-linecap="round" stroke-width="0.0708" stroke="currentColor" x1="0.0354" y1="0" x2="60.0315" y2="0"/>
</g>
<g transform="translate(3.1614, 42.3926)">
<line stroke-linejoin="round" stroke-linecap="round" stroke-width="0.0708" stroke="currentColor" x1="0.0354" y1="0" x2="60.0315" y2="0"/>
</g>
<g transform="translate(3.1614, 41.3926)">
<line stroke-linejoin="round" stroke-linecap="round" stroke-width="0.0708" stroke="currentColor" x1="0.0354" y1="0" x2="60.0315" y2="0"/>
</g>
<g transform="translate(3.1614, 40.3926)">
<line stroke-linejoin="round" stroke-linecap="round" stroke-width="0.0708" stroke="currentColor" x1="0.0354" y1="0" x2="60.0315" y2="0"/>
</g>
<g transform="translate(63.0938, 42.3926)">
<rect x="0.0000" y="-2.0000" width="0.1345" height="4.0354" ry="0.0000" fill="currentColor"/>
</g>
<g transform="translate(38.9582, 51.3926)">
<rect x="0.0000" y="-1.5354" width="0.1345" height="3.0354" ry="0.0000" fill="currentColor"/>
</g>
<g transform="translate(38.9582, 38.6126)">
<rect x="0.0000" y="5.8154" width="0.1345" height="5.4646" ry="0.0000" fill="currentColor"/>
</g>
<g transform="translate(14.2438, 42.3926)">
<rect x="0.0000" y="-2.0000" width="0.1345" height="4.0354" ry="0.0000" fill="currentColor"/>
</g>
<g transform="translate(23.1678, 51.3926)">
<rect x="0.0000" y="-1.5354" width="0.1345" height="3.0354" ry="0.0000" fill="currentColor"/>
</g>
<g transform="translate(23.1678, 38.6126)">
<rect x="0.0000" y="5.8154" width="0.1345" height="5.4646" ry="0.0000" fill="currentColor"/>
</g>
<g transform="translate(54.7485, 51.3926)">
<rect x="0.0000" y="-1.5354" width="0.1345" height="3.0354" ry="0.0000" fill="currentColor"/>
</g>
<g transform="translate(54.7485, 38.6126)">
<rect x="0.0000" y="5.8154" width="0.1345" height="5.4646" ry="0.0000" fill="currentColor"/>
</g>
<g transform="translate(31.0398, 51.3926)">
<rect x="0.0000" y="-1.5354" width="0.1345" height="3.0354" ry="0.0000" fill="currentColor"/>
</g>
<g transform="translate(46.8301, 38.6126)">
<rect x="0.0000" y="5.8154" width="0.1345" height="5.4646" ry="0.0000" fill="currentColor"/>
</g>
<g transform="translate(31.0398, 38.6126)">
<rect x="0.0000" y="5.8154" width="0.1345" height="5.4646" ry="0.0000" fill="currentColor"/>
</g>
<g transform="translate(46.8301, 51.3926)">
<rect x="0.0000" y="-1.5354" width="0.1345" height="3.0354" ry="0.0000" fill="currentColor"/>
</g>
<g transform="translate(3.1614, 52.8926)">
<line stroke-linejoin="round" stroke-linecap="round" stroke-width="0.0708" stroke="currentColor" x1="0.0354" y1="0" x2="60.0315" y2="0"/>
</g>
<g transform="translate(3.1614, 51.3926)">
<line stroke-linejoin="round" stroke-linecap="round" stroke-width="0.0708" stroke="currentColor" x1="0.0354" y1="0" x2="60.0315" y2="0"/>
</g>
<g transform="translate(3.1614, 49.8926)">
<line stroke-linejoin="round" stroke-linecap="round" stroke-width="0.0708" stroke="currentColor" x1="0.0354" y1="0" x2="60.0315" y2="0"/>
</g>
<g transform="translate(48.1384, 42.3926)">
<rect x="-0.0460" y="-0.8033" width="0.0920" height="3.3033" ry="0.0222" fill="currentColor"/>
</g>
<g color="rgb(100.0000%, 100.0000%, 100.0000%)">
<g transform="translate(48.0923, 52.8926)">
<rect x="-0.3301" y="-0.6454" width="1.6503" height="1.2909" ry="0.0000" fill="currentColor"/>
</g>
</g>
<g transform="scale(0.7500, 1.0000)">
<g transform="translate(63.6831, 53.5381)">
<text font-family="IPAexGothic" font-weight="bold" font-size="1.7462" text-anchor="start" fill="currentColor">
<tspan>12</tspan>
</text>
</g>
</g>
<g color="rgb(100.0000%, 100.0000%, 100.0000%)">
<g transform="translate(35.6719, 52.8926)">
<rect x="-0.3301" y="-0.6497" width="1.6503" height="1.2994" ry="0.0000" fill="currentColor"/>
</g>
</g>
<g transform="scale(0.7500, 1.0000)">
<g transform="translate(47.1224, 53.5338)">
<text font-family="IPAexGothic" font-weight="bold" font-size="1.7462" text-anchor="start" fill="currentColor">
<tspan>10</tspan>
</text>
</g>
</g>
<g transform="translate(48.0923, 41.3926)">
<path transform="scale(0.0040, -0.0040)" d="M222 135c53 0 104 -27 104 -86c0 -71 -56 -120 -103 -148c-36 -22 -76 -36 -118 -36c-53 0 -105 27 -105 86c0 71 57 120 104 148c36 22 76 36 118 36z" fill="currentColor"/>
</g>
<g transform="translate(40.2378, 42.3926)">
<rect x="-0.0460" y="-0.3033" width="0.0920" height="3.3033" ry="0.0222" fill="currentColor"/>
</g>
<g color="rgb(100.0000%, 100.0000%, 100.0000%)">
<g transform="translate(40.1918, 52.8926)">
<rect x="-0.3301" y="-0.6497" width="1.6503" height="1.2994" ry="0.0000" fill="currentColor"/>
</g>
</g>
<g transform="scale(0.7500, 1.0000)">
<g transform="translate(53.1490, 53.5338)">
<text font-family="IPAexGothic" font-weight="bold" font-size="1.7462" text-anchor="start" fill="currentColor">
<tspan>10</tspan>
</text>
</g>
</g>
<g transform="translate(40.1918, 41.8926)">
<path transform="scale(0.0040, -0.0040)" d="M222 135c53 0 104 -27 104 -86c0 -71 -56 -120 -103 -148c-36 -22 -76 -36 -118 -36c-53 0 -105 27 -105 86c0 71 57 120 104 148c36 22 76 36 118 36z" fill="currentColor"/>
</g>
<g transform="translate(35.7179, 42.3926)">
<rect x="-0.0460" y="-0.3033" width="0.0920" height="3.3033" ry="0.0222" fill="currentColor"/>
</g>
<g transform="translate(7.1321, 42.3926)">
<path stroke-width="0.0566" stroke-linejoin="round" stroke-linecap="round" stroke="currentColor" fill="currentColor" d="M0.7279 2.1889C1.7940 2.8693 3.6709 2.5409 4.4425 1.5389L4.4425 1.5389C3.6563 2.4572 1.7793 2.7856 0.7279 2.1889z"/>
</g>
<g transform="translate(43.6077, 42.3926)">
<rect x="-0.0460" y="-0.8033" width="0.0920" height="3.3033" ry="0.0222" fill="currentColor"/>
</g>
<g color="rgb(100.0000%, 100.0000%, 100.0000%)">
<g transform="translate(43.5617, 52.8926)">
<rect x="-0.3301" y="-0.6454" width="1.6503" height="1.2909" ry="0.0000" fill="currentColor"/>
</g>
</g>
<g transform="scale(0.7500, 1.0000)">
<g transform="translate(57.6421, 53.5381)">
<text font-family="IPAexGothic" font-weight="bold" font-size="1.7462" text-anchor="start" fill="currentColor">
<tspan>12</tspan>
</text>
</g>
</g>
<g transform="translate(43.5617, 41.3926)">
<path transform="scale(0.0040, -0.0040)" d="M222 135c53 0 104 -27 104 -86c0 -71 -56 -120 -103 -148c-36 -22 -76 -36 -118 -36c-53 0 -105 27 -105 86c0 71 57 120 104 148c36 22 76 36 118 36z" fill="currentColor"/>
</g>
<g transform="translate(58.2467, 42.8926)">
<path transform="scale(0.0040, -0.0040)" d="M215 -316c0 -9 -8 -17 -17 -17s-17 8 -17 17v151l-87 -31v-162c0 -9 -8 -17 -17 -17s-17 8 -17 17v150l-39 -13c-10 -4 -21 4 -21 15v64c0 7 5 13 11 15l49 18v164l-39 -14c-10 -4 -21 4 -21 15v65c0 7 5 13 11 15l49 17v163c0 9 8 17 17 17s17 -8 17 -17v-151l87 31v162
c0 9 8 17 17 17s17 -8 17 -17v-150l39 13c10 4 21 -4 21 -15v-64c0 -7 -5 -13 -11 -15l-49 -18v-164l39 14c10 4 21 -4 21 -15v-65c0 -7 -5 -13 -11 -15l-49 -17v-163zM94 67v-164l87 30v164z" fill="currentColor"/>
</g>
<g transform="translate(60.9565, 42.3926)">
<rect x="-0.0460" y="-3.0000" width="0.0920" height="3.3033" ry="0.0222" fill="currentColor"/>
</g>
<g transform="translate(40.1918, 51.3926)">
<path stroke-width="0.0566" stroke-linejoin="round" stroke-linecap="round" stroke="currentColor" fill="currentColor" d="M0.4958 2.8997C1.4171 3.7344 2.9464 3.7325 3.8656 2.8954L3.8656 2.8954C2.9463 3.6476 1.4170 3.6495 0.4958 2.8997z"/>
</g>
<g transform="translate(7.1321, 51.3926)">
<path stroke-width="0.0566" stroke-linejoin="round" stroke-linecap="round" stroke="currentColor" fill="currentColor" d="M0.6601 2.8989C1.6589 3.8057 3.3759 3.8057 4.3747 2.8989L4.3747 2.8989C3.3759 3.7207 1.6589 3.7207 0.6601 2.8989z"/>
</g>
<g transform="translate(16.5234, 42.3926)">
<path stroke-width="0.0566" stroke-linejoin="round" stroke-linecap="round" stroke="currentColor" fill="currentColor" d="M0.8200 1.5389C1.6731 1.8298 2.7057 1.3685 3.0582 0.5389L3.0582 0.5389C2.6710 1.2909 1.6385 1.7523 0.8200 1.5389z"/>
</g>
<g transform="translate(16.5234, 51.3926)">
<path stroke-width="0.0566" stroke-linejoin="round" stroke-linecap="round" stroke="currentColor" fill="currentColor" d="M0.6600 2.8989C1.5389 3.6977 2.9738 3.6981 3.8531 2.8997L3.8531 2.8997C2.9738 3.6131 1.5389 3.6127 0.6600 2.8989z"/>
</g>
<g transform="translate(24.4015, 42.3926)">
<path stroke-width="0.0566" stroke-linejoin="round" stroke-linecap="round" stroke="currentColor" fill="currentColor" d="M0.3920 0.5257C1.1873 1.0438 2.4465 0.8792 3.0698 0.1757L3.0698 0.1757C2.4355 0.7950 1.1763 0.9595 0.3920 0.5257z"/>
</g>
<g transform="translate(24.4015, 51.3926)">
<path stroke-width="0.0566" stroke-linejoin="round" stroke-linecap="round" stroke="currentColor" fill="currentColor" d="M0.4958 2.8997C1.4171 3.7344 2.9464 3.7325 3.8656 2.8954L3.8656 2.8954C2.9463 3.6476 1.4170 3.6495 0.4958 2.8997z"/>
</g>
<g transform="translate(32.3020, 42.3926)">
<path stroke-width="0.0566" stroke-linejoin="round" stroke-linecap="round" stroke="currentColor" fill="currentColor" d="M0.3920 0.1757C1.0154 0.8792 2.2746 1.0438 3.0698 0.5257L3.0698 0.5257C2.2856 0.9595 1.0264 0.7950 0.3920 0.1757z"/>
</g>
<g transform="translate(32.3020, 51.3926)">
<path stroke-width="0.0566" stroke-linejoin="round" stroke-linecap="round" stroke="currentColor" fill="currentColor" d="M0.4944 2.8954C1.4136 3.7325 2.9429 3.7344 3.8642 2.8997L3.8642 2.8997C2.9430 3.6495 1.4137 3.6476 0.4944 2.8954z"/>
</g>
<g transform="translate(40.1918, 42.3926)">
<path stroke-width="0.0566" stroke-linejoin="round" stroke-linecap="round" stroke="currentColor" fill="currentColor" d="M0.3920 0.5257C1.1873 1.0438 2.4465 0.8792 3.0698 0.1757L3.0698 0.1757C2.4355 0.7950 1.1763 0.9595 0.3920 0.5257z"/>
</g>
<g color="rgb(100.0000%, 100.0000%, 100.0000%)">
<g transform="translate(59.6967, 52.8926)">
<rect x="0.1100" y="-0.6489" width="1.1002" height="1.2977" ry="0.0000" fill="currentColor"/>
</g>
</g>
<g transform="scale(1.0000, 1.0000)">
<g transform="translate(59.8068, 53.5329)">
<text font-family="IPAexGothic" font-weight="bold" font-size="1.7462" text-anchor="start" fill="currentColor">
<tspan>9</tspan>
</text>
</g>
</g>
<g transform="translate(48.0923, 42.3926)">
<path stroke-width="0.0566" stroke-linejoin="round" stroke-linecap="round" stroke="currentColor" fill="currentColor" d="M0.3920 0.1757C1.0154 0.8792 2.2746 1.0438 3.0698 0.5257L3.0698 0.5257C2.2856 0.9595 1.0264 0.7950 0.3920 0.1757z"/>
</g>
<g transform="translate(48.0923, 51.3926)">
<path stroke-width="0.0566" stroke-linejoin="round" stroke-linecap="round" stroke="currentColor" fill="currentColor" d="M0.4944 2.8954C1.4136 3.7325 2.9429 3.7344 3.8642 2.8997L3.8642 2.8997C2.9430 3.6495 1.4137 3.6476 0.4944 2.8954z"/>
</g>
<g transform="translate(55.9821, 42.3926)">
<path stroke-width="0.0566" stroke-linejoin="round" stroke-linecap="round" stroke="currentColor" fill="currentColor" d="M0.3920 1.5716C1.3631 2.5888 3.3964 2.5888 4.3675 1.5716L4.3675 1.5716C3.3964 2.5039 1.3631 2.5039 0.3920 1.5716z"/>
</g>
<g transform="translate(55.9821, 51.3926)">
<path stroke-width="0.0566" stroke-linejoin="round" stroke-linecap="round" stroke="currentColor" fill="currentColor" d="M0.4952 2.8997C1.5309 3.8394 3.3395 3.8390 4.3748 2.8989L4.3748 2.8989C3.3395 3.7540 1.5309 3.7544 0.4952 2.8997z"/>
</g>
<g transform="translate(56.0282, 42.3926)">
<rect x="-0.0460" y="-0.3033" width="0.0920" height="3.3033" ry="0.0222" fill="currentColor"/>
</g>
<g color="rgb(100.0000%, 100.0000%, 100.0000%)">
<g transform="translate(55.9821, 52.8926)">
<rect x="-0.3301" y="-0.6497" width="1.6503" height="1.2994" ry="0.0000" fill="currentColor"/>
</g>
</g>
<g transform="scale(0.7500, 1.0000)">
<g transform="translate(74.2028, 53.5338)">
<text font-family="IPAexGothic" font-weight="bold" font-size="1.7462" text-anchor="start" fill="currentColor">
<tspan>10</tspan>
</text>
</g>
</g>
<g transform="translate(55.9821, 41.8926)">
<path transform="scale(0.0040, -0.0040)" d="M222 135c53 0 104 -27 104 -86c0 -71 -56 -120 -103 -148c-36 -22 -76 -36 -118 -36c-53 0 -105 27 -105 86c0 71 57 120 104 148c36 22 76 36 118 36z" fill="currentColor"/>
</g>
<g transform="translate(51.5082, 42.3926)">
<rect x="-0.0460" y="-0.3033" width="0.0920" height="3.3033" ry="0.0222" fill="currentColor"/>
</g>
<g color="rgb(100.0000%, 100.0000%, 100.0000%)">
<g transform="translate(51.4622, 52.8926)">
<rect x="-0.3301" y="-0.6497" width="1.6503" height="1.2994" ry="0.0000" fill="currentColor"/>
</g>
</g>
<g transform="scale(0.7500, 1.0000)">
<g transform="translate(68.1762, 53.5338)">
<text font-family="IPAexGothic" font-weight="bold" font-size="1.7462" text-anchor="start" fill="currentColor">
<tspan>10</tspan>
</text>
</g>
</g>
<g transform="translate(51.4622, 41.8926)">
<path transform="scale(0.0040, -0.0040)" d="M222 135c53 0 104 -27 104 -86c0 -71 -56 -120 -103 -148c-36 -22 -76 -36 -118 -36c-53 0 -105 27 -105 86c0 71 57 120 104 148c36 22 76 36 118 36z" fill="currentColor"/>
</g>
<g transform="translate(59.6967, 42.8926)">
<path transform="scale(0.0040, -0.0040)" d="M222 135c53 0 104 -27 104 -86c0 -71 -56 -120 -103 -148c-36 -22 -76 -36 -118 -36c-53 0 -105 27 -105 86c0 71 57 120 104 148c36 22 76 36 118 36z" fill="currentColor"/>
</g>
<g transform="translate(17.7832, 42.3926)">
<rect x="-0.0460" y="-3.0000" width="0.0920" height="3.3033" ry="0.0222" fill="currentColor"/>
</g>
<g color="rgb(100.0000%, 100.0000%, 100.0000%)">
<g transform="translate(16.5234, 52.8926)">
<rect x="0.1100" y="-0.6489" width="1.1002" height="1.2977" ry="0.0000" fill="currentColor"/>
</g>
</g>
<g transform="scale(1.0000, 1.0000)">
<g transform="translate(16.6334, 53.5329)">
<text font-family="IPAexGothic" font-weight="bold" font-size="1.7462" text-anchor="start" fill="currentColor">
<tspan>9</tspan>
</text>
</g>
</g>
<g transform="translate(16.5234, 42.8926)">
<path transform="scale(0.0040, -0.0040)" d="M222 135c53 0 104 -27 104 -86c0 -71 -56 -120 -103 -148c-36 -22 -76 -36 -118 -36c-53 0 -105 27 -105 86c0 71 57 120 104 148c36 22 76 36 118 36z" fill="currentColor"/>
</g>
<g transform="translate(9.3967, 42.8926)">
<path transform="scale(0.0040, -0.0040)" d="M215 -316c0 -9 -8 -17 -17 -17s-17 8 -17 17v151l-87 -31v-162c0 -9 -8 -17 -17 -17s-17 8 -17 17v150l-39 -13c-10 -4 -21 4 -21 15v64c0 7 5 13 11 15l49 18v164l-39 -14c-10 -4 -21 4 -21 15v65c0 7 5 13 11 15l49 17v163c0 9 8 17 17 17s17 -8 17 -17v-151l87 31v162
c0 9 8 17 17 17s17 -8 17 -17v-150l39 13c10 4 21 -4 21 -15v-64c0 -7 -5 -13 -11 -15l-49 -18v-164l39 14c10 4 21 -4 21 -15v-65c0 -7 -5 -13 -11 -15l-49 -17v-163zM94 67v-164l87 30v164z" fill="currentColor"/>
</g>
<g transform="translate(19.9275, 42.3926)">
<rect x="-0.0460" y="-0.3033" width="0.0920" height="3.3033" ry="0.0222" fill="currentColor"/>
</g>
<g color="rgb(100.0000%, 100.0000%, 100.0000%)">
<g transform="translate(19.8815, 52.8926)">
<rect x="-0.3301" y="-0.6497" width="1.6503" height="1.2994" ry="0.0000" fill="currentColor"/>
</g>
</g>
<g transform="scale(0.7500, 1.0000)">
<g transform="translate(26.0686, 53.5338)">
<text font-family="IPAexGothic" font-weight="bold" font-size="1.7462" text-anchor="start" fill="currentColor">
<tspan>10</tspan>
</text>
</g>
</g>
<g transform="translate(19.8815, 41.8926)">
<path transform="scale(0.0040, -0.0040)" d="M222 135c53 0 104 -27 104 -86c0 -71 -56 -120 -103 -148c-36 -22 -76 -36 -118 -36c-53 0 -105 27 -105 86c0 71 57 120 104 148c36 22 76 36 118 36z" fill="currentColor"/>
</g>
<g transform="translate(35.6719, 41.8926)">
<path transform="scale(0.0040, -0.0040)" d="M222 135c53 0 104 -27 104 -86c0 -71 -56 -120 -103 -148c-36 -22 -76 -36 -118 -36c-53 0 -105 27 -105 86c0 71 57 120 104 148c36 22 76 36 118 36z" fill="currentColor"/>
</g>
<g transform="translate(12.1065, 42.3926)">
<rect x="-0.0460" y="-3.0000" width="0.0920" height="3.3033" ry="0.0222" fill="currentColor"/>
</g>
<g transform="translate(15.0734, 42.8926)">
<path transform="scale(0.0040, -0.0040)" d="M215 -316c0 -9 -8 -17 -17 -17s-17 8 -17 17v151l-87 -31v-162c0 -9 -8 -17 -17 -17s-17 8 -17 17v150l-39 -13c-10 -4 -21 4 -21 15v64c0 7 5 13 11 15l49 18v164l-39 -14c-10 -4 -21 4 -21 15v65c0 7 5 13 11 15l49 17v163c0 9 8 17 17 17s17 -8 17 -17v-151l87 31v162
c0 9 8 17 17 17s17 -8 17 -17v-150l39 13c10 4 21 -4 21 -15v-64c0 -7 -5 -13 -11 -15l-49 -18v-164l39 14c10 4 21 -4 21 -15v-65c0 -7 -5 -13 -11 -15l-49 -17v-163zM94 67v-164l87 30v164z" fill="currentColor"/>
</g>
<g transform="translate(4.5511, 46.9261)">
<text font-family="IPAexGothic" font-style="italic" font-size="1.3859" text-anchor="start" fill="currentColor">
<tspan>8</tspan>
</text>
</g>
<g transform="translate(3.9614, 43.3926)">
<path transform="scale(0.0040, -0.0040)" d="M374 260c5 0 10 1 15 1c154 0 254 -127 254 -259c0 -76 -33 -153 -107 -208c-22 -17 -47 -29 -73 -37c3 -36 5 -72 5 -108c0 -19 0 -37 -1 -56c-7 -120 -88 -226 -206 -226c-108 0 -195 87 -195 195c0 58 53 104 112 104c54 0 95 -48 95 -104c0 -52 -43 -95 -95 -95
c-12 0 -24 4 -35 9c26 -41 70 -70 121 -70c1 0 2 1 3 1c93 2 154 93 160 192c1 18 2 35 2 53c0 32 -2 64 -5 96c-29 -5 -58 -8 -89 -8c-188 0 -333 171 -333 372c0 178 133 306 251 440c-18 63 -35 126 -42 191c-6 51 -7 102 -7 154c0 116 55 226 150 295c5 4 11 4 16 0
c70 -84 132 -246 132 -359c0 -144 -87 -256 -183 -365c20 -69 39 -138 55 -208zM459 -205c69 24 117 96 117 166c0 92 -69 184 -179 193c25 -117 48 -235 62 -359zM71 31c0 -136 131 -251 267 -251c28 0 55 2 82 6c-15 128 -38 247 -64 367c-79 -9 -125 -62 -125 -121
c0 -44 26 -92 82 -124c4 -4 7 -9 7 -14c0 -11 -9 -21 -20 -21c-3 0 -6 1 -9 2c-80 43 -116 114 -116 184c0 88 57 173 158 196c-14 60 -30 119 -46 178c-108 -121 -216 -242 -216 -402zM411 1050c-99 -50 -161 -151 -161 -262c0 -76 15 -137 33 -200c82 97 149 198 149 325
c0 58 -4 84 -21 137z" fill="currentColor"/>
</g>
<g transform="translate(3.1481, 46.6426)">
<rect x="0.0000" y="-6.2854" width="0.1133" height="12.5708" ry="0.0354" fill="currentColor"/>
</g>
<g transform="translate(1.8981, 40.1322)">
<path transform="scale(0.0040, -0.0040)" d="M0 -56v91c0 12 10 21 22 21h43c164 0 281 136 377 272c10 14 32 -1 22 -15c-103 -145 -222 -369 -399 -369h-65z" fill="currentColor"/>
</g>
<g transform="translate(1.8981, 53.1530)">
<path transform="scale(0.0040, -0.0040)" d="M0 56h65c177 0 296 -224 399 -369c10 -14 -12 -29 -22 -15c-96 136 -213 272 -377 272h-43c-12 0 -22 9 -22 21v91z" fill="currentColor"/>
</g>
<g transform="translate(1.8981, 46.6426)">
<rect x="0.0000" y="-6.3304" width="0.4500" height="12.6608" ry="0.0000" fill="currentColor"/>
</g>
<g color="rgb(100.0000%, 100.0000%, 100.0000%)">
<g transform="translate(10.8467, 52.8926)">
<rect x="0.1100" y="-0.6489" width="1.1002" height="1.2977" ry="0.0000" fill="currentColor"/>
</g>
</g>
<g transform="scale(1.0000, 1.0000)">
<g transform="translate(10.9567, 53.5329)">
<text font-family="IPAexGothic" font-weight="bold" font-size="1.7462" text-anchor="start" fill="currentColor">
<tspan>9</tspan>
</text>
</g>
</g>
<g transform="translate(10.8467, 42.8926)">
<path transform="scale(0.0040, -0.0040)" d="M222 135c53 0 104 -27 104 -86c0 -71 -56 -120 -103 -148c-36 -22 -76 -36 -118 -36c-53 0 -105 27 -105 86c0 71 57 120 104 148c36 22 76 36 118 36z" fill="currentColor"/>
</g>
<g transform="translate(8.3919, 42.3926)">
<rect x="-0.0460" y="-2.5000" width="0.0920" height="3.3033" ry="0.0222" fill="currentColor"/>
</g>
<g color="rgb(100.0000%, 100.0000%, 100.0000%)">
<g transform="translate(7.1321, 52.8926)">
<rect x="0.1100" y="-0.6489" width="1.1002" height="1.2977" ry="0.0000" fill="currentColor"/>
</g>
</g>
<g transform="scale(1.0000, 1.0000)">
<g transform="translate(7.2421, 53.5329)">
<text font-family="IPAexGothic" font-weight="bold" font-size="1.7462" text-anchor="start" fill="currentColor">
<tspan>6</tspan>
</text>
</g>
</g>
<g transform="translate(7.1321, 56.1445)">
<text font-family="IPAexGothic" font-size="0.9799" text-anchor="start" fill="currentColor">
<tspan>スリ</tspan>
</text>
</g>
<g transform="translate(7.1321, 43.3926)">
<path transform="scale(0.0040, -0.0040)" d="M222 135c53 0 104 -27 104 -86c0 -71 -56 -120 -103 -148c-36 -22 -76 -36 -118 -36c-53 0 -105 27 -105 86c0 71 57 120 104 148c36 22 76 36 118 36z" fill="currentColor"/>
</g>
<g transform="translate(32.3480, 42.3926)">
<rect x="-0.0460" y="-0.8033" width="0.0920" height="3.3033" ry="0.0222" fill="currentColor"/>
</g>
<g color="rgb(100.0000%, 100.0000%, 100.0000%)">
<g transform="translate(32.3020, 52.8926)">
<rect x="-0.3301" y="-0.6454" width="1.6503" height="1.2909" ry="0.0000" fill="currentColor"/>
</g>
</g>
<g transform="scale(0.7500, 1.0000)">
<g transform="translate(42.6293, 53.5381)">
<text font-family="IPAexGothic" font-weight="bold" font-size="1.7462" text-anchor="start" fill="currentColor">
<tspan>12</tspan>
</text>
</g>
</g>
<g transform="translate(32.3020, 41.3926)">
<path transform="scale(0.0040, -0.0040)" d="M222 135c53 0 104 -27 104 -86c0 -71 -56 -120 -103 -148c-36 -22 -76 -36 -118 -36c-53 0 -105 27 -105 86c0 71 57 120 104 148c36 22 76 36 118 36z" fill="currentColor"/>
</g>
<g transform="translate(27.8173, 42.3926)">
<rect x="-0.0460" y="-0.8033" width="0.0920" height="3.3033" ry="0.0222" fill="currentColor"/>
</g>
<g color="rgb(100.0000%, 100.0000%, 100.0000%)">
<g transform="translate(27.7713, 52.8926)">
<rect x="-0.3301" y="-0.6454" width="1.6503" height="1.2909" ry="0.0000" fill="currentColor"/>
</g>
</g>
<g transform="scale(0.7500, 1.0000)">
<g transform="translate(36.5884, 53.5381)">
<text font-family="IPAexGothic" font-weight="bold" font-size="1.7462" text-anchor="start" fill="currentColor">
<tspan>12</tspan>
</text>
</g>
</g>
<g transform="translate(27.7713, 41.3926)">
<path transform="scale(0.0040, -0.0040)" d="M222 135c53 0 104 -27 104 -86c0 -71 -56 -120 -103 -148c-36 -22 -76 -36 -118 -36c-53 0 -105 27 -105 86c0 71 57 120 104 148c36 22 76 36 118 36z" fill="currentColor"/>
</g>
<g transform="translate(24.4475, 42.3926)">
<rect x="-0.0460" y="-0.3033" width="0.0920" height="3.3033" ry="0.0222" fill="currentColor"/>
</g>
<g color="rgb(100.0000%, 100.0000%, 100.0000%)">
<g transform="translate(24.4015, 52.8926)">
<rect x="-0.3301" y="-0.6497" width="1.6503" height="1.2994" ry="0.0000" fill="currentColor"/>
</g>
</g>
<g transform="scale(0.7500, 1.0000)">
<g transform="translate(32.0952, 53.5338)">
<text font-family="IPAexGothic" font-weight="bold" font-size="1.7462" text-anchor="start" fill="currentColor">
<tspan>10</tspan>
</text>
</g>
</g>
<g transform="translate(24.4015, 41.8926)">
<path transform="scale(0.0040, -0.0040)" d="M222 135c53 0 104 -27 104 -86c0 -71 -56 -120 -103 -148c-36 -22 -76 -36 -118 -36c-53 0 -105 27 -105 86c0 71 57 120 104 148c36 22 76 36 118 36z" fill="currentColor"/>
</g>
<g transform="translate(3.1614, 65.3926)">
<line stroke-linejoin="round" stroke-linecap="round" stroke-width="0.0708" stroke="currentColor" x1="0.0354" y1="0" x2="60.0315" y2="0"/>
</g>
<g transform="translate(3.1614, 64.3926)">
<line stroke-linejoin="round" stroke-linecap="round" stroke-width="0.0708" stroke="currentColor" x1="0.0354" y1="0" x2="60.0315" y2="0"/>
</g>
<g transform="translate(3.1614, 63.3926)">
<line stroke-linejoin="round" stroke-linecap="round" stroke-width="0.0708" stroke="currentColor" x1="0.0354" y1="0" x2="60.0315" y2="0"/>
</g>
<g transform="translate(3.1614, 62.3926)">
<line stroke-linejoin="round" stroke-linecap="round" stroke-width="0.0708" stroke="currentColor" x1="0.0354" y1="0" x2="60.0315" y2="0"/>
</g>
<g transform="translate(3.1614, 61.3926)">
<line stroke-linejoin="round" stroke-linecap="round" stroke-width="0.0708" stroke="currentColor" x1="0.0354" y1="0" x2="60.0315" y2="0"/>
</g>
<g transform="translate(14.5343, 59.6126)">
<rect x="0.0000" y="5.8154" width="0.1345" height="5.4646" ry="0.0000" fill="currentColor"/>
</g>
<g transform="translate(52.4824, 59.6126)">
<rect x="0.0000" y="5.8154" width="0.1345" height="5.4646" ry="0.0000" fill="currentColor"/>
</g>
<g transform="translate(14.5343, 72.3926)">
<rect x="0.0000" y="-1.5354" width="0.1345" height="3.0354" ry="0.0000" fill="currentColor"/>
</g>
<g transform="translate(38.4445, 72.3926)">
<rect x="0.0000" y="-1.5354" width="0.1345" height="3.0354" ry="0.0000" fill="currentColor"/>
</g>
<g transform="translate(52.4824, 72.3926)">
<rect x="0.0000" y="-1.5354" width="0.1345" height="3.0354" ry="0.0000" fill="currentColor"/>
</g>
<g transform="translate(38.4445, 63.3926)">
<rect x="0.0000" y="-2.0000" width="0.1345" height="4.0354" ry="0.0000" fill="currentColor"/>
</g>
<g transform="translate(63.0938, 63.3926)">
<rect x="0.0000" y="-2.0000" width="0.1345" height="4.0354" ry="0.0000" fill="currentColor"/>
</g>
<g transform="translate(38.4445, 59.6126)">
<rect x="0.0000" y="5.8154" width="0.1345" height="5.4646" ry="0.0000" fill="currentColor"/>
</g>
<g transform="translate(63.0938, 72.3926)">
<rect x="0.0000" y="-1.5354" width="0.1345" height="3.0354" ry="0.0000" fill="currentColor"/>
</g>
<g transform="translate(63.0938, 59.6126)">
<rect x="0.0000" y="5.8154" width="0.1345" height="5.4646" ry="0.0000" fill="currentColor"/>
</g>
<g transform="translate(52.4824, 63.3926)">
<rect x="0.0000" y="-2.0000" width="0.1345" height="4.0354" ry="0.0000" fill="currentColor"/>
</g>
<g transform="translate(14.5343, 63.3926)">
<rect x="0.0000" y="-2.0000" width="0.1345" height="4.0354" ry="0.0000" fill="currentColor"/>
</g>
<g transform="translate(19.5755, 59.6126)">
<rect x="0.0000" y="5.8154" width="0.1345" height="5.4646" ry="0.0000" fill="currentColor"/>
</g>
<g transform="translate(3.1614, 66.3926)">
<rect x="28.9754" y="-0.0854" width="1.9587" height="0.1708" ry="0.0854" fill="currentColor"/>
</g>
<g transform="translate(3.1614, 73.8926)">
<line stroke-linejoin="round" stroke-linecap="round" stroke-width="0.0708" stroke="currentColor" x1="0.0354" y1="0" x2="60.0315" y2="0"/>
</g>
<g transform="translate(3.1614, 72.3926)">
<line stroke-linejoin="round" stroke-linecap="round" stroke-width="0.0708" stroke="currentColor" x1="0.0354" y1="0" x2="60.0315" y2="0"/>
</g>
<g transform="translate(3.1614, 70.8926)">
<line stroke-linejoin="round" stroke-linecap="round" stroke-width="0.0708" stroke="currentColor" x1="0.0354" y1="0" x2="60.0315" y2="0"/>
</g>
<g transform="translate(19.5755, 72.3926)">
<rect x="0.0000" y="-1.5354" width="0.1345" height="3.0354" ry="0.0000" fill="currentColor"/>
</g>
<g transform="translate(19.5755, 63.3926)">
<rect x="0.0000" y="-2.0000" width="0.1345" height="4.0354" ry="0.0000" fill="currentColor"/>
</g>
<g transform="translate(44.5091, 62.4148)">
<path transform="scale(0.0040, -0.0040)" d="M0 0v-250h-14v250h14zM0 0c0 -198 207 -336 207 -534c0 -71 -16 -142 -42 -208c-4 -7 -10 -11 -17 -11c-12 0 -24 10 -21 25c26 62 41 127 41 194c0 104 -96 209 -168 284v250z" fill="currentColor"/>
</g>
<g transform="translate(47.0833, 61.4148)">
<path transform="scale(0.0040, -0.0040)" d="M0 0v-250h-14v250h14zM0 0c0 -198 207 -336 207 -534c0 -71 -16 -142 -42 -208c-4 -7 -10 -11 -17 -11c-12 0 -24 10 -21 25c26 62 41 127 41 194c0 104 -96 209 -168 284v250z" fill="currentColor"/>
</g>
<g transform="translate(47.0373, 63.3926)">
<rect x="-0.0460" y="-2.0000" width="0.0920" height="3.3033" ry="0.0222" fill="currentColor"/>
</g>
<g color="rgb(100.0000%, 100.0000%, 100.0000%)">
<g transform="translate(45.7775, 73.8926)">
<rect x="0.1100" y="-0.6382" width="1.1002" height="1.2764" ry="0.0000" fill="currentColor"/>
</g>
</g>
<g transform="scale(1.0000, 1.0000)">
<g transform="translate(45.8875, 74.5308)">
<text font-family="IPAexGothic" font-weight="bold" font-size="1.7462" text-anchor="start" fill="currentColor">
<tspan>4</tspan>
</text>
</g>
</g>
<g transform="translate(45.7775, 70.1072)">
<text font-family="IPAexGothic" font-size="0.9799" text-anchor="start" fill="currentColor">
<tspan>Ⅲ</tspan>
</text>
</g>
<g transform="translate(43.8634, 72.3926)">
<path stroke-width="0.1200" stroke-linejoin="round" stroke-linecap="square" stroke="currentColor" fill="none" d="M-0.5500 2.3760L0.5500 2.3760"/>
</g>
<g transform="translate(45.7775, 64.8926)">
<path transform="scale(0.0040, -0.0040)" d="M222 135c53 0 104 -27 104 -86c0 -71 -56 -120 -103 -148c-36 -22 -76 -36 -118 -36c-53 0 -105 27 -105 86c0 71 57 120 104 148c36 22 76 36 118 36z" fill="currentColor"/>
</g>
<g transform="translate(51.2075, 60.4148)">
<path transform="scale(0.0040, -0.0040)" d="M0 0v-500h-14v500h14zM0 0c0 -178 201 -293 201 -471c0 -33 -9 -65 -23 -95c18 -37 29 -76 29 -118c0 -63 -16 -125 -42 -183c-4 -7 -10 -11 -17 -11c-12 0 -24 10 -21 25c26 53 41 110 41 169c0 98 -96 192 -168 259v212c0 -119 92 -209 153 -309c6 16 9 34 9 51
c0 97 -92 190 -162 258v213z" fill="currentColor"/>
</g>
<g transform="translate(50.5618, 72.3926)">
<path stroke-width="0.1200" stroke-linejoin="round" stroke-linecap="square" stroke="currentColor" fill="none" d="M-0.5500 1.1760L0.5500 1.1760M-0.5500 0.8760L0.5500 0.8760"/>
</g>
<g transform="translate(48.4517, 63.8926)">
<path transform="scale(0.0040, -0.0040)" d="M215 -316c0 -9 -8 -17 -17 -17s-17 8 -17 17v151l-87 -31v-162c0 -9 -8 -17 -17 -17s-17 8 -17 17v150l-39 -13c-10 -4 -21 4 -21 15v64c0 7 5 13 11 15l49 18v164l-39 -14c-10 -4 -21 4 -21 15v65c0 7 5 13 11 15l49 17v163c0 9 8 17 17 17s17 -8 17 -17v-151l87 31v162
c0 9 8 17 17 17s17 -8 17 -17v-150l39 13c10 4 21 -4 21 -15v-64c0 -7 -5 -13 -11 -15l-49 -18v-164l39 14c10 4 21 -4 21 -15v-65c0 -7 -5 -13 -11 -15l-49 -17v-163zM94 67v-164l87 30v164z" fill="currentColor"/>
</g>
<g transform="translate(46.4376, 72.3926)">
<path stroke-width="0.1200" stroke-linejoin="round" stroke-linecap="square" stroke="currentColor" fill="none" d="M-0.5500 2.3616L0.5500 2.3616"/>
</g>
<g transform="translate(51.1615, 63.3926)">
<rect x="-0.0460" y="-3.0000" width="0.0920" height="3.3033" ry="0.0222" fill="currentColor"/>
</g>
<g color="rgb(100.0000%, 100.0000%, 100.0000%)">
<g transform="translate(49.9017, 72.3926)">
<rect x="0.1100" y="-0.6489" width="1.1002" height="1.2977" ry="0.0000" fill="currentColor"/>
</g>
</g>
<g transform="scale(1.0000, 1.0000)">
<g transform="translate(50.0117, 73.0329)">
<text font-family="IPAexGothic" font-weight="bold" font-size="1.7462" text-anchor="start" fill="currentColor">
<tspan>3</tspan>
</text>
</g>
</g>
<g transform="translate(49.9017, 70.1072)">
<text font-family="IPAexGothic" font-size="0.9799" text-anchor="start" fill="currentColor">
<tspan>Ⅰ</tspan>
</text>
</g>
<g transform="translate(49.9017, 63.8926)">
<path transform="scale(0.0040, -0.0040)" d="M222 135c53 0 104 -27 104 -86c0 -71 -56 -120 -103 -148c-36 -22 -76 -36 -118 -36c-53 0 -105 27 -105 86c0 71 57 120 104 148c36 22 76 36 118 36z" fill="currentColor"/>
</g>
<g transform="translate(41.9348, 62.4148)">
<path transform="scale(0.0040, -0.0040)" d="M0 0v-250h-14v250h14zM0 0c0 -198 207 -336 207 -534c0 -71 -16 -142 -42 -208c-4 -7 -10 -11 -17 -11c-12 0 -24 10 -21 25c26 62 41 127 41 194c0 104 -96 209 -168 284v250z" fill="currentColor"/>
</g>
<g transform="translate(41.8888, 63.3926)">
<rect x="-0.0460" y="-1.0000" width="0.0920" height="3.3033" ry="0.0222" fill="currentColor"/>
</g>
<g color="rgb(100.0000%, 100.0000%, 100.0000%)">
<g transform="translate(40.6290, 73.8926)">
<rect x="0.1100" y="-0.6489" width="1.1002" height="1.2977" ry="0.0000" fill="currentColor"/>
</g>
</g>
<g transform="scale(1.0000, 1.0000)">
<g transform="translate(40.7390, 74.5329)">
<text font-family="IPAexGothic" font-weight="bold" font-size="1.7462" text-anchor="start" fill="currentColor">
<tspan>3</tspan>
</text>
</g>
</g>
<g transform="translate(40.6290, 70.1072)">
<text font-family="IPAexGothic" font-size="0.9799" text-anchor="start" fill="currentColor">
<tspan>Ⅰ</tspan>
</text>
</g>
<g transform="translate(40.6290, 65.8926)">
<path transform="scale(0.0040, -0.0040)" d="M222 135c53 0 104 -27 104 -86c0 -71 -56 -120 -103 -148c-36 -22 -76 -36 -118 -36c-53 0 -105 27 -105 86c0 71 57 120 104 148c36 22 76 36 118 36z" fill="currentColor"/>
</g>
<g transform="translate(36.5240, 72.3926)">
<path stroke-width="0.1200" stroke-linejoin="round" stroke-linecap="square" stroke="currentColor" fill="none" d="M-0.5500 2.6760L0.5500 2.6760M-0.5500 2.3760L0.5500 2.3760"/>
</g>
<g transform="translate(37.1697, 62.4148)">
<path transform="scale(0.0040, -0.0040)" d="M0 0v-500h-14v500h14zM0 0c0 -178 201 -293 201 -471c0 -33 -9 -65 -23 -95c18 -37 29 -76 29 -118c0 -63 -16 -125 -42 -183c-4 -7 -10 -11 -17 -11c-12 0 -24 10 -21 25c26 53 41 110 41 169c0 98 -96 192 -168 259v212c0 -119 92 -209 153 -309c6 16 9 34 9 51
c0 97 -92 190 -162 258v213z" fill="currentColor"/>
</g>
<g transform="translate(8.5764, 63.3926)">
<path stroke-width="0.0566" stroke-linejoin="round" stroke-linecap="round" stroke="currentColor" fill="currentColor" d="M0.5586 1.5389C1.1633 2.4109 2.5707 2.7233 3.4875 2.1889L3.4875 2.1889C2.5891 2.6403 1.1817 2.3280 0.5586 1.5389z"/>
</g>
<g transform="translate(44.4630, 63.3926)">
<rect x="-0.0460" y="-1.0000" width="0.0920" height="3.3033" ry="0.0222" fill="currentColor"/>
</g>
<g color="rgb(100.0000%, 100.0000%, 100.0000%)">
<g transform="translate(43.2033, 73.8926)">
<rect x="0.1100" y="-0.6489" width="1.1002" height="1.2977" ry="0.0000" fill="currentColor"/>
</g>
</g>
<g transform="scale(1.0000, 1.0000)">
<g transform="translate(43.3133, 74.5329)">
<text font-family="IPAexGothic" font-weight="bold" font-size="1.7462" text-anchor="start" fill="currentColor">
<tspan>3</tspan>
</text>
</g>
</g>
<g transform="translate(43.2033, 70.1072)">
<text font-family="IPAexGothic" font-size="0.9799" text-anchor="start" fill="currentColor">
<tspan>Ⅰ</tspan>
</text>
</g>
<g transform="translate(43.2033, 65.8926)">
<path transform="scale(0.0040, -0.0040)" d="M222 135c53 0 104 -27 104 -86c0 -71 -56 -120 -103 -148c-36 -22 -76 -36 -118 -36c-53 0 -105 27 -105 86c0 71 57 120 104 148c36 22 76 36 118 36z" fill="currentColor"/>
</g>
<g transform="translate(41.2891, 72.3926)">
<path stroke-width="0.1200" stroke-linejoin="round" stroke-linecap="square" stroke="currentColor" fill="none" d="M-0.5500 2.3760L0.5500 2.3760"/>
</g>
<g transform="translate(39.1790, 65.8926)">
<path transform="scale(0.0040, -0.0040)" d="M215 -316c0 -9 -8 -17 -17 -17s-17 8 -17 17v151l-87 -31v-162c0 -9 -8 -17 -17 -17s-17 8 -17 17v150l-39 -13c-10 -4 -21 4 -21 15v64c0 7 5 13 11 15l49 18v164l-39 -14c-10 -4 -21 4 -21 15v65c0 7 5 13 11 15l49 17v163c0 9 8 17 17 17s17 -8 17 -17v-151l87 31v162
c0 9 8 17 17 17s17 -8 17 -17v-150l39 13c10 4 21 -4 21 -15v-64c0 -7 -5 -13 -11 -15l-49 -18v-164l39 14c10 4 21 -4 21 -15v-65c0 -7 -5 -13 -11 -15l-49 -17v-163zM94 67v-164l87 30v164z" fill="currentColor"/>
</g>
<g transform="translate(60.9664, 70.1072)">
<text font-family="IPAexGothic" font-size="0.9799" text-anchor="start" fill="currentColor">
<tspan>Ⅰ</tspan>
</text>
</g>
<g transform="translate(61.6265, 72.3926)">
<path stroke-width="0.1200" stroke-linejoin="round" stroke-linecap="square" stroke="currentColor" fill="none" d="M-0.5500 0.8760L0.5500 0.8760"/>
</g>
<g transform="translate(59.5164, 63.8926)">
<path transform="scale(0.0040, -0.0040)" d="M215 -316c0 -9 -8 -17 -17 -17s-17 8 -17 17v151l-87 -31v-162c0 -9 -8 -17 -17 -17s-17 8 -17 17v150l-39 -13c-10 -4 -21 4 -21 15v64c0 7 5 13 11 15l49 18v164l-39 -14c-10 -4 -21 4 -21 15v65c0 7 5 13 11 15l49 17v163c0 9 8 17 17 17s17 -8 17 -17v-151l87 31v162
c0 9 8 17 17 17s17 -8 17 -17v-150l39 13c10 4 21 -4 21 -15v-64c0 -7 -5 -13 -11 -15l-49 -18v-164l39 14c10 4 21 -4 21 -15v-65c0 -7 -5 -13 -11 -15l-49 -17v-163zM94 67v-164l87 30v164z" fill="currentColor"/>
</g>
<g transform="translate(62.2262, 63.3926)">
<rect x="-0.0460" y="-2.2019" width="0.0920" height="2.5051" ry="0.0222" fill="currentColor"/>
</g>
<g color="rgb(100.0000%, 100.0000%, 100.0000%)">
<g transform="translate(60.9664, 72.3926)">
<rect x="0.1100" y="-0.6489" width="1.1002" height="1.2977" ry="0.0000" fill="currentColor"/>
</g>
</g>
<g transform="scale(1.0000, 1.0000)">
<g transform="translate(61.0764, 73.0329)">
<text font-family="IPAexGothic" font-weight="bold" font-size="1.7462" text-anchor="start" fill="currentColor">
<tspan>3</tspan>
</text>
</g>
</g>
<g transform="translate(60.9664, 63.8926)">
<path transform="scale(0.0040, -0.0040)" d="M222 135c53 0 104 -27 104 -86c0 -71 -56 -120 -103 -148c-36 -22 -76 -36 -118 -36c-53 0 -105 27 -105 86c0 71 57 120 104 148c36 22 76 36 118 36z" fill="currentColor"/>
</g>
<g transform="translate(58.2835, 72.3926)">
<path stroke-width="0.1200" stroke-linejoin="round" stroke-linecap="square" stroke="currentColor" fill="none" d="M-0.5500 0.8760L0.5500 0.8760"/>
</g>
<g transform="translate(8.5764, 72.3926)">
<path stroke-width="0.0566" stroke-linejoin="round" stroke-linecap="round" stroke="currentColor" fill="currentColor" d="M0.6601 2.8989C1.4764 3.6405 2.7727 3.6405 3.5890 2.8989L3.5890 2.8989C2.7727 3.5556 1.4764 3.5556 0.6601 2.8989z"/>
</g>
<g transform="translate(16.5465, 63.3926)">
<path stroke-width="0.0566" stroke-linejoin="round" stroke-linecap="round" stroke="currentColor" fill="currentColor" d="M0.6155 2.1889C1.5232 3.1718 3.6099 3.3518 4.6726 2.5389L4.6726 2.5389C3.6172 3.2672 1.5305 3.0872 0.6155 2.1889z"/>
</g>
<g transform="translate(16.5465, 72.3926)">
<path stroke-width="0.0566" stroke-linejoin="round" stroke-linecap="round" stroke="currentColor" fill="currentColor" d="M0.6612 2.8989C1.6615 3.8019 3.3760 3.7970 4.3712 2.8882L4.3712 2.8882C3.3758 3.7120 1.6613 3.7170 0.6612 2.8989z"/>
</g>
<g transform="translate(54.7467, 61.3926)">
<polygon stroke-linejoin="round" stroke-linecap="round" stroke-width="0.0444" fill="currentColor" stroke="currentColor" points="2.1150 -0.0132 2.1150 0.4224 0.0222 0.2178 0.0222 -0.2178"/>
</g>
<g transform="translate(58.8371, 61.3926)">
<polygon stroke-linejoin="round" stroke-linecap="round" stroke-width="0.0444" fill="currentColor" stroke="currentColor" points="3.4128 -0.4224 3.4128 0.0132 0.0222 0.2178 0.0222 -0.2178"/>
</g>
<g transform="translate(58.8831, 63.3926)">
<rect x="-0.0460" y="-2.0027" width="0.0920" height="2.8060" ry="0.0222" fill="currentColor"/>
</g>
<g transform="translate(54.1930, 72.3926)">
<path stroke-width="0.1200" stroke-linejoin="round" stroke-linecap="square" stroke="currentColor" fill="none" d="M-0.5500 0.8760L0.5500 0.8760"/>
</g>
<g transform="translate(54.7927, 63.3926)">
<rect x="-0.0460" y="-1.9956" width="0.0920" height="2.7989" ry="0.0222" fill="currentColor"/>
</g>
<g color="rgb(100.0000%, 100.0000%, 100.0000%)">
<g transform="translate(53.5329, 72.3926)">
<rect x="0.1100" y="-0.6489" width="1.1002" height="1.2977" ry="0.0000" fill="currentColor"/>
</g>
</g>
<g transform="scale(1.0000, 1.0000)">
<g transform="translate(53.6430, 73.0329)">
<text font-family="IPAexGothic" font-weight="bold" font-size="1.7462" text-anchor="start" fill="currentColor">
<tspan>0</tspan>
</text>
</g>
</g>
<g color="rgb(100.0000%, 100.0000%, 100.0000%)">
<g transform="translate(57.6234, 72.3926)">
<rect x="0.1100" y="-0.6489" width="1.1002" height="1.2977" ry="0.0000" fill="currentColor"/>
</g>
</g>
<g transform="scale(1.0000, 1.0000)">
<g transform="translate(57.7334, 73.0329)">
<text font-family="IPAexGothic" font-weight="bold" font-size="1.7462" text-anchor="start" fill="currentColor">
<tspan>0</tspan>
</text>
</g>
</g>
<g transform="translate(57.6234, 64.3926)">
<path transform="scale(0.0040, -0.0040)" d="M222 135c53 0 104 -27 104 -86c0 -71 -56 -120 -103 -148c-36 -22 -76 -36 -118 -36c-53 0 -105 27 -105 86c0 71 57 120 104 148c36 22 76 36 118 36z" fill="currentColor"/>
</g>
<g transform="translate(56.2383, 72.3926)">
<path stroke-width="0.1200" stroke-linejoin="round" stroke-linecap="square" stroke="currentColor" fill="none" d="M-0.5500 2.3616L0.5500 2.3616"/>
</g>
<g transform="translate(53.5329, 64.3926)">
<path transform="scale(0.0040, -0.0040)" d="M222 135c53 0 104 -27 104 -86c0 -71 -56 -120 -103 -148c-36 -22 -76 -36 -118 -36c-53 0 -105 27 -105 86c0 71 57 120 104 148c36 22 76 36 118 36z" fill="currentColor"/>
</g>
<g transform="translate(56.8379, 63.3926)">
<rect x="-0.0460" y="-1.7998" width="0.0920" height="3.1031" ry="0.0222" fill="currentColor"/>
</g>
<g color="rgb(100.0000%, 100.0000%, 100.0000%)">
<g transform="translate(55.5781, 73.8926)">
<rect x="0.1100" y="-0.6382" width="1.1002" height="1.2764" ry="0.0000" fill="currentColor"/>
</g>
</g>
<g transform="scale(1.0000, 1.0000)">
<g transform="translate(55.6882, 74.5308)">
<text font-family="IPAexGothic" font-weight="bold" font-size="1.7462" text-anchor="start" fill="currentColor">
<tspan>4</tspan>
</text>
</g>
</g>
<g transform="translate(55.5781, 70.1072)">
<text font-family="IPAexGothic" font-size="0.9799" text-anchor="start" fill="currentColor">
<tspan>Ⅲ</tspan>
</text>
</g>
<g transform="translate(55.5781, 64.8926)">
<path transform="scale(0.0040, -0.0040)" d="M222 135c53 0 104 -27 104 -86c0 -71 -56 -120 -103 -148c-36 -22 -76 -36 -118 -36c-53 0 -105 27 -105 86c0 71 57 120 104 148c36 22 76 36 118 36z" fill="currentColor"/>
</g>
<g transform="translate(17.8063, 63.3926)">
<rect x="-0.0460" y="-2.5000" width="0.0920" height="3.3033" ry="0.0222" fill="currentColor"/>
</g>
<g color="rgb(100.0000%, 100.0000%, 100.0000%)">
<g transform="translate(16.5465, 73.8926)">
<rect x="0.1100" y="-0.6489" width="1.1002" height="1.2977" ry="0.0000" fill="currentColor"/>
</g>
</g>
<g transform="scale(1.0000, 1.0000)">
<g transform="translate(16.6565, 74.5329)">
<text font-family="IPAexGothic" font-weight="bold" font-size="1.7462" text-anchor="start" fill="currentColor">
<tspan>6</tspan>
</text>
</g>
</g>
<g transform="translate(16.5465, 64.3926)">
<path transform="scale(0.0040, -0.0040)" d="M222 135c53 0 104 -27 104 -86c0 -71 -56 -120 -103 -148c-36 -22 -76 -36 -118 -36c-53 0 -105 27 -105 86c0 71 57 120 104 148c36 22 76 36 118 36z" fill="currentColor"/>
</g>
<g transform="translate(21.2637, 72.3926)">
<path stroke-width="0.1200" stroke-linejoin="round" stroke-linecap="square" stroke="currentColor" fill="none" d="M-0.5500 2.3616L0.5500 2.3616"/>
</g>
<g transform="translate(37.1237, 63.3926)">
<rect x="-0.0460" y="-1.0000" width="0.0920" height="3.3033" ry="0.0222" fill="currentColor"/>
</g>
<g transform="translate(21.9094, 61.4148)">
<path transform="scale(0.0040, -0.0040)" d="M0 0v-250h-14v250h14zM0 0c0 -198 207 -336 207 -534c0 -71 -16 -142 -42 -208c-4 -7 -10 -11 -17 -11c-12 0 -24 10 -21 25c26 62 41 127 41 194c0 104 -96 209 -168 284v250z" fill="currentColor"/>
</g>
<g transform="translate(21.8634, 63.3926)">
<rect x="-0.0460" y="-2.0000" width="0.0920" height="3.3033" ry="0.0222" fill="currentColor"/>
</g>
<g color="rgb(100.0000%, 100.0000%, 100.0000%)">
<g transform="translate(20.6036, 73.8926)">
<rect x="0.1100" y="-0.6382" width="1.1002" height="1.2764" ry="0.0000" fill="currentColor"/>
</g>
</g>
<g transform="scale(1.0000, 1.0000)">
<g transform="translate(20.7136, 74.5308)">
<text font-family="IPAexGothic" font-weight="bold" font-size="1.7462" text-anchor="start" fill="currentColor">
<tspan>4</tspan>
</text>
</g>
</g>
<g transform="translate(20.6036, 64.8926)">
<path transform="scale(0.0040, -0.0040)" d="M222 135c53 0 104 -27 104 -86c0 -71 -56 -120 -103 -148c-36 -22 -76 -36 -118 -36c-53 0 -105 27 -105 86c0 71 57 120 104 148c36 22 76 36 118 36z" fill="currentColor"/>
</g>
<g transform="translate(4.5511, 67.9261)">
<text font-family="IPAexGothic" font-style="italic" font-size="1.3859" text-anchor="start" fill="currentColor">
<tspan>8</tspan>
</text>
</g>
<g transform="translate(3.9614, 64.3926)">
<path transform="scale(0.0040, -0.0040)" d="M374 260c5 0 10 1 15 1c154 0 254 -127 254 -259c0 -76 -33 -153 -107 -208c-22 -17 -47 -29 -73 -37c3 -36 5 -72 5 -108c0 -19 0 -37 -1 -56c-7 -120 -88 -226 -206 -226c-108 0 -195 87 -195 195c0 58 53 104 112 104c54 0 95 -48 95 -104c0 -52 -43 -95 -95 -95
c-12 0 -24 4 -35 9c26 -41 70 -70 121 -70c1 0 2 1 3 1c93 2 154 93 160 192c1 18 2 35 2 53c0 32 -2 64 -5 96c-29 -5 -58 -8 -89 -8c-188 0 -333 171 -333 372c0 178 133 306 251 440c-18 63 -35 126 -42 191c-6 51 -7 102 -7 154c0 116 55 226 150 295c5 4 11 4 16 0
c70 -84 132 -246 132 -359c0 -144 -87 -256 -183 -365c20 -69 39 -138 55 -208zM459 -205c69 24 117 96 117 166c0 92 -69 184 -179 193c25 -117 48 -235 62 -359zM71 31c0 -136 131 -251 267 -251c28 0 55 2 82 6c-15 128 -38 247 -64 367c-79 -9 -125 -62 -125 -121
c0 -44 26 -92 82 -124c4 -4 7 -9 7 -14c0 -11 -9 -21 -20 -21c-3 0 -6 1 -9 2c-80 43 -116 114 -116 184c0 88 57 173 158 196c-14 60 -30 119 -46 178c-108 -121 -216 -242 -216 -402zM411 1050c-99 -50 -161 -151 -161 -262c0 -76 15 -137 33 -200c82 97 149 198 149 325
c0 58 -4 84 -21 137z" fill="currentColor"/>
</g>
<g transform="translate(3.1481, 67.6426)">
<rect x="0.0000" y="-6.2854" width="0.1133" height="12.5708" ry="0.0354" fill="currentColor"/>
</g>
<g transform="translate(1.8981, 61.1322)">
<path transform="scale(0.0040, -0.0040)" d="M0 -56v91c0 12 10 21 22 21h43c164 0 281 136 377 272c10 14 32 -1 22 -15c-103 -145 -222 -369 -399 -369h-65z" fill="currentColor"/>
</g>
<g transform="translate(1.8981, 74.1530)">
<path transform="scale(0.0040, -0.0040)" d="M0 56h65c177 0 296 -224 399 -369c10 -14 -12 -29 -22 -15c-96 136 -213 272 -377 272h-43c-12 0 -22 9 -22 21v91z" fill="currentColor"/>
</g>
<g transform="translate(1.8981, 67.6426)">
<rect x="0.0000" y="-6.3304" width="0.4500" height="12.6608" ry="0.0000" fill="currentColor"/>
</g>
<g transform="translate(12.7651, 63.3926)">
<rect x="-0.0460" y="-2.5000" width="0.0920" height="3.3033" ry="0.0222" fill="currentColor"/>
</g>
<g color="rgb(100.0000%, 100.0000%, 100.0000%)">
<g transform="translate(11.5053, 73.8926)">
<rect x="0.1100" y="-0.6489" width="1.1002" height="1.2977" ry="0.0000" fill="currentColor"/>
</g>
</g>
<g transform="scale(1.0000, 1.0000)">
<g transform="translate(11.6153, 74.5329)">
<text font-family="IPAexGothic" font-weight="bold" font-size="1.7462" text-anchor="start" fill="currentColor">
<tspan>6</tspan>
</text>
</g>
</g>
<g transform="translate(11.5053, 64.3926)">
<path transform="scale(0.0040, -0.0040)" d="M222 135c53 0 104 -27 104 -86c0 -71 -56 -120 -103 -148c-36 -22 -76 -36 -118 -36c-53 0 -105 27 -105 86c0 71 57 120 104 148c36 22 76 36 118 36z" fill="currentColor"/>
</g>
<g transform="translate(7.1264, 63.8926)">
<path transform="scale(0.0040, -0.0040)" d="M215 -316c0 -9 -8 -17 -17 -17s-17 8 -17 17v151l-87 -31v-162c0 -9 -8 -17 -17 -17s-17 8 -17 17v150l-39 -13c-10 -4 -21 4 -21 15v64c0 7 5 13 11 15l49 18v164l-39 -14c-10 -4 -21 4 -21 15v65c0 7 5 13 11 15l49 17v163c0 9 8 17 17 17s17 -8 17 -17v-151l87 31v162
c0 9 8 17 17 17s17 -8 17 -17v-150l39 13c10 4 21 -4 21 -15v-64c0 -7 -5 -13 -11 -15l-49 -18v-164l39 14c10 4 21 -4 21 -15v-65c0 -7 -5 -13 -11 -15l-49 -17v-163zM94 67v-164l87 30v164z" fill="currentColor"/>
</g>
<g transform="translate(9.8362, 63.3926)">
<rect x="-0.0460" y="-3.0000" width="0.0920" height="3.3033" ry="0.0222" fill="currentColor"/>
</g>
<g color="rgb(100.0000%, 100.0000%, 100.0000%)">
<g transform="translate(8.5764, 73.8926)">
<rect x="0.1100" y="-0.6489" width="1.1002" height="1.2977" ry="0.0000" fill="currentColor"/>
</g>
</g>
<g transform="scale(1.0000, 1.0000)">
<g transform="translate(8.6865, 74.5329)">
<text font-family="IPAexGothic" font-weight="bold" font-size="1.7462" text-anchor="start" fill="currentColor">
<tspan>9</tspan>
</text>
</g>
</g>
<g transform="translate(8.5764, 63.8926)">
<path transform="scale(0.0040, -0.0040)" d="M222 135c53 0 104 -27 104 -86c0 -71 -56 -120 -103 -148c-36 -22 -76 -36 -118 -36c-53 0 -105 27 -105 86c0 71 57 120 104 148c36 22 76 36 118 36z" fill="currentColor"/>
</g>
<g transform="translate(32.4633, 66.3926)">
<path transform="scale(0.0040, -0.0040)" d="M222 135c53 0 104 -27 104 -86c0 -71 -56 -120 -103 -148c-36 -22 -76 -36 -118 -36c-53 0 -105 27 -105 86c0 71 57 120 104 148c36 22 76 36 118 36z" fill="currentColor"/>
</g>
<g transform="translate(30.5428, 72.3926)">
<path stroke-width="0.1200" stroke-linejoin="round" stroke-linecap="square" stroke="currentColor" fill="none" d="M-0.5500 2.6760L0.5500 2.6760M-0.5500 2.3760L0.5500 2.3760"/>
</g>
<g transform="translate(28.4327, 65.8926)">
<path transform="scale(0.0040, -0.0040)" d="M215 -316c0 -9 -8 -17 -17 -17s-17 8 -17 17v151l-87 -31v-162c0 -9 -8 -17 -17 -17s-17 8 -17 17v150l-39 -13c-10 -4 -21 4 -21 15v64c0 7 5 13 11 15l49 18v164l-39 -14c-10 -4 -21 4 -21 15v65c0 7 5 13 11 15l49 17v163c0 9 8 17 17 17s17 -8 17 -17v-151l87 31v162
c0 9 8 17 17 17s17 -8 17 -17v-150l39 13c10 4 21 -4 21 -15v-64c0 -7 -5 -13 -11 -15l-49 -18v-164l39 14c10 4 21 -4 21 -15v-65c0 -7 -5 -13 -11 -15l-49 -17v-163zM94 67v-164l87 30v164z" fill="currentColor"/>
</g>
<g transform="translate(32.4633, 70.1072)">
<text font-family="IPAexGothic" font-size="0.9799" text-anchor="start" fill="currentColor">
<tspan>Ⅰ</tspan>
</text>
</g>
<g transform="translate(31.1885, 62.4148)">
<path transform="scale(0.0040, -0.0040)" d="M0 0v-500h-14v500h14zM0 0c0 -178 201 -293 201 -471c0 -33 -9 -65 -23 -95c18 -37 29 -76 29 -118c0 -63 -16 -125 -42 -183c-4 -7 -10 -11 -17 -11c-12 0 -24 10 -21 25c26 53 41 110 41 169c0 98 -96 192 -168 259v212c0 -119 92 -209 153 -309c6 16 9 34 9 51
c0 97 -92 190 -162 258v213z" fill="currentColor"/>
</g>
<g transform="translate(31.1425, 63.3926)">
<rect x="-0.0460" y="-1.0000" width="0.0920" height="3.3033" ry="0.0222" fill="currentColor"/>
</g>
<g color="rgb(100.0000%, 100.0000%, 100.0000%)">
<g transform="translate(29.8827, 73.8926)">
<rect x="0.1100" y="-0.6489" width="1.1002" height="1.2977" ry="0.0000" fill="currentColor"/>
</g>
</g>
<g transform="scale(1.0000, 1.0000)">
<g transform="translate(29.9927, 74.5329)">
<text font-family="IPAexGothic" font-weight="bold" font-size="1.7462" text-anchor="start" fill="currentColor">
<tspan>3</tspan>
</text>
</g>
</g>
<g transform="translate(30.5468, 75.8556)">
<path stroke-width="0.1200" stroke-linejoin="miter" stroke-linecap="square" stroke="currentColor" fill="none" d="M-0.2120 -0.3340C-0.2890 -0.0530 -0.4090 0.1570 -0.5530 0.3380M0.1550 -0.3520C0.3280 -0.1060 0.4580 0.1140 0.5450 0.3070"/>
</g>
<g transform="translate(29.8827, 70.1072)">
<text font-family="IPAexGothic" font-size="0.9799" text-anchor="start" fill="currentColor">
<tspan>Ⅲ</tspan>
</text>
</g>
<g transform="translate(29.8827, 65.8926)">
<path transform="scale(0.0040, -0.0040)" d="M222 135c53 0 104 -27 104 -86c0 -71 -56 -120 -103 -148c-36 -22 -76 -36 -118 -36c-53 0 -105 27 -105 86c0 71 57 120 104 148c36 22 76 36 118 36z" fill="currentColor"/>
</g>
<g transform="translate(33.1234, 72.3926)">
<path stroke-width="0.1200" stroke-linejoin="round" stroke-linecap="square" stroke="currentColor" fill="none" d="M-0.5500 2.6760L0.5500 2.6760M-0.5500 2.3760L0.5500 2.3760"/>
</g>
<g color="rgb(100.0000%, 100.0000%, 100.0000%)">
<g transform="translate(35.8639, 73.8926)">
<rect x="0.1100" y="-0.6489" width="1.1002" height="1.2977" ry="0.0000" fill="currentColor"/>
</g>
</g>
<g transform="scale(1.0000, 1.0000)">
<g transform="translate(35.9739, 74.5329)">
<text font-family="IPAexGothic" font-weight="bold" font-size="1.7462" text-anchor="start" fill="currentColor">
<tspan>3</tspan>
</text>
</g>
</g>
<g transform="translate(35.8639, 70.1072)">
<text font-family="IPAexGothic" font-size="0.9799" text-anchor="start" fill="currentColor">
<tspan>Ⅰ</tspan>
</text>
</g>
<g transform="translate(35.8639, 65.8926)">
<path transform="scale(0.0040, -0.0040)" d="M222 135c53 0 104 -27 104 -86c0 -71 -56 -120 -103 -148c-36 -22 -76 -36 -118 -36c-53 0 -105 27 -105 86c0 71 57 120 104 148c36 22 76 36 118 36z" fill="currentColor"/>
</g>
<g transform="translate(34.9201, 73.1426)">
<path transform="scale(0.0040, -0.0040)" d="M0 0c0 32 25 57 57 57s57 -25 57 -57s-25 -57 -57 -57s-57 25 -57 57z" fill="currentColor"/>
</g>
<g transform="translate(33.7691, 62.9148)">
<path transform="scale(0.0040, -0.0040)" d="M0 0v-500h-14v500h14zM0 0c0 -178 201 -293 201 -471c0 -33 -9 -65 -23 -95c18 -37 29 -76 29 -118c0 -63 -16 -125 -42 -183c-4 -7 -10 -11 -17 -11c-12 0 -24 10 -21 25c26 53 41 110 41 169c0 98 -96 192 -168 259v212c0 -119 92 -209 153 -309c6 16 9 34 9 51
c0 97 -92 190 -162 258v213z" fill="currentColor"/>
</g>
<g transform="translate(33.7231, 63.3926)">
<rect x="-0.0460" y="-0.5000" width="0.0920" height="3.3033" ry="0.0222" fill="currentColor"/>
</g>
<g transform="translate(35.0071, 65.8926)">
<path transform="scale(0.0040, -0.0040)" d="M0 0c0 32 25 57 57 57s57 -25 57 -57s-25 -57 -57 -57s-57 25 -57 57z" fill="currentColor"/>
</g>
<g color="rgb(100.0000%, 100.0000%, 100.0000%)">
<g transform="translate(32.4633, 73.8926)">
<rect x="0.1100" y="-0.6489" width="1.1002" height="1.2977" ry="0.0000" fill="currentColor"/>
</g>
</g>
<g transform="scale(1.0000, 1.0000)">
<g transform="translate(32.5733, 74.5329)">
<text font-family="IPAexGothic" font-weight="bold" font-size="1.7462" text-anchor="start" fill="currentColor">
<tspan>0</tspan>
</text>
</g>
</g>
<g transform="translate(33.1274, 75.8556)">
<path stroke-width="0.1200" stroke-linejoin="miter" stroke-linecap="square" stroke="currentColor" fill="none" d="M-0.2120 -0.3340C-0.2890 -0.0530 -0.4090 0.1570 -0.5530 0.3380M0.1550 -0.3520C0.3280 -0.1060 0.4580 0.1140 0.5450 0.3070"/>
</g>
<g transform="translate(23.8379, 72.3926)">
<path stroke-width="0.1200" stroke-linejoin="round" stroke-linecap="square" stroke="currentColor" fill="none" d="M-0.5500 2.3616L0.5500 2.3616"/>
</g>
<g transform="translate(24.4836, 61.4148)">
<path transform="scale(0.0040, -0.0040)" d="M0 0v-250h-14v250h14zM0 0c0 -198 207 -336 207 -534c0 -71 -16 -142 -42 -208c-4 -7 -10 -11 -17 -11c-12 0 -24 10 -21 25c26 62 41 127 41 194c0 104 -96 209 -168 284v250z" fill="currentColor"/>
</g>
<g transform="translate(24.4376, 63.3926)">
<rect x="-0.0460" y="-2.0000" width="0.0920" height="3.3033" ry="0.0222" fill="currentColor"/>
</g>
<g color="rgb(100.0000%, 100.0000%, 100.0000%)">
<g transform="translate(23.1778, 73.8926)">
<rect x="0.1100" y="-0.6382" width="1.1002" height="1.2764" ry="0.0000" fill="currentColor"/>
</g>
</g>
<g transform="scale(1.0000, 1.0000)">
<g transform="translate(23.2878, 74.5308)">
<text font-family="IPAexGothic" font-weight="bold" font-size="1.7462" text-anchor="start" fill="currentColor">
<tspan>4</tspan>
</text>
</g>
</g>
<g transform="translate(23.1778, 64.8926)">
<path transform="scale(0.0040, -0.0040)" d="M222 135c53 0 104 -27 104 -86c0 -71 -56 -120 -103 -148c-36 -22 -76 -36 -118 -36c-53 0 -105 27 -105 86c0 71 57 120 104 148c36 22 76 36 118 36z" fill="currentColor"/>
</g>
<g transform="translate(26.4122, 72.3926)">
<path stroke-width="0.1200" stroke-linejoin="round" stroke-linecap="square" stroke="currentColor" fill="none" d="M-0.5500 2.6616L0.5500 2.6616M-0.5500 2.3616L0.5500 2.3616"/>
</g>
<g transform="translate(27.0579, 61.4148)">
<path transform="scale(0.0040, -0.0040)" d="M0 0v-500h-14v500h14zM0 0c0 -178 201 -293 201 -471c0 -33 -9 -65 -23 -95c18 -37 29 -76 29 -118c0 -63 -16 -125 -42 -183c-4 -7 -10 -11 -17 -11c-12 0 -24 10 -21 25c26 53 41 110 41 169c0 98 -96 192 -168 259v212c0 -119 92 -209 153 -309c6 16 9 34 9 51
c0 97 -92 190 -162 258v213z" fill="currentColor"/>
</g>
<g transform="translate(27.0118, 63.3926)">
<rect x="-0.0460" y="-2.0000" width="0.0920" height="3.3033" ry="0.0222" fill="currentColor"/>
</g>
<g color="rgb(100.0000%, 100.0000%, 100.0000%)">
<g transform="translate(25.7521, 73.8926)">
<rect x="0.1100" y="-0.6382" width="1.1002" height="1.2764" ry="0.0000" fill="currentColor"/>
</g>
</g>
<g transform="scale(1.0000, 1.0000)">
<g transform="translate(25.8621, 74.5308)">
<text font-family="IPAexGothic" font-weight="bold" font-size="1.7462" text-anchor="start" fill="currentColor">
<tspan>4</tspan>
</text>
</g>
</g>
<g transform="translate(25.7521, 70.1072)">
<text font-family="IPAexGothic" font-size="0.9799" text-anchor="start" fill="currentColor">
<tspan>Ⅲ</tspan>
</text>
</g>
<g transform="translate(25.7521, 64.8926)">
<path transform="scale(0.0040, -0.0040)" d="M222 135c53 0 104 -27 104 -86c0 -71 -56 -120 -103 -148c-36 -22 -76 -36 -118 -36c-53 0 -105 27 -105 86c0 71 57 120 104 148c36 22 76 36 118 36z" fill="currentColor"/>
</g>
</svg>
